<svg width="48" height="48" viewBox="0 0 48 48" fill="none" xmlns="http://www.w3.org/2000/svg">
<path d="M0 0.999999C0 0.447714 0.447715 0 1 0H48V48H0.999999C0.447714 48 0 47.5523 0 47V0.999999Z" fill="#594E4E"/>
<path d="M16 10C12.6871 10 10 12.6871 10 16V23.998C10 27.3116 12.6871 29.9979 16 29.9979C19.3124 29.9979 21.9998 27.3121 21.9998 23.998H18C18 25.1011 17.1046 25.9975 16 25.9975C14.8954 25.9975 14.0001 25.1011 14.0001 23.998V16C14.0001 14.8949 14.8958 14.0001 16 14.0001C17.1041 14.0001 18 14.8949 18 16H21.9999C21.9999 12.6871 19.3124 10 16 10Z" fill="white"/>
<path d="M10.0001 37.9994H37.9994L38 34.0001H10.0001V37.9994Z" fill="white"/>
<path d="M28.9996 29.9997H33L37.9993 10.0001H33.8767L30.9997 21.5078L28.1227 10.0001H23.9997L28.9996 29.9997Z" fill="white"/>
</svg>
