<svg width="24" height="24" viewBox="0 0 24 24" fill="none" xmlns="http://www.w3.org/2000/svg">
<rect x="23.875" y="23.875" width="23.75" height="23.75" rx="0.375" transform="rotate(180 23.875 23.875)" fill="#F9F9F9" stroke="#F52A2A" stroke-width="0.25"/>
<path d="M5.87174 7.12906C5.78495 7.04227 5.78496 6.90157 5.87174 6.81479L6.81455 5.87198C6.90133 5.78519 7.04203 5.78519 7.12882 5.87198L13.1 11.8431C13.1867 11.9299 13.1867 12.0706 13.1 12.1574L12.1572 13.1002C12.0704 13.187 11.9297 13.187 11.8429 13.1002L5.87174 7.12906Z" fill="#F52A2A"/>
<path d="M12.1572 13.1002C12.0704 13.187 11.9297 13.187 11.8429 13.1002L10.9001 12.1574C10.8133 12.0706 10.8133 11.9299 10.9001 11.8431L16.8712 5.87197C16.958 5.78519 17.0987 5.78519 17.1854 5.87197L18.1283 6.81479C18.215 6.90157 18.215 7.04227 18.1283 7.12906L12.1572 13.1002Z" fill="#F52A2A"/>
<path d="M5.87174 7.12906C5.78495 7.04227 5.78496 6.90157 5.87174 6.81479L6.81455 5.87198C6.90133 5.78519 7.04203 5.78519 7.12882 5.87198L13.1 11.8431C13.1867 11.9299 13.1867 12.0706 13.1 12.1574L12.1572 13.1002C12.0704 13.187 11.9297 13.187 11.8429 13.1002L5.87174 7.12906Z" fill="#F52A2A"/>
<path d="M12.1572 13.1002C12.0704 13.187 11.9297 13.187 11.8429 13.1002L10.9001 12.1574C10.8133 12.0706 10.8133 11.9299 10.9001 11.8431L16.8712 5.87197C16.958 5.78519 17.0987 5.78519 17.1854 5.87197L18.1283 6.81479C18.215 6.90157 18.215 7.04227 18.1283 7.12906L12.1572 13.1002Z" fill="#F52A2A"/>
<path d="M7.12885 18.1285C7.04206 18.2153 6.90136 18.2153 6.81458 18.1285L5.87176 17.1857C5.78498 17.0989 5.78498 16.9582 5.87176 16.8714L11.8429 10.9003C11.9297 10.8135 12.0704 10.8135 12.1572 10.9003L13.1 11.8431C13.1867 11.9299 13.1867 12.0706 13.1 12.1574L7.12885 18.1285Z" fill="#F52A2A"/>
<path d="M13.1 11.8431C13.1867 11.9299 13.1867 12.0706 13.1 12.1574L12.1572 13.1002C12.0704 13.187 11.9297 13.187 11.8429 13.1002L5.87174 7.12906C5.78495 7.04227 5.78496 6.90157 5.87174 6.81479L6.81455 5.87198C6.90133 5.78519 7.04203 5.78519 7.12882 5.87198L13.1 11.8431Z" fill="#F52A2A"/>
<path d="M7.12885 18.1285C7.04206 18.2153 6.90136 18.2153 6.81458 18.1285L5.87176 17.1857C5.78498 17.0989 5.78498 16.9582 5.87176 16.8714L11.8429 10.9003C11.9297 10.8135 12.0704 10.8135 12.1572 10.9003L13.1 11.8431C13.1867 11.9299 13.1867 12.0706 13.1 12.1574L7.12885 18.1285Z" fill="#F52A2A"/>
<path d="M13.1 11.8431C13.1867 11.9299 13.1867 12.0706 13.1 12.1574L12.1572 13.1002C12.0704 13.187 11.9297 13.187 11.8429 13.1002L5.87174 7.12906C5.78495 7.04227 5.78496 6.90157 5.87174 6.81479L6.81455 5.87198C6.90133 5.78519 7.04203 5.78519 7.12882 5.87198L13.1 11.8431Z" fill="#F52A2A"/>
<path d="M5.87176 16.8714C5.78498 16.9582 5.78498 17.0989 5.87176 17.1857L6.81458 18.1285C6.90136 18.2153 7.04206 18.2153 7.12885 18.1285L13.1 12.1574C13.1867 12.0706 13.1867 11.9299 13.1 11.8431L12.1572 10.9003C12.0704 10.8135 11.9297 10.8135 11.8429 10.9003L5.87176 16.8714Z" fill="#F52A2A"/>
<path d="M12.1572 10.9003C12.0704 10.8135 11.9297 10.8135 11.8429 10.9003L10.9001 11.8431C10.8133 11.9299 10.8133 12.0706 10.9001 12.1574L16.8712 18.1285C16.9579 18.2153 17.0986 18.2153 17.1854 18.1285L18.1282 17.1857C18.215 17.0989 18.215 16.9582 18.1282 16.8714L12.1572 10.9003Z" fill="#F52A2A"/>
<path d="M5.87176 16.8714C5.78498 16.9582 5.78498 17.0989 5.87176 17.1857L6.81458 18.1285C6.90136 18.2153 7.04206 18.2153 7.12885 18.1285L13.1 12.1574C13.1867 12.0706 13.1867 11.9299 13.1 11.8431L12.1572 10.9003C12.0704 10.8135 11.9297 10.8135 11.8429 10.9003L5.87176 16.8714Z" fill="#F52A2A"/>
<path d="M12.1572 10.9003C12.0704 10.8135 11.9297 10.8135 11.8429 10.9003L10.9001 11.8431C10.8133 11.9299 10.8133 12.0706 10.9001 12.1574L16.8712 18.1285C16.9579 18.2153 17.0986 18.2153 17.1854 18.1285L18.1282 17.1857C18.215 17.0989 18.215 16.9582 18.1282 16.8714L12.1572 10.9003Z" fill="#F52A2A"/>
</svg>
