<svg width="48" height="48" viewBox="0 0 48 48" fill="none" xmlns="http://www.w3.org/2000/svg">
<path d="M0 0.999999C0 0.447714 0.447715 0 1 0H48V48H0.999999C0.447714 48 0 47.5523 0 47V0.999999Z" fill="#594E4E"/>
<path fill-rule="evenodd" clip-rule="evenodd" d="M33.6998 38.576H14.3002C13.5721 38.576 13 38.0039 13 37.2931V10.3002C13 9.58944 13.5721 9 14.3002 9H33.6998C34.4106 9 35 9.58944 35 10.3002V37.2931C35 38.0039 34.4106 38.576 33.6998 38.576ZM26.0024 36.3223C25.8117 36.3223 25.6556 36.1663 25.6556 35.9756C25.621 35.0047 25.9677 31.7281 28.4988 32.4736C28.6548 32.5256 28.7589 32.6643 28.7589 32.8203C28.6202 35.0394 29.643 34.5366 29.5737 33.6005C29.5563 33.3404 29.8337 33.1324 30.0764 33.2711C30.5272 33.5138 31.186 33.6005 31.4287 32.9243C31.5847 32.4909 32.2262 32.7336 32.0875 33.1671C31.7407 34.0859 30.9606 34.2593 30.2498 34.0686C30.0418 35.2474 28.0307 35.9409 28.0481 33.0804C26.5225 32.8377 26.3318 35.1954 26.3491 35.9582C26.3491 36.1663 26.1931 36.3223 26.0024 36.3223ZM31.6367 15.9346H15.8779C15.6872 15.9346 15.5311 15.7786 15.5311 15.5879V13.0047C15.5311 12.814 15.6872 12.658 15.8779 12.658H31.6367C31.8274 12.658 31.9835 12.814 31.9835 13.0047V15.5879C31.9835 15.7786 31.8274 15.9346 31.6367 15.9346ZM16.2246 15.2411H31.29V13.3515H16.2246V15.2411ZM19.8652 34.9354H15.8779C15.4271 34.9354 15.4271 34.2419 15.8779 34.2419H19.8652C20.316 34.2419 20.316 34.9354 19.8652 34.9354ZM23.3325 31.5028H15.8779C15.4271 31.5028 15.4271 30.8093 15.8779 30.8093H23.3325C23.7833 30.8093 23.7833 31.5028 23.3325 31.5028ZM31.6367 29.7344H15.8779C15.4271 29.7344 15.4271 29.041 15.8779 29.041H31.6367C32.0875 29.041 32.0875 29.7344 31.6367 29.7344ZM31.6367 27.9661H15.8779C15.4271 27.9661 15.4271 27.2727 15.8779 27.2727H31.6367C32.0875 27.2727 32.0875 27.9661 31.6367 27.9661ZM31.6367 26.1978H15.8779C15.4271 26.1978 15.4271 25.5043 15.8779 25.5043H31.6367C32.0875 25.5043 32.0875 26.1978 31.6367 26.1978ZM31.6367 23.5626H24.1994C23.7313 23.5626 23.7313 22.8692 24.1994 22.8692H31.6367C32.0875 22.8692 32.0875 23.5626 31.6367 23.5626ZM31.6367 21.7943H15.8779C15.4271 21.7943 15.4271 21.1009 15.8779 21.1009H31.6367C32.0875 21.1009 32.0875 21.7943 31.6367 21.7943ZM31.6367 20.026H15.8779C15.4271 20.026 15.4271 19.3325 15.8779 19.3325H31.6367C32.0875 19.3325 32.0875 20.026 31.6367 20.026ZM31.6367 18.2577H15.8779C15.4271 18.2577 15.4271 17.5642 15.8779 17.5642H31.6367C32.0875 17.5642 32.0875 18.2577 31.6367 18.2577Z" fill="white"/>
</svg>
