<svg width="420" height="24" viewBox="0 0 420 24" fill="none" xmlns="http://www.w3.org/2000/svg">
<path d="M7.04 19.2C5.82667 19.2 4.78 19 3.9 18.6C3.02 18.2 2.33333 17.6 1.84 16.8C1.34667 15.9867 1.08 14.9667 1.04 13.74C1.02667 13.1667 1.02 12.6 1.02 12.04C1.02 11.4667 1.02667 10.8867 1.04 10.3C1.08 9.1 1.34667 8.09333 1.84 7.28C2.34667 6.45333 3.04 5.83333 3.92 5.42C4.81333 5.00667 5.85333 4.8 7.04 4.8C8.21333 4.8 9.24 5.00667 10.12 5.42C11.0133 5.83333 11.7133 6.45333 12.22 7.28C12.7267 8.09333 12.9933 9.1 13.02 10.3C13.0467 10.8867 13.06 11.4667 13.06 12.04C13.06 12.6 13.0467 13.1667 13.02 13.74C12.98 14.9667 12.7133 15.9867 12.22 16.8C11.7267 17.6 11.04 18.2 10.16 18.6C9.28 19 8.24 19.2 7.04 19.2ZM7.04 16.62C7.81333 16.62 8.44667 16.3867 8.94 15.92C9.44667 15.44 9.71333 14.68 9.74 13.64C9.76667 13.0533 9.78 12.5067 9.78 12C9.78 11.48 9.76667 10.9333 9.74 10.36C9.72667 9.66667 9.6 9.1 9.36 8.66C9.12 8.22 8.8 7.9 8.4 7.7C8.01333 7.48667 7.56 7.38 7.04 7.38C6.52 7.38 6.06 7.48667 5.66 7.7C5.26 7.9 4.94 8.22 4.7 8.66C4.47333 9.1 4.34667 9.66667 4.32 10.36C4.30667 10.9333 4.3 11.48 4.3 12C4.3 12.5067 4.30667 13.0533 4.32 13.64C4.36 14.68 4.62667 15.44 5.12 15.92C5.61333 16.3867 6.25333 16.62 7.04 16.62ZM16.0425 19C15.8958 19 15.7758 18.9533 15.6825 18.86C15.5892 18.7667 15.5425 18.6467 15.5425 18.5V5.5C15.5425 5.35333 15.5892 5.23333 15.6825 5.14C15.7758 5.04667 15.8958 5 16.0425 5H21.3425C23.0092 5 24.3225 5.38667 25.2825 6.16C26.2425 6.92 26.7225 8.02 26.7225 9.46C26.7225 10.4333 26.4892 11.2467 26.0225 11.9C25.5558 12.5533 24.9292 13.04 24.1425 13.36L26.9625 18.36C27.0025 18.44 27.0225 18.5133 27.0225 18.58C27.0225 18.6867 26.9825 18.7867 26.9025 18.88C26.8225 18.96 26.7225 19 26.6025 19H24.3825C24.1425 19 23.9625 18.94 23.8425 18.82C23.7225 18.6867 23.6358 18.5667 23.5825 18.46L21.1425 13.88H18.7225V18.5C18.7225 18.6467 18.6758 18.7667 18.5825 18.86C18.4892 18.9533 18.3692 19 18.2225 19H16.0425ZM18.7225 11.34H21.2825C22.0158 11.34 22.5558 11.1733 22.9025 10.84C23.2625 10.5067 23.4425 10.04 23.4425 9.44C23.4425 8.84 23.2692 8.36667 22.9225 8.02C22.5758 7.67333 22.0292 7.5 21.2825 7.5H18.7225V11.34Z" fill="#FABD00"/>
<path d="M414.333 11.5C414.333 12.9728 415.527 14.1667 417 14.1667C418.473 14.1667 419.667 12.9728 419.667 11.5C419.667 10.0272 418.473 8.83333 417 8.83333C415.527 8.83333 414.333 10.0272 414.333 11.5ZM32 12H417V11H32V12Z" fill="#FABD00"/>
</svg>
