<svg width="16" height="16" viewBox="0 0 16 16" fill="none" xmlns="http://www.w3.org/2000/svg">
<path d="M5.98746 1.13822C5.88983 1.04059 5.73154 1.04059 5.63391 1.13822L4.57325 2.19888C4.47562 2.29651 4.47562 2.4548 4.57325 2.55243L11.2908 9.26995C11.3884 9.36758 11.5467 9.36758 11.6443 9.26995L12.705 8.20929C12.8026 8.11166 12.8026 7.95336 12.705 7.85573L5.98746 1.13822Z" fill="#BFB6B6"/>
<path d="M12.705 8.20929C12.8026 8.11166 12.8026 7.95336 12.705 7.85573L11.6443 6.79505C11.5467 6.69742 11.3884 6.69742 11.2907 6.79505L4.57322 13.5126C4.47559 13.6102 4.47559 13.7685 4.57322 13.8661L5.63388 14.9268C5.73151 15.0244 5.88981 15.0244 5.98744 14.9268L12.705 8.20929Z" fill="#BFB6B6"/>
</svg>
