<svg width="24" height="24" viewBox="0 0 24 24" fill="none" xmlns="http://www.w3.org/2000/svg">
<g clip-path="url(#clip0_1515_74059)">
<path d="M12.0286 2.00467C12.2336 2.00467 12.4296 2.08878 12.5706 2.23699L17.8206 7.74475C18.2756 8.22142 17.9376 9.01454 17.2786 9.01454L14.5286 9.01454L14.5286 14.7727C14.5286 15.4626 13.9676 16.0244 13.2786 16.0244L10.7786 16.0244C10.0896 16.0244 9.52863 15.4626 9.52863 14.7727L9.52863 9.01454L6.77863 9.01454C6.11957 9.01454 5.78157 8.22142 6.23663 7.74475L11.4866 2.23699C11.6276 2.08878 11.8236 2.00467 12.0286 2.00467Z" fill="#594E4E"/>
<path opacity="0.3" d="M1.75 17.8244L22.25 17.8244C23.215 17.8244 24 18.6106 24 19.5769L24 20.0776C24 21.044 23.215 21.8301 22.25 21.8301L1.75 21.8301C0.785067 21.8301 -6.87179e-08 21.044 -1.53206e-07 20.0776L-1.96979e-07 19.5769C-2.81455e-07 18.6106 0.785066 17.8244 1.75 17.8244Z" fill="#BFB6B6"/>
</g>
<defs>
<clipPath id="clip0_1515_74059">
<rect width="24" height="24" fill="white"/>
</clipPath>
</defs>
</svg>
