<svg width="48" height="48" viewBox="0 0 48 48" fill="none" xmlns="http://www.w3.org/2000/svg">
<path d="M0 0.999999C0 0.447714 0.447715 0 1 0H48V48H0.999999C0.447714 48 0 47.5523 0 47V0.999999Z" fill="#594E4E"/>
<path d="M24.918 28.5944L21.2458 32.2676C19.7273 33.7866 17.2562 33.7868 15.7375 32.2677C15.0017 31.5318 14.5967 30.5534 14.5967 29.5128C14.5967 28.4723 15.0017 27.4941 15.7372 26.7582L19.4096 23.0848C19.9165 22.5776 19.9165 21.7553 19.4095 21.2482C18.9025 20.7411 18.0804 20.7411 17.5734 21.2482L13.9013 24.9214L13.9005 24.9222C12.675 26.1485 12 27.7789 12 29.5128C12 31.2472 12.6752 32.8778 13.9014 34.1043C15.167 35.3701 16.8293 36.0031 18.4917 36.0031C20.154 36.0031 21.8164 35.3701 23.0819 34.1043L26.7541 30.431C27.261 29.9239 27.261 29.1016 26.754 28.5944C26.2471 28.0873 25.4251 28.0873 24.918 28.5944ZM36 18.4933C36 16.7589 35.3247 15.1283 34.0986 13.9019C31.5674 11.3702 27.449 11.3702 24.9181 13.9019L21.2457 17.5752C20.7386 18.0823 20.7386 18.9047 21.2457 19.4117C21.3661 19.5325 21.5092 19.6283 21.6668 19.6936C21.8243 19.7589 21.9932 19.7924 22.1638 19.7922C22.496 19.7922 22.8283 19.6653 23.0818 19.4117L26.7538 15.7389C28.2723 14.2199 30.7437 14.2194 32.2625 15.7384C32.9981 16.4743 33.4033 17.4527 33.4033 18.4933C33.4033 19.5338 32.9983 20.5121 32.2627 21.248L28.5903 24.9214C28.0834 25.4284 28.0834 26.2508 28.5904 26.7579C28.7108 26.8787 28.8539 26.9745 29.0115 27.0398C29.169 27.1051 29.3379 27.1386 29.5084 27.1384C29.8407 27.1384 30.173 27.0115 30.4265 26.7579L34.0986 23.0848L34.0994 23.0839C35.325 21.8576 36 20.2273 36 18.4933Z" fill="white"/>
<path d="M19.4096 28.5944C19.53 28.7152 19.6731 28.811 19.8306 28.8763C19.9882 28.9416 20.1571 28.9751 20.3276 28.9749C20.6599 28.9749 20.9922 28.848 21.2457 28.5944L28.5901 21.2482C29.0971 20.7411 29.0971 19.9188 28.5901 19.4116C28.0831 18.9045 27.261 18.9045 26.754 19.4116L19.4096 26.7578C18.9025 27.265 18.9025 28.0874 19.4096 28.5944Z" fill="white"/>
</svg>
