<svg width="48" height="48" viewBox="0 0 48 48" fill="none" xmlns="http://www.w3.org/2000/svg">
<path d="M0 0.999999C0 0.447714 0.447715 0 1 0H48V48H0.999999C0.447714 48 0 47.5523 0 47V0.999999Z" fill="#594E4E"/>
<path d="M10 22.5887C10.2553 20.0552 11.1915 17.6383 12.7094 15.5947C14.2272 13.5511 16.2699 11.9572 18.6203 10.9823C19.2478 10.7233 19.7979 11.5047 19.4814 12.1088C19.1908 12.667 18.9323 13.2415 18.7075 13.8294C17.6861 16.6424 17.1094 19.5977 16.9981 22.5887H10Z" fill="white"/>
<path d="M10 25.4045C10.2553 27.9379 11.1915 30.3548 12.7094 32.3984C14.2272 34.442 16.2699 36.0359 18.6203 37.0108C19.2478 37.2699 19.7979 36.4884 19.4814 35.8844C19.1908 35.3261 18.9323 34.7517 18.7075 34.1638C17.6861 31.3507 17.1094 28.3954 16.9981 25.4045H10Z" fill="white"/>
<path d="M19.8145 25.4045C19.9228 28.0484 20.4352 30.66 21.3339 33.1486C21.6866 34.1556 22.2061 35.0961 22.8703 35.9309C23.4064 36.5462 23.7932 36.6631 23.9958 36.6631C24.1984 36.6631 24.5896 36.5462 25.1214 35.9309C25.7911 35.0973 26.3158 34.1567 26.6733 33.1486C27.572 30.66 28.0843 28.0484 28.1927 25.4045H19.8145Z" fill="white"/>
<path d="M31.0023 25.4045C30.8913 28.3964 30.3146 31.3527 29.2929 34.1666C29.068 34.7545 28.8096 35.329 28.519 35.8872C28.2024 36.4885 28.7526 37.2699 29.3801 37.0136C31.7309 36.0385 33.7738 34.4442 35.2917 32.4001C36.8095 30.3559 37.7456 27.9384 38.0004 25.4045H31.0023Z" fill="white"/>
<path d="M38.0004 22.5892H31.0023C30.8913 19.5973 30.3146 16.641 29.2929 13.8271C29.068 13.2392 28.8096 12.6647 28.519 12.1064C28.2024 11.5052 28.7526 10.7238 29.3801 10.98C31.7309 11.9552 33.7738 13.5495 35.2917 15.5936C36.8095 17.6377 37.7456 20.0553 38.0004 22.5892Z" fill="white"/>
<path d="M28.1857 22.5886H19.8145C19.9228 19.9447 20.4352 17.333 21.3339 14.8444C21.6866 13.8374 22.2061 12.8969 22.8703 12.0622C23.4064 11.4469 23.7932 11.33 23.9958 11.33C24.1984 11.33 24.5896 11.4469 25.1214 12.0622C25.7911 12.8958 26.3158 13.8364 26.6733 14.8444C27.5696 17.3334 28.0796 19.945 28.1857 22.5886Z" fill="white"/>
</svg>
