<svg width="48" height="48" viewBox="0 0 48 48" fill="none" xmlns="http://www.w3.org/2000/svg">
<path d="M0 0.999999C0 0.447714 0.447715 0 1 0H48V48H0.999999C0.447714 48 0 47.5523 0 47V0.999999Z" fill="#594E4E"/>
<path fill-rule="evenodd" clip-rule="evenodd" d="M30.4207 12.3C31.2838 12.299 32.1386 12.468 32.9364 12.7974C33.7342 13.1267 34.4592 13.6101 35.0702 14.2197C35.6812 14.8293 36.166 15.5534 36.4972 16.3505C36.8283 17.1475 36.9991 18.002 37 18.8651V29.135C36.9972 30.8777 36.3027 32.5482 35.0691 33.7792C33.8354 35.0102 32.1635 35.701 30.4207 35.7H17.578C15.8353 35.701 14.1636 35.0101 12.9301 33.7791C11.6966 32.548 11.0024 30.8776 11 29.135V18.8651C11 18.0019 11.1702 17.147 11.501 16.3497C11.8317 15.5523 12.3165 14.8281 12.9274 14.2183C13.5384 13.6085 14.2637 13.1252 15.0617 12.7961C15.8597 12.4669 16.7148 12.2983 17.578 12.3H30.4207ZM32.489 20.8021L32.593 20.698C32.745 20.5147 32.827 20.2835 32.8244 20.0454C32.8218 19.8073 32.7347 19.5778 32.5787 19.398C32.398 19.2056 32.1536 19.0855 31.891 19.06C31.7582 19.0523 31.6253 19.0713 31.5 19.116C31.3747 19.1606 31.2597 19.2301 31.1617 19.32L25.3 24C24.9343 24.3025 24.4746 24.468 24 24.468C23.5254 24.468 23.0657 24.3025 22.7 24L16.85 19.32C16.6589 19.1747 16.4215 19.1036 16.182 19.1198C15.9424 19.136 15.7168 19.2384 15.547 19.4081C15.3771 19.5778 15.2745 19.8032 15.2581 20.0427C15.2417 20.2823 15.3126 20.5197 15.4577 20.711L15.628 20.88L21.543 25.495C22.2662 26.0675 23.1615 26.379 24.0838 26.379C25.0062 26.379 25.9015 26.0675 26.6247 25.495L32.489 20.8021Z" fill="white"/>
</svg>
