<svg width="88" height="72" viewBox="0 0 88 72" fill="none" xmlns="http://www.w3.org/2000/svg">
<rect x="0.25" y="0.25" width="87.5" height="71.5" fill="white" stroke="#262121" stroke-width="0.5"/>
<path d="M16.357 27.14C15.5637 27.14 14.8823 27.0047 14.313 26.734C13.7437 26.454 13.305 26.0293 12.997 25.46C12.689 24.8813 12.5163 24.158 12.479 23.29C12.4697 22.8793 12.465 22.4873 12.465 22.114C12.465 21.7313 12.4697 21.3347 12.479 20.924C12.5163 20.0653 12.6937 19.3513 13.011 18.782C13.3377 18.2033 13.7857 17.774 14.355 17.494C14.9337 17.2047 15.601 17.06 16.357 17.06C17.1223 17.06 17.7897 17.2047 18.359 17.494C18.9377 17.774 19.3903 18.2033 19.717 18.782C20.0437 19.3513 20.221 20.0653 20.249 20.924C20.2677 21.3347 20.277 21.7313 20.277 22.114C20.277 22.4873 20.2677 22.8793 20.249 23.29C20.221 24.158 20.0483 24.8813 19.731 25.46C19.423 26.0293 18.9843 26.454 18.415 26.734C17.8457 27.0047 17.1597 27.14 16.357 27.14ZM16.357 25.95C17.0757 25.95 17.659 25.7353 18.107 25.306C18.5643 24.8767 18.8117 24.1813 18.849 23.22C18.8677 22.8 18.877 22.4267 18.877 22.1C18.877 21.764 18.8677 21.3907 18.849 20.98C18.8303 20.336 18.709 19.8133 18.485 19.412C18.2703 19.0107 17.981 18.7167 17.617 18.53C17.253 18.3433 16.833 18.25 16.357 18.25C15.8997 18.25 15.489 18.3433 15.125 18.53C14.761 18.7167 14.467 19.0107 14.243 19.412C14.0283 19.8133 13.907 20.336 13.879 20.98C13.8697 21.3907 13.865 21.764 13.865 22.1C13.865 22.4267 13.8697 22.8 13.879 23.22C13.9163 24.1813 14.1637 24.8767 14.621 25.306C15.0783 25.7353 15.657 25.95 16.357 25.95ZM22.4716 29.66C22.3783 29.66 22.2989 29.6273 22.2336 29.562C22.1776 29.506 22.1496 29.4313 22.1496 29.338V20.042C22.1496 19.9487 22.1776 19.874 22.2336 19.818C22.2989 19.7527 22.3783 19.72 22.4716 19.72H23.1156C23.2089 19.72 23.2836 19.7527 23.3396 19.818C23.4049 19.874 23.4376 19.9487 23.4376 20.042V20.658C23.6616 20.35 23.9603 20.0933 24.3336 19.888C24.7069 19.6827 25.1736 19.58 25.7336 19.58C26.2563 19.58 26.6996 19.6687 27.0636 19.846C27.4369 20.0233 27.7403 20.266 27.9736 20.574C28.2163 20.882 28.3983 21.232 28.5196 21.624C28.6409 22.016 28.7063 22.436 28.7156 22.884C28.7249 23.0333 28.7296 23.192 28.7296 23.36C28.7296 23.528 28.7249 23.6867 28.7156 23.836C28.7063 24.2747 28.6409 24.6947 28.5196 25.096C28.3983 25.488 28.2163 25.838 27.9736 26.146C27.7403 26.4447 27.4369 26.6873 27.0636 26.874C26.6996 27.0513 26.2563 27.14 25.7336 27.14C25.1923 27.14 24.7349 27.042 24.3616 26.846C23.9976 26.6407 23.6989 26.3887 23.4656 26.09V29.338C23.4656 29.4313 23.4376 29.506 23.3816 29.562C23.3256 29.6273 23.2463 29.66 23.1436 29.66H22.4716ZM25.4396 26.006C25.9249 26.006 26.3029 25.9033 26.5736 25.698C26.8536 25.4833 27.0543 25.208 27.1756 24.872C27.2969 24.5267 27.3669 24.158 27.3856 23.766C27.3949 23.4953 27.3949 23.2247 27.3856 22.954C27.3669 22.562 27.2969 22.198 27.1756 21.862C27.0543 21.5167 26.8536 21.2413 26.5736 21.036C26.3029 20.8213 25.9249 20.714 25.4396 20.714C24.9823 20.714 24.6089 20.8213 24.3196 21.036C24.0396 21.2507 23.8296 21.526 23.6896 21.862C23.5589 22.1887 23.4843 22.5247 23.4656 22.87C23.4563 23.0193 23.4516 23.1967 23.4516 23.402C23.4516 23.6073 23.4563 23.7893 23.4656 23.948C23.4749 24.2747 23.5496 24.5967 23.6896 24.914C23.8389 25.2313 24.0583 25.4927 24.3476 25.698C24.6369 25.9033 25.0009 26.006 25.4396 26.006ZM33.3735 27.14C32.4121 27.14 31.6468 26.846 31.0775 26.258C30.5081 25.6607 30.1955 24.8487 30.1395 23.822C30.1301 23.7007 30.1255 23.5467 30.1255 23.36C30.1255 23.164 30.1301 23.0053 30.1395 22.884C30.1768 22.2213 30.3308 21.6427 30.6015 21.148C30.8721 20.644 31.2408 20.2567 31.7075 19.986C32.1835 19.7153 32.7388 19.58 33.3735 19.58C34.0828 19.58 34.6755 19.7293 35.1515 20.028C35.6368 20.3267 36.0055 20.7513 36.2575 21.302C36.5095 21.8527 36.6355 22.4967 36.6355 23.234V23.472C36.6355 23.5747 36.6028 23.654 36.5375 23.71C36.4815 23.766 36.4068 23.794 36.3135 23.794H31.4695C31.4695 23.8033 31.4695 23.822 31.4695 23.85C31.4695 23.878 31.4695 23.9013 31.4695 23.92C31.4881 24.3027 31.5721 24.662 31.7215 24.998C31.8708 25.3247 32.0855 25.5907 32.3655 25.796C32.6455 26.0013 32.9815 26.104 33.3735 26.104C33.7095 26.104 33.9895 26.0527 34.2135 25.95C34.4375 25.8473 34.6195 25.7353 34.7595 25.614C34.8995 25.4833 34.9928 25.3853 35.0395 25.32C35.1235 25.1987 35.1888 25.1287 35.2355 25.11C35.2821 25.082 35.3568 25.068 35.4595 25.068H36.1315C36.2248 25.068 36.2995 25.096 36.3555 25.152C36.4208 25.1987 36.4488 25.2687 36.4395 25.362C36.4301 25.502 36.3555 25.6747 36.2155 25.88C36.0755 26.076 35.8748 26.272 35.6135 26.468C35.3521 26.664 35.0348 26.8273 34.6615 26.958C34.2881 27.0793 33.8588 27.14 33.3735 27.14ZM31.4695 22.828H35.3055V22.786C35.3055 22.366 35.2261 21.9927 35.0675 21.666C34.9181 21.3393 34.6988 21.0827 34.4095 20.896C34.1201 20.7 33.7748 20.602 33.3735 20.602C32.9721 20.602 32.6268 20.7 32.3375 20.896C32.0575 21.0827 31.8428 21.3393 31.6935 21.666C31.5441 21.9927 31.4695 22.366 31.4695 22.786V22.828ZM38.6314 27C38.5381 27 38.4588 26.972 38.3934 26.916C38.3374 26.8507 38.3094 26.7713 38.3094 26.678V20.042C38.3094 19.9487 38.3374 19.874 38.3934 19.818C38.4588 19.7527 38.5381 19.72 38.6314 19.72H39.2894C39.3828 19.72 39.4574 19.7527 39.5134 19.818C39.5788 19.874 39.6114 19.9487 39.6114 20.042V20.658C39.8541 20.3407 40.1574 20.084 40.5214 19.888C40.8948 19.6827 41.3708 19.58 41.9494 19.58C42.5561 19.58 43.0694 19.7153 43.4894 19.986C43.9188 20.2473 44.2408 20.616 44.4554 21.092C44.6701 21.5587 44.7774 22.1047 44.7774 22.73V26.678C44.7774 26.7713 44.7494 26.8507 44.6934 26.916C44.6374 26.972 44.5628 27 44.4694 27H43.7694C43.6761 27 43.5968 26.972 43.5314 26.916C43.4754 26.8507 43.4474 26.7713 43.4474 26.678V22.8C43.4474 22.1467 43.2888 21.638 42.9714 21.274C42.6541 20.9007 42.1874 20.714 41.5714 20.714C40.9928 20.714 40.5261 20.9007 40.1714 21.274C39.8261 21.638 39.6534 22.1467 39.6534 22.8V26.678C39.6534 26.7713 39.6208 26.8507 39.5554 26.916C39.4994 26.972 39.4248 27 39.3314 27H38.6314ZM50.7353 27C50.642 27 50.5626 26.972 50.4973 26.916C50.4413 26.8507 50.4133 26.7713 50.4133 26.678V17.536C50.4133 17.4333 50.4413 17.354 50.4973 17.298C50.5626 17.2327 50.642 17.2 50.7353 17.2H51.4353C51.5473 17.2 51.6313 17.228 51.6873 17.284C51.7433 17.34 51.776 17.3867 51.7853 17.424L54.7533 23.08L57.7353 17.424C57.754 17.3867 57.7866 17.34 57.8333 17.284C57.8893 17.228 57.9733 17.2 58.0853 17.2H58.7713C58.874 17.2 58.9533 17.2327 59.0093 17.298C59.0746 17.354 59.1073 17.4333 59.1073 17.536V26.678C59.1073 26.7713 59.0746 26.8507 59.0093 26.916C58.9533 26.972 58.874 27 58.7713 27H58.0853C57.992 27 57.9126 26.972 57.8473 26.916C57.7913 26.8507 57.7633 26.7713 57.7633 26.678V19.79L55.4253 24.354C55.388 24.4473 55.332 24.522 55.2573 24.578C55.1826 24.6247 55.0893 24.648 54.9773 24.648H54.5433C54.422 24.648 54.324 24.6247 54.2493 24.578C54.184 24.522 54.128 24.4473 54.0813 24.354L51.7433 19.79V26.678C51.7433 26.7713 51.7106 26.8507 51.6453 26.916C51.5893 26.972 51.5146 27 51.4213 27H50.7353ZM63.3765 27.14C62.9099 27.14 62.4852 27.0467 62.1025 26.86C61.7199 26.6733 61.4119 26.4213 61.1785 26.104C60.9452 25.7867 60.8285 25.4273 60.8285 25.026C60.8285 24.382 61.0899 23.8687 61.6125 23.486C62.1352 23.1033 62.8165 22.8513 63.6565 22.73L65.7425 22.436V22.03C65.7425 21.582 65.6119 21.232 65.3505 20.98C65.0985 20.728 64.6832 20.602 64.1045 20.602C63.6845 20.602 63.3439 20.686 63.0825 20.854C62.8305 21.022 62.6532 21.2367 62.5505 21.498C62.4945 21.638 62.3965 21.708 62.2565 21.708H61.6265C61.5239 21.708 61.4445 21.68 61.3885 21.624C61.3419 21.5587 61.3185 21.484 61.3185 21.4C61.3185 21.26 61.3699 21.0873 61.4725 20.882C61.5845 20.6767 61.7525 20.476 61.9765 20.28C62.2005 20.084 62.4852 19.9207 62.8305 19.79C63.1852 19.65 63.6145 19.58 64.1185 19.58C64.6785 19.58 65.1499 19.6547 65.5325 19.804C65.9152 19.944 66.2139 20.1353 66.4285 20.378C66.6525 20.6207 66.8112 20.896 66.9045 21.204C67.0072 21.512 67.0585 21.8247 67.0585 22.142V26.678C67.0585 26.7713 67.0259 26.8507 66.9605 26.916C66.9045 26.972 66.8299 27 66.7365 27H66.0925C65.9899 27 65.9105 26.972 65.8545 26.916C65.7985 26.8507 65.7705 26.7713 65.7705 26.678V26.076C65.6492 26.244 65.4859 26.412 65.2805 26.58C65.0752 26.7387 64.8185 26.874 64.5105 26.986C64.2025 27.0887 63.8245 27.14 63.3765 27.14ZM63.6705 26.09C64.0532 26.09 64.4032 26.0107 64.7205 25.852C65.0379 25.684 65.2852 25.4273 65.4625 25.082C65.6492 24.7367 65.7425 24.3027 65.7425 23.78V23.388L64.1185 23.626C63.4559 23.7193 62.9565 23.878 62.6205 24.102C62.2845 24.3167 62.1165 24.592 62.1165 24.928C62.1165 25.1893 62.1912 25.4087 62.3405 25.586C62.4992 25.754 62.6952 25.88 62.9285 25.964C63.1712 26.048 63.4185 26.09 63.6705 26.09ZM69.4072 29.66C69.3138 29.66 69.2345 29.6273 69.1692 29.562C69.1132 29.506 69.0852 29.4313 69.0852 29.338V20.042C69.0852 19.9487 69.1132 19.874 69.1692 19.818C69.2345 19.7527 69.3138 19.72 69.4072 19.72H70.0512C70.1445 19.72 70.2192 19.7527 70.2752 19.818C70.3405 19.874 70.3732 19.9487 70.3732 20.042V20.658C70.5972 20.35 70.8958 20.0933 71.2692 19.888C71.6425 19.6827 72.1092 19.58 72.6692 19.58C73.1918 19.58 73.6352 19.6687 73.9992 19.846C74.3725 20.0233 74.6758 20.266 74.9092 20.574C75.1518 20.882 75.3338 21.232 75.4552 21.624C75.5765 22.016 75.6418 22.436 75.6512 22.884C75.6605 23.0333 75.6652 23.192 75.6652 23.36C75.6652 23.528 75.6605 23.6867 75.6512 23.836C75.6418 24.2747 75.5765 24.6947 75.4552 25.096C75.3338 25.488 75.1518 25.838 74.9092 26.146C74.6758 26.4447 74.3725 26.6873 73.9992 26.874C73.6352 27.0513 73.1918 27.14 72.6692 27.14C72.1278 27.14 71.6705 27.042 71.2972 26.846C70.9332 26.6407 70.6345 26.3887 70.4012 26.09V29.338C70.4012 29.4313 70.3732 29.506 70.3172 29.562C70.2612 29.6273 70.1818 29.66 70.0792 29.66H69.4072ZM72.3752 26.006C72.8605 26.006 73.2385 25.9033 73.5092 25.698C73.7892 25.4833 73.9898 25.208 74.1112 24.872C74.2325 24.5267 74.3025 24.158 74.3212 23.766C74.3305 23.4953 74.3305 23.2247 74.3212 22.954C74.3025 22.562 74.2325 22.198 74.1112 21.862C73.9898 21.5167 73.7892 21.2413 73.5092 21.036C73.2385 20.8213 72.8605 20.714 72.3752 20.714C71.9178 20.714 71.5445 20.8213 71.2552 21.036C70.9752 21.2507 70.7652 21.526 70.6252 21.862C70.4945 22.1887 70.4198 22.5247 70.4012 22.87C70.3918 23.0193 70.3872 23.1967 70.3872 23.402C70.3872 23.6073 70.3918 23.7893 70.4012 23.948C70.4105 24.2747 70.4852 24.5967 70.6252 24.914C70.7745 25.2313 70.9938 25.4927 71.2832 25.698C71.5725 25.9033 71.9365 26.006 72.3752 26.006Z" fill="#262121"/>
<path d="M46.3174 45.995L43.9408 49.5045L40.4266 53.0012C39.1196 51.3401 37.6924 49.731 36.8223 47.7847L38.7165 44.883L41.6218 42.0801C40.6508 43.2801 40.7233 45.0451 41.8393 46.1611C43.0333 47.3551 44.9687 47.3551 46.1626 46.1611C46.2162 46.1077 46.2678 46.0522 46.3174 45.995Z" fill="#ECB72B"/>
<path d="M46.3721 45.9298C47.3516 44.7291 47.2821 42.9581 46.1624 41.839C44.9684 40.645 43.0331 40.645 41.8391 41.839C41.7895 41.8888 41.7415 41.9402 41.6953 41.9931L43.6995 38.735L46.4186 36.373C48.4495 37.0159 50.1293 38.4474 51.0991 40.3079L49.1154 43.5065L46.3721 45.9298Z" fill="#5085F7"/>
<path d="M41.6207 42.0806L36.821 47.7853C36.345 46.7216 36.0356 45.5572 36.0036 44.2283C36.0012 44.1524 36 44.0765 36 44.0005C36 42.0452 36.7015 40.253 37.8671 38.8633L41.6207 42.0806Z" fill="#DA2F2A"/>
<path d="M41.6209 42.0804L37.8672 38.8629C39.3349 37.113 41.5374 36 44.0003 36C44.8431 36 45.6555 36.1304 46.4184 36.3721L41.6209 42.0804Z" fill="#4274EB"/>
<path d="M52.0004 44.0001C52.0004 42.6682 51.6749 41.4123 51.0992 40.3076L40.4258 53.002C41.6384 54.5445 42.7465 56.1321 43.207 58.0763C43.2217 58.1386 43.2376 58.2113 43.2545 58.2931C43.4215 59.1021 44.5797 59.1021 44.7467 58.2931C44.7636 58.2113 44.7795 58.1386 44.7942 58.0763C46.0219 52.8929 51.8523 50.244 51.997 44.2284C51.9991 44.1525 52.0004 44.0764 52.0004 44.0001Z" fill="#60A850"/>
</svg>
