<svg width="48" height="48" viewBox="0 0 48 48" fill="none" xmlns="http://www.w3.org/2000/svg">
<path d="M0 0.999999C0 0.447714 0.447715 0 1 0H48V48H0.999999C0.447714 48 0 47.5523 0 47V0.999999Z" fill="#594E4E"/>
<path d="M34.2954 17.6568C35.1936 16.7625 35.782 15.6042 35.9744 14.3514C36.0254 14.0346 36 13.7101 35.9003 13.4051C35.8007 13.1 35.6296 12.8232 35.4014 12.5975C35.1757 12.3697 34.899 12.199 34.5941 12.0995C34.2893 12 33.9651 11.9747 33.6485 12.0255C32.3958 12.2179 31.2375 12.8061 30.3431 13.704L27.5537 16.4934L25.8837 16.1299C26.0246 15.9154 26.0873 15.6589 26.0613 15.4036C26.0354 15.1483 25.9223 14.9097 25.7412 14.7279C25.532 14.5193 25.2485 14.4022 24.953 14.4022C24.6575 14.4022 24.3741 14.5193 24.1648 14.7279L23.3213 15.5714L21.3424 15.1404L21.4804 15.0024C21.689 14.7932 21.8061 14.5099 21.8061 14.2145C21.8061 13.919 21.689 13.6357 21.4804 13.4265C21.0609 13.0055 20.3264 13.005 19.9044 13.4265L18.7545 14.5764L14.6586 13.6845C14.5004 13.6498 14.3361 13.6556 14.1807 13.7012C14.0253 13.7468 13.884 13.8308 13.7696 13.9455L12.9452 14.7699C12.7287 14.9864 12.6287 15.2849 12.6717 15.5884C12.7147 15.8919 12.8932 16.1509 13.1617 16.2994L22.7808 21.6131L17.9115 26.9409L12.9662 27.2039L12.2002 27.9693C12.1195 28.0499 12.0604 28.1495 12.028 28.2588C11.9957 28.3682 11.9913 28.4839 12.0151 28.5954C12.039 28.7069 12.0904 28.8106 12.1646 28.8972C12.2389 28.9837 12.3336 29.0503 12.4402 29.0908L17.1215 30.8787L18.91 35.5605C18.9591 35.6902 19.0467 35.8017 19.161 35.8802C19.2753 35.9588 19.4108 36.0006 19.5494 36C19.7284 36 19.9014 35.9295 20.0319 35.7995L20.7969 35.0345L21.0599 30.0888L26.3877 25.2195L31.698 34.835C31.846 35.1035 32.105 35.282 32.4085 35.325C32.5568 35.3464 32.708 35.3327 32.8501 35.2853C32.9923 35.2378 33.1213 35.1577 33.227 35.0515L34.0519 34.2271C34.1666 34.1129 34.2507 33.9716 34.2963 33.8163C34.3419 33.661 34.3477 33.4967 34.3129 33.3386L33.4225 29.2468L34.5739 28.0958C34.7844 27.8854 34.9004 27.6054 34.9004 27.3074C34.9004 27.0094 34.7844 26.7294 34.5739 26.5189C34.3647 26.3103 34.0812 26.1931 33.7857 26.1931C33.4902 26.1931 33.2068 26.3103 32.9975 26.5189L32.859 26.6574L32.4285 24.6785L33.2725 23.8345C33.483 23.624 33.599 23.3441 33.599 23.0461C33.599 22.7481 33.483 22.4681 33.273 22.2581C32.9055 21.8906 32.299 21.8441 31.871 22.1176L31.507 20.4452L34.2964 17.6558L34.2954 17.6568Z" fill="white"/>
</svg>
