<svg width="48" height="48" viewBox="0 0 48 48" fill="none" xmlns="http://www.w3.org/2000/svg">
<path d="M0 0.999999C0 0.447714 0.447715 0 1 0H48V48H0.999999C0.447714 48 0 47.5523 0 47V0.999999Z" fill="#594E4E"/>
<path d="M36.25 28.6667H33.3334V26.9167C33.3334 26.5947 33.072 26.3334 32.75 26.3334H25.75C25.428 26.3334 25.1667 26.5947 25.1667 26.9167V28.6667H19.3334V19.9167C19.3334 19.5947 19.072 19.3334 18.75 19.3334H18.393L19.303 16.601C19.3229 16.5415 19.3334 16.4797 19.3334 16.4167V14.0834C19.3334 13.7614 19.072 13.5 18.75 13.5H15.8334V10.5834C15.8334 10.2614 15.572 10 15.25 10C14.928 10 14.6667 10.2614 14.6667 10.5834V13.5H11.75C11.428 13.5 11.1666 13.7614 11.1666 14.0834V16.4167C11.1666 16.4797 11.1771 16.5416 11.197 16.6011L12.107 19.3334H11.75C11.428 19.3334 11.1666 19.5948 11.1666 19.9168V28.6668H10.5834C10.2614 28.6667 10 28.928 10 29.25V37.4167C10 37.7387 10.2614 38 10.5834 38H29.8334V31.5834C29.8334 31.2614 30.0947 31 30.4167 31H33.9167C34.2387 31 34.5001 31.2614 34.5001 31.5834V38H36.2501C36.5721 38 36.8334 37.7387 36.8334 37.4167V29.25C36.8334 28.928 36.572 28.6667 36.25 28.6667ZM15.8334 33.9167C15.8334 34.2387 15.572 34.5001 15.25 34.5001H12.9167C12.5947 34.5001 12.3333 34.2387 12.3333 33.9167V31.5834C12.3333 31.2614 12.5947 31 12.9167 31H15.25C15.572 31 15.8334 31.2614 15.8334 31.5834V33.9167ZM17 24.5834C17 24.9054 16.7387 25.1667 16.4167 25.1667H14.0834C13.7614 25.1667 13.5 24.9054 13.5 24.5834V22.25C13.5 21.928 13.7614 21.6667 14.0834 21.6667H16.4167C16.7387 21.6667 17.0001 21.928 17.0001 22.25V24.5834H17ZM16.4167 17H14.0834C13.7614 17 13.5 16.7387 13.5 16.4167C13.5 16.0947 13.7614 15.8334 14.0834 15.8334H16.4167C16.7387 15.8334 17.0001 16.0947 17.0001 16.4167C17.0001 16.7387 16.7387 17 16.4167 17ZM21.6667 33.9167C21.6667 34.2387 21.4053 34.5001 21.0833 34.5001H18.75C18.428 34.5001 18.1667 34.2387 18.1667 33.9167V31.5834C18.1667 31.2614 18.428 31 18.75 31H21.0834C21.4054 31 21.6667 31.2614 21.6667 31.5834V33.9167H21.6667ZM27.5 33.9167C27.5 34.2387 27.2387 34.5001 26.9167 34.5001H24.5833C24.2613 34.5001 24 34.2387 24 33.9167V31.5834C24 31.2614 24.2613 31 24.5833 31H26.9167C27.2387 31 27.5 31.2614 27.5 31.5834V33.9167Z" fill="white"/>
<path d="M37.5601 15.197C36.6035 14.5425 35.5873 14.462 34.591 14.9462L31.2846 16.5002L31.1866 16.5585L29.1403 15.4887C28.2851 14.9193 27.3074 14.6172 26.2959 14.6172H26.2948L24.5681 14.6662C24.4471 14.6695 24.3301 14.7106 24.2335 14.7835C24.1369 14.8565 24.0654 14.9578 24.0291 15.0733C23.9545 15.3102 24.0361 15.568 24.2356 15.7162L27.8675 18.4392L25.0091 19.9243C24.6556 19.8905 23.6336 19.6408 23.125 19.516C22.467 19.3561 22.3655 19.3328 22.25 19.3328H21.0833C20.963 19.3329 20.8456 19.3702 20.7472 19.4395C20.6489 19.5088 20.5743 19.6069 20.5338 19.7202C20.4934 19.8336 20.4891 19.9567 20.5215 20.0726C20.5539 20.1886 20.6214 20.2916 20.7147 20.3677C21.2362 20.7935 23.9125 22.918 25.3872 22.918C25.638 22.918 25.8597 22.862 26.0148 22.7699L37.573 16.8934C37.8425 16.7044 38.0023 16.387 38 16.044C37.9988 15.7022 37.8343 15.386 37.5601 15.197Z" fill="white"/>
</svg>
