<svg width="48" height="48" viewBox="0 0 48 48" fill="none" xmlns="http://www.w3.org/2000/svg">
<path d="M0 0.999999C0 0.447714 0.447715 0 1 0H48V48H0.999999C0.447714 48 0 47.5523 0 47V0.999999Z" fill="#594E4E"/>
<path fill-rule="evenodd" clip-rule="evenodd" d="M24 37C21.4289 37 18.9154 36.2376 16.7776 34.8091C14.6398 33.3806 12.9735 31.3503 11.9896 28.9748C11.0056 26.5994 10.7482 23.9855 11.2498 21.4638C11.7514 18.942 12.9895 16.6257 14.8076 14.8076C16.6257 12.9896 18.9421 11.7514 21.4638 11.2498C23.9856 10.7482 26.5995 11.0057 28.9749 11.9896C31.3503 12.9735 33.3806 14.6398 34.8091 16.7776C36.2376 18.9155 37 21.4288 37 24C37 27.4478 35.6304 30.7544 33.1924 33.1924C30.7544 35.6303 27.4478 37 24 37ZM28.147 28.823C28.3001 28.9153 28.4752 28.9647 28.654 28.9659C28.8226 28.9655 28.9882 28.9208 29.1342 28.8364C29.2802 28.752 29.4015 28.6308 29.486 28.4849C29.6181 28.2624 29.6567 27.9967 29.5934 27.7458C29.53 27.4948 29.3699 27.2792 29.148 27.1461L24.52 24.3901V18.3841C24.52 18.1255 24.4173 17.8774 24.2344 17.6946C24.0516 17.5117 23.8036 17.4091 23.545 17.4091C23.2864 17.4091 23.0384 17.5117 22.8556 17.6946C22.6727 17.8774 22.57 18.1255 22.57 18.3841V24.949C22.5716 25.1174 22.6168 25.2824 22.701 25.4282C22.7853 25.574 22.9059 25.6956 23.051 25.781L28.147 28.823Z" fill="white"/>
</svg>
