<svg width="48" height="48" viewBox="0 0 48 48" fill="none" xmlns="http://www.w3.org/2000/svg">
<path d="M0 0.999999C0 0.447714 0.447715 0 1 0H48V48H0.999999C0.447714 48 0 47.5523 0 47V0.999999Z" fill="#594E4E"/>
<path fill-rule="evenodd" clip-rule="evenodd" d="M19.6885 10.3689C19.6885 10.104 19.5833 9.84994 19.396 9.66265C19.2087 9.47535 18.9547 9.37012 18.6898 9.37012C18.4249 9.37012 18.1709 9.47535 17.9836 9.66265C17.7963 9.84994 17.6911 10.104 17.6911 10.3689V12.0454C16.8986 12.0347 16.1088 12.1411 15.3473 12.361C14.4199 12.6723 13.5772 13.1944 12.8855 13.8861C12.1937 14.5779 11.6717 15.4205 11.3604 16.348C11.0486 17.6552 10.9382 19.0024 11.0328 20.3429V28.5233C11.0328 29.9774 11.0328 31.1306 11.1087 32.0588C11.1458 32.9205 11.3545 33.7662 11.7226 34.5463C12.3286 35.737 13.2965 36.7048 14.4871 37.3108C15.2672 37.6789 16.1129 37.8876 16.9746 37.9247C17.9068 38.0006 19.056 38.0006 20.5102 38.0006H27.5226C28.9768 38.0006 30.13 38.0006 31.0582 37.9247C31.9199 37.8876 32.7656 37.6789 33.5457 37.3108C34.7363 36.7048 35.7042 35.737 36.3102 34.5463C36.6783 33.7662 36.887 32.9205 36.9241 32.0588C37 31.1266 37 29.9774 37 28.5233V21.5108C37 20.0566 37 18.9034 36.9241 17.9752C36.887 17.1135 36.6783 16.2678 36.3102 15.4877C35.7042 14.2971 34.7363 13.3292 33.5457 12.7232C32.7656 12.3552 31.9199 12.1465 31.0582 12.1093C30.8331 12.0907 30.5948 12.0774 30.3417 12.0667V10.3689C30.3417 10.104 30.2365 9.84994 30.0492 9.66265C29.8619 9.47535 29.6079 9.37012 29.343 9.37012C29.0781 9.37012 28.8241 9.47535 28.6368 9.66265C28.4495 9.84994 28.3443 10.104 28.3443 10.3689V12.0334H19.6885V10.3689ZM17.3581 18.6917C17.0933 18.6917 16.8392 18.7969 16.6519 18.9842C16.4646 19.1715 16.3594 19.4255 16.3594 19.6904C16.3594 19.9553 16.4646 20.2093 16.6519 20.3966C16.8392 20.5839 17.0933 20.6892 17.3581 20.6892H30.6747C30.9395 20.6892 31.1936 20.5839 31.3809 20.3966C31.5682 20.2093 31.6734 19.9553 31.6734 19.6904C31.6734 19.4255 31.5682 19.1715 31.3809 18.9842C31.1936 18.7969 30.9395 18.6917 30.6747 18.6917H17.3581ZM27.0126 31.6753C27.0126 31.4104 27.1178 31.1564 27.3051 30.9691C27.4924 30.7818 27.7465 30.6765 28.0114 30.6765H30.6747C30.9395 30.6765 31.1936 30.7818 31.3809 30.9691C31.5682 31.1564 31.6734 31.4104 31.6734 31.6753C31.6734 31.9402 31.5682 32.1942 31.3809 32.3815C31.1936 32.5688 30.9395 32.674 30.6747 32.674H28.0114C27.7465 32.674 27.4924 32.5688 27.3051 32.3815C27.1178 32.1942 27.0126 31.9402 27.0126 31.6753Z" fill="white"/>
</svg>
