<svg width="48" height="48" viewBox="0 0 48 48" fill="none" xmlns="http://www.w3.org/2000/svg">
<path d="M0 0.999999C0 0.447714 0.447715 0 1 0H48V48H0.999999C0.447714 48 0 47.5523 0 47V0.999999Z" fill="#594E4E"/>
<g clip-path="url(#clip0_2295_87135)">
<path d="M36.3799 9.98242H21.9743C21.6153 9.98242 21.3242 10.2735 21.3242 10.6325V15.698L22.0452 15.2503C22.2232 15.1396 22.4192 15.0607 22.6244 15.0173V11.2826H35.7297V20.6585H22.6244V19.1415L21.3242 19.9488V21.3087C21.3242 21.6678 21.6153 21.9588 21.9743 21.9588H36.3799C36.7389 21.9588 37.0299 21.6678 37.0299 21.3087V10.6325C37.0299 10.2735 36.7389 9.98242 36.3799 9.98242Z" fill="white"/>
<path d="M26.926 13.5908C26.8438 13.4867 26.7237 13.4194 26.592 13.4039C26.4603 13.3883 26.3278 13.4256 26.2236 13.5078L23.9844 15.2734C24.2047 15.4173 24.3907 15.6079 24.5294 15.8316C24.5693 15.8963 24.6052 15.9634 24.6368 16.0326L26.8429 14.2931C26.8945 14.2525 26.9376 14.2021 26.9696 14.1448C27.0017 14.0875 27.0222 14.0244 27.0299 13.9592C27.0376 13.894 27.0324 13.8279 27.0146 13.7647C26.9967 13.7015 26.9666 13.6424 26.926 13.5908Z" fill="white"/>
<path d="M16.1212 12.7424C17.1546 12.7424 17.9924 11.9046 17.9924 10.8712C17.9924 9.83776 17.1546 9 16.1212 9C15.0878 9 14.25 9.83776 14.25 10.8712C14.25 11.9046 15.0878 12.7424 16.1212 12.7424Z" fill="white"/>
<path d="M23.7666 16.3084C23.5036 15.8848 22.947 15.7546 22.5233 16.0176L20.6949 17.1528L20.6864 15.4647C20.6805 14.2925 19.7221 13.3389 18.5499 13.3389H17.6617C16.9028 15.3069 17.1473 14.5764 16.5031 16.2469L16.774 15.0673C16.7928 14.979 16.7792 14.8869 16.7356 14.8078L16.3686 14.1402L16.6943 13.5479C16.7429 13.4595 16.6789 13.3512 16.578 13.3512H15.6832C15.5825 13.3512 15.5183 13.4595 15.5669 13.5479L15.8933 14.1414L15.5256 14.8102C15.4829 14.8878 15.469 14.978 15.4862 15.0649L15.7209 16.2469L14.5996 13.3389H13.6933C12.5212 13.3389 11.5627 14.2925 11.5568 15.4647L11.5234 22.0975C11.521 22.5961 11.9231 23.0024 12.4217 23.0049H12.4264C12.9228 23.0049 13.3266 22.6036 13.3291 22.1066L13.3624 15.4738V15.4707C13.3628 15.4232 13.382 15.3778 13.4158 15.3444C13.4496 15.3111 13.4953 15.2926 13.5428 15.2929C13.5903 15.2933 13.6357 15.3125 13.6691 15.3463C13.7024 15.3801 13.7209 15.4258 13.7206 15.4733L13.721 24.8706C14.5475 24.8355 15.3133 25.1336 15.8879 25.6571V21.991H16.3556V26.1965C16.6966 26.6969 16.8786 27.2886 16.8779 27.8942C16.8786 28.4465 16.7271 28.9884 16.4403 29.4604C16.7254 29.4618 17.0023 29.4996 17.2664 29.5695C17.6275 29.2556 18.058 29.0319 18.5225 28.917C18.5225 12.5493 18.5028 22.6693 18.5028 15.4745C18.5027 15.4244 18.5225 15.3763 18.5579 15.3408C18.5933 15.3053 18.6413 15.2853 18.6914 15.2852C18.7415 15.2851 18.7896 15.3049 18.8251 15.3403C18.8607 15.3756 18.8807 15.4237 18.8808 15.4738L18.8973 18.7756C18.8981 18.9362 18.9417 19.0936 19.0236 19.2317C19.1055 19.3698 19.2228 19.4836 19.3633 19.5612C19.5038 19.6389 19.6625 19.6777 19.823 19.6737C19.9835 19.6696 20.14 19.6228 20.2764 19.5381L23.4758 17.5516C23.8994 17.2887 24.0296 16.732 23.7666 16.3084Z" fill="white"/>
<path d="M34.1486 29.8968C35.2425 29.8968 36.1292 29.0101 36.1292 27.9162C36.1292 26.8223 35.2425 25.9355 34.1486 25.9355C33.0547 25.9355 32.168 26.8223 32.168 27.9162C32.168 29.0101 33.0547 29.8968 34.1486 29.8968Z" fill="white"/>
<path d="M38.9671 32.7777C38.9608 31.5369 37.9463 30.5275 36.7055 30.5275H31.7379C31.9578 30.9541 32.0724 31.4273 32.0721 31.9073C32.0721 32.435 31.9312 32.9862 31.6326 33.4766C32.7403 33.5214 33.7108 34.1158 34.2781 34.994H36.6557V32.8008C36.6555 32.7488 36.6756 32.6986 36.7117 32.6611C36.7478 32.6236 36.7971 32.6016 36.8491 32.5999C36.9012 32.5981 36.9519 32.6166 36.9904 32.6516C37.029 32.6866 37.0524 32.7352 37.0558 32.7872V32.7873L37.0669 34.994H38.9783L38.9671 32.7777ZM26.0185 31.9073C26.0181 31.419 26.1366 30.9379 26.3638 30.5057H21.9537C22.1635 30.9245 22.2726 31.3866 22.2722 31.8551C22.2725 32.4074 22.1211 32.9491 21.8346 33.4213C22.7462 33.4257 23.5873 33.8044 24.1949 34.4331C24.784 33.8576 25.5871 33.5006 26.4705 33.4959C26.1753 33.0186 26.0187 32.4685 26.0185 31.9073ZM24.5156 25.9131C23.4217 25.9131 22.5349 26.7997 22.5349 27.8937C22.5349 28.9852 23.42 29.8744 24.5156 29.8744C25.6006 29.8744 26.4962 28.9975 26.4962 27.8937C26.4962 26.801 25.6111 25.9131 24.5156 25.9131ZM16.2186 31.8551C16.2182 31.3877 16.3268 30.9267 16.5356 30.5086C16.4503 30.5044 16.8094 30.5057 11.2924 30.5057C10.0579 30.5057 9.03705 31.5099 9.03078 32.7559L9.01953 34.994H10.9309L10.9421 32.7656C10.9431 32.7132 10.9647 32.6632 11.0022 32.6265C11.0397 32.5898 11.0901 32.5693 11.1426 32.5695C11.1951 32.5696 11.2454 32.5903 11.2827 32.6272C11.32 32.6641 11.3414 32.7141 11.3421 32.7666V34.994H14.0214C14.5989 34.0709 15.5917 33.4913 16.6724 33.4468C16.375 32.9692 16.2178 32.4177 16.2186 31.8551ZM13.8496 25.9131C12.7558 25.9131 11.8689 26.7998 11.8689 27.8937C11.8689 28.9826 12.7505 29.8744 13.8496 29.8744C14.9357 29.8744 15.8303 28.9946 15.8303 27.8937C15.8303 26.7998 14.9435 25.9131 13.8496 25.9131ZM33.7566 36.7618C33.7504 35.5209 32.7359 34.5115 31.4951 34.5115H26.4849C25.2441 34.5115 24.1645 35.5209 24.1583 36.7617L24.1421 36.7095C24.136 35.4736 23.1261 34.4593 21.8806 34.4593H16.8704C15.6297 34.4593 14.5501 35.4687 14.5438 36.7095L14.5325 38.9997H16.4439L16.4551 36.7191C16.4552 36.6734 16.4735 36.6296 16.5059 36.5974C16.5383 36.5652 16.5821 36.5472 16.6278 36.5473C16.6735 36.5474 16.7173 36.5657 16.7495 36.598C16.7817 36.6304 16.7998 36.6743 16.7997 36.72V38.9997H21.8617V36.72C21.8624 36.6716 21.8821 36.6254 21.9165 36.5914C21.951 36.5574 21.9974 36.5383 22.0458 36.5382C22.0941 36.5381 22.1406 36.557 22.1752 36.5908C22.2098 36.6246 22.2298 36.6707 22.2308 36.719L22.2419 38.9997H26.0584L26.0696 36.7713V36.7712C26.0697 36.7255 26.088 36.6817 26.1204 36.6495C26.1528 36.6173 26.1967 36.5993 26.2423 36.5994C26.288 36.5996 26.3318 36.6178 26.364 36.6502C26.3962 36.6826 26.4142 36.7265 26.4141 36.7722V38.9997H31.4761V36.7722C31.4769 36.7238 31.4966 36.6776 31.531 36.6436C31.5654 36.6096 31.6118 36.5905 31.6602 36.5904C31.7086 36.5903 31.7551 36.6092 31.7897 36.643C31.8243 36.6768 31.8442 36.7229 31.8452 36.7712L31.8564 38.9996H33.7678L33.7566 36.7618Z" fill="white"/>
<path d="M19.3085 33.8513C20.4151 33.8513 21.3123 32.9542 21.3123 31.8475C21.3123 30.7409 20.4151 29.8438 19.3085 29.8438C18.2018 29.8438 17.3047 30.7409 17.3047 31.8475C17.3047 32.9542 18.2018 33.8513 19.3085 33.8513Z" fill="white"/>
<path d="M29.0428 33.9031C30.1495 33.9031 31.0466 33.006 31.0466 31.8993C31.0466 30.7926 30.1495 29.8955 29.0428 29.8955C27.9362 29.8955 27.0391 30.7926 27.0391 31.8993C27.0391 33.006 27.9362 33.9031 29.0428 33.9031Z" fill="white"/>
</g>
<defs>
<clipPath id="clip0_2295_87135">
<rect width="30" height="30" fill="white" transform="translate(9 9)"/>
</clipPath>
</defs>
</svg>
