<svg width="48" height="48" viewBox="0 0 48 48" fill="none" xmlns="http://www.w3.org/2000/svg">
<path d="M0 0.999999C0 0.447714 0.447715 0 1 0H48V48H0.999999C0.447714 48 0 47.5523 0 47V0.999999Z" fill="#594E4E"/>
<path d="M25.1047 25.9731L25.1322 25.9456C25.1697 25.9081 25.2009 25.833 25.2201 25.7405C25.2448 25.6353 25.2462 25.525 25.2215 25.438L24.8507 24.1197C24.7857 23.9329 24.8301 23.7173 24.9793 23.5681L26.8593 21.6882C26.8918 21.6557 26.9279 21.6269 26.9696 21.6035C27.225 21.457 27.5509 21.544 27.6988 21.7981L30.0849 25.9511L30.5596 25.4764C30.6621 25.3739 30.7267 25.2544 30.7542 25.129C30.7798 25.0045 30.7683 24.8686 30.7152 24.7349L28.9246 20.1108C28.8362 19.9135 28.8728 19.6746 29.0335 19.5139L30.8892 17.6583C30.9633 17.5841 31.0009 17.4843 31.0009 17.3855C31.0009 17.2838 30.9647 17.1854 30.8896 17.1104C30.8146 17.0353 30.7157 16.9987 30.6145 16.9991C30.5124 16.9988 30.4143 17.039 30.3417 17.1108L28.4861 18.9665C28.3419 19.1107 28.119 19.1651 27.9153 19.086L23.2637 17.2834C23.1314 17.2317 22.995 17.2198 22.8705 17.2454C22.7447 17.2724 22.6252 17.3379 22.5231 17.4399L22.0484 17.9146L26.1731 20.2852C26.2235 20.3099 26.2706 20.3434 26.3123 20.385C26.521 20.5937 26.521 20.9316 26.3123 21.1403L24.4323 23.0202C24.3 23.1525 24.1014 23.2111 23.9096 23.1566L22.5629 22.7776C22.476 22.7529 22.3656 22.7543 22.259 22.7776C22.1679 22.7982 22.0928 22.8293 22.0553 22.8669L22.0278 22.8943L24.1362 23.4876C24.3101 23.5343 24.458 23.6693 24.5115 23.8574L25.1047 25.9731ZM25.882 34.6417L20.8409 39.6828C20.418 40.1057 19.725 40.1057 19.302 39.6828L17.3076 37.6884C17.0028 37.3836 16.9611 36.9135 17.2079 36.5606C18.3366 34.9438 18.1796 32.7032 16.7382 31.2618C15.2968 29.8204 13.0557 29.6629 11.4394 30.7921C11.0865 31.0389 10.6164 30.9972 10.3116 30.6924L8.31721 28.698C7.89426 28.275 7.89426 27.582 8.31721 27.1591L13.3583 22.118L14.0939 22.8536C14.3026 23.0623 14.6413 23.0614 14.8505 22.8522C15.0592 22.6435 15.0592 22.3057 14.8505 22.097L14.1149 21.3614L27.1591 8.31721C27.582 7.89426 28.275 7.89426 28.698 8.31721L39.6828 19.302C40.1057 19.725 40.1057 20.418 39.6828 20.8409L26.6382 33.8855L25.9026 33.15C25.6939 32.9412 25.356 32.9412 25.1473 33.15C24.9386 33.3587 24.9372 33.6979 25.1459 33.9066L25.8815 34.6422L25.882 34.6417ZM23.5631 24.4369L24.317 27.1115C24.3386 27.2106 24.3882 27.3015 24.4598 27.3733C24.6685 27.582 25.0086 27.5825 25.2178 27.3733L25.8889 26.7023C26.0719 26.5192 26.2015 26.2523 26.2637 25.9694C26.3219 25.7007 26.3219 25.4078 26.2496 25.1478L25.9561 24.1046L27.1225 22.9383L29.4931 27.063C29.5164 27.1119 29.5498 27.1591 29.5915 27.2007C29.8002 27.4095 30.138 27.4095 30.3468 27.2007L31.3149 26.2326C31.5639 25.9836 31.7273 25.6801 31.796 25.3515C31.8646 25.0228 31.8385 24.6781 31.7113 24.3486L30.0369 20.0239L31.6458 18.4149C31.9287 18.132 32.0701 17.7571 32.0701 17.3864C32.0701 17.0129 31.9287 16.6407 31.6445 16.3565C31.3602 16.0722 30.9881 15.9308 30.6145 15.9308C30.2438 15.9308 29.8689 16.0722 29.586 16.3551L27.9771 17.964L23.6523 16.2887C23.3228 16.1615 22.9776 16.1358 22.6494 16.204C22.3212 16.2732 22.0173 16.4361 21.7683 16.6851L20.8002 17.6532C20.7691 17.6844 20.7388 17.7219 20.7155 17.7636C20.5677 18.0176 20.656 18.3449 20.91 18.4927L25.0622 20.878L23.8959 22.0443L22.8527 21.7509C22.5931 21.6781 22.3002 21.6781 22.031 21.7367C21.7482 21.799 21.4808 21.929 21.2982 22.1116L20.6272 22.7826L20.6285 22.784C20.5649 22.8476 20.5182 22.9255 20.4912 23.0175C20.4106 23.3003 20.5768 23.5965 20.8606 23.6752L23.5631 24.4369ZM17.0408 25.8005C17.2495 26.0092 17.5882 26.0083 17.7974 25.7991C18.0062 25.5904 18.0062 25.2526 17.7974 25.0439L17.0618 24.3083C16.8531 24.0996 16.5153 24.0996 16.3066 24.3083C16.0978 24.517 16.096 24.8557 16.3052 25.0649L17.0408 25.8005ZM19.9872 28.747C20.196 28.9557 20.5361 28.9562 20.7453 28.747C20.954 28.5382 20.9531 28.1995 20.7439 27.9903L20.0097 27.2561C19.8009 27.0474 19.4618 27.046 19.253 27.2547C19.0443 27.4635 19.0438 27.8036 19.253 28.0128L19.9872 28.747ZM22.9355 31.6953C23.1433 31.9031 23.483 31.9031 23.6922 31.6939C23.9009 31.4852 23.9 31.1464 23.6922 30.9386L22.9566 30.203C22.7479 29.9943 22.41 29.9943 22.2013 30.203C21.9926 30.4118 21.9912 30.7509 22.1999 30.9597L22.9355 31.6953Z" fill="white"/>
</svg>
