<svg width="24" height="24" viewBox="0 0 24 24" fill="none" xmlns="http://www.w3.org/2000/svg">
<rect x="0.25" y="0.25" width="23.5" height="23.5" rx="0.75" stroke="#594E4E" stroke-width="0.5"/>
<path d="M11.25 7.5C11.25 7.22386 11.4739 7 11.75 7H12.25C12.5261 7 12.75 7.22386 12.75 7.5V16.5C12.75 16.7761 12.5261 17 12.25 17H11.75C11.4739 17 11.25 16.7761 11.25 16.5V7.5Z" fill="#594E4E"/>
<path d="M7.5 12.75C7.22386 12.75 7 12.5261 7 12.25L7 11.75C7 11.4739 7.22386 11.25 7.5 11.25L16.5 11.25C16.7761 11.25 17 11.4739 17 11.75V12.25C17 12.5261 16.7761 12.75 16.5 12.75L7.5 12.75Z" fill="#594E4E"/>
</svg>
