<svg width="448" height="141" viewBox="0 0 448 141" fill="none" xmlns="http://www.w3.org/2000/svg">
<path d="M28.2734 38.0232L25.8816 37.8598C24.6251 37.7764 24.4689 37.3181 25.4128 36.4848C26.2483 35.7476 26.7809 34.8726 27.0105 33.8598C27.0233 33.7829 27.001 33.7156 26.9436 33.6579C26.8925 33.6194 26.8766 33.6323 26.8957 33.6964C27.2082 34.7028 27.6356 35.597 28.1777 36.379C28.3563 36.629 28.5987 36.7796 28.9048 36.8309L31.6219 37.3021C32.451 37.4431 32.8624 37.0905 32.856 36.2444C32.856 36.0521 32.8847 35.8662 32.9421 35.6867C33.1973 34.9239 33.3695 34.9431 33.4588 35.7444C33.5927 36.9816 34.4761 37.5136 36.1088 37.3405C36.4915 37.2957 36.6797 37.0809 36.6733 36.6963L36.6542 34.8983C36.6542 34.488 36.8264 34.1739 37.1708 33.956L39.9548 32.206C40.1229 32.0995 40.2496 31.9384 40.314 31.7495C40.3784 31.5606 40.3766 31.3553 40.3088 31.1676C39.7667 29.6419 39.6232 28.0779 39.8783 26.4753C40.2992 23.8696 39.1416 20.86 36.9316 19.5043C36.7148 19.3696 36.7307 19.2703 36.9795 19.2062C38.2104 18.8921 38.6473 17.9915 38.2901 16.5043C38.2009 16.1646 37.9872 16.0364 37.6492 16.1197C35.2765 16.7415 32.9453 16.9755 30.6556 16.8216C29.9157 16.7767 29.8073 16.4883 30.3303 15.9562L31.6219 14.6582C31.8961 14.3761 32.0269 14.0364 32.0141 13.639C32.0014 13.1454 32.0779 12.6839 32.2437 12.2544C32.3732 11.9318 32.6104 11.6662 32.9134 11.5044C36.5489 9.60056 39.0938 6.84098 43.0641 5.26408C62.6704 -2.51786 82.1649 -1.67171 101.548 7.80251C106.427 10.1871 109.929 14.8313 112.1 19.3985C112.617 20.4818 112.802 21.8632 112.655 23.5427C112.541 24.8696 112.065 25.9817 111.23 26.8792C108.943 29.3214 107.891 32.0714 106.705 35.129C105.231 38.9078 98.9552 40.004 98.4864 43.3981C98.4367 43.7477 98.2752 44.0689 98.0272 44.3116C96.911 45.3821 95.747 46.4462 94.5352 47.5039C93.8209 48.1192 93.0587 48.2987 92.2487 48.0423C91.681 47.8628 91.3876 47.4686 91.3685 46.8596C91.3557 46.5263 91.5056 46.3019 91.8181 46.1866L97.3001 44.1385C97.4088 44.0976 97.5026 44.0246 97.5691 43.9291C97.6357 43.8335 97.6718 43.72 97.6729 43.6034C97.6739 43.4868 97.6398 43.3726 97.5749 43.2758C97.5101 43.1791 97.4176 43.1044 97.3097 43.0616C95.5493 42.3629 93.6136 41.9623 91.5024 41.8597C89.5794 41.7635 88.4409 40.3405 86.5849 40.3405C85.4273 40.3309 84.2506 40.0809 83.1504 40.504C80.0984 41.677 76.6351 42.927 74.5973 45.7154C72.8115 48.1641 70.3751 50.1256 67.2881 51.5999C66.3058 52.0679 65.8849 52.8467 66.0252 53.9365L66.2835 55.9076C66.4621 57.2601 67.2084 57.7633 68.5222 57.4172C69.0516 57.2826 69.5427 57.0614 69.9956 56.7537C70.4803 56.4204 70.8566 56.5165 71.1245 57.0422L72.3491 59.4364C72.5213 59.7825 72.7955 60.0037 73.1718 60.0998C74.103 60.3498 74.9641 60.1799 75.755 59.5902C75.8793 59.4948 75.9789 59.3707 76.0455 59.2285C76.1121 59.0862 76.1437 58.93 76.1376 58.7729C76.1058 57.5614 76.6766 56.7762 77.8502 56.4172C77.9888 56.3745 78.1134 56.2949 78.2107 56.1868C78.3081 56.0788 78.3745 55.9462 78.4029 55.8033C78.4314 55.6604 78.4208 55.5124 78.3723 55.375C78.3238 55.2376 78.2393 55.116 78.1276 55.023L77.0848 54.1672C76.9857 54.0844 76.9054 53.9813 76.8495 53.8646C76.7935 53.748 76.7631 53.6206 76.7604 53.4911C76.7577 53.3616 76.7827 53.2331 76.8337 53.1142C76.8847 52.9953 76.9606 52.8887 77.0561 52.8018C78.4338 51.5807 80.3472 51.2923 80.816 49.3404C80.8769 49.0751 81.0382 48.844 81.2656 48.6961C81.5909 48.4846 81.9321 48.4622 82.2893 48.6288C82.9845 48.9493 82.9845 49.2699 82.2893 49.5904C79.9741 50.6609 79.1481 52.4557 79.8114 54.9749C79.8752 55.1929 80.0155 55.3339 80.2324 55.398L81.0169 55.6095C81.3868 55.7121 81.575 55.9589 81.5813 56.3499C81.5877 56.5678 81.5303 56.7826 81.4091 56.9941C81.2688 57.2249 81.0679 57.3659 80.8064 57.4172C79.8433 57.5967 79.3203 58.2633 79.2374 59.4171C79.2104 59.7848 79.0512 60.1303 78.7893 60.3901C78.5273 60.6498 78.1802 60.8062 77.8119 60.8306L71.2489 61.244C71.1651 61.2504 71.0812 61.2369 71.0035 61.2046C70.9258 61.1724 70.8565 61.1222 70.8009 61.058C70.7454 60.9938 70.7051 60.9173 70.6832 60.8345C70.6613 60.7517 70.6585 60.6648 70.6748 60.5806L71.2202 58.0614C71.3541 57.4204 71.1085 57.1832 70.4835 57.3499C70.0753 57.4588 69.6543 57.6127 69.2206 57.8114C68.9977 57.9147 68.8085 58.0788 68.6747 58.2847C68.541 58.4905 68.4682 58.7298 68.4648 58.9748L68.4361 60.9171C68.4297 61.3915 68.1969 61.6671 67.7377 61.744L66.2166 61.994C66.0533 62.0206 65.8984 62.0848 65.764 62.1815C65.6296 62.2783 65.5192 62.405 65.4416 62.5517C64.9569 63.4491 64.2744 64.119 63.3943 64.5613C62.9861 64.76 62.9095 64.6735 63.1646 64.3017C63.5665 63.7152 63.5378 63.0036 63.1646 62.4171C62.4057 61.244 61.6084 60.0966 60.7729 58.9748C60.556 58.6864 60.4795 58.3659 60.5433 58.0133C60.7155 57.0197 60.5592 56.0614 60.0745 55.1384C59.9601 54.9213 59.7889 54.7397 59.5793 54.6135C59.3696 54.4872 59.1296 54.4209 58.8853 54.4219C58.6409 54.4229 58.4014 54.4911 58.1928 54.6191C57.9842 54.7471 57.8144 54.93 57.7018 55.148L56.5155 57.4556C56.3433 57.7954 56.085 58.0357 55.7406 58.1768L53.4732 59.1094C53.2244 59.2056 53.0905 59.3915 53.0713 59.6671L52.9087 61.7921C52.8832 62.196 53.0554 62.4716 53.4253 62.619C54.3565 63.0036 55.2973 63.0517 56.2476 62.7632C56.5984 62.6479 56.8535 62.4203 57.013 62.0806L58.0654 59.8114C58.1292 59.6703 58.2312 59.6319 58.3715 59.696L58.6298 59.8114C58.7191 59.8498 58.7446 59.9139 58.7064 60.0037L56.9077 64.3978C56.7674 64.744 56.8822 64.9042 57.2522 64.8786L59.4048 64.7344C59.9023 64.7023 60.0139 64.8978 59.7396 65.3209C59.6503 65.4555 59.5323 65.5549 59.3856 65.619C59.0412 65.7728 58.7064 65.7472 58.3811 65.542C58.0112 65.2985 57.7496 65.385 57.5966 65.8017C57.5009 66.0645 57.5009 66.3273 57.5966 66.5901C57.7178 66.9298 57.9378 67.1863 58.2567 67.3593C59.2963 67.9234 59.7364 68.8176 59.577 70.042C59.5196 70.5099 59.2581 70.7086 58.7925 70.6381L54.4203 69.9747C54.1269 69.9298 53.9547 70.0548 53.9037 70.3497L53.0522 74.8208C52.9875 75.1579 53.0283 75.5065 53.1689 75.8184C53.3094 76.1302 53.5428 76.3898 53.8367 76.5611L55.5014 77.5323C55.605 77.5937 55.6899 77.6825 55.747 77.7889C55.8041 77.8954 55.8311 78.0155 55.8252 78.1362C55.8193 78.257 55.7807 78.3738 55.7135 78.4741C55.6463 78.5744 55.5531 78.6544 55.444 78.7053C53.9643 79.3848 52.8322 80.4489 52.0477 81.8976C51.8231 82.3048 51.4835 82.6361 51.0718 82.8495C48.1634 84.3687 45.5707 87.2629 45.5803 90.7725C45.5803 92.6635 45.5356 94.4583 45.4463 96.157C45.4272 96.5288 45.5293 96.8589 45.7525 97.1474C47.2513 99.0704 49.2094 100.91 51.6267 102.667C53.8845 104.301 57.5775 104.013 60.151 103.618C61.6435 103.394 62.7915 103.843 63.5952 104.965C63.8056 105.253 64.0895 105.4 64.4466 105.407L66.3505 105.426C66.4691 105.429 66.5847 105.465 66.685 105.528C66.7853 105.592 66.8667 105.682 66.9205 105.788C66.9744 105.894 66.9987 106.013 66.991 106.132C66.9833 106.251 66.9438 106.366 66.8767 106.465C66.4749 107.048 66.207 107.647 66.073 108.263C66.0029 108.583 66.0826 108.862 66.3122 109.099C68.1045 111.003 69.1696 113.134 69.5076 115.493C69.5523 115.827 69.4726 116.128 69.2685 116.397C67.9354 118.128 67.8111 119.993 68.8953 121.993C70.4133 124.794 71.8484 127.317 73.2006 129.56C73.3919 129.874 73.6693 130.044 74.0329 130.07C79.7795 130.474 83.8392 128.557 86.2118 124.32C86.4107 123.964 86.7192 123.681 87.092 123.512C87.3662 123.391 87.6086 123.221 87.8191 123.003C88.1189 122.695 88.205 122.336 88.0774 121.926C87.9562 121.541 87.9499 121.163 88.0583 120.791C88.1603 120.452 88.3612 120.189 88.661 120.003L92.3156 117.801C92.4723 117.707 92.5988 117.569 92.6802 117.403C92.7615 117.238 92.7944 117.052 92.7749 116.868L92.1243 111.445C92.0811 111.075 92.1803 110.7 92.4017 110.397C93.6455 108.679 95.0486 107.112 96.6113 105.695C98.7862 103.721 100.614 101.481 102.093 98.9743C102.348 98.5384 102.422 98.0864 102.313 97.6185C102.23 97.2852 102.042 97.0384 101.749 96.8781C101.644 96.8273 101.53 96.8 101.414 96.7984C101.298 96.7967 101.184 96.8207 101.079 96.8685L96.64 98.955C96.5714 98.9858 96.4975 99.0027 96.4226 99.0048C96.3477 99.0069 96.2734 98.9942 96.2039 98.9673C96.1344 98.9405 96.0712 98.9 96.0179 98.8484C95.9646 98.7967 95.9224 98.7349 95.8937 98.6666L95.7407 98.3012C95.6322 98.0448 95.7151 97.8973 95.9894 97.8589C96.742 97.7371 97.4564 97.4775 98.1324 97.0801C102.061 94.7788 105.34 92.1378 107.967 89.1571C108.777 88.2468 109.288 87.1283 109.498 85.8014C109.568 85.3911 109.396 85.1604 108.982 85.1091C108.286 85.0193 107.671 84.7533 107.135 84.311C106.746 83.9969 106.354 83.9905 105.958 84.2918L104.6 85.3206C104.294 85.5578 103.975 85.577 103.643 85.3783C102.61 84.7757 101.758 84.0129 101.089 83.0899C100.98 82.9488 100.999 82.827 101.146 82.7245L101.357 82.5803C101.586 82.4264 101.79 82.4521 101.969 82.6572C102.977 83.8238 104.172 84.2437 105.557 83.9168C107.183 83.5322 108.522 84.0418 110.149 83.7822C112.859 83.3655 115.784 83.827 118.922 85.1668C121.4 86.2148 123.265 88.8013 125.207 90.6378C125.52 90.9327 125.829 90.9295 126.135 90.6282C127.385 89.4039 127.822 87.9776 127.446 86.3494C126.713 83.1764 127.475 79.779 129.733 76.1573C129.835 75.9914 129.991 75.8664 130.176 75.8033C130.361 75.7402 130.563 75.743 130.747 75.8111C131.544 76.106 132.026 76.7085 132.191 77.6188C132.235 77.8534 132.327 78.073 132.459 78.263C132.561 78.4169 132.698 78.4617 132.871 78.3976C133.075 78.3271 133.196 78.1861 133.234 77.9746C133.292 77.7118 133.403 77.4778 133.569 77.2727C133.773 77.0355 133.961 77.0515 134.133 77.3207C134.593 78.0451 134.867 78.7951 134.956 79.5707C135.103 80.8078 135.387 82.0643 135.808 83.3399C135.923 83.686 135.798 83.8976 135.435 83.9745L134.162 84.2341C133.741 84.3238 133.646 84.5546 133.875 84.9264L136.764 89.4552C136.924 89.7052 136.962 89.9712 136.879 90.2532C127.819 119.897 102.419 139.945 71.5454 140.964C46.9675 141.772 22.5905 128.926 9.86625 107.513C9.68766 107.211 9.68129 106.904 9.84712 106.59C10.2043 105.936 10.4275 105.221 10.5168 104.445C10.6189 103.599 10.9059 103.529 11.3779 104.234C11.6585 104.657 12.0029 104.939 12.4111 105.08C12.5038 105.113 12.6027 105.124 12.7002 105.112C12.7977 105.1 12.8912 105.066 12.9735 105.012C13.0558 104.958 13.1246 104.886 13.1748 104.801C13.2249 104.716 13.2549 104.621 13.2626 104.522C13.3838 102.836 13.1223 101.266 12.4781 99.8108C12.4345 99.709 12.4211 99.5964 12.4395 99.4869C12.458 99.3774 12.5075 99.276 12.5818 99.1951C12.6562 99.1142 12.7522 99.0574 12.8579 99.0319C12.9636 99.0063 13.0744 99.013 13.1765 99.0512C13.7059 99.2435 14.2448 99.2243 14.7933 98.9935C15.7947 98.5768 16.104 97.8589 15.7213 96.8397C15.1377 95.2724 13.7027 94.9839 12.9277 93.657C10.9569 90.2628 7.89543 87.1379 6.74737 84.1379C4.53418 78.356 2.37201 71.4138 0.260871 63.3113C-0.0197642 62.2408 -0.0739762 61.2601 0.0982319 60.369C0.519185 58.1832 0.972027 55.914 1.45676 53.5615C1.66086 52.5551 2.23489 51.9782 3.17884 51.8307C3.29198 51.8131 3.39805 51.7653 3.48568 51.6925C3.57332 51.6196 3.63922 51.5245 3.67632 51.4173L4.79569 48.35C4.93601 47.9654 5.20388 47.7218 5.59932 47.6192C6.56241 47.3756 7.4394 46.9333 8.23028 46.2923C8.61934 45.9654 9.069 45.8148 9.57925 45.8404C10.5997 45.8917 11.5788 45.7699 12.5163 45.475C12.8671 45.3661 13.1318 45.475 13.3104 45.802C13.4762 46.0904 13.5081 46.4045 13.4061 46.7442C13.3613 46.881 13.3613 47.0285 13.406 47.1652C13.4508 47.3019 13.538 47.4206 13.6548 47.5039C14.1013 47.8436 14.5541 48.1449 15.0134 48.4077C16.3464 49.1833 16.7578 48.8404 16.2475 47.3789C15.9669 46.5776 16.1359 45.7827 16.7546 44.9943C17.0288 44.6481 17.3445 44.6033 17.7017 44.8597C17.9824 45.0648 18.2247 45.3148 18.4288 45.6097C18.6739 45.9696 18.9988 46.2631 19.376 46.4654C20.8684 47.2539 22.396 47.6769 23.9586 47.7346C24.179 47.7415 24.3985 47.7025 24.6031 47.62C24.8078 47.5375 24.9932 47.4133 25.1478 47.2552C25.3024 47.0972 25.4227 46.9087 25.5012 46.7016C25.5798 46.4945 25.6148 46.2733 25.6042 46.0519C25.483 43.4687 26.4716 41.036 28.57 38.754C28.9782 38.3053 28.8793 38.0617 28.2734 38.0232ZM45.6855 32.7829L35.7644 40.2636C35.3817 40.552 35.2032 40.9366 35.2287 41.4174L35.3339 43.7731C35.3722 44.5936 35.7899 44.9013 36.5872 44.6962L52.947 40.4366C53.336 40.3405 53.5816 40.0937 53.6836 39.6963C53.9005 38.8629 54.2832 38.0585 54.8317 37.2828C55.0422 36.9816 55.3292 36.8149 55.6927 36.7829L57.7497 36.5905C58.126 36.5585 58.3588 36.3598 58.448 35.9944C58.9902 33.8726 59.9373 31.8631 61.2895 29.9656C61.477 29.7028 61.6008 29.3996 61.6511 29.0802C61.7014 28.7608 61.6767 28.434 61.5792 28.1259C61.4816 27.8177 61.3138 27.5367 61.0891 27.3052C60.8644 27.0738 60.5891 26.8982 60.2849 26.7926C57.8294 25.9272 55.5939 24.8824 53.5784 23.6581C50.8231 21.985 47.5894 22.7542 44.7575 23.4273C44.3748 23.517 44.1835 23.7606 44.1835 24.158L44.1931 28.956C44.1931 29.3407 44.3047 29.69 44.5279 30.0041L45.829 31.7733C45.9408 31.9272 45.9883 32.1189 45.9615 32.3074C45.9347 32.496 45.8357 32.6666 45.6855 32.7829ZM100.725 115.897C100.865 115.599 100.895 115.26 100.81 114.942C100.725 114.623 100.53 114.345 100.261 114.158C99.9911 113.97 99.664 113.884 99.3374 113.915C99.0108 113.947 98.7059 114.094 98.4769 114.33L94.9657 117.859C94.7625 118.059 94.6255 118.318 94.5735 118.599L94.0951 121.378C94.0556 121.612 94.0763 121.852 94.1552 122.076C94.234 122.3 94.3685 122.5 94.5458 122.657C94.723 122.814 94.9373 122.923 95.1682 122.973C95.399 123.024 95.6389 123.014 95.865 122.945L97.1949 122.541C97.3839 122.484 97.5586 122.386 97.7071 122.255C97.8555 122.124 97.9745 121.963 98.0559 121.782L100.725 115.897Z" fill="#F2EDED"/>
<path d="M303.385 59.3952C303.385 64.7045 301.287 69.7964 297.551 73.5507C293.816 77.305 288.749 79.4141 283.467 79.4141C278.184 79.4141 273.117 77.305 269.382 73.5507C265.647 69.7964 263.548 64.7045 263.548 59.3952C263.548 54.0858 265.647 48.9939 269.382 45.2397C273.117 41.4854 278.184 39.3762 283.467 39.3762C288.749 39.3762 293.816 41.4854 297.551 45.2397C301.287 48.9939 303.385 54.0858 303.385 59.3952ZM298.544 59.424C298.544 55.3999 296.954 51.5407 294.123 48.6952C291.291 45.8497 287.451 44.2512 283.448 44.2512C279.444 44.2512 275.604 45.8497 272.772 48.6952C269.941 51.5407 268.351 55.3999 268.351 59.424C268.351 63.4481 269.941 67.3074 272.772 70.1529C275.604 72.9983 279.444 74.5969 283.448 74.5969C287.451 74.5969 291.291 72.9983 294.123 70.1529C296.954 67.3074 298.544 63.4481 298.544 59.424Z" fill="#F2EDED"/>
<path d="M173.828 54.0491L189.814 54.0684C189.934 54.0683 190.05 54.1156 190.136 54.2001C190.221 54.2846 190.271 54.3995 190.273 54.5203L190.321 58.501C190.322 58.5624 190.312 58.6235 190.289 58.6806C190.267 58.7377 190.233 58.7897 190.19 58.8336C190.147 58.8774 190.096 58.9123 190.04 58.9361C189.984 58.9599 189.923 58.9721 189.862 58.9721H173.828C173.706 58.9721 173.589 59.0207 173.503 59.1073C173.417 59.1939 173.368 59.3113 173.368 59.4337L173.397 73.5873C173.397 73.7097 173.445 73.8271 173.531 73.9137C173.618 74.0002 173.734 74.0488 173.856 74.0488L191.737 74.0873C191.857 74.0898 191.972 74.1395 192.056 74.2258C192.14 74.3121 192.187 74.4281 192.187 74.5488L192.149 78.318C192.146 78.4387 192.097 78.5537 192.011 78.6382C191.925 78.7226 191.809 78.7699 191.689 78.7699H169.12C168.999 78.7699 168.882 78.7213 168.796 78.6347C168.71 78.5482 168.661 78.4308 168.661 78.3084L168.671 41.0397C168.671 40.9791 168.683 40.9191 168.706 40.8631C168.729 40.8071 168.763 40.7562 168.805 40.7134C168.848 40.6705 168.899 40.6365 168.954 40.6133C169.01 40.5901 169.07 40.5782 169.13 40.5782L192.139 40.5686C192.199 40.5686 192.259 40.5805 192.315 40.6037C192.37 40.6269 192.421 40.6609 192.464 40.7037C192.506 40.7466 192.54 40.7975 192.563 40.8535C192.586 40.9095 192.598 40.9695 192.598 41.0301L192.589 44.8473C192.589 44.9697 192.54 45.0871 192.454 45.1737C192.368 45.2602 192.251 45.3089 192.129 45.3089L173.818 45.28C173.696 45.28 173.579 45.3287 173.493 45.4152C173.407 45.5018 173.359 45.6191 173.359 45.7415L173.368 53.5876C173.368 53.71 173.417 53.8274 173.503 53.9139C173.589 54.0005 173.706 54.0491 173.828 54.0491Z" fill="#F2EDED"/>
<path d="M203.859 68.9719C208.451 78.318 222.218 75.4623 222.247 64.6547C222.266 56.8023 222.269 48.9787 222.256 41.1839C222.256 40.7544 222.47 40.5397 222.897 40.5397L226.6 40.5877C227.014 40.5877 227.218 40.7993 227.212 41.2224C227.091 47.8441 227.107 54.1324 227.26 60.0875C227.375 64.6131 227.021 67.9079 226.198 69.9719C223.672 76.3276 216.105 81.116 209.207 79.0295C204.187 77.5103 200.832 74.52 199.142 70.0585C198.275 67.7508 197.914 63.7445 198.061 58.0394C198.214 52.2703 198.217 46.6357 198.071 41.1358C198.058 40.7576 198.24 40.5685 198.616 40.5685L202.376 40.5589C202.669 40.5589 202.819 40.7063 202.825 41.0012C202.959 47.7832 202.947 54.5523 202.787 61.3086C202.704 64.8021 203.061 67.3566 203.859 68.9719Z" fill="#F2EDED"/>
<path d="M250.221 58.2894C250.166 58.3081 250.117 58.3395 250.077 58.3811C250.037 58.4227 250.007 58.4733 249.99 58.5287C249.973 58.5841 249.97 58.6428 249.98 58.6998C249.99 58.7568 250.014 58.8106 250.049 58.8567L263.95 78.0583C264.3 78.5455 264.176 78.7859 263.577 78.7795L259.625 78.7603C259.387 78.7571 259.154 78.6989 258.943 78.5905C258.732 78.482 258.55 78.3262 258.41 78.1353L244.844 59.3375C244.57 58.9529 244.194 58.7606 243.715 58.7606H239.506C239.439 58.7606 239.373 58.7735 239.312 58.7986C239.25 58.8237 239.194 58.8606 239.147 58.907C239.1 58.9534 239.063 59.0085 239.037 59.0692C239.012 59.1299 238.999 59.1949 238.999 59.2606L239.027 78.2699C239.027 78.6096 238.862 78.7795 238.53 78.7795L234.904 78.7699C234.572 78.7699 234.406 78.6032 234.406 78.2699V41.0781C234.406 40.6807 234.604 40.4884 235 40.5012C238.259 40.6358 241.588 40.639 244.988 40.5108C247.711 40.4147 249.88 40.7704 251.493 41.5781C259.004 45.3377 258.056 55.5683 250.221 58.2894ZM238.989 45.9434L239.008 53.3856C239.008 53.4766 239.026 53.5666 239.061 53.6506C239.095 53.7346 239.146 53.8109 239.21 53.8752C239.274 53.9394 239.35 53.9905 239.433 54.0252C239.517 54.06 239.607 54.0779 239.697 54.0779L247.274 54.0683C248.507 54.0656 249.689 53.6154 250.559 52.8166C251.429 52.0178 251.917 50.9358 251.914 49.8088V49.4818C251.913 48.9237 251.792 48.3713 251.557 47.8561C251.322 47.3409 250.979 46.8731 250.546 46.4793C250.113 46.0856 249.6 45.7736 249.035 45.5612C248.471 45.3488 247.866 45.2402 247.255 45.2415L239.678 45.2511C239.587 45.2511 239.498 45.2691 239.414 45.3038C239.331 45.3386 239.255 45.3896 239.191 45.4539C239.127 45.5182 239.076 45.5945 239.042 45.6785C239.007 45.7625 238.989 45.8525 238.989 45.9434Z" fill="#F2EDED"/>
<path d="M308.705 41.2224C308.705 41.0566 308.77 40.8976 308.887 40.7804C309.003 40.6632 309.162 40.5974 309.327 40.5974L320.778 40.5781C326.014 40.5701 331.038 42.564 334.747 46.1215C338.455 49.679 340.544 54.5088 340.554 59.549V59.7798C340.558 62.2768 340.052 64.7503 339.064 67.0591C338.075 69.3679 336.624 71.4667 334.793 73.2355C332.962 75.0044 330.787 76.4087 328.392 77.3682C325.997 78.3277 323.43 78.8236 320.836 78.8276L309.384 78.8468C309.219 78.8468 309.061 78.781 308.944 78.6638C308.828 78.5466 308.762 78.3876 308.762 78.2218L308.705 41.2224ZM313.431 45.9338L313.373 73.568C313.373 73.744 313.443 73.9128 313.567 74.0372C313.691 74.1616 313.858 74.2315 314.034 74.2315L320.357 74.2411C322.385 74.2451 324.394 73.8783 326.269 73.1614C328.144 72.4445 329.849 71.3917 331.285 70.0631C332.722 68.7345 333.862 67.1562 334.642 65.4181C335.421 63.6801 335.824 61.8165 335.827 59.9336V59.6452C335.835 55.8432 334.215 52.194 331.324 49.5C328.434 46.8061 324.51 45.2881 320.415 45.28L314.091 45.2704C313.916 45.2704 313.748 45.3403 313.624 45.4647C313.5 45.5891 313.431 45.7579 313.431 45.9338Z" fill="#F2EDED"/>
<path d="M351.613 74.0777L369.379 74.0681C369.506 74.0681 369.628 74.1187 369.718 74.2089C369.807 74.299 369.858 74.4213 369.858 74.5488L369.848 78.2892C369.848 78.4167 369.798 78.5389 369.708 78.6291C369.618 78.7193 369.497 78.7699 369.37 78.7699L346.772 78.7795C346.645 78.7795 346.524 78.7289 346.434 78.6387C346.344 78.5486 346.294 78.4263 346.294 78.2988L346.323 41.0685C346.323 40.941 346.373 40.8188 346.463 40.7286C346.552 40.6384 346.674 40.5878 346.801 40.5878L369.848 40.5686C369.975 40.5686 370.097 40.6192 370.186 40.7094C370.276 40.7995 370.327 40.9218 370.327 41.0493L370.317 44.8377C370.317 44.9652 370.267 45.0875 370.177 45.1777C370.087 45.2678 369.965 45.3185 369.839 45.3185L351.613 45.2896C351.486 45.2896 351.365 45.3403 351.275 45.4305C351.185 45.5206 351.135 45.6429 351.135 45.7704L351.116 53.6164C351.116 53.7439 351.166 53.8662 351.256 53.9564C351.346 54.0466 351.467 54.0972 351.594 54.0972L367.361 54.0587C367.488 54.0587 367.609 54.1094 367.699 54.1995C367.789 54.2897 367.839 54.412 367.839 54.5395L367.829 58.5106C367.829 58.6381 367.779 58.7604 367.689 58.8505C367.6 58.9407 367.478 58.9914 367.351 58.9914L351.613 58.9433C351.486 58.9433 351.365 58.9939 351.275 59.0841C351.185 59.1742 351.135 59.2965 351.135 59.424V73.5969C351.135 73.7244 351.185 73.8467 351.275 73.9369C351.365 74.027 351.486 74.0777 351.613 74.0777Z" fill="#F2EDED"/>
<path d="M382.027 49.3184L382.046 78.4718C382.046 78.5509 382.015 78.6267 381.959 78.6826C381.904 78.7385 381.828 78.7699 381.75 78.7699L377.531 78.7507C377.452 78.7507 377.376 78.7193 377.321 78.6634C377.265 78.6075 377.234 78.5317 377.234 78.4526L377.205 40.857C377.205 40.7779 377.236 40.7021 377.292 40.6462C377.348 40.5903 377.423 40.5589 377.502 40.5589L382.075 40.5493C382.122 40.5497 382.168 40.5612 382.209 40.5829C382.251 40.6046 382.287 40.636 382.314 40.6743L393.833 56.5587C393.86 56.5964 393.896 56.6271 393.938 56.6483C393.979 56.6695 394.025 56.6805 394.072 56.6805C394.119 56.6805 394.165 56.6695 394.206 56.6483C394.248 56.6271 394.284 56.5964 394.311 56.5587L405.887 40.6743C405.915 40.636 405.951 40.6046 405.992 40.5829C406.034 40.5612 406.08 40.5497 406.127 40.5493L410.661 40.5782C410.74 40.5782 410.815 40.6096 410.871 40.6655C410.927 40.7214 410.958 40.7972 410.958 40.8762L410.939 78.4526C410.939 78.4917 410.931 78.5305 410.916 78.5667C410.901 78.6028 410.88 78.6357 410.852 78.6634C410.824 78.6911 410.792 78.713 410.756 78.728C410.72 78.743 410.681 78.7507 410.642 78.7507L406.538 78.7603C406.459 78.7603 406.384 78.7289 406.328 78.673C406.273 78.6171 406.241 78.5413 406.241 78.4622L406.213 49.2992C406.212 49.2366 406.192 49.1758 406.155 49.1255C406.118 49.0751 406.066 49.0377 406.007 49.0186C405.948 48.9994 405.884 48.9995 405.825 49.0188C405.765 49.0381 405.714 49.0756 405.677 49.1261L394.311 64.6163C394.284 64.654 394.248 64.6847 394.206 64.7059C394.165 64.7271 394.119 64.7381 394.072 64.7381C394.025 64.7381 393.979 64.7271 393.938 64.7059C393.896 64.6847 393.86 64.654 393.833 64.6163L382.563 49.1453C382.526 49.0949 382.474 49.0573 382.415 49.038C382.356 49.0187 382.292 49.0186 382.233 49.0378C382.174 49.0569 382.122 49.0943 382.085 49.1447C382.048 49.1951 382.028 49.2558 382.027 49.3184Z" fill="#F2EDED"/>
<path d="M432.886 53.953L442.156 41.1262C442.424 40.748 442.791 40.5589 443.257 40.5589L447.581 40.5686C447.658 40.5689 447.733 40.5903 447.798 40.6304C447.864 40.6704 447.917 40.7277 447.952 40.7959C447.988 40.8642 448.004 40.9409 447.999 41.0177C447.994 41.0946 447.969 41.1687 447.925 41.232L435.479 58.6356C435.007 59.2916 434.755 60.0832 434.761 60.8952L434.771 78.2218C434.771 78.3672 434.713 78.5066 434.611 78.6094C434.509 78.7122 434.37 78.7699 434.225 78.7699L430.561 78.7795C430.21 78.7795 430.038 78.6065 430.044 78.2603C430.07 72.5296 430.07 66.738 430.044 60.8856C430.044 59.8727 429.716 58.9176 429.059 58.0202C425.022 52.4883 421.019 46.8826 417.052 41.2032C416.765 40.7929 416.874 40.5846 417.378 40.5782L421.769 40.5686C422.241 40.5686 422.614 40.7577 422.888 41.1359L432.092 53.953C432.353 54.3248 432.618 54.3248 432.886 53.953Z" fill="#F2EDED"/>
<path d="M168.835 109.98V102.802H171.375C171.93 102.802 172.389 102.903 172.754 103.107C173.118 103.31 173.39 103.588 173.571 103.941C173.752 104.291 173.843 104.686 173.843 105.126C173.843 105.567 173.751 105.964 173.568 106.317C173.387 106.668 173.113 106.946 172.747 107.151C172.382 107.355 171.924 107.456 171.372 107.456H169.625V106.538H171.275C171.625 106.538 171.909 106.477 172.127 106.356C172.345 106.232 172.505 106.064 172.607 105.851C172.71 105.639 172.761 105.397 172.761 105.126C172.761 104.855 172.71 104.614 172.607 104.404C172.505 104.193 172.344 104.029 172.124 103.909C171.906 103.79 171.618 103.731 171.261 103.731H169.91V109.98H168.835Z" fill="#F2EDED"/>
<path d="M178.044 109.98V102.802H180.584C181.136 102.802 181.594 102.898 181.959 103.089C182.325 103.281 182.599 103.546 182.78 103.885C182.961 104.221 183.051 104.61 183.051 105.052C183.051 105.491 182.96 105.878 182.776 106.212C182.596 106.544 182.322 106.802 181.955 106.987C181.591 107.171 181.133 107.264 180.581 107.264H178.656V106.331H180.483C180.831 106.331 181.114 106.281 181.332 106.181C181.553 106.08 181.714 105.934 181.816 105.742C181.918 105.551 181.969 105.321 181.969 105.052C181.969 104.781 181.917 104.546 181.812 104.348C181.71 104.149 181.549 103.997 181.329 103.892C181.111 103.784 180.824 103.731 180.469 103.731H179.119V109.98H178.044ZM181.562 106.741L183.323 109.98H182.098L180.372 106.741H181.562Z" fill="#F2EDED"/>
<path d="M193.491 106.391C193.491 107.157 193.352 107.816 193.073 108.368C192.795 108.917 192.413 109.34 191.928 109.636C191.446 109.931 190.897 110.078 190.282 110.078C189.665 110.078 189.114 109.931 188.629 109.636C188.147 109.34 187.766 108.916 187.488 108.364C187.209 107.813 187.07 107.155 187.07 106.391C187.07 105.624 187.209 104.967 187.488 104.418C187.766 103.866 188.147 103.443 188.629 103.149C189.114 102.852 189.665 102.704 190.282 102.704C190.897 102.704 191.446 102.852 191.928 103.149C192.413 103.443 192.795 103.866 193.073 104.418C193.352 104.967 193.491 105.624 193.491 106.391ZM192.426 106.391C192.426 105.807 192.332 105.315 192.144 104.915C191.959 104.513 191.703 104.21 191.379 104.004C191.056 103.796 190.691 103.692 190.282 103.692C189.872 103.692 189.505 103.796 189.183 104.004C188.86 104.21 188.605 104.513 188.417 104.915C188.231 105.315 188.139 105.807 188.139 106.391C188.139 106.975 188.231 107.468 188.417 107.87C188.605 108.27 188.86 108.573 189.183 108.781C189.505 108.987 189.872 109.09 190.282 109.09C190.691 109.09 191.056 108.987 191.379 108.781C191.703 108.573 191.959 108.27 192.144 107.87C192.332 107.468 192.426 106.975 192.426 106.391Z" fill="#F2EDED"/>
<path d="M197.772 109.98V102.802H202.192V103.734H198.847V105.921H201.875V106.85H198.847V109.98H197.772Z" fill="#F2EDED"/>
<path d="M206.454 109.98V102.802H210.922V103.734H207.529V105.921H210.689V106.85H207.529V109.048H210.964V109.98H206.454Z" fill="#F2EDED"/>
<path d="M219.186 104.687C219.149 104.356 218.996 104.099 218.727 103.916C218.458 103.732 218.119 103.639 217.711 103.639C217.418 103.639 217.165 103.686 216.952 103.78C216.738 103.871 216.573 103.997 216.454 104.158C216.338 104.317 216.28 104.498 216.28 104.701C216.28 104.872 216.32 105.019 216.399 105.143C216.48 105.267 216.585 105.371 216.715 105.455C216.847 105.537 216.989 105.606 217.14 105.662C217.291 105.716 217.436 105.76 217.575 105.795L218.271 105.977C218.498 106.033 218.731 106.109 218.97 106.205C219.209 106.301 219.431 106.427 219.635 106.584C219.839 106.74 220.004 106.934 220.129 107.165C220.257 107.397 220.321 107.674 220.321 107.996C220.321 108.403 220.216 108.764 220.007 109.079C219.801 109.395 219.5 109.644 219.106 109.826C218.714 110.008 218.24 110.099 217.683 110.099C217.149 110.099 216.687 110.014 216.298 109.843C215.908 109.673 215.603 109.431 215.382 109.118C215.162 108.802 215.04 108.428 215.017 107.996H216.096C216.117 108.256 216.2 108.472 216.346 108.645C216.495 108.815 216.684 108.943 216.914 109.027C217.146 109.108 217.4 109.149 217.676 109.149C217.98 109.149 218.25 109.101 218.487 109.006C218.726 108.907 218.914 108.772 219.05 108.599C219.187 108.424 219.256 108.219 219.256 107.986C219.256 107.773 219.195 107.599 219.075 107.463C218.956 107.328 218.795 107.216 218.591 107.127C218.389 107.038 218.161 106.96 217.905 106.892L217.063 106.661C216.493 106.504 216.04 106.274 215.706 105.97C215.374 105.667 215.208 105.265 215.208 104.765C215.208 104.351 215.32 103.99 215.542 103.682C215.765 103.373 216.067 103.134 216.447 102.963C216.828 102.79 217.257 102.704 217.735 102.704C218.217 102.704 218.643 102.789 219.012 102.96C219.383 103.13 219.676 103.365 219.889 103.664C220.103 103.961 220.214 104.302 220.223 104.687H219.186Z" fill="#F2EDED"/>
<path d="M228.433 104.687C228.396 104.356 228.243 104.099 227.974 103.916C227.704 103.732 227.366 103.639 226.957 103.639C226.665 103.639 226.412 103.686 226.199 103.78C225.985 103.871 225.819 103.997 225.701 104.158C225.585 104.317 225.527 104.498 225.527 104.701C225.527 104.872 225.567 105.019 225.645 105.143C225.727 105.267 225.832 105.371 225.962 105.455C226.094 105.537 226.236 105.606 226.387 105.662C226.537 105.716 226.682 105.76 226.822 105.795L227.518 105.977C227.745 106.033 227.978 106.109 228.217 106.205C228.456 106.301 228.678 106.427 228.882 106.584C229.086 106.74 229.251 106.934 229.376 107.165C229.504 107.397 229.567 107.674 229.567 107.996C229.567 108.403 229.463 108.764 229.254 109.079C229.048 109.395 228.747 109.644 228.353 109.826C227.961 110.008 227.486 110.099 226.93 110.099C226.396 110.099 225.934 110.014 225.544 109.843C225.155 109.673 224.85 109.431 224.629 109.118C224.409 108.802 224.287 108.428 224.264 107.996H225.343C225.364 108.256 225.447 108.472 225.593 108.645C225.742 108.815 225.931 108.943 226.16 109.027C226.392 109.108 226.646 109.149 226.923 109.149C227.227 109.149 227.497 109.101 227.733 109.006C227.972 108.907 228.16 108.772 228.297 108.599C228.434 108.424 228.503 108.219 228.503 107.986C228.503 107.773 228.442 107.599 228.322 107.463C228.203 107.328 228.042 107.216 227.838 107.127C227.636 107.038 227.407 106.96 227.152 106.892L226.31 106.661C225.739 106.504 225.287 106.274 224.953 105.97C224.621 105.667 224.455 105.265 224.455 104.765C224.455 104.351 224.567 103.99 224.789 103.682C225.012 103.373 225.314 103.134 225.694 102.963C226.075 102.79 226.504 102.704 226.982 102.704C227.464 102.704 227.89 102.789 228.259 102.96C228.63 103.13 228.923 103.365 229.136 103.664C229.349 103.961 229.461 104.302 229.47 104.687H228.433Z" fill="#F2EDED"/>
<path d="M234.868 102.802V109.98H233.793V102.802H234.868Z" fill="#F2EDED"/>
<path d="M245.565 106.391C245.565 107.157 245.426 107.816 245.147 108.368C244.869 108.917 244.487 109.34 244.002 109.636C243.52 109.931 242.971 110.078 242.356 110.078C241.739 110.078 241.188 109.931 240.703 109.636C240.221 109.34 239.84 108.916 239.562 108.364C239.283 107.813 239.144 107.155 239.144 106.391C239.144 105.624 239.283 104.967 239.562 104.418C239.84 103.866 240.221 103.443 240.703 103.149C241.188 102.852 241.739 102.704 242.356 102.704C242.971 102.704 243.52 102.852 244.002 103.149C244.487 103.443 244.869 103.866 245.147 104.418C245.426 104.967 245.565 105.624 245.565 106.391ZM244.5 106.391C244.5 105.807 244.406 105.315 244.218 104.915C244.033 104.513 243.777 104.21 243.453 104.004C243.13 103.796 242.765 103.692 242.356 103.692C241.946 103.692 241.579 103.796 241.257 104.004C240.934 104.21 240.679 104.513 240.491 104.915C240.305 105.315 240.213 105.807 240.213 106.391C240.213 106.975 240.305 107.468 240.491 107.87C240.679 108.27 240.934 108.573 241.257 108.781C241.579 108.987 241.946 109.09 242.356 109.09C242.765 109.09 243.13 108.987 243.453 108.781C243.777 108.573 244.033 108.27 244.218 107.87C244.406 107.468 244.5 106.975 244.5 106.391Z" fill="#F2EDED"/>
<path d="M255.598 102.802V109.98H254.61L250.987 104.716H250.921V109.98H249.846V102.802H250.841L254.467 108.073H254.533V102.802H255.598Z" fill="#F2EDED"/>
<path d="M260.709 109.98H259.568L262.132 102.802H263.375L265.94 109.98H264.798L262.783 104.106H262.728L260.709 109.98ZM260.901 107.169H264.603V108.08H260.901V107.169Z" fill="#F2EDED"/>
<path d="M269.909 109.98V102.802H270.984V109.048H274.214V109.98H269.909Z" fill="#F2EDED"/>
<path d="M289.096 103.734V102.802H294.612V103.734H292.388V109.98H291.316V103.734H289.096Z" fill="#F2EDED"/>
<path d="M298.771 109.98V102.802H301.312C301.864 102.802 302.322 102.898 302.686 103.089C303.053 103.281 303.327 103.546 303.508 103.885C303.688 104.221 303.779 104.61 303.779 105.052C303.779 105.491 303.687 105.878 303.504 106.212C303.323 106.544 303.049 106.802 302.683 106.987C302.318 107.171 301.86 107.264 301.308 107.264H299.384V106.331H301.211C301.559 106.331 301.842 106.281 302.06 106.181C302.28 106.08 302.441 105.934 302.544 105.742C302.646 105.551 302.697 105.321 302.697 105.052C302.697 104.781 302.644 104.546 302.54 104.348C302.438 104.149 302.277 103.997 302.056 103.892C301.838 103.784 301.552 103.731 301.197 103.731H299.846V109.98H298.771ZM302.289 106.741L304.05 109.98H302.825L301.099 106.741H302.289Z" fill="#F2EDED"/>
<path d="M308.63 109.98H307.488L310.053 102.802H311.295L313.86 109.98H312.719L310.704 104.106H310.648L308.63 109.98ZM308.821 107.169H312.524V108.08H308.821V107.169Z" fill="#F2EDED"/>
<path d="M318.905 102.802V109.98H317.829V102.802H318.905Z" fill="#F2EDED"/>
<path d="M329.163 102.802V109.98H328.175L324.552 104.716H324.486V109.98H323.411V102.802H324.406L328.032 108.073H328.099V102.802H329.163Z" fill="#F2EDED"/>
<path d="M334.747 102.802V109.98H333.672V102.802H334.747Z" fill="#F2EDED"/>
<path d="M345.006 102.802V109.98H344.018L340.395 104.716H340.329V109.98H339.254V102.802H340.249L343.875 108.073H343.941V102.802H345.006Z" fill="#F2EDED"/>
<path d="M354.338 105.07C354.271 104.857 354.18 104.666 354.067 104.498C353.955 104.328 353.822 104.183 353.667 104.064C353.511 103.942 353.334 103.85 353.134 103.787C352.937 103.724 352.72 103.692 352.483 103.692C352.082 103.692 351.72 103.796 351.398 104.004C351.075 104.212 350.82 104.517 350.632 104.919C350.446 105.318 350.353 105.808 350.353 106.387C350.353 106.969 350.447 107.461 350.635 107.863C350.823 108.265 351.081 108.57 351.408 108.778C351.735 108.986 352.107 109.09 352.525 109.09C352.913 109.09 353.25 109.01 353.538 108.851C353.828 108.692 354.052 108.468 354.209 108.178C354.37 107.886 354.45 107.543 354.45 107.148L354.728 107.201H352.689V106.307H355.49V107.123C355.49 107.726 355.363 108.25 355.107 108.694C354.854 109.135 354.504 109.476 354.056 109.717C353.611 109.958 353.1 110.078 352.525 110.078C351.88 110.078 351.314 109.929 350.827 109.629C350.342 109.33 349.964 108.906 349.692 108.357C349.421 107.806 349.285 107.151 349.285 106.394C349.285 105.822 349.364 105.308 349.522 104.852C349.68 104.397 349.901 104.01 350.186 103.692C350.474 103.372 350.812 103.128 351.199 102.96C351.589 102.789 352.015 102.704 352.476 102.704C352.861 102.704 353.22 102.761 353.552 102.875C353.886 102.99 354.183 103.152 354.443 103.363C354.705 103.573 354.922 103.823 355.093 104.113C355.265 104.4 355.381 104.719 355.441 105.07H354.338Z" fill="#F2EDED"/>
<path d="M371.464 109.98H370.323L372.888 102.802H374.13L376.695 109.98H375.554L373.539 104.106H373.483L371.464 109.98ZM371.656 107.169H375.359V108.08H371.656V107.169Z" fill="#F2EDED"/>
<path d="M386.249 105.136H385.163C385.121 104.902 385.044 104.697 384.93 104.519C384.816 104.342 384.677 104.191 384.512 104.067C384.348 103.943 384.163 103.85 383.959 103.787C383.757 103.724 383.543 103.692 383.315 103.692C382.905 103.692 382.537 103.796 382.212 104.004C381.89 104.212 381.634 104.517 381.446 104.919C381.261 105.321 381.168 105.811 381.168 106.391C381.168 106.975 381.261 107.468 381.446 107.87C381.634 108.272 381.891 108.576 382.216 108.781C382.54 108.987 382.906 109.09 383.312 109.09C383.537 109.09 383.75 109.059 383.952 108.999C384.156 108.936 384.341 108.843 384.505 108.722C384.67 108.6 384.809 108.452 384.923 108.277C385.039 108.099 385.119 107.896 385.163 107.667L386.249 107.67C386.191 108.023 386.078 108.348 385.911 108.645C385.747 108.939 385.534 109.194 385.275 109.409C385.017 109.621 384.722 109.786 384.391 109.903C384.059 110.02 383.697 110.078 383.305 110.078C382.688 110.078 382.138 109.931 381.655 109.636C381.173 109.34 380.792 108.916 380.514 108.364C380.238 107.813 380.1 107.155 380.1 106.391C380.1 105.624 380.239 104.967 380.517 104.418C380.796 103.866 381.176 103.443 381.659 103.149C382.141 102.852 382.69 102.704 383.305 102.704C383.683 102.704 384.036 102.759 384.363 102.868C384.692 102.976 384.988 103.135 385.25 103.345C385.512 103.553 385.729 103.808 385.901 104.109C386.073 104.408 386.189 104.751 386.249 105.136Z" fill="#F2EDED"/>
<path d="M391.03 109.98H389.888L392.453 102.802H393.696L396.261 109.98H395.119L393.104 104.106H393.048L391.03 109.98ZM391.221 107.169H394.924V108.08H391.221V107.169Z" fill="#F2EDED"/>
<path d="M402.537 109.98H400.23V102.802H402.61C403.309 102.802 403.908 102.946 404.409 103.233C404.911 103.518 405.294 103.928 405.561 104.463C405.83 104.996 405.965 105.635 405.965 106.38C405.965 107.128 405.829 107.771 405.558 108.308C405.289 108.846 404.899 109.259 404.389 109.549C403.878 109.836 403.261 109.98 402.537 109.98ZM401.305 109.034H402.478C403.021 109.034 403.472 108.931 403.832 108.725C404.191 108.517 404.46 108.217 404.639 107.824C404.818 107.43 404.907 106.948 404.907 106.38C404.907 105.817 404.818 105.339 404.639 104.947C404.463 104.554 404.199 104.256 403.849 104.053C403.499 103.85 403.064 103.748 402.544 103.748H401.305V109.034Z" fill="#F2EDED"/>
<path d="M410.242 109.98V102.802H414.711V103.734H411.318V105.921H414.478V106.85H411.318V109.048H414.753V109.98H410.242Z" fill="#F2EDED"/>
<path d="M419.087 102.802H420.392L422.661 108.382H422.745L425.014 102.802H426.319V109.98H425.296V104.786H425.23L423.128 109.969H422.278L420.176 104.782H420.11V109.98H419.087V102.802Z" fill="#F2EDED"/>
<path d="M430.272 102.802H431.494L433.356 106.065H433.432L435.294 102.802H436.516L433.93 107.162V109.98H432.858V107.162L430.272 102.802Z" fill="#F2EDED"/>
</svg>
