<svg width="48" height="48" viewBox="0 0 48 48" fill="none" xmlns="http://www.w3.org/2000/svg">
<path d="M0 0.999999C0 0.447714 0.447715 0 1 0H48V48H0.999999C0.447714 48 0 47.5523 0 47V0.999999Z" fill="#594E4E"/>
<path fill-rule="evenodd" clip-rule="evenodd" d="M30.0474 19.0806C30.0414 20.276 29.6772 21.4428 29.0008 22.4338C28.3244 23.4248 27.3661 24.1957 26.2469 24.649C25.1277 25.1023 23.8977 25.2178 22.7121 24.981C21.5265 24.7441 20.4385 24.1655 19.5853 23.3182C18.7322 22.4708 18.1521 21.3926 17.9183 20.2198C17.6845 19.0469 17.8076 17.832 18.2718 16.7282C18.7361 15.6243 19.5208 14.6811 20.5269 14.0176C21.5331 13.3541 22.7155 13 23.9251 13C24.7315 13.0006 25.5298 13.1585 26.2744 13.4647C27.0189 13.7708 27.695 14.2191 28.2637 14.7841C28.8325 15.349 29.2829 16.0193 29.589 16.7566C29.895 17.4939 30.0509 18.2837 30.0474 19.0806ZM23.9251 36C18.9344 36 14.6726 35.2238 14.6726 32.09C14.6726 28.9563 18.9068 28.1513 23.9251 28.1513C28.9157 28.1513 33.1776 28.9275 33.1776 32.0613C33.1776 35.195 28.9448 36 23.9251 36ZM32.6641 19.1957C32.67 20.8549 32.1714 22.4775 31.2329 23.8532C31.2116 23.8845 31.1986 23.9207 31.1953 23.9583C31.192 23.9959 31.1984 24.0337 31.214 24.0682C31.2295 24.1026 31.2538 24.1326 31.2843 24.1554C31.3148 24.1781 31.3507 24.1929 31.3885 24.1982C31.6199 24.244 31.8551 24.268 32.091 24.27C33.2514 24.3106 34.3911 23.9598 35.323 23.2754C36.2548 22.5909 36.9233 21.6134 37.2184 20.5037C37.4275 19.7446 37.4573 18.9483 37.3054 18.176C37.1536 17.4038 36.8243 16.6763 36.3429 16.0498C35.8615 15.4233 35.2407 14.9144 34.5288 14.5626C33.8168 14.2108 33.0326 14.0253 32.2366 14.0206C31.8906 14.0172 31.5453 14.051 31.2067 14.1213C31.1593 14.1299 31.1168 14.1554 31.0874 14.1931C31.075 14.2187 31.0706 14.2476 31.0748 14.2757C31.0789 14.3039 31.0914 14.33 31.1106 14.3512C32.1268 15.7664 32.67 17.4604 32.6641 19.1957ZM36.622 26.6706C37.2524 26.7204 37.862 26.917 38.4007 27.2443C38.9395 27.5716 39.3922 28.0203 39.7218 28.5537C39.9049 28.9279 40 29.3384 40 29.7541C40 30.1698 39.9049 30.5801 39.7218 30.9544C39.0527 32.3919 36.8941 32.8519 36.0562 32.9669C36.0158 32.9708 35.9749 32.9656 35.9368 32.9516C35.8987 32.9376 35.8643 32.9151 35.8362 32.886C35.8082 32.8569 35.7873 32.822 35.775 32.7837C35.7627 32.7454 35.7593 32.7048 35.7653 32.6651C35.8554 31.3504 35.5329 30.0402 34.8417 28.9134C34.1506 27.7866 33.1245 26.898 31.9035 26.3688C31.8889 26.3639 31.8767 26.3538 31.8692 26.3406C31.8617 26.3273 31.8594 26.3117 31.8627 26.2969C31.8627 26.2969 31.8801 26.2681 31.9092 26.2681C33.4902 26.2339 35.0704 26.3689 36.622 26.6706ZM15.9075 24.27C16.144 24.2678 16.3797 24.2438 16.6116 24.1982C16.6495 24.1931 16.6854 24.1785 16.716 24.1557C16.7465 24.133 16.7707 24.1027 16.7862 24.0682C16.8017 24.0336 16.8079 23.9956 16.8043 23.958C16.8007 23.9203 16.7874 23.8843 16.7657 23.8532C15.8121 22.4427 15.3134 20.7796 15.3352 19.0834C15.357 17.3872 15.8984 15.7373 16.8879 14.3512C16.9072 14.33 16.9197 14.3039 16.9238 14.2757C16.9279 14.2476 16.9236 14.2187 16.9112 14.1931C16.8821 14.155 16.8394 14.1295 16.7919 14.1213C16.4528 14.0511 16.107 14.0172 15.7606 14.0206C14.9647 14.0256 14.1806 14.2112 13.4688 14.5631C12.757 14.9151 12.1365 15.424 11.6552 16.0505C11.174 16.677 10.8448 17.4042 10.693 18.1764C10.5413 18.9485 10.5711 19.7447 10.7801 20.5037C11.0753 21.6134 11.7438 22.5909 12.6756 23.2754C13.6074 23.9598 14.7472 24.3106 15.9075 24.27ZM16.1402 26.2969C16.1436 26.3117 16.1413 26.3273 16.1337 26.3406C16.1262 26.3538 16.114 26.3639 16.0995 26.3688C14.8783 26.898 13.852 27.7864 13.1606 28.9132C12.4692 30.04 12.1464 31.3503 12.2362 32.6651C12.2425 32.7049 12.2394 32.7454 12.2272 32.7839C12.215 32.8223 12.194 32.8575 12.1659 32.8867C12.1378 32.9159 12.1033 32.9383 12.0651 32.9522C12.0268 32.9661 11.9858 32.9711 11.9453 32.9669C11.106 32.8519 8.94888 32.3919 8.27832 30.9544C8.09519 30.5801 8 30.1698 8 29.7541C8 29.3384 8.09519 28.9279 8.27832 28.5537C8.6079 28.0203 9.06053 27.5716 9.59928 27.2443C10.138 26.917 10.7476 26.7204 11.378 26.6706C12.9326 26.376 14.5139 26.241 16.0966 26.2681C16.1228 26.2681 16.1373 26.2969 16.1446 26.2969H16.1402Z" fill="white"/>
</svg>
