<svg width="48" height="48" viewBox="0 0 48 48" fill="none" xmlns="http://www.w3.org/2000/svg">
<path d="M0 0.999999C0 0.447714 0.447715 0 1 0H48V48H0.999999C0.447714 48 0 47.5523 0 47V0.999999Z" fill="#594E4E"/>
<path fill-rule="evenodd" clip-rule="evenodd" d="M12 22C12 18.8174 13.2643 15.7652 15.5147 13.5148C17.7652 11.2643 20.8174 10 24 10C27.1826 10 30.2348 11.2643 32.4853 13.5148C34.7357 15.7652 36 18.8174 36 22C35.9606 25.2265 34.8535 28.3492 32.8518 30.8801C30.6826 33.7323 28.036 36.1874 25.0292 38.1365C24.7337 38.3625 24.372 38.485 24 38.485C23.628 38.485 23.2663 38.3625 22.9708 38.1365C19.957 36.1969 17.3093 33.7404 15.1496 30.8801C13.1468 28.3497 12.0392 25.2268 12 22ZM20.0386 22.3671C20.0386 23.4177 20.456 24.4253 21.1989 25.1682C21.9418 25.9111 22.9494 26.3285 24 26.3285C25.0506 26.3285 26.0582 25.9111 26.8011 25.1682C27.544 24.4253 27.9614 23.4177 27.9614 22.3671C27.9614 21.3164 27.544 20.3089 26.8011 19.5659C26.0582 18.823 25.0506 18.4058 24 18.4058C22.9494 18.4058 21.9418 18.823 21.1989 19.5659C20.456 20.3089 20.0386 21.3164 20.0386 22.3671Z" fill="white"/>
</svg>
