<svg width="48" height="48" viewBox="0 0 48 48" fill="none" xmlns="http://www.w3.org/2000/svg">
<path d="M0 0.999999C0 0.447714 0.447715 0 1 0H48V48H0.999999C0.447714 48 0 47.5523 0 47V0.999999Z" fill="#594E4E"/>
<path fill-rule="evenodd" clip-rule="evenodd" d="M37.5454 37.8707H35.7677V19.3551H33.0299V37.8707H14.9677V19.3551H12.301V37.8707H10.5232C10.344 37.8707 10.1722 37.9419 10.0455 38.0686C9.91883 38.1952 9.84766 38.3671 9.84766 38.5462C9.84766 38.7254 9.91883 38.8972 10.0455 39.0239C10.1722 39.1506 10.344 39.2218 10.5232 39.2218H37.5454C37.7246 39.2218 37.8964 39.1506 38.0231 39.0239C38.1498 38.8972 38.221 38.7254 38.221 38.5462C38.221 38.3671 38.1498 38.1952 38.0231 38.0686C37.8964 37.9419 37.7246 37.8707 37.5454 37.8707ZM35.741 14.3862C35.741 13.9116 35.6474 13.4416 35.4654 13.0031C35.2835 12.5647 35.0169 12.1665 34.6808 11.8312C34.3448 11.496 33.9459 11.2303 33.507 11.0495C33.0681 10.8687 32.5979 10.7762 32.1232 10.7774H15.8743C15.3996 10.7762 14.9294 10.8687 14.4905 11.0495C14.0517 11.2303 13.6528 11.496 13.3167 11.8312C12.9806 12.1665 12.714 12.5647 12.5321 13.0031C12.3502 13.4416 12.2565 13.9116 12.2565 14.3862V18.004H35.741V14.3862ZM21.7677 15.0885C21.6734 15.1835 21.5531 15.2485 21.4219 15.275C21.2906 15.3016 21.1545 15.2886 21.0307 15.2376C20.9069 15.1867 20.8011 15.1001 20.7266 14.9889C20.6521 14.8776 20.6123 14.7468 20.6123 14.6129C20.6123 14.479 20.6521 14.3482 20.7266 14.237C20.8011 14.1257 20.9069 14.0392 21.0307 13.9882C21.1545 13.9373 21.2906 13.9242 21.4219 13.9508C21.5531 13.9773 21.6734 14.0423 21.7677 14.1374C21.8308 14.1994 21.881 14.2734 21.9152 14.3551C21.9495 14.4367 21.9671 14.5244 21.9671 14.6129C21.9671 14.7015 21.9495 14.7891 21.9152 14.8708C21.881 14.9524 21.8308 15.0264 21.7677 15.0885ZM24.4343 15.0885C24.3715 15.1519 24.2967 15.2022 24.2144 15.2366C24.132 15.271 24.0436 15.2887 23.9543 15.2887C23.8651 15.2887 23.7767 15.271 23.6943 15.2366C23.6119 15.2022 23.5371 15.1519 23.4743 15.0885C23.4112 15.0264 23.361 14.9524 23.3268 14.8708C23.2925 14.7891 23.2749 14.7015 23.2749 14.6129C23.2749 14.5244 23.2925 14.4367 23.3268 14.3551C23.361 14.2734 23.4112 14.1994 23.4743 14.1374C23.5371 14.0739 23.6119 14.0236 23.6943 13.9892C23.7767 13.9549 23.8651 13.9372 23.9543 13.9372C24.0436 13.9372 24.132 13.9549 24.2144 13.9892C24.2967 14.0236 24.3715 14.0739 24.4343 14.1374C24.5005 14.1964 24.5542 14.268 24.5923 14.3481C24.6304 14.4282 24.6522 14.515 24.6563 14.6036C24.6604 14.6921 24.6469 14.7806 24.6164 14.8639C24.5859 14.9472 24.5391 15.0235 24.4788 15.0885H24.4343ZM27.1454 15.0885C27.0826 15.1519 27.0079 15.2022 26.9255 15.2366C26.8431 15.271 26.7547 15.2887 26.6654 15.2887C26.5762 15.2887 26.4878 15.271 26.4054 15.2366C26.323 15.2022 26.2482 15.1519 26.1854 15.0885C26.1223 15.0264 26.0721 14.9524 26.0379 14.8708C26.0036 14.7891 25.986 14.7015 25.986 14.6129C25.986 14.5244 26.0036 14.4367 26.0379 14.3551C26.0721 14.2734 26.1223 14.1994 26.1854 14.1374C26.2479 14.0743 26.3221 14.0242 26.404 13.9899C26.4858 13.9555 26.5736 13.9376 26.6623 13.9372C26.751 13.9368 26.839 13.9539 26.9211 13.9875C27.0032 14.021 27.078 14.0705 27.141 14.1329C27.204 14.1954 27.2541 14.2696 27.2885 14.3514C27.3228 14.4333 27.3407 14.521 27.3411 14.6098C27.3415 14.6985 27.3245 14.7864 27.2909 14.8686C27.2573 14.9507 27.2079 15.0254 27.1454 15.0885Z" fill="white"/>
</svg>
