<svg width="32" height="32" viewBox="0 0 32 32" fill="none" xmlns="http://www.w3.org/2000/svg">
<mask id="path-1-inside-1_1945_36730" fill="white">
<path d="M0 0.5C0 0.223858 0.223858 0 0.5 0H32V32H0.5C0.223858 32 0 31.7761 0 31.5V0.5Z"/>
</mask>
<path d="M0 0.5C0 0.223858 0.223858 0 0.5 0H32V32H0.5C0.223858 32 0 31.7761 0 31.5V0.5Z" fill="#807070"/>
<path d="M0 0H32H0ZM32 32H0H32ZM0 32V0V32ZM32.5 0V32H31.5V0H32.5Z" fill="#807070" mask="url(#path-1-inside-1_1945_36730)"/>
<path d="M7.46967 15.4697C7.17678 15.7626 7.17678 16.2374 7.46967 16.5303L12.2426 21.3033C12.5355 21.5962 13.0104 21.5962 13.3033 21.3033C13.5962 21.0104 13.5962 20.5355 13.3033 20.2426L9.06066 16L13.3033 11.7574C13.5962 11.4645 13.5962 10.9896 13.3033 10.6967C13.0104 10.4038 12.5355 10.4038 12.2426 10.6967L7.46967 15.4697ZM24 15.25L8 15.25L8 16.75L24 16.75L24 15.25Z" fill="white"/>
</svg>
