<svg width="64" height="64" viewBox="0 0 64 64" fill="none" xmlns="http://www.w3.org/2000/svg">
<rect width="64" height="64" rx="1" fill="white"/>
<g clip-path="url(#clip0_1515_85048)">
<path d="M19.9983 20.8654C19.6277 22.0665 19.3753 23.2994 19.3753 24.5788C19.3753 31.5415 25.039 37.2046 32.001 37.2046C38.9631 37.2046 44.6268 31.5415 44.6268 24.5788C44.6268 23.2994 44.3744 22.0665 44.0031 20.8654H19.9983ZM44.404 39.0942L33.5771 49.9218C32.7108 50.7882 31.293 50.7882 30.4265 49.9219L19.5981 39.0941C19.3634 38.8594 19.0286 38.7331 18.6987 38.7702C12.4024 39.4767 7.49219 44.8332 7.49219 51.3159V54.2867C7.49219 56.3376 9.15477 58.0001 11.2056 58.0001H52.7964C54.8472 58.0001 56.5098 56.3375 56.5098 54.2867V51.3159C56.5098 44.8349 51.5992 39.4771 45.3038 38.7701C44.9738 38.733 44.6389 38.8593 44.404 39.0942ZM52.8268 8.22808V16.8735C52.8268 18.0919 51.8165 19.1016 50.5988 19.1016C49.3513 19.1016 48.3707 18.0919 48.3707 16.8735V10.4562H44.6275V16.3977H19.376V10.4562H13.4345C12.2168 10.4562 11.2064 9.47699 11.2064 8.22808C11.2064 7.01105 12.2168 6 13.4345 6H50.5989C51.8166 6 52.8268 7.01105 52.8268 8.22808Z" fill="#262121"/>
</g>
<defs>
<clipPath id="clip0_1515_85048">
<rect width="52" height="52" fill="white" transform="translate(6 6)"/>
</clipPath>
</defs>
</svg>
