<svg width="64" height="64" viewBox="0 0 64 64" fill="none" xmlns="http://www.w3.org/2000/svg">
<rect width="64" height="64" rx="1" fill="white"/>
<path d="M39 14.9375H25C24.6519 14.9375 24.3181 15.0758 24.0719 15.3219C23.8258 15.5681 23.6875 15.9019 23.6875 16.25V38.5625H28.9375V32C28.9375 31.6519 29.0758 31.3181 29.3219 31.0719C29.5681 30.8258 29.9019 30.6875 30.25 30.6875H33.75C34.0981 30.6875 34.4319 30.8258 34.6781 31.0719C34.9242 31.3181 35.0625 31.6519 35.0625 32V38.5625H40.3125V16.25C40.3125 15.9019 40.1742 15.5681 39.9281 15.3219C39.6819 15.0758 39.3481 14.9375 39 14.9375ZM28.0625 26.75C28.0625 27.0981 27.9242 27.4319 27.6781 27.6781C27.4319 27.9242 27.0981 28.0625 26.75 28.0625C26.4019 28.0625 26.0681 27.9242 25.8219 27.6781C25.5758 27.4319 25.4375 27.0981 25.4375 26.75V25C25.4375 24.6519 25.5758 24.3181 25.8219 24.0719C26.0681 23.8258 26.4019 23.6875 26.75 23.6875C27.0981 23.6875 27.4319 23.8258 27.6781 24.0719C27.9242 24.3181 28.0625 24.6519 28.0625 25V26.75ZM28.0625 19.75C28.0625 20.0981 27.9242 20.4319 27.6781 20.6781C27.4319 20.9242 27.0981 21.0625 26.75 21.0625C26.4019 21.0625 26.0681 20.9242 25.8219 20.6781C25.5758 20.4319 25.4375 20.0981 25.4375 19.75V18C25.4375 17.6519 25.5758 17.3181 25.8219 17.0719C26.0681 16.8258 26.4019 16.6875 26.75 16.6875C27.0981 16.6875 27.4319 16.8258 27.6781 17.0719C27.9242 17.3181 28.0625 17.6519 28.0625 18V19.75ZM33.3125 26.75C33.3125 27.0981 33.1742 27.4319 32.9281 27.6781C32.6819 27.9242 32.3481 28.0625 32 28.0625C31.6519 28.0625 31.3181 27.9242 31.0719 27.6781C30.8258 27.4319 30.6875 27.0981 30.6875 26.75V25C30.6875 24.6519 30.8258 24.3181 31.0719 24.0719C31.3181 23.8258 31.6519 23.6875 32 23.6875C32.3481 23.6875 32.6819 23.8258 32.9281 24.0719C33.1742 24.3181 33.3125 24.6519 33.3125 25V26.75ZM33.3125 19.75C33.3125 20.0981 33.1742 20.4319 32.9281 20.6781C32.6819 20.9242 32.3481 21.0625 32 21.0625C31.6519 21.0625 31.3181 20.9242 31.0719 20.6781C30.8258 20.4319 30.6875 20.0981 30.6875 19.75V18C30.6875 17.6519 30.8258 17.3181 31.0719 17.0719C31.3181 16.8258 31.6519 16.6875 32 16.6875C32.3481 16.6875 32.6819 16.8258 32.9281 17.0719C33.1742 17.3181 33.3125 17.6519 33.3125 18V19.75ZM38.5625 26.75C38.5625 27.0981 38.4242 27.4319 38.1781 27.6781C37.9319 27.9242 37.5981 28.0625 37.25 28.0625C36.9019 28.0625 36.5681 27.9242 36.3219 27.6781C36.0758 27.4319 35.9375 27.0981 35.9375 26.75V25C35.9375 24.6519 36.0758 24.3181 36.3219 24.0719C36.5681 23.8258 36.9019 23.6875 37.25 23.6875C37.5981 23.6875 37.9319 23.8258 38.1781 24.0719C38.4242 24.3181 38.5625 24.6519 38.5625 25V26.75ZM38.5625 19.75C38.5625 20.0981 38.4242 20.4319 38.1781 20.6781C37.9319 20.9242 37.5981 21.0625 37.25 21.0625C36.9019 21.0625 36.5681 20.9242 36.3219 20.6781C36.0758 20.4319 35.9375 20.0981 35.9375 19.75V18C35.9375 17.6519 36.0758 17.3181 36.3219 17.0719C36.5681 16.8258 36.9019 16.6875 37.25 16.6875C37.5981 16.6875 37.9319 16.8258 38.1781 17.0719C38.4242 17.3181 38.5625 17.6519 38.5625 18V19.75Z" fill="#262121"/>
<path d="M32 4.4375C19.6968 4.4375 9.6875 14.4468 9.6875 26.75C9.6875 30.5603 10.8434 34.6595 13.1232 38.9344C14.9138 42.2916 17.402 45.772 20.519 49.2786C25.7961 55.215 30.9937 59.1359 31.2125 59.3C31.4397 59.4704 31.716 59.5625 32 59.5625C32.284 59.5625 32.5603 59.4704 32.7875 59.3C33.0063 59.1359 38.2039 55.215 43.481 49.2783C46.5982 45.7716 49.0862 42.2913 50.8768 38.934C53.1566 34.6595 54.3125 30.5603 54.3125 26.75C54.3125 14.4468 44.3032 4.4375 32 4.4375ZM32 44.25C29.5725 44.251 27.1715 43.7457 24.9504 42.7664C22.7292 41.7871 20.7367 40.3553 19.1001 38.5625H22.375V27.1875H14.5056C14.5019 27.0417 14.5001 26.8958 14.5 26.75C14.5 17.1005 22.3505 9.25 32 9.25C41.6495 9.25 49.5 17.1005 49.5 26.75C49.5 26.8962 49.4981 27.042 49.4944 27.1875H41.625V38.5625H44.8999C43.2633 40.3553 41.2708 41.7871 39.0496 42.7664C36.8285 43.7457 34.4275 44.251 32 44.25Z" fill="#262121"/>
</svg>
