<svg width="64" height="64" viewBox="0 0 64 64" fill="none" xmlns="http://www.w3.org/2000/svg">
<rect width="64" height="64" rx="1" fill="white"/>
<g clip-path="url(#clip0_1515_85023)">
<path d="M55.1117 5.83398H28.2213C27.5511 5.83398 27.0078 6.37725 27.0078 7.0475V16.5031L28.3537 15.6674C28.686 15.4606 29.0518 15.3134 29.4347 15.2323V8.26101H53.898V25.7627H29.4348V22.931L27.0078 24.438V26.9763C27.0078 27.6466 27.5511 28.1899 28.2213 28.1899H55.1117C55.7818 28.1899 56.3252 27.6466 56.3252 26.9763V7.0475C56.3252 6.37725 55.7818 5.83398 55.1117 5.83398Z" fill="#262121"/>
<path d="M37.4675 12.5703C37.3142 12.3759 37.09 12.2504 36.8441 12.2213C36.5983 12.1922 36.351 12.262 36.1565 12.4153L31.9766 15.711C32.3878 15.9797 32.7351 16.3355 32.9939 16.7531C33.0685 16.8738 33.1355 16.9992 33.1945 17.1283L37.3125 13.8813C37.4088 13.8054 37.4892 13.7113 37.5491 13.6043C37.609 13.4974 37.6472 13.3797 37.6616 13.2579C37.676 13.1362 37.6662 13.0128 37.6329 12.8948C37.5996 12.7769 37.5434 12.6666 37.4675 12.5703Z" fill="#262121"/>
<path d="M17.2937 10.9858C19.2227 10.9858 20.7865 9.42195 20.7865 7.49288C20.7865 5.56382 19.2227 4 17.2937 4C15.3646 4 13.8008 5.56382 13.8008 7.49288C13.8008 9.42195 15.3646 10.9858 17.2937 10.9858Z" fill="#262121"/>
<path d="M31.5648 17.6417C31.0738 16.8511 30.035 16.608 29.2441 17.0989L25.831 19.2181L25.8152 16.0669C25.8042 13.8788 24.0151 12.0986 21.827 12.0986H20.169C18.7524 15.7723 19.2087 14.4086 18.0064 17.5269L18.512 15.3251C18.5471 15.1602 18.5216 14.9882 18.4404 14.8405L17.7553 13.5944L18.3633 12.4888C18.454 12.3238 18.3344 12.1217 18.1462 12.1217H16.4759C16.2878 12.1217 16.168 12.3238 16.2588 12.4888L16.868 13.5967L16.1816 14.8451C16.102 14.9901 16.0759 15.1584 16.1081 15.3206L16.5461 17.5269L14.453 12.0986H12.7614C10.5734 12.0986 8.78424 13.8787 8.77319 16.0669L8.71096 28.4481C8.70636 29.3789 9.457 30.1372 10.3878 30.1419H10.3964C11.3232 30.1419 12.0769 29.3929 12.0815 28.465L12.1437 16.0838V16.078C12.1443 15.9894 12.1802 15.9046 12.2433 15.8423C12.3065 15.7801 12.3918 15.7455 12.4805 15.7462C12.5691 15.7468 12.6539 15.7827 12.7161 15.8458C12.7784 15.909 12.8129 15.9943 12.8123 16.0829L12.8131 33.6246C14.3559 33.5589 15.7854 34.1154 16.8578 35.0927V28.2494H17.731V36.0995C18.3674 37.0337 18.7072 38.1382 18.706 39.2685C18.7072 40.2996 18.4245 41.3111 17.889 42.1922C18.4213 42.1947 18.9382 42.2654 19.4311 42.3958C20.1051 41.8098 20.9088 41.3923 21.7758 41.1778C21.7758 10.6248 21.7391 29.5155 21.7391 16.0852C21.7389 15.9917 21.7759 15.9019 21.8419 15.8356C21.908 15.7693 21.9976 15.732 22.0912 15.7318C22.1847 15.7316 22.2745 15.7686 22.3408 15.8346C22.4071 15.9006 22.4444 15.9903 22.4446 16.0838L22.4756 22.2472C22.477 22.5469 22.5584 22.8408 22.7113 23.0986C22.8641 23.3564 23.083 23.5687 23.3453 23.7137C23.6076 23.8588 23.9038 23.9312 24.2034 23.9236C24.503 23.916 24.7952 23.8286 25.0498 23.6705L31.0221 19.9624C31.8127 19.4716 32.0558 18.4324 31.5648 17.6417Z" fill="#262121"/>
<path d="M50.9472 43.0067C52.9891 43.0067 54.6444 41.3514 54.6444 39.3095C54.6444 37.2676 52.9891 35.6123 50.9472 35.6123C48.9053 35.6123 47.25 37.2676 47.25 39.3095C47.25 41.3514 48.9053 43.0067 50.9472 43.0067Z" fill="#262121"/>
<path d="M59.9412 48.3852C59.9295 46.0691 58.0358 44.1848 55.7195 44.1848H46.4466C46.8572 44.9813 47.0711 45.8645 47.0705 46.7605C47.0705 47.7455 46.8074 48.7745 46.2502 49.6898C48.3178 49.7734 50.1295 50.8831 51.1883 52.5223H55.6267V48.4284C55.6262 48.3312 55.6637 48.2377 55.7311 48.1676C55.7985 48.0976 55.8905 48.0566 55.9876 48.0533C56.0848 48.0499 56.1794 48.0846 56.2514 48.1499C56.3234 48.2152 56.3672 48.3059 56.3734 48.4029V48.4031L56.3941 52.5223H59.9621L59.9412 48.3852ZM35.7704 46.7604C35.7697 45.849 35.991 44.951 36.4151 44.1442H28.1828C28.5745 44.926 28.7782 45.7885 28.7775 46.663C28.7779 47.694 28.4953 48.7053 27.9605 49.5867C29.6622 49.5948 31.2321 50.3018 32.3665 51.4753C33.4661 50.401 34.9651 49.7347 36.6142 49.7258C36.0631 48.8348 35.7709 47.8081 35.7704 46.7604ZM32.965 35.5713C30.9232 35.5713 29.2677 37.2263 29.2677 39.2685C29.2677 41.3059 30.92 42.9657 32.965 42.9657C34.9904 42.9657 36.6622 41.3289 36.6622 39.2685C36.6622 37.2286 35.0101 35.5713 32.965 35.5713ZM17.4773 46.663C17.4767 45.7906 17.6793 44.93 18.0691 44.1496C17.9098 44.1417 18.5801 44.1442 8.28171 44.1442C5.9774 44.1442 4.07177 46.0187 4.06006 48.3446L4.03906 52.5223H7.60698L7.62787 48.3627C7.62977 48.2648 7.67007 48.1715 7.74007 48.103C7.81008 48.0345 7.90419 47.9963 8.00213 47.9965C8.10007 47.9968 8.19399 48.0355 8.26366 48.1043C8.33332 48.1731 8.37316 48.2666 8.37457 48.3645V52.5223H13.376C14.4538 50.7992 16.3072 49.7173 18.3244 49.6342C17.7693 48.7426 17.4758 47.7132 17.4773 46.663ZM13.0552 35.5713C11.0133 35.5713 9.35796 37.2266 9.35796 39.2685C9.35796 41.3011 11.0036 42.9657 13.0552 42.9657C15.0825 42.9657 16.7525 41.3234 16.7525 39.2685C16.7525 37.2265 15.0971 35.5713 13.0552 35.5713ZM50.2149 55.8222C50.2034 53.5059 48.3096 51.6216 45.9934 51.6216H36.6411C34.3249 51.6216 32.3097 53.5058 32.298 55.822L32.2679 55.7246C32.2564 53.4176 30.3713 51.5241 28.0464 51.5241H18.6941C16.378 51.5241 14.3627 53.4083 14.351 55.7246L14.33 59.9996H17.8979L17.9188 55.7425C17.919 55.6572 17.9531 55.5755 18.0136 55.5154C18.0741 55.4552 18.1559 55.4216 18.2412 55.4218C18.3265 55.422 18.4082 55.4561 18.4684 55.5165C18.5285 55.577 18.5622 55.6589 18.562 55.7442V59.9997H28.0111V55.7442C28.0124 55.6538 28.0492 55.5677 28.1135 55.5042C28.1777 55.4407 28.2644 55.4051 28.3547 55.4048C28.445 55.4046 28.5318 55.4398 28.5964 55.503C28.661 55.5661 28.6982 55.6521 28.7 55.7424L28.7209 59.9996H35.8449L35.8658 55.84V55.8397C35.8661 55.7545 35.9002 55.6728 35.9607 55.6126C36.0211 55.5525 36.103 55.5189 36.1883 55.5191C36.2736 55.5194 36.3553 55.5535 36.4154 55.614C36.4755 55.6744 36.5092 55.7563 36.5089 55.8416V59.9996H45.958V55.8416C45.9594 55.7513 45.9962 55.6651 46.0604 55.6017C46.1247 55.5382 46.2113 55.5025 46.3017 55.5023C46.392 55.502 46.4788 55.5373 46.5434 55.6004C46.608 55.6636 46.6452 55.7496 46.647 55.8399L46.6679 59.9995H50.2358L50.2149 55.8222Z" fill="#262121"/>
<path d="M23.2443 50.389C25.3101 50.389 26.9847 48.7144 26.9847 46.6486C26.9847 44.5828 25.3101 42.9082 23.2443 42.9082C21.1785 42.9082 19.5039 44.5828 19.5039 46.6486C19.5039 48.7144 21.1785 50.389 23.2443 50.389Z" fill="#262121"/>
<path d="M41.4162 50.4867C43.4819 50.4867 45.1566 48.812 45.1566 46.7463C45.1566 44.6805 43.4819 43.0059 41.4162 43.0059C39.3504 43.0059 37.6758 44.6805 37.6758 46.7463C37.6758 48.812 39.3504 50.4867 41.4162 50.4867Z" fill="#262121"/>
</g>
<defs>
<clipPath id="clip0_1515_85023">
<rect width="56" height="56" fill="white" transform="translate(4 4)"/>
</clipPath>
</defs>
</svg>
