<svg width="64" height="64" viewBox="0 0 64 64" fill="none" xmlns="http://www.w3.org/2000/svg">
<rect width="64" height="64" rx="1" fill="white"/>
<path d="M57.7896 26.5577L48.5474 10.8093C48.1236 10.0873 47.1967 9.84239 46.4717 10.261L40.9328 13.4589L35.9436 11.6238C35.7611 11.5569 35.5752 11.4996 35.3867 11.4519C33.982 11.0949 32.493 11.2952 31.2224 12.0288L22.9752 16.7904C21.1536 17.8421 20.5295 20.1714 21.5812 21.993C22.6329 23.8146 24.9622 24.4387 26.7838 23.3871L35.8338 18.162C36.2969 17.8946 36.8224 17.7538 37.3572 17.7538C37.892 17.7538 38.4174 17.8946 38.8806 18.162C38.8806 18.162 57.1138 28.6925 57.1723 28.7286L57.444 28.505C57.7239 28.2746 57.9124 27.952 57.9758 27.5951C58.0391 27.2382 57.9731 26.8704 57.7896 26.5577Z" fill="#262121"/>
<path d="M55.4734 31.2592L37.3579 20.8003L28.308 26.0253C27.2517 26.6352 26.0793 26.9467 24.8914 26.9467C24.2885 26.9462 23.6882 26.8668 23.1059 26.7103C21.3371 26.2363 19.8587 25.1019 18.9432 23.516C18.0276 21.9303 17.7845 20.0828 18.2585 18.314C18.6497 16.8537 19.492 15.5924 20.666 14.6813L16.9307 12.5247C16.186 12.0947 15.233 12.3661 14.8265 13.1239L6.18116 29.2421C5.79228 29.9672 6.04934 30.8702 6.762 31.2815L7.55388 31.7386L8.94377 29.3312C10.0968 27.3339 12.2466 26.0933 14.5541 26.0933C15.6896 26.0941 16.8049 26.3935 17.7882 26.9613C18.3459 27.2825 18.8527 27.6848 19.2921 28.155C20.0016 27.8953 20.7512 27.7623 21.5067 27.7618C22.6422 27.7627 23.7576 28.062 24.7409 28.6299C26.2385 29.4945 27.3099 30.8908 27.7575 32.5613C27.806 32.7439 27.8466 32.9286 27.8792 33.1147C28.505 33.2592 29.1059 33.4958 29.6622 33.8168C31.16 34.6814 32.2313 36.0777 32.6789 37.7482C32.7274 37.9308 32.768 38.1154 32.8006 38.3016C33.4264 38.446 34.0272 38.6826 34.5835 39.0036C37.6753 40.7887 38.7384 44.7564 36.9536 47.848L35.0557 51.1352L39.1238 53.484C40.7632 54.4305 42.8595 53.8688 43.8061 52.2294C44.7527 50.5898 44.1909 48.4935 42.5515 47.5469L45.1902 49.0704C46.8296 50.0169 48.926 49.4552 49.8725 47.8158C50.8191 46.1763 50.2574 44.0799 48.6179 43.1333L50.3771 44.1489C52.0165 45.0955 54.113 44.5338 55.0594 42.8942C56.006 41.2548 55.4443 39.1584 53.8047 38.2119L52.0457 37.1963C53.6851 38.1428 55.7814 37.5811 56.728 35.9416C57.6746 34.3021 57.1128 32.2058 55.4734 31.2592Z" fill="#262121"/>
<path d="M33.0605 41.6428C31.4211 40.6962 29.3247 41.258 28.3781 42.8974L29.3938 41.1383C30.3403 39.4989 29.7786 37.4026 28.1392 36.456C26.4997 35.5094 24.4034 36.0712 23.4568 37.7106L24.4725 35.9514C25.419 34.312 24.8573 32.2157 23.2179 31.2691C21.5784 30.3225 19.4821 30.8843 18.5355 32.5237L17.5199 34.2828C18.4664 32.6433 17.9047 30.547 16.2652 29.6004C14.6258 28.6539 12.5294 29.2156 11.5829 30.855L7.90122 37.2318C6.95466 38.8713 7.5164 40.9677 9.15582 41.9142C10.7952 42.8607 12.8917 42.299 13.8382 40.6595C12.8916 42.2989 13.4533 44.3953 15.0928 45.3418C16.7322 46.2884 18.8286 45.7266 19.7751 44.0871C18.8285 45.7265 19.3903 47.823 21.0298 48.7694C22.6692 49.716 24.7656 49.1543 25.7121 47.5147C24.7656 49.1542 25.3273 51.2506 26.9667 52.1971C28.6062 53.1436 30.7026 52.5819 31.6491 50.9424L34.3151 46.3247C35.2617 44.6857 34.7 42.5893 33.0605 41.6428Z" fill="#262121"/>
</svg>
