<svg width="36" height="36" viewBox="0 0 36 36" fill="none" xmlns="http://www.w3.org/2000/svg">
<g filter="url(#filter0_b_2515_92253)">
<path d="M18.0059 0C10.491 0 8.29324 0.0077545 7.86603 0.0432037C6.32386 0.17143 5.36422 0.414312 4.31876 0.934971C3.51306 1.33516 2.87764 1.79904 2.25053 2.44931C1.10844 3.6352 0.41626 5.09415 0.165692 6.82839C0.0438687 7.67031 0.00842918 7.84202 0.00123054 12.1424C-0.00153817 13.5759 0.00123054 15.4625 0.00123054 17.9929C0.00123054 25.5037 0.00953667 27.6999 0.0455299 28.1264C0.170122 29.6275 0.405462 30.5718 0.90383 31.6049C1.85627 33.5823 3.67531 35.0667 5.81829 35.6206C6.56031 35.8117 7.37984 35.9169 8.43195 35.9668C8.87772 35.9862 13.4212 36 17.9674 36C22.5136 36 27.0598 35.9945 27.4945 35.9723C28.7128 35.915 29.4202 35.82 30.2023 35.6178C32.3591 35.0611 34.145 33.5989 35.1168 31.5938C35.6055 30.5857 35.8533 29.6053 35.9654 28.1826C35.9898 27.8725 36 22.927 36 17.9882C36 13.0486 35.9889 8.11232 35.9646 7.80214C35.851 6.35648 35.6032 5.38439 35.0988 4.35692C34.6849 3.51584 34.2253 2.88772 33.558 2.24548C32.3672 1.10779 30.9108 0.41542 29.1754 0.16506C28.3345 0.0434806 28.167 0.00747756 23.8645 0H18.0059Z" fill="#262121"/>
</g>
<path d="M17.994 4.70801C14.3847 4.70801 13.9318 4.72379 12.5142 4.78832C11.0994 4.85313 10.1337 5.07718 9.28866 5.40591C8.41458 5.74545 7.67312 6.19964 6.93443 6.93881C6.19518 7.67771 5.74111 8.41937 5.40056 9.29341C5.07109 10.1389 4.84682 11.1052 4.78314 12.5198C4.71974 13.9378 4.70312 14.3912 4.70312 18.0014C4.70312 21.6117 4.71918 22.0634 4.78342 23.4814C4.84848 24.8966 5.07247 25.8626 5.40084 26.7078C5.74056 27.5821 6.19463 28.3238 6.9336 29.0627C7.67201 29.8021 8.41347 30.2574 9.287 30.597C10.1326 30.9257 11.0986 31.1498 12.5131 31.2146C13.9307 31.2791 14.3834 31.2949 17.9924 31.2949C21.6019 31.2949 22.0535 31.2791 23.4711 31.2146C24.8859 31.1498 25.8527 30.9257 26.6983 30.597C27.5721 30.2574 28.3125 29.8021 29.0509 29.0627C29.7901 28.3238 30.2442 27.5821 30.5847 26.7081C30.9115 25.8626 31.1357 24.8963 31.2022 23.4817C31.2659 22.0637 31.2825 21.6117 31.2825 18.0014C31.2825 14.3912 31.2659 13.9381 31.2022 12.5201C31.1357 11.1049 30.9115 10.1389 30.5847 9.29369C30.2442 8.41937 29.7901 7.67771 29.0509 6.93881C28.3116 6.19936 27.5724 5.74517 26.6975 5.40591C25.8503 5.07718 24.884 4.85313 23.4692 4.78832C22.0516 4.72379 21.6003 4.70801 17.9899 4.70801H17.994ZM16.8018 7.1036C17.1557 7.10304 17.5505 7.1036 17.994 7.1036C21.5424 7.1036 21.963 7.11633 23.3642 7.18003C24.66 7.2393 25.3632 7.45587 25.8317 7.63783C26.4519 7.87877 26.8941 8.16679 27.3589 8.63206C27.8241 9.09733 28.112 9.54045 28.3534 10.1608C28.5353 10.6288 28.7521 11.3323 28.8111 12.6284C28.8748 14.0297 28.8886 14.4507 28.8886 17.9984C28.8886 21.5461 28.8748 21.967 28.8111 23.3684C28.7519 24.6645 28.5353 25.3679 28.3534 25.836C28.1126 26.4563 27.8241 26.8981 27.3589 27.3631C26.8938 27.8283 26.4522 28.1164 25.8317 28.3573C25.3638 28.5401 24.66 28.7561 23.3642 28.8154C21.9633 28.8791 21.5424 28.8929 17.994 28.8929C14.4454 28.8929 14.0248 28.8791 12.6239 28.8154C11.3281 28.7556 10.6248 28.539 10.1561 28.357C9.53591 28.1161 9.09291 27.8281 8.62777 27.3628C8.16263 26.8975 7.87468 26.4555 7.63325 25.8349C7.45135 25.3668 7.23456 24.6634 7.17558 23.3673C7.1119 21.9659 7.09917 21.545 7.09917 17.9951C7.09917 14.4452 7.1119 14.0264 7.17558 12.6251C7.23483 11.329 7.45135 10.6255 7.63325 10.1569C7.87413 9.53657 8.16263 9.09346 8.62777 8.62819C9.09291 8.16292 9.53591 7.87489 10.1561 7.63339C10.6246 7.45061 11.3281 7.23459 12.6239 7.17505C13.8498 7.11966 14.3249 7.10304 16.8018 7.10027V7.1036ZM25.088 9.31086C24.2076 9.31086 23.4933 10.0245 23.4933 10.9055C23.4933 11.7862 24.2076 12.5007 25.088 12.5007C25.9685 12.5007 26.6828 11.7862 26.6828 10.9055C26.6828 10.0248 25.9685 9.31031 25.088 9.31031V9.31086ZM17.994 11.1747C14.225 11.1747 11.1692 14.2314 11.1692 18.0014C11.1692 21.7715 14.225 24.8268 17.994 24.8268C21.7631 24.8268 24.8178 21.7715 24.8178 18.0014C24.8178 14.2314 21.7631 11.1747 17.994 11.1747ZM17.994 13.5703C20.4405 13.5703 22.424 15.5541 22.424 18.0014C22.424 20.4485 20.4405 22.4326 17.994 22.4326C15.5473 22.4326 13.5641 20.4485 13.5641 18.0014C13.5641 15.5541 15.5473 13.5703 17.994 13.5703Z" fill="#F2EDED"/>
<defs>
<filter id="filter0_b_2515_92253" x="-2" y="-2" width="40" height="40" filterUnits="userSpaceOnUse" color-interpolation-filters="sRGB">
<feFlood flood-opacity="0" result="BackgroundImageFix"/>
<feGaussianBlur in="BackgroundImageFix" stdDeviation="1"/>
<feComposite in2="SourceAlpha" operator="in" result="effect1_backgroundBlur_2515_92253"/>
<feBlend mode="normal" in="SourceGraphic" in2="effect1_backgroundBlur_2515_92253" result="shape"/>
</filter>
</defs>
</svg>
