<svg width="48" height="48" viewBox="0 0 48 48" fill="none" xmlns="http://www.w3.org/2000/svg">
<path d="M0 0.999999C0 0.447714 0.447715 0 1 0H48V48H0.999999C0.447714 48 0 47.5523 0 47V0.999999Z" fill="#594E4E"/>
<path fill-rule="evenodd" clip-rule="evenodd" d="M20.25 8.66309C20.0511 8.66309 19.8603 8.7421 19.7197 8.88276C19.579 9.02341 19.5 9.21417 19.5 9.41309C19.5 9.612 19.579 9.80276 19.7197 9.94342C19.8603 10.0841 20.0511 10.1631 20.25 10.1631H21V14.6631H16.5C16.1022 14.6631 15.7206 14.8211 15.4393 15.1024C15.158 15.3837 15 15.7653 15 16.1631V35.6631C15 36.0609 15.158 36.4424 15.4393 36.7237C15.7206 37.005 16.1022 37.1631 16.5 37.1631C16.5 37.5609 16.658 37.9424 16.9393 38.2237C17.2206 38.505 17.6022 38.6631 18 38.6631C18.3978 38.6631 18.7794 38.505 19.0607 38.2237C19.342 37.9424 19.5 37.5609 19.5 37.1631H28.5C28.5 37.5609 28.658 37.9424 28.9393 38.2237C29.2206 38.505 29.6022 38.6631 30 38.6631C30.3978 38.6631 30.7794 38.505 31.0607 38.2237C31.342 37.9424 31.5 37.5609 31.5 37.1631C31.8978 37.1631 32.2794 37.005 32.5607 36.7237C32.842 36.4424 33 36.0609 33 35.6631V16.1631C33 15.7653 32.842 15.3837 32.5607 15.1024C32.2794 14.8211 31.8978 14.6631 31.5 14.6631H27V10.1631H27.75C27.9489 10.1631 28.1397 10.0841 28.2803 9.94342C28.421 9.80276 28.5 9.612 28.5 9.41309C28.5 9.21417 28.421 9.02341 28.2803 8.88276C28.1397 8.7421 27.9489 8.66309 27.75 8.66309H20.25ZM25.5 14.6631V10.1631H22.5V14.6631H25.5ZM19.5 19.9131C19.5 19.7142 19.579 19.5234 19.7197 19.3828C19.8603 19.2421 20.0511 19.1631 20.25 19.1631H27.75C27.9489 19.1631 28.1397 19.2421 28.2803 19.3828C28.421 19.5234 28.5 19.7142 28.5 19.9131C28.5 20.112 28.421 20.3028 28.2803 20.4434C28.1397 20.5841 27.9489 20.6631 27.75 20.6631H20.25C20.0511 20.6631 19.8603 20.5841 19.7197 20.4434C19.579 20.3028 19.5 20.112 19.5 19.9131ZM20.25 25.1631C20.0511 25.1631 19.8603 25.2421 19.7197 25.3828C19.579 25.5234 19.5 25.7142 19.5 25.9131C19.5 26.112 19.579 26.3028 19.7197 26.4434C19.8603 26.5841 20.0511 26.6631 20.25 26.6631H27.75C27.9489 26.6631 28.1397 26.5841 28.2803 26.4434C28.421 26.3028 28.5 26.112 28.5 25.9131C28.5 25.7142 28.421 25.5234 28.2803 25.3828C28.1397 25.2421 27.9489 25.1631 27.75 25.1631H20.25Z" fill="white"/>
</svg>
