<svg width="48" height="48" viewBox="0 0 48 48" fill="none" xmlns="http://www.w3.org/2000/svg">
<path d="M0 0.999999C0 0.447714 0.447715 0 1 0H48V48H0.999999C0.447714 48 0 47.5523 0 47V0.999999Z" fill="#594E4E"/>
<path d="M27.75 14.8594H20.25C20.0635 14.8594 19.8847 14.9335 19.7528 15.0653C19.621 15.1972 19.5469 15.376 19.5469 15.5625V27.5156H22.3594V24C22.3594 23.8135 22.4335 23.6347 22.5653 23.5028C22.6972 23.371 22.876 23.2969 23.0625 23.2969H24.9375C25.124 23.2969 25.3028 23.371 25.4347 23.5028C25.5665 23.6347 25.6406 23.8135 25.6406 24V27.5156H28.4531V15.5625C28.4531 15.376 28.379 15.1972 28.2472 15.0653C28.1153 14.9335 27.9365 14.8594 27.75 14.8594ZM21.8906 21.1875C21.8906 21.374 21.8165 21.5528 21.6847 21.6847C21.5528 21.8165 21.374 21.8906 21.1875 21.8906C21.001 21.8906 20.8222 21.8165 20.6903 21.6847C20.5585 21.5528 20.4844 21.374 20.4844 21.1875V20.25C20.4844 20.0635 20.5585 19.8847 20.6903 19.7528C20.8222 19.621 21.001 19.5469 21.1875 19.5469C21.374 19.5469 21.5528 19.621 21.6847 19.7528C21.8165 19.8847 21.8906 20.0635 21.8906 20.25V21.1875ZM21.8906 17.4375C21.8906 17.624 21.8165 17.8028 21.6847 17.9347C21.5528 18.0665 21.374 18.1406 21.1875 18.1406C21.001 18.1406 20.8222 18.0665 20.6903 17.9347C20.5585 17.8028 20.4844 17.624 20.4844 17.4375V16.5C20.4844 16.3135 20.5585 16.1347 20.6903 16.0028C20.8222 15.871 21.001 15.7969 21.1875 15.7969C21.374 15.7969 21.5528 15.871 21.6847 16.0028C21.8165 16.1347 21.8906 16.3135 21.8906 16.5V17.4375ZM24.7031 21.1875C24.7031 21.374 24.629 21.5528 24.4972 21.6847C24.3653 21.8165 24.1865 21.8906 24 21.8906C23.8135 21.8906 23.6347 21.8165 23.5028 21.6847C23.371 21.5528 23.2969 21.374 23.2969 21.1875V20.25C23.2969 20.0635 23.371 19.8847 23.5028 19.7528C23.6347 19.621 23.8135 19.5469 24 19.5469C24.1865 19.5469 24.3653 19.621 24.4972 19.7528C24.629 19.8847 24.7031 20.0635 24.7031 20.25V21.1875ZM24.7031 17.4375C24.7031 17.624 24.629 17.8028 24.4972 17.9347C24.3653 18.0665 24.1865 18.1406 24 18.1406C23.8135 18.1406 23.6347 18.0665 23.5028 17.9347C23.371 17.8028 23.2969 17.624 23.2969 17.4375V16.5C23.2969 16.3135 23.371 16.1347 23.5028 16.0028C23.6347 15.871 23.8135 15.7969 24 15.7969C24.1865 15.7969 24.3653 15.871 24.4972 16.0028C24.629 16.1347 24.7031 16.3135 24.7031 16.5V17.4375ZM27.5156 21.1875C27.5156 21.374 27.4415 21.5528 27.3097 21.6847C27.1778 21.8165 26.999 21.8906 26.8125 21.8906C26.626 21.8906 26.4472 21.8165 26.3153 21.6847C26.1835 21.5528 26.1094 21.374 26.1094 21.1875V20.25C26.1094 20.0635 26.1835 19.8847 26.3153 19.7528C26.4472 19.621 26.626 19.5469 26.8125 19.5469C26.999 19.5469 27.1778 19.621 27.3097 19.7528C27.4415 19.8847 27.5156 20.0635 27.5156 20.25V21.1875ZM27.5156 17.4375C27.5156 17.624 27.4415 17.8028 27.3097 17.9347C27.1778 18.0665 26.999 18.1406 26.8125 18.1406C26.626 18.1406 26.4472 18.0665 26.3153 17.9347C26.1835 17.8028 26.1094 17.624 26.1094 17.4375V16.5C26.1094 16.3135 26.1835 16.1347 26.3153 16.0028C26.4472 15.871 26.626 15.7969 26.8125 15.7969C26.999 15.7969 27.1778 15.871 27.3097 16.0028C27.4415 16.1347 27.5156 16.3135 27.5156 16.5V17.4375Z" fill="white"/>
<path d="M24 9.23438C17.409 9.23438 12.0469 14.5965 12.0469 21.1875C12.0469 23.2287 12.6661 25.4247 13.8874 27.7148C14.8467 29.5134 16.1797 31.3778 17.8495 33.2564C20.6765 36.4366 23.4609 38.5371 23.5781 38.625C23.6998 38.7163 23.8479 38.7656 24 38.7656C24.1521 38.7656 24.3002 38.7163 24.4219 38.625C24.5391 38.5371 27.3235 36.4366 30.1505 33.2562C31.8204 31.3777 33.1533 29.5132 34.1126 27.7147C35.3339 25.4247 35.9531 23.2287 35.9531 21.1875C35.9531 14.5965 30.591 9.23438 24 9.23438ZM24 30.5625C22.6996 30.563 21.4133 30.2923 20.2234 29.7677C19.0335 29.2431 17.9661 28.4761 17.0893 27.5156H18.8438V21.4219H14.628C14.626 21.3438 14.625 21.2656 14.625 21.1875C14.625 16.0181 18.8306 11.8125 24 11.8125C29.1694 11.8125 33.375 16.0181 33.375 21.1875C33.375 21.2658 33.374 21.3439 33.372 21.4219H29.1562V27.5156H30.9107C30.0339 28.4761 28.9665 29.2431 27.7766 29.7677C26.5867 30.2923 25.3004 30.563 24 30.5625Z" fill="white"/>
</svg>
