<svg width="48" height="48" viewBox="0 0 48 48" fill="none" xmlns="http://www.w3.org/2000/svg">
<path d="M0 0.999999C0 0.447714 0.447715 0 1 0H48V48H0.999999C0.447714 48 0 47.5523 0 47V0.999999Z" fill="#594E4E"/>
<path d="M10 22.588C10.2553 20.0546 11.1915 17.6377 12.7094 15.5941C14.2272 13.5505 16.2699 11.9566 18.6203 10.9817C19.2478 10.7226 19.7979 11.5041 19.4814 12.1081C19.1908 12.6664 18.9323 13.2409 18.7075 13.8287C17.6861 16.6418 17.1094 19.5971 16.9981 22.588H10Z" fill="white"/>
<path d="M10 25.4043C10.2553 27.9377 11.1915 30.3547 12.7094 32.3983C14.2272 34.4418 16.2699 36.0358 18.6203 37.0106C19.2478 37.2697 19.7979 36.4883 19.4814 35.8842C19.1908 35.326 18.9323 34.7515 18.7075 34.1636C17.6861 31.3505 17.1094 28.3953 16.9981 25.4043H10Z" fill="white"/>
<path d="M19.8125 25.4043C19.9209 28.0482 20.4332 30.6599 21.3319 33.1484C21.6847 34.1554 22.2041 35.096 22.8684 35.9307C23.4044 36.546 23.7913 36.6629 23.9939 36.6629C24.1965 36.6629 24.5876 36.546 25.1194 35.9307C25.7892 35.0971 26.3138 34.1565 26.6713 33.1484C27.57 30.6599 28.0824 28.0482 28.1907 25.4043H19.8125Z" fill="white"/>
<path d="M31.0013 25.4043C30.8903 28.3962 30.3136 31.3525 29.2919 34.1665C29.0671 34.7543 28.8086 35.3288 28.518 35.8871C28.2015 36.4883 28.7516 37.2697 29.3791 37.0135C31.7299 36.0383 33.7729 34.444 35.2907 32.3999C36.8086 30.3558 37.7446 27.9382 37.9994 25.4043H31.0013Z" fill="white"/>
<path d="M37.9994 22.5889H31.0013C30.8903 19.597 30.3136 16.6407 29.2919 13.8267C29.0671 13.2389 28.8086 12.6644 28.518 12.1061C28.2015 11.5049 28.7516 10.7235 29.3791 10.9797C31.7299 11.9549 33.7729 13.5492 35.2907 15.5933C36.8086 17.6374 37.7446 20.055 37.9994 22.5889Z" fill="white"/>
<path d="M28.1837 22.5887H19.8125C19.9209 19.9448 20.4332 17.3331 21.3319 14.8445C21.6847 13.8375 22.2041 12.897 22.8684 12.0623C23.4044 11.447 23.7913 11.3301 23.9939 11.3301C24.1965 11.3301 24.5876 11.447 25.1194 12.0623C25.7892 12.8959 26.3138 13.8365 26.6713 14.8445C27.5676 17.3335 28.0776 19.9451 28.1837 22.5887Z" fill="white"/>
</svg>
