<svg width="16" height="16" viewBox="0 0 16 16" fill="none" xmlns="http://www.w3.org/2000/svg">
<path d="M1.13822 2.98746C1.04059 2.88983 1.04059 2.73154 1.13822 2.63391L2.19888 1.57325C2.29651 1.47561 2.4548 1.47561 2.55243 1.57325L9.26995 8.29076C9.36758 8.38839 9.36758 8.54668 9.26994 8.64431L8.20928 9.70497C8.11165 9.80261 7.95336 9.80261 7.85573 9.70497L1.13822 2.98746Z" fill="#BFB6B6"/>
<path d="M8.20928 9.70497C8.11165 9.80261 7.95336 9.80261 7.85573 9.70497L6.79505 8.64429C6.69742 8.54666 6.69742 8.38837 6.79505 8.29074L13.5126 1.57322C13.6102 1.47559 13.7685 1.47559 13.8661 1.57322L14.9268 2.63388C15.0244 2.73151 15.0244 2.88981 14.9268 2.98744L8.20928 9.70497Z" fill="#BFB6B6"/>
<path d="M1.13822 7.98746C1.04059 7.88983 1.04059 7.73154 1.13822 7.63391L2.19888 6.57325C2.29651 6.47561 2.4548 6.47561 2.55243 6.57325L9.26995 13.2908C9.36758 13.3884 9.36758 13.5467 9.26994 13.6443L8.20928 14.705C8.11165 14.8026 7.95336 14.8026 7.85573 14.705L1.13822 7.98746Z" fill="#BFB6B6"/>
<path d="M8.20928 14.705C8.11165 14.8026 7.95336 14.8026 7.85573 14.705L6.79505 13.6443C6.69742 13.5467 6.69742 13.3884 6.79505 13.2907L13.5126 6.57322C13.6102 6.47559 13.7685 6.47559 13.8661 6.57322L14.9268 7.63388C15.0244 7.73151 15.0244 7.88981 14.9268 7.98744L8.20928 14.705Z" fill="#BFB6B6"/>
</svg>
