<svg width="48" height="48" viewBox="0 0 48 48" fill="none" xmlns="http://www.w3.org/2000/svg">
<path d="M0 0.999999C0 0.447714 0.447715 0 1 0H48V48H0.999999C0.447714 48 0 47.5523 0 47V0.999999Z" fill="#594E4E"/>
<path d="M30.5867 25.1721C30.5542 25.0634 30.5047 24.9676 30.4382 24.8849C30.3716 24.8022 30.2889 24.7356 30.1899 24.6853C30.0909 24.635 29.9749 24.6098 29.8418 24.6098C29.7054 24.6098 29.5878 24.6358 29.4888 24.6877C29.3898 24.7396 29.3078 24.8087 29.2429 24.8946C29.178 24.9806 29.1301 25.078 29.0994 25.1867C29.0685 25.2952 29.0529 25.4074 29.0531 25.5202C29.0531 25.637 29.0692 25.7498 29.1018 25.8585C29.1341 25.9673 29.1828 26.0638 29.2478 26.1481C29.3127 26.2326 29.3946 26.3007 29.4937 26.3527C29.5926 26.4046 29.7103 26.4306 29.8466 26.4306C29.983 26.4306 30.1014 26.4038 30.202 26.3503C30.3026 26.2967 30.3845 26.227 30.4479 26.141C30.5112 26.055 30.5582 25.9568 30.5891 25.8464C30.6198 25.7361 30.6353 25.6241 30.6353 25.5105C30.6353 25.3936 30.619 25.2809 30.5867 25.1721ZM25.7768 20.4435C25.7183 20.3803 25.66 20.3485 25.6015 20.3485H25.027V21.0886H25.6258C25.6842 21.0886 25.7386 21.0562 25.7889 20.9912C25.8392 20.9263 25.8644 20.8354 25.8644 20.7186C25.8644 20.5986 25.8352 20.5069 25.7768 20.4435ZM22.5883 20.9061C22.5558 20.7974 22.5062 20.7016 22.4398 20.6189C22.3732 20.5361 22.2904 20.4696 22.1915 20.4193C22.0925 20.369 21.9765 20.3438 21.8434 20.3438C21.707 20.3438 21.5895 20.3698 21.4904 20.4216C21.3914 20.4736 21.3094 20.5427 21.2446 20.6286C21.1796 20.7146 21.1318 20.812 21.101 20.9207C21.0702 21.0291 21.0546 21.1414 21.0547 21.2542C21.0547 21.371 21.0709 21.4838 21.1034 21.5925C21.1357 21.7013 21.1844 21.7977 21.2494 21.8822C21.3143 21.9666 21.3962 22.0347 21.4952 22.0867C21.5942 22.1387 21.7118 22.1646 21.8482 22.1646C21.9846 22.1646 22.103 22.1378 22.2036 22.0843C22.3042 22.0308 22.3861 21.961 22.4495 21.875C22.5128 21.7891 22.5597 21.6909 22.5906 21.5805C22.6214 21.4701 22.637 21.3582 22.637 21.2446C22.637 21.1276 22.6206 21.0148 22.5883 20.9061Z" fill="white"/>
<path d="M35.9998 12C35.9998 11.4478 35.5521 11.0001 34.9998 11.0001L13 11C12.4477 11 12 11.4477 12 12V35.5485C12 36.1008 12.4477 36.5485 13 36.5485H14.3225V38.8712L15.4837 38.097L16.645 38.8712V36.5485H35C35.5523 36.5485 36 36.1008 36 35.5485L35.9998 12ZM27.1399 19.5211H30.0804V20.3486H29.0872V22.9775H28.1379V20.3486H27.1399V19.5211ZM24.0778 19.5211H25.6649C25.8336 19.5211 25.9894 19.556 26.1322 19.6257C26.275 19.6956 26.3976 19.7864 26.4998 19.8984C26.602 20.0103 26.6823 20.1387 26.7407 20.283C26.7992 20.4275 26.8284 20.5726 26.8284 20.7187C26.8284 20.92 26.7846 21.1074 26.697 21.281C26.6093 21.4547 26.4876 21.5966 26.3318 21.707L27.0621 22.9776H25.991L25.3825 21.9162H25.0271V22.9775H24.0778V19.5211ZM19.5456 24.6147H18.1241V25.1891H19.2828V25.9584H18.1241V27.2436H17.1748V23.7871H19.5457L19.5456 24.6147ZM19.514 21.5488C19.415 21.6608 19.295 21.7501 19.1537 21.8165C19.0126 21.883 18.8576 21.9163 18.6889 21.9163H18.1241V22.9776H17.1748V19.5211H18.6645C18.8332 19.5211 18.989 19.556 19.1319 19.6257C19.2746 19.6956 19.3972 19.7864 19.4994 19.8984C19.6015 20.0103 19.6819 20.1387 19.7403 20.283C19.7988 20.4275 19.8279 20.5726 19.8279 20.7187C19.828 20.871 19.8 21.022 19.7452 21.1642C19.6899 21.3085 19.6129 21.4368 19.514 21.5488ZM23.1334 26.1846C23.0458 26.394 22.9241 26.579 22.7683 26.7396C22.6126 26.9003 22.4268 27.0292 22.2109 27.1267C21.9951 27.224 21.7589 27.2727 21.5027 27.2727C21.2398 27.2727 21.0012 27.2224 20.787 27.1218C20.5728 27.0212 20.3894 26.889 20.237 26.725C20.0844 26.5612 19.9659 26.3737 19.8816 26.1627C19.7979 25.9554 19.7549 25.7339 19.755 25.5103C19.755 25.2831 19.7988 25.064 19.8864 24.8532C19.9741 24.6423 20.0966 24.4565 20.2541 24.2958C20.4114 24.1352 20.598 24.007 20.8138 23.9111C21.0297 23.8154 21.2658 23.7675 21.5221 23.7675C21.7851 23.7675 22.0236 23.8178 22.2377 23.9184C22.4521 24.0191 22.6353 24.1521 22.7879 24.3176C22.9398 24.4822 23.0595 24.6737 23.1408 24.8823C23.2235 25.0933 23.265 25.3092 23.265 25.5298C23.2654 25.7547 23.2206 25.9773 23.1334 26.1846ZM23.4693 21.9186C23.3817 22.1279 23.2599 22.313 23.1042 22.4736C22.9484 22.6342 22.7626 22.7632 22.5468 22.8606C22.3309 22.958 22.0948 23.0066 21.8385 23.0066C21.5756 23.0066 21.337 22.9563 21.1228 22.8557C20.9086 22.7551 20.7251 22.6229 20.5727 22.459C20.4201 22.2952 20.3017 22.1077 20.2174 21.8966C20.1336 21.6893 20.0907 21.4678 20.0908 21.2443C20.0905 21.0187 20.1352 20.7953 20.2223 20.5871C20.3099 20.3761 20.4324 20.1903 20.5899 20.0297C20.7472 19.8691 20.9338 19.7409 21.1496 19.6451C21.3655 19.5494 21.6016 19.5015 21.8579 19.5015C22.1208 19.5015 22.3594 19.5518 22.5736 19.6524C22.7879 19.7531 22.9711 19.8861 23.1237 20.0516C23.2756 20.2161 23.3953 20.4077 23.4767 20.6163C23.5593 20.8274 23.6008 21.0431 23.6008 21.2638C23.6013 21.4886 23.5565 21.7113 23.4693 21.9186ZM26.2589 27.2435H23.742V23.7871H24.6913V26.416H26.2589V27.2435ZM27.6123 27.2435H26.6629V23.7871H27.6123V27.2435ZM31.4678 26.1847C31.3801 26.394 31.2584 26.579 31.1027 26.7397C30.9469 26.9003 30.7611 27.0293 30.5453 27.1267C30.3294 27.2241 30.0933 27.2727 29.837 27.2727C29.5742 27.2727 29.3356 27.2225 29.1214 27.1218C28.9072 27.0213 28.7237 26.889 28.5713 26.725C28.4187 26.5612 28.3003 26.3738 28.2159 26.1627C28.1322 25.9554 28.0892 25.7339 28.0894 25.5104C28.0894 25.2832 28.1332 25.0641 28.2208 24.8532C28.3084 24.6422 28.4309 24.4564 28.5884 24.2958C28.7457 24.1352 28.9323 24.007 29.1482 23.9111C29.364 23.8154 29.6001 23.7675 29.8565 23.7675C30.1194 23.7675 30.3579 23.8178 30.5721 23.9184C30.7864 24.0191 30.9696 24.1522 31.1223 24.3177C31.2742 24.4822 31.3939 24.6738 31.4753 24.8824C31.558 25.0934 31.5994 25.3092 31.5994 25.5299C31.5997 25.7547 31.555 25.9774 31.4678 26.1847Z" fill="white"/>
<path d="M18.7774 20.4266C18.7189 20.3747 18.6605 20.3486 18.6021 20.3486H18.125V21.0887H18.6265C18.6848 21.0887 18.7391 21.0619 18.7895 21.0083C18.8397 20.9548 18.865 20.8582 18.865 20.7187C18.865 20.576 18.8358 20.4786 18.7774 20.4266ZM22.2534 25.1722C22.2209 25.0635 22.1714 24.9677 22.1049 24.885C22.0383 24.8022 21.9555 24.7357 21.8566 24.6854C21.7576 24.6351 21.6416 24.6099 21.5085 24.6099C21.3722 24.6099 21.2546 24.6359 21.1556 24.6878C21.0565 24.7397 20.9746 24.8088 20.9097 24.8947C20.8447 24.9807 20.7969 25.0781 20.7661 25.1868C20.7352 25.2953 20.7196 25.4075 20.7197 25.5203C20.7197 25.6371 20.7359 25.7499 20.7685 25.8586C20.8008 25.9674 20.8495 26.0639 20.9145 26.1483C20.9794 26.2328 21.0613 26.3009 21.1603 26.3529C21.2593 26.4048 21.3769 26.4307 21.5133 26.4307C21.6497 26.4307 21.7681 26.404 21.8687 26.3504C21.9693 26.2969 22.0512 26.2272 22.1146 26.1412C22.1779 26.0552 22.2248 25.957 22.2558 25.8465C22.2865 25.7362 22.302 25.6243 22.302 25.5106C22.3023 25.396 22.2859 25.282 22.2534 25.1722Z" fill="white"/>
</svg>
