<svg width="24" height="20" viewBox="0 0 24 20" fill="none" xmlns="http://www.w3.org/2000/svg">
<path d="M12.0286 0.0046659C12.2336 0.00466588 12.4296 0.0887847 12.5706 0.236993L17.8206 5.74475C18.2756 6.22142 17.9376 7.01454 17.2786 7.01454L14.5286 7.01454L14.5286 12.7727C14.5286 13.4626 13.9676 14.0244 13.2786 14.0244L10.7786 14.0244C10.0896 14.0244 9.52863 13.4626 9.52863 12.7727L9.52863 7.01454L6.77863 7.01454C6.11957 7.01454 5.78157 6.22142 6.23663 5.74475L11.4866 0.236993C11.6276 0.0887848 11.8236 0.00466592 12.0286 0.0046659Z" fill="#594E4E"/>
<path opacity="0.3" d="M1.75 15.8244L22.25 15.8244C23.215 15.8244 24 16.6106 24 17.5769L24 18.0776C24 19.044 23.215 19.8301 22.25 19.8301L1.75 19.8301C0.785067 19.8301 -6.87179e-08 19.044 -1.53206e-07 18.0776L-1.96979e-07 17.5769C-2.81455e-07 16.6106 0.785066 15.8244 1.75 15.8244Z" fill="#BFB6B6"/>
</svg>
