<svg width="48" height="48" viewBox="0 0 48 48" fill="none" xmlns="http://www.w3.org/2000/svg">
<path d="M0 0H47.5C47.7761 0 48 0.223858 48 0.5V47.5C48 47.7761 47.7761 48 47.5 48H0V0Z" fill="#AD1519"/>
<rect x="6" y="8" width="10" height="10" rx="0.2" fill="#F5E3E3"/>
<rect x="6" y="20" width="10" height="10" rx="0.2" fill="#F5E3E3"/>
<rect x="6" y="32" width="10" height="10" rx="0.2" fill="#F5E3E3"/>
<rect x="19" y="8" width="10" height="10" rx="0.2" fill="#F5E3E3"/>
<rect x="19" y="20" width="10" height="10" rx="0.2" fill="#F5E3E3"/>
<rect x="19" y="32" width="10" height="10" rx="0.2" fill="#F5E3E3"/>
<rect x="32" y="8" width="10" height="10" rx="0.2" fill="#F5E3E3"/>
<rect x="32" y="20" width="10" height="10" rx="0.2" fill="#F5E3E3"/>
<rect x="32" y="32" width="10" height="10" rx="0.2" fill="#F5E3E3"/>
</svg>
