<svg width="20" height="17" viewBox="0 0 20 17" fill="none" xmlns="http://www.w3.org/2000/svg">
<path fill-rule="evenodd" clip-rule="evenodd" d="M7.80627 11.7522C8.45365 12.1968 9.22095 12.434 10.0063 12.4323C11.0434 12.4264 12.0358 12.0093 12.7657 11.2725C13.4956 10.5357 13.9033 9.53933 13.8993 8.50222C13.8967 7.71547 13.6626 6.94693 13.2263 6.29226L12.1623 7.3622C12.3542 7.73574 12.4478 8.15205 12.4341 8.5718C12.4205 8.99154 12.3001 9.40084 12.0844 9.76113C11.8686 10.1214 11.5645 10.4209 11.2009 10.631C10.8373 10.8411 10.4262 10.9551 10.0063 10.9622C9.61157 10.9642 9.22253 10.8681 8.87427 10.6823L7.80627 11.7522ZM16.4323 3.05227C17.9559 4.50356 19.153 6.26245 19.9443 8.21218C19.9834 8.30386 20.0035 8.40254 20.0035 8.50222C20.0035 8.60189 19.9834 8.70058 19.9443 8.79226C17.8563 13.6923 14.1443 16.6322 10.0023 16.6322H9.99231C8.09104 16.6171 6.24324 16.0011 4.71329 14.8722L2.82028 16.7822C2.75346 16.852 2.67321 16.9074 2.58435 16.9452C2.49549 16.983 2.39986 17.0024 2.30328 17.0022C2.20659 17.0032 2.11074 16.9842 2.02176 16.9463C1.93278 16.9084 1.85259 16.8526 1.78629 16.7822C1.66756 16.6627 1.59392 16.5056 1.57788 16.3379C1.56184 16.1702 1.60436 16.0021 1.69827 15.8622L1.72729 15.8222L16.1593 1.26223C16.1783 1.2448 16.1944 1.2245 16.2073 1.20217C16.2266 1.18477 16.2431 1.1646 16.2563 1.14223L17.1733 0.212177C17.3125 0.0749279 17.5006 -0.00138746 17.6961 1.91039e-05C17.8916 0.00142567 18.0785 0.0805071 18.2158 0.219746C18.353 0.358984 18.4293 0.547066 18.4279 0.742573C18.4265 0.938079 18.3476 1.12498 18.2083 1.26223L16.4323 3.05227ZM6.10126 8.51223C6.10443 8.76366 6.12753 9.01444 6.17029 9.26223L2.5593 12.9022C1.52042 11.6683 0.677254 10.2822 0.0592957 8.79226C0.0201809 8.70058 0 8.60189 0 8.50222C0 8.40254 0.0201809 8.30386 0.0592957 8.21218C2.1473 3.31218 5.86431 0.392231 9.99231 0.392231H10.0063C11.3965 0.393425 12.7669 0.72228 14.0063 1.35219L10.7473 4.64223C10.5024 4.59815 10.2542 4.57467 10.0053 4.57216C9.49057 4.57478 8.98137 4.67888 8.50684 4.87831C8.0323 5.07775 7.60169 5.36864 7.23962 5.73452C6.87755 6.10039 6.59113 6.53404 6.39667 7.01064C6.20221 7.48724 6.1035 7.99749 6.10626 8.51223H6.10126Z" fill="white"/>
</svg>
