<svg width="5" height="8" viewBox="0 0 5 8" fill="none" xmlns="http://www.w3.org/2000/svg">
<path d="M0.853942 0.0420371C0.797893 -0.0140123 0.707019 -0.0140123 0.650969 0.0420375L0.042051 0.650955C-0.0139984 0.707005 -0.0139984 0.797879 0.0420509 0.853929L3.89853 4.71041C3.95458 4.76646 4.04546 4.76646 4.10151 4.71041L4.71042 4.10149C4.76647 4.04544 4.76647 3.95457 4.71042 3.89852L0.853942 0.0420371Z" fill="#FCFCFC"/>
<path d="M4.71042 4.10149C4.76647 4.04544 4.76647 3.95457 4.71042 3.89852L4.10149 3.28959C4.04544 3.23354 3.95457 3.23354 3.89852 3.28959L0.0420371 7.14607C-0.0140123 7.20212 -0.0140122 7.293 0.0420371 7.34904L0.650955 7.95796C0.707005 8.01401 0.797879 8.01401 0.853928 7.95796L4.71042 4.10149Z" fill="#FCFCFC"/>
</svg>
