<svg width="48" height="48" viewBox="0 0 48 48" fill="none" xmlns="http://www.w3.org/2000/svg">
<rect width="48" height="48" fill="#594E4E"/>
<path d="M10 22.5871C10.2553 20.0536 11.1915 17.6367 12.7094 15.5931C14.2272 13.5495 16.2699 11.9556 18.6203 10.9807C19.2478 10.7216 19.7979 11.5031 19.4814 12.1071C19.1908 12.6654 18.9323 13.2399 18.7075 13.8278C17.6861 16.6408 17.1094 19.5961 16.9981 22.5871H10Z" fill="white"/>
<path d="M10 25.4023C10.2553 27.9358 11.1915 30.3527 12.7094 32.3963C14.2272 34.4399 16.2699 36.0338 18.6203 37.0087C19.2478 37.2678 19.7979 36.4863 19.4814 35.8823C19.1908 35.324 18.9323 34.7495 18.7075 34.1617C17.6861 31.3486 17.1094 28.3933 16.9981 25.4023H10Z" fill="white"/>
<path d="M19.8125 25.4023C19.9209 28.0462 20.4332 30.6579 21.3319 33.1465C21.6847 34.1535 22.2041 35.094 22.8684 35.9287C23.4044 36.544 23.7913 36.6609 23.9939 36.6609C24.1965 36.6609 24.5876 36.544 25.1194 35.9287C25.7892 35.0951 26.3138 34.1545 26.6713 33.1465C27.57 30.6579 28.0824 28.0462 28.1907 25.4023H19.8125Z" fill="white"/>
<path d="M31.0013 25.4023C30.8903 28.3943 30.3136 31.3505 29.2919 34.1645C29.0671 34.7524 28.8086 35.3268 28.518 35.8851C28.2015 36.4863 28.7516 37.2678 29.3791 37.0115C31.7299 36.0364 33.7729 34.4421 35.2907 32.3979C36.8086 30.3538 37.7446 27.9363 37.9994 25.4023H31.0013Z" fill="white"/>
<path d="M37.9994 22.5889H31.0013C30.8903 19.597 30.3136 16.6407 29.2919 13.8267C29.0671 13.2389 28.8086 12.6644 28.518 12.1061C28.2015 11.5049 28.7516 10.7235 29.3791 10.9797C31.7299 11.9549 33.7729 13.5492 35.2907 15.5933C36.8086 17.6374 37.7446 20.055 37.9994 22.5889Z" fill="white"/>
<path d="M28.1837 22.5867H19.8125C19.9209 19.9428 20.4332 17.3311 21.3319 14.8426C21.6847 13.8356 22.2041 12.895 22.8684 12.0603C23.4044 11.445 23.7913 11.3281 23.9939 11.3281C24.1965 11.3281 24.5876 11.445 25.1194 12.0603C25.7892 12.8939 26.3138 13.8345 26.6713 14.8426C27.5676 17.3315 28.0776 19.9432 28.1837 22.5867Z" fill="white"/>
</svg>
