<svg width="48" height="48" viewBox="0 0 48 48" fill="none" xmlns="http://www.w3.org/2000/svg">
<rect width="48" height="48" fill="#594E4E"/>
<path d="M27.25 17.875C26.9627 17.875 26.6871 17.7609 26.484 17.5577C26.2808 17.3545 26.1667 17.079 26.1667 16.7917V15.1667H21.8333V16.7917C21.8333 17.079 21.7192 17.3545 21.516 17.5577C21.3129 17.7609 21.0373 17.875 20.75 17.875C20.4627 17.875 20.1871 17.7609 19.984 17.5577C19.7808 17.3545 19.6667 17.079 19.6667 16.7917V15.1667C19.6667 13.9717 20.6384 13 21.8333 13H26.1667C27.3616 13 28.3333 13.9717 28.3333 15.1667V16.7917C28.3333 17.079 28.2192 17.3545 28.016 17.5577C27.8129 17.7609 27.5373 17.875 27.25 17.875ZM24.7692 27.495C24.2484 27.674 23.6816 27.6663 23.1658 27.4733L11 23.4217V31.6875C11 33.3342 12.3325 34.6667 13.9792 34.6667H34.0208C35.6675 34.6667 37 33.3342 37 31.6875V23.4217L24.7692 27.495Z" fill="white"/>
<path d="M37 19.2292V21.71L24.26 25.9567C24.1733 25.9892 24.0867 26 24 26C23.9133 26 23.8267 25.9892 23.74 25.9567L11 21.71V19.2292C11 17.5825 12.3325 16.25 13.9792 16.25H34.0208C35.6675 16.25 37 17.5825 37 19.2292Z" fill="white"/>
</svg>
