<svg width="48" height="48" viewBox="0 0 48 48" fill="none" xmlns="http://www.w3.org/2000/svg">
<rect width="48" height="48" fill="#594E4E"/>
<path d="M35.2243 31.7705H31.0884C28.4822 31.7705 26.3618 29.65 26.3618 27.0438C26.3618 24.4375 28.4822 22.3171 31.0884 22.3171H35.2243C35.3019 22.3172 35.3787 22.3019 35.4505 22.2723C35.5222 22.2426 35.5873 22.1991 35.6422 22.1442C35.6971 22.0893 35.7406 22.0242 35.7703 21.9524C35.7999 21.8807 35.8152 21.8039 35.8151 21.7263V19.9538C35.8151 18.7148 34.8541 17.7072 33.6399 17.6095L30.2466 11.6826C29.9322 11.1345 29.4244 10.7427 28.8168 10.58C28.2121 10.4185 27.5798 10.5033 27.0386 10.8183L15.4063 17.5904H13.3634C12.06 17.5904 11 18.6503 11 19.9538V34.1338C11 35.4372 12.0599 36.4972 13.3634 36.4972H33.4518C34.7552 36.4972 35.8151 35.4373 35.8151 34.1338V32.3613C35.8152 32.2837 35.7999 32.2069 35.7703 32.1351C35.7406 32.0634 35.6971 31.9983 35.6422 31.9434C35.5873 31.8885 35.5222 31.845 35.4505 31.8153C35.3787 31.7857 35.3019 31.7704 35.2243 31.7705ZM30.9794 15.3418L32.2668 17.5904H27.1171L30.9794 15.3418ZM17.7549 17.5904L27.6334 11.8396C27.9006 11.6832 28.2127 11.6417 28.511 11.7213C28.8128 11.8021 29.0644 11.9971 29.2208 12.27L29.222 12.2722L20.0875 17.5904H17.7549Z" fill="white"/>
<path d="M35.2278 23.5H31.0919C29.137 23.5 27.5469 25.0902 27.5469 27.045C27.5469 28.9999 29.137 30.59 31.0919 30.59H35.2278C36.2052 30.59 37.0003 29.7949 37.0003 28.8175V25.2725C37.0003 24.2951 36.2052 23.5 35.2278 23.5ZM31.0919 28.2267C30.4405 28.2267 29.9102 27.6964 29.9102 27.045C29.9102 26.3936 30.4405 25.8634 31.0919 25.8634C31.7433 25.8634 32.2735 26.3936 32.2735 27.045C32.2736 27.6964 31.7433 28.2267 31.0919 28.2267Z" fill="white"/>
</svg>
