<svg width="48" height="48" viewBox="0 0 48 48" fill="none" xmlns="http://www.w3.org/2000/svg">
<rect width="48" height="48" fill="#594E4E"/>
<path fill-rule="evenodd" clip-rule="evenodd" d="M30.4207 12.3008C31.2838 12.2998 32.1386 12.4687 32.9364 12.7981C33.7342 13.1275 34.4592 13.6109 35.0702 14.2205C35.6812 14.8301 36.166 15.5542 36.4972 16.3512C36.8283 17.1483 36.9991 18.0028 37 18.8659V29.1357C36.9972 30.8785 36.3027 32.549 35.0691 33.78C33.8354 35.011 32.1635 35.7018 30.4207 35.7008H17.578C15.8353 35.7018 14.1636 35.0109 12.9301 33.7798C11.6966 32.5488 11.0024 30.8784 11 29.1357V18.8659C11 18.0026 11.1702 17.1478 11.501 16.3504C11.8317 15.5531 12.3165 14.8288 12.9274 14.2191C13.5384 13.6093 14.2637 13.126 15.0617 12.7969C15.8597 12.4677 16.7148 12.2991 17.578 12.3008H30.4207ZM32.489 20.8028L32.593 20.6987C32.745 20.5155 32.827 20.2843 32.8244 20.0462C32.8218 19.8081 32.7347 19.5786 32.5787 19.3987C32.398 19.2064 32.1536 19.0863 31.891 19.0607C31.7582 19.053 31.6253 19.0721 31.5 19.1167C31.3747 19.1614 31.2597 19.2309 31.1617 19.3208L25.3 24.0008C24.9343 24.3033 24.4746 24.4688 24 24.4688C23.5254 24.4688 23.0657 24.3033 22.7 24.0008L16.85 19.3208C16.6589 19.1755 16.4215 19.1044 16.182 19.1206C15.9424 19.1367 15.7168 19.2392 15.547 19.4089C15.3771 19.5786 15.2745 19.804 15.2581 20.0435C15.2417 20.2831 15.3126 20.5205 15.4577 20.7118L15.628 20.8808L21.543 25.4958C22.2662 26.0683 23.1615 26.3797 24.0838 26.3797C25.0062 26.3797 25.9015 26.0683 26.6247 25.4958L32.489 20.8028Z" fill="white"/>
</svg>
