<svg width="48" height="48" viewBox="0 0 48 48" fill="none" xmlns="http://www.w3.org/2000/svg">
<rect width="48" height="48" fill="#594E4E"/>
<path fill-rule="evenodd" clip-rule="evenodd" d="M31.2793 17.2739C31.2803 18.7138 30.8543 20.1217 30.0552 21.3195C29.256 22.5173 28.1195 23.4511 26.7894 24.0028C25.4594 24.5546 23.9957 24.6997 22.5833 24.4194C21.1709 24.1392 19.8733 23.4462 18.8547 22.4284C17.8362 21.4106 17.1424 20.1136 16.8611 18.7014C16.5797 17.2892 16.7235 15.8254 17.2743 14.495C17.8251 13.1646 18.7581 12.0273 19.9553 11.2272C21.1525 10.4271 22.5601 10.0001 24 10.0001C24.9566 9.99589 25.9046 10.1811 26.7893 10.5451C27.674 10.9091 28.4779 11.4446 29.1546 12.1208C29.8313 12.797 30.3674 13.6005 30.7321 14.4849C31.0967 15.3693 31.2827 16.3172 31.2793 17.2739ZM24 37.5001C18.0353 37.5001 13 36.5237 13 32.7837C13 29.0437 18.0669 28.1089 24 28.1089C29.9661 28.1089 35 29.085 35 32.825C35 36.565 29.9331 37.5001 24 37.5001Z" fill="white"/>
</svg>
