<svg width="32" height="32" viewBox="0 0 32 32" fill="none" xmlns="http://www.w3.org/2000/svg">
<rect width="32" height="32" rx="1" fill="white"/>
<path d="M17.6961 25.0921C16.8921 25.0921 16.1061 24.9961 15.3381 24.8041C14.5821 24.6121 13.8981 24.3061 13.2861 23.8861C12.6741 23.4781 12.1881 22.9501 11.8281 22.3021C11.4681 21.6541 11.2881 20.8741 11.2881 19.9621C11.2881 18.9781 11.4861 18.0781 11.8821 17.2621C12.2781 16.4341 12.8361 15.7021 13.5561 15.0661C14.2761 14.4301 15.1281 13.9021 16.1121 13.4821C17.1081 13.0501 18.1941 12.7441 19.3701 12.5641L19.9641 14.9401C18.9081 15.1321 17.9901 15.3841 17.2101 15.6961C16.4421 16.0081 15.8061 16.3741 15.3021 16.7941C14.7981 17.2141 14.4201 17.6641 14.1681 18.1441C13.9281 18.6361 13.8081 19.1521 13.8081 19.6921C13.8081 20.1241 13.8861 20.5021 14.0421 20.8261C14.2101 21.1501 14.4321 21.4201 14.7081 21.6361C14.9841 21.8641 15.2901 22.0441 15.6261 22.1761C15.9621 22.3201 16.3101 22.4221 16.6701 22.4821C17.0301 22.5421 17.3721 22.5721 17.6961 22.5721C18.5241 22.5721 19.2921 22.4941 20.0001 22.3381C20.7201 22.1821 21.3501 21.9901 21.8901 21.7621L22.6101 24.0841C22.3221 24.2281 21.9141 24.3781 21.3861 24.5341C20.8701 24.6901 20.2881 24.8221 19.6401 24.9301C19.0041 25.0381 18.3561 25.0921 17.6961 25.0921ZM14.1141 15.1201C13.6941 14.9521 13.3041 14.7121 12.9441 14.4001C12.5961 14.0881 12.3141 13.7041 12.0981 13.2481C11.8941 12.7801 11.7921 12.2461 11.7921 11.6461C11.7921 10.8901 11.9901 10.2361 12.3861 9.68405C12.7821 9.13205 13.3101 8.70605 13.9701 8.40605C14.6301 8.10605 15.3501 7.95605 16.1301 7.95605C16.5141 7.95605 16.8681 7.98005 17.1921 8.02805C17.5281 8.07605 17.8701 8.14805 18.2181 8.24405L17.8221 10.6381C17.5701 10.5781 17.3121 10.5301 17.0481 10.4941C16.7841 10.4581 16.5501 10.4401 16.3461 10.4401C15.9261 10.4401 15.5601 10.5001 15.2481 10.6201C14.9481 10.7401 14.7141 10.9141 14.5461 11.1421C14.3901 11.3581 14.3121 11.6161 14.3121 11.9161C14.3121 12.1561 14.3841 12.3841 14.5281 12.6001C14.6841 12.8161 14.8821 13.0081 15.1221 13.1761C15.3621 13.3321 15.6261 13.4641 15.9141 13.5721C16.2021 13.6681 16.4841 13.7221 16.7601 13.7341L14.1141 15.1201Z" fill="#140000"/>
</svg>
