<svg width="494" height="674" viewBox="0 0 494 674" fill="none" xmlns="http://www.w3.org/2000/svg">
<path d="M491 456L488.113 451H493.887L491 456ZM490.5 450.013V446.022H491.5V450.013H490.5ZM490.5 442.03V438.039H491.5V442.03H490.5ZM490.5 434.047V430.056H491.5V434.047H490.5ZM490.5 426.065V422.073H491.5V426.065H490.5ZM490.5 418.082V414.091H491.5V418.082H490.5ZM490.5 410.099V406.108H491.5V410.099H490.5ZM490.5 402.116V398.125H491.5V402.116H490.5ZM490.5 394.134V390.142H491.5V394.134H490.5ZM490.5 386.151V382.159H491.5V386.151H490.5ZM490.5 378.168V374.177H491.5V378.168H490.5ZM490.5 370.185V366.194H491.5V370.185H490.5ZM490.5 362.203V358.211H491.5V362.203H490.5ZM490.5 354.22V350.228H491.5V354.22H490.5ZM490.5 346.237V342.246H491.5V346.237H490.5ZM490.5 338.254V334.263H491.5V338.254H490.5ZM490.5 330.272V326.28H491.5V330.272H490.5ZM490.5 322.289V318.297H491.5V322.289H490.5ZM490.5 314.306V310.315H491.5V314.306H490.5ZM490.5 306.323V302.332H491.5V306.323H490.5ZM490.5 298.341V294.349H491.5V298.341H490.5ZM490.5 290.358V286.366H491.5V290.358H490.5ZM490.5 282.375V278.384H491.5V282.375H490.5ZM490.5 274.392V270.401H491.5V274.392H490.5ZM490.5 266.41V262.418H491.5V266.41H490.5ZM490.5 258.427V254.435H491.5V258.427H490.5ZM490.5 250.444V246.453H491.5V250.444H490.5ZM490.5 242.461V238.47H491.5V242.461H490.5ZM490.5 234.478V230.487H491.5V234.478H490.5ZM490.5 226.496V224.5H491.5V226.496H490.5ZM490.5 224.5H490.5V223.5C491.052 223.5 491.5 223.948 491.5 224.5H490.5ZM490.5 224.5H488.208V223.5H490.5V224.5ZM483.625 224.5H479.042V223.5H483.625V224.5ZM474.458 224.5H469.875V223.5H474.458V224.5ZM465.292 224.5H463V223.5H465.292V224.5Z" fill="#262121"/>
<path d="M3 456L5.88675 451H0.113249L3 456ZM3.5 450.013V446.022H2.5V450.013H3.5ZM3.5 442.03V438.039H2.5V442.03H3.5ZM3.5 434.047V430.056H2.5V434.047H3.5ZM3.5 426.065V422.073H2.5V426.065H3.5ZM3.5 418.082V414.091H2.5V418.082H3.5ZM3.5 410.099V406.108H2.5V410.099H3.5ZM3.5 402.116V398.125H2.5V402.116H3.5ZM3.5 394.134V390.142H2.5V394.134H3.5ZM3.5 386.151V382.159H2.5V386.151H3.5ZM3.5 378.168V374.177H2.5V378.168H3.5ZM3.5 370.185V366.194H2.5V370.185H3.5ZM3.5 362.203V358.211H2.5V362.203H3.5ZM3.5 354.22V350.228H2.5V354.22H3.5ZM3.5 346.237V342.246H2.5V346.237H3.5ZM3.5 338.254V334.263H2.5V338.254H3.5ZM3.5 330.272V326.28H2.5V330.272H3.5ZM3.5 322.289V318.297H2.5V322.289H3.5ZM3.5 314.306V310.315H2.5V314.306H3.5ZM3.5 306.323V302.332H2.5V306.323H3.5ZM3.5 298.341V294.349H2.5V298.341H3.5ZM3.5 290.358V286.366H2.5V290.358H3.5ZM3.5 282.375V278.384H2.5V282.375H3.5ZM3.5 274.392V270.401H2.5V274.392H3.5ZM3.5 266.41V262.418H2.5V266.41H3.5ZM3.5 258.427V254.435H2.5V258.427H3.5ZM3.5 250.444V246.453H2.5V250.444H3.5ZM3.5 242.461V238.47H2.5V242.461H3.5ZM3.5 234.478V230.487H2.5V234.478H3.5ZM3.5 226.496V224.5H2.5V226.496H3.5ZM3.5 224.5H3.5V223.5C2.94771 223.5 2.5 223.948 2.5 224.5H3.5ZM3.5 224.5H5.79167V223.5H3.5V224.5ZM10.375 224.5H14.9583V223.5H10.375V224.5ZM19.5417 224.5H24.125V223.5H19.5417V224.5ZM28.7083 224.5H31V223.5H28.7083V224.5Z" fill="#262121"/>
<path d="M247 674L249.887 669L244.113 669L247 674ZM247.5 668.098L247.5 664.163L246.5 664.163L246.5 668.098L247.5 668.098ZM247.5 660.228L247.5 656.293L246.5 656.293L246.5 660.228L247.5 660.228ZM247.5 652.358L247.5 648.423L246.5 648.423L246.5 652.358L247.5 652.358ZM247.5 644.488L247.5 640.553L246.5 640.553L246.5 644.488L247.5 644.488ZM247.5 636.618L247.5 634.651L246.5 634.651L246.5 636.618L247.5 636.618ZM247.5 634.651L247.5 632.627L246.5 632.627L246.5 634.651L247.5 634.651ZM247.5 628.58L247.5 624.533L246.5 624.533L246.5 628.58L247.5 628.58ZM247.5 620.485L247.5 616.438L246.5 616.438L246.5 620.485L247.5 620.485ZM247.5 612.391L247.5 608.343L246.5 608.343L246.5 612.391L247.5 612.391ZM247.5 604.296L247.5 600.249L246.5 600.249L246.5 604.296L247.5 604.296ZM247.5 596.201L247.5 592.154L246.5 592.154L246.5 596.201L247.5 596.201ZM247.5 588.107L247.5 584.059L246.5 584.059L246.5 588.107L247.5 588.107ZM247.5 580.012L247.5 575.965L246.5 575.965L246.5 580.012L247.5 580.012ZM247.5 571.917L247.5 567.87L246.5 567.87L246.5 571.917L247.5 571.917ZM247.5 563.822L247.5 559.775L246.5 559.775L246.5 563.822L247.5 563.822ZM247.5 555.728L247.5 551.68L246.5 551.68L246.5 555.728L247.5 555.728ZM247.5 547.633L247.5 543.586L246.5 543.586L246.5 547.633L247.5 547.633ZM247.5 539.538L247.5 535.491L246.5 535.491L246.5 539.538L247.5 539.538ZM247.5 531.444L247.5 527.396L246.5 527.396L246.5 531.444L247.5 531.444ZM247.5 523.349L247.5 519.302L246.5 519.302L246.5 523.349L247.5 523.349ZM247.5 515.254L247.5 511.207L246.5 511.207L246.5 515.254L247.5 515.254ZM247.5 507.16L247.5 503.112L246.5 503.112L246.5 507.16L247.5 507.16ZM247.5 499.065L247.5 495.018L246.5 495.018L246.5 499.065L247.5 499.065ZM247.5 490.97L247.5 486.923L246.5 486.923L246.5 490.97L247.5 490.97ZM247.5 482.876L247.5 478.828L246.5 478.828L246.5 482.876L247.5 482.876ZM247.5 474.781L247.5 470.734L246.5 470.734L246.5 474.781L247.5 474.781ZM247.5 466.686L247.5 462.639L246.5 462.639L246.5 466.686L247.5 466.686ZM247.5 458.592L247.5 454.544L246.5 454.544L246.5 458.592L247.5 458.592ZM247.5 450.497L247.5 446.45L246.5 446.45L246.5 450.497L247.5 450.497ZM247.5 442.402L247.5 438.355L246.5 438.355L246.5 442.402L247.5 442.402ZM247.5 434.308L247.5 430.26L246.5 430.26L246.5 434.308L247.5 434.308ZM247.5 426.213L247.5 422.166L246.5 422.166L246.5 426.213L247.5 426.213ZM247.5 418.118L247.5 414.071L246.5 414.071L246.5 418.118L247.5 418.118ZM247.5 410.024L247.5 408L246.5 408L246.5 410.024L247.5 410.024Z" fill="#262121"/>
<path d="M179.049 235.478L222.765 399.397L78.2188 235.478H179.049Z" fill="#AD1519"/>
<path d="M179.881 212.065H78.2188L145.043 145.241C147.247 143.048 150.219 141.814 153.324 141.814H220.022L179.881 212.065Z" fill="#AD1519"/>
<path d="M293.904 212.065H195.139L246.991 141.814L293.904 212.065Z" fill="#AD1519"/>
<path d="M290.709 236.08L246.999 400L203.289 236.08H290.709Z" fill="#AD1519"/>
<path d="M314.113 212.065L273.967 141.814H340.665C343.77 141.814 346.748 143.048 348.946 145.241L415.77 212.065H314.113Z" fill="#AD1519"/>
<path d="M314.954 236.08H415.779L271.232 400L314.954 236.08Z" fill="#AD1519"/>
<path d="M246.994 66.7615C240.526 66.7615 235.287 61.5166 235.287 55.0551V11.7065C235.287 5.23928 240.532 0 246.994 0C253.461 0 258.7 5.24502 258.7 11.7065V55.0551C258.7 61.5166 253.461 66.7615 246.994 66.7615Z" fill="#AD1519"/>
<path d="M130.605 90.9385L108.931 53.3975C105.695 47.7967 107.617 40.6352 113.218 37.4044C118.819 34.1737 125.98 36.09 129.211 41.6908L150.885 79.2322C154.122 84.8329 152.199 91.9945 146.599 95.2252C141.021 98.4445 133.853 96.5623 130.605 90.9385Z" fill="#AD1519"/>
<path d="M347.395 95.2252C341.794 91.9945 339.878 84.8329 343.108 79.2322L364.783 41.6908C368.019 36.09 375.175 34.1737 380.776 37.4044C386.377 40.6352 388.293 47.7967 385.062 53.3975L363.388 90.9386C360.146 96.5565 352.979 98.4503 347.395 95.2252Z" fill="#AD1519"/>
</svg>
