<svg width="300" height="404" viewBox="0 0 300 404" fill="none" xmlns="http://www.w3.org/2000/svg">
<path d="M150.5 404L153.387 399L147.613 399L150.5 404ZM151 398.675L151 395.124L150 395.124L150 398.675L151 398.675ZM151 391.574L151 389.799L150 389.799L150 391.574L151 391.574ZM151 389.799L151 387.754L150 387.754L150 389.799L151 389.799ZM151 383.664L151 379.574L150 379.574L150 383.664L151 383.664ZM151 375.484L151 371.394L150 371.394L150 375.484L151 375.484ZM151 367.304L151 363.214L150 363.214L150 367.304L151 367.304ZM151 359.124L151 355.034L150 355.034L150 359.124L151 359.124ZM151 350.944L151 346.854L150 346.854L150 350.944L151 350.944ZM151 342.765L151 338.675L150 338.675L150 342.765L151 342.765ZM151 334.585L151 330.495L150 330.495L150 334.585L151 334.585ZM151 326.405L151 322.315L150 322.315L150 326.405L151 326.405ZM151 318.225L151 314.135L150 314.135L150 318.225L151 318.225ZM151 310.045L151 308L150 308L150 310.045L151 310.045Z" fill="#262121"/>
<path d="M99.039 176.608L131.826 299.548L23.416 176.608H99.039Z" fill="#AD1519"/>
<path d="M99.663 159.049H23.416L73.5344 108.931C75.1871 107.287 77.4164 106.361 79.7448 106.361H129.769L99.663 159.049Z" fill="#AD1519"/>
<path d="M185.179 159.049H111.105L149.995 106.361L185.179 159.049Z" fill="#AD1519"/>
<path d="M182.786 177.061L150.003 300L117.221 177.061H182.786Z" fill="#AD1519"/>
<path d="M200.336 159.049L170.227 106.361H220.25C222.579 106.361 224.812 107.287 226.461 108.931L276.579 159.049H200.336Z" fill="#AD1519"/>
<path d="M200.967 177.061H276.586L168.176 300L200.967 177.061Z" fill="#AD1519"/>
<path d="M149.997 50.0711C145.146 50.0711 141.217 46.1375 141.217 41.2913V8.77991C141.217 3.92946 145.151 0 149.997 0C154.847 0 158.777 3.93376 158.777 8.77991V41.2913C158.777 46.1375 154.847 50.0711 149.997 50.0711Z" fill="#AD1519"/>
<path d="M62.706 68.2037L46.4505 40.0479C44.0231 35.8473 45.4648 30.4761 49.6654 28.0531C53.8659 25.63 59.2372 27.0673 61.6603 31.2678L77.916 59.4239C80.3434 63.6245 78.9015 68.9956 74.701 71.4187C70.5176 73.8332 65.142 72.4214 62.706 68.2037Z" fill="#AD1519"/>
<path d="M225.298 71.4187C221.098 68.9956 219.66 63.6245 222.083 59.4239L238.339 31.2678C240.766 27.0673 246.133 25.63 250.334 28.0531C254.534 30.4761 255.972 35.8473 253.549 40.0479L237.293 68.2037C234.862 72.4171 229.486 73.8375 225.298 71.4187Z" fill="#AD1519"/>
</svg>
