<svg width="720" height="400" viewBox="0 0 720 400" fill="none" xmlns="http://www.w3.org/2000/svg">
<path d="M0 112L5 114.887V109.113L0 112ZM6.16704 112.5H10.2784V111.5H6.16704V112.5ZM14.3898 112.5H18.5011V111.5H14.3898V112.5ZM22.6125 112.5H26.7238V111.5H22.6125V112.5ZM30.8352 112.5H34.9465V111.5H30.8352V112.5ZM39.0579 112.5H43.1693V111.5H39.0579V112.5ZM47.2806 112.5H49.3363V111.5H47.2806V112.5ZM49.3363 112.5C49.8886 112.5 50.3363 112.052 50.3363 111.5H49.3363V112.5ZM50.3363 111.5V109.542H49.3363V111.5H50.3363ZM50.3363 105.625V101.708H49.3363V105.625H50.3363ZM50.3363 97.7917V93.875H49.3363V97.7917H50.3363ZM50.3363 89.9583V86.0417H49.3363V89.9583H50.3363ZM50.3363 82.125V78.2083H49.3363V82.125H50.3363ZM50.3363 74.2917V70.375H49.3363V74.2917H50.3363ZM50.3363 66.4583V64.5H49.3363V66.4583H50.3363ZM50.3363 64.5H50.3363V63.5C49.784 63.5 49.3363 63.9477 49.3363 64.5H50.3363ZM50.3363 64.5H52.2876V63.5H50.3363V64.5ZM56.1903 64.5H60.0929V63.5H56.1903V64.5ZM63.9956 64.5H67.8982V63.5H63.9956V64.5ZM71.8009 64.5H75.7036V63.5H71.8009V64.5ZM79.6062 64.5H83.5089V63.5H79.6062V64.5ZM87.4115 64.5H91.3142V63.5H87.4115V64.5ZM95.2168 64.5H99.1195V63.5H95.2168V64.5ZM103.022 64.5H106.925V63.5H103.022V64.5ZM110.827 64.5H114.73V63.5H110.827V64.5ZM118.633 64.5H122.535V63.5H118.633V64.5ZM126.438 64.5H130.341V63.5H126.438V64.5ZM134.243 64.5H138.146V63.5H134.243V64.5ZM142.049 64.5H144V63.5H142.049V64.5Z" fill="#262121"/>
<path d="M720 112L715 114.887V109.113L720 112ZM713.833 112.5H709.722V111.5H713.833V112.5ZM705.61 112.5H701.499V111.5H705.61V112.5ZM697.388 112.5H693.276V111.5H697.388V112.5ZM689.165 112.5H685.053V111.5H689.165V112.5ZM680.942 112.5H676.831V111.5H680.942V112.5ZM672.719 112.5H670.664V111.5H672.719V112.5ZM670.664 112.5C670.111 112.5 669.664 112.052 669.664 111.5H670.664V112.5ZM669.664 111.5V109.542H670.664V111.5H669.664ZM669.664 105.625V101.708H670.664V105.625H669.664ZM669.664 97.7917V93.875H670.664V97.7917H669.664ZM669.664 89.9583V86.0417H670.664V89.9583H669.664ZM669.664 82.125V78.2083H670.664V82.125H669.664ZM669.664 74.2917V70.375H670.664V74.2917H669.664ZM669.664 66.4583V64.5H670.664V66.4583H669.664ZM669.664 64.5H669.664V63.5C670.216 63.5 670.664 63.9477 670.664 64.5H669.664ZM669.664 64.5H667.712V63.5H669.664V64.5ZM663.81 64.5H659.907V63.5H663.81V64.5ZM656.004 64.5H652.102V63.5H656.004V64.5ZM648.199 64.5H644.296V63.5H648.199V64.5ZM640.394 64.5H636.491V63.5H640.394V64.5ZM632.588 64.5H628.686V63.5H632.588V64.5ZM624.783 64.5H620.881V63.5H624.783V64.5ZM616.978 64.5H613.075V63.5H616.978V64.5ZM609.173 64.5H605.27V63.5H609.173V64.5ZM601.367 64.5H597.465V63.5H601.367V64.5ZM593.562 64.5H589.659V63.5H593.562V64.5ZM585.757 64.5H581.854V63.5H585.757V64.5ZM577.951 64.5H576V63.5H577.951V64.5Z" fill="#262121"/>
<path d="M72 214L74.8868 209H69.1132L72 214ZM72.5 206.688V201.812H71.5V206.688H72.5ZM72.5 196.938V194.5H71.5V196.938H72.5ZM72.5 194.5H72.5V193.5C71.9477 193.5 71.5 193.948 71.5 194.5H72.5ZM72.5 194.5H74.4861V193.5H72.5V194.5ZM78.4583 194.5H82.4306V193.5H78.4583V194.5ZM86.4028 194.5H90.375V193.5H86.4028V194.5ZM94.3472 194.5H98.3194V193.5H94.3472V194.5ZM102.292 194.5H106.264V193.5H102.292V194.5ZM110.236 194.5H114.208V193.5H110.236V194.5ZM118.181 194.5H122.153V193.5H118.181V194.5ZM126.125 194.5H130.097V193.5H126.125V194.5ZM134.069 194.5H138.042V193.5H134.069V194.5ZM142.014 194.5H144V193.5H142.014V194.5Z" fill="#262121"/>
<path d="M648 214L645.113 209H650.887L648 214ZM647.5 206.688V201.812H648.5V206.688H647.5ZM647.5 196.938V194.5H648.5V196.938H647.5ZM647.5 194.5H647.5V193.5C648.052 193.5 648.5 193.948 648.5 194.5H647.5ZM647.5 194.5H645.514V193.5H647.5V194.5ZM641.542 194.5H637.569V193.5H641.542V194.5ZM633.597 194.5H629.625V193.5H633.597V194.5ZM625.653 194.5H621.681V193.5H625.653V194.5ZM617.708 194.5H613.736V193.5H617.708V194.5ZM609.764 194.5H605.792V193.5H609.764V194.5ZM601.819 194.5H597.847V193.5H601.819V194.5ZM593.875 194.5H589.903V193.5H593.875V194.5ZM585.931 194.5H581.958V193.5H585.931V194.5ZM577.986 194.5H576V193.5H577.986V194.5Z" fill="#262121"/>
<path d="M292.049 235.478L335.765 399.397L191.219 235.478H292.049Z" fill="#AD1519"/>
<path d="M292.881 212.065H191.219L258.043 145.241C260.247 143.048 263.219 141.814 266.324 141.814H333.022L292.881 212.065Z" fill="#AD1519"/>
<path d="M406.904 212.065H308.139L359.991 141.814L406.904 212.065Z" fill="#AD1519"/>
<path d="M403.709 236.08L359.999 400L316.289 236.08H403.709Z" fill="#AD1519"/>
<path d="M427.113 212.065L386.967 141.814H453.665C456.77 141.814 459.748 143.048 461.946 145.241L528.77 212.065H427.113Z" fill="#AD1519"/>
<path d="M427.954 236.08H528.779L384.232 400L427.954 236.08Z" fill="#AD1519"/>
<path d="M359.994 66.7615C353.526 66.7615 348.287 61.5166 348.287 55.0551V11.7065C348.287 5.23928 353.532 0 359.994 0C366.461 0 371.7 5.24502 371.7 11.7065V55.0551C371.7 61.5166 366.461 66.7615 359.994 66.7615Z" fill="#AD1519"/>
<path d="M243.605 90.9385L221.931 53.3975C218.695 47.7967 220.617 40.6352 226.218 37.4044C231.819 34.1737 238.98 36.09 242.211 41.6908L263.885 79.2322C267.122 84.8329 265.199 91.9945 259.599 95.2252C254.021 98.4445 246.853 96.5623 243.605 90.9385Z" fill="#AD1519"/>
<path d="M460.395 95.2248C454.794 91.994 452.878 84.8325 456.108 79.2317L477.783 41.6903C481.019 36.0895 488.175 34.1732 493.776 37.4039C499.377 40.6347 501.293 47.7962 498.062 53.397L476.388 90.9381C473.146 96.556 465.979 98.4498 460.395 95.2248Z" fill="#AD1519"/>
</svg>
