<svg width="600" height="602" viewBox="0 0 600 602" fill="none" xmlns="http://www.w3.org/2000/svg">
<g opacity="0.2">
<path d="M432.809 217.509C456.914 251.263 471.159 292.521 471.159 337.076C471.159 450.816 378.623 543.343 264.891 543.343C151.159 543.343 58.6235 450.807 58.6235 337.076C58.6235 223.344 151.159 130.808 264.891 130.808C309.437 130.808 350.704 145.053 384.458 169.158L426.332 127.284C381.602 92.7833 325.624 72.1934 264.891 72.1934C118.829 72.1934 0 191.022 0 337.084C0 483.147 118.829 601.976 264.891 601.976C410.953 601.976 529.782 483.147 529.782 337.084C529.782 276.352 509.192 220.373 474.691 175.644L432.809 217.509Z" fill="white"/>
<path d="M401.905 248.397L370.945 279.356C380.322 296.51 385.656 316.177 385.656 337.066C385.656 403.66 331.479 457.837 264.885 457.837C198.291 457.837 144.114 403.66 144.114 337.066C144.114 270.472 198.291 216.295 264.885 216.295C285.774 216.295 305.441 221.629 322.595 231.006L353.563 200.046C328.025 183.481 297.593 173.832 264.885 173.832C174.731 173.832 101.643 246.92 101.643 337.074C101.643 427.229 174.731 500.317 264.885 500.317C355.039 500.317 428.127 427.229 428.127 337.074C428.119 304.366 418.47 273.934 401.905 248.397Z" fill="white"/>
<path d="M264.875 406.902C303.44 406.902 334.703 375.639 334.703 337.074C334.703 298.509 303.44 267.246 264.875 267.246C226.31 267.246 195.047 298.509 195.047 337.074C195.047 375.639 226.31 406.902 264.875 406.902Z" fill="white"/>
<path d="M600 61.427L553.372 47.3225L541.851 0L456.293 80.9885L465.573 119.11L256.238 328.436L273.515 345.704L485.539 133.68L514.442 142.416L600 61.427Z" fill="white"/>
</g>
</svg>
