<svg width="81" height="80" viewBox="0 0 81 80" fill="none" xmlns="http://www.w3.org/2000/svg">
<path d="M2.1857e-08 0.500001C2.1857e-08 0.223858 0.223858 5.24537e-07 0.5 5.24537e-07H80.5C80.7761 5.24537e-07 81 0.223858 81 0.500001V12.5C81 12.7761 80.7761 13 80.5 13H2.1857e-08V0.500001Z" fill="#262121"/>
<path d="M0.5 80C0.223858 80 1.20706e-08 79.7761 0 79.5L2.1857e-08 0.500001C2.1857e-08 0.223858 0.223858 5.24537e-07 0.5 5.24537e-07L13 0L13 79.5C13 79.7761 12.7761 80 12.5 80H0.5Z" fill="#262121"/>
</svg>
