<svg width="24" height="24" viewBox="0 0 24 24" fill="none" xmlns="http://www.w3.org/2000/svg">
<rect width="24" height="24" rx="0.5" fill="#262121"/>
<g clip-path="url(#clip0_2517_92958)">
<path d="M14.0276 12.5689L12.879 13.7214C12.4132 14.1888 11.5937 14.1989 11.1178 13.7214L9.96918 12.5689L5.84375 16.7077C5.99731 16.7787 6.16663 16.8211 6.34663 16.8211H17.6502C17.8302 16.8211 17.9995 16.7788 18.153 16.7078L14.0276 12.5689Z" fill="#F2EDED"/>
<path d="M17.6496 7.17828H6.34598C6.16598 7.17828 5.99667 7.22066 5.84316 7.29167L10.2515 11.7146C10.2518 11.7149 10.2521 11.715 10.2524 11.7152C10.2526 11.7154 10.2527 11.7157 10.2528 11.7159L11.6861 13.1541C11.8384 13.3063 12.1572 13.3063 12.3094 13.1541L13.7425 11.7162C13.7425 11.7162 13.7429 11.7155 13.7432 11.7152C13.7432 11.7152 13.7438 11.7149 13.7441 11.7146L18.1523 7.29164C17.9988 7.22061 17.8296 7.17828 17.6496 7.17828ZM5.26882 7.85361C5.18937 8.01427 5.14062 8.19261 5.14062 8.38364V15.6158C5.14062 15.8068 5.18932 15.9852 5.26879 16.1458L9.40137 11.9998L5.26882 7.85361ZM18.7267 7.85355L14.5942 11.9998L18.7267 16.1459C18.8062 15.9852 18.8549 15.8069 18.8549 15.6158V8.38364C18.8549 8.19255 18.8062 8.01421 18.7267 7.85355Z" fill="#F2EDED"/>
</g>
<defs>
<clipPath id="clip0_2517_92958">
<rect width="13.7143" height="13.7143" fill="white" transform="translate(5.14062 5.14258)"/>
</clipPath>
</defs>
</svg>
