<svg width="36" height="26" viewBox="0 0 36 26" fill="none" xmlns="http://www.w3.org/2000/svg">
<g filter="url(#filter0_b_2515_92256)">
<path d="M35.2012 4.35418C34.7818 2.8034 33.572 1.58904 32.0213 1.17427C29.9382 0.370075 9.76191 -0.0239568 3.90904 1.19731C2.35825 1.61669 1.1439 2.82644 0.729128 4.37722C-0.211019 8.50188 -0.282451 17.4194 0.752171 21.6363C1.17155 23.1871 2.3813 24.4014 3.93208 24.8162C8.05674 25.7656 27.6662 25.8992 32.0443 24.8162C33.5951 24.3968 34.8094 23.1871 35.2242 21.6363C36.2266 17.1429 36.298 8.7784 35.2012 4.35418Z" fill="#262121"/>
</g>
<path d="M23.9093 12.9946L14.5078 7.6026V18.3866L23.9093 12.9946Z" fill="#F2EDED"/>
<defs>
<filter id="filter0_b_2515_92256" x="-2" y="-1.58002" width="40" height="29.1592" filterUnits="userSpaceOnUse" color-interpolation-filters="sRGB">
<feFlood flood-opacity="0" result="BackgroundImageFix"/>
<feGaussianBlur in="BackgroundImageFix" stdDeviation="1"/>
<feComposite in2="SourceAlpha" operator="in" result="effect1_backgroundBlur_2515_92256"/>
<feBlend mode="normal" in="SourceGraphic" in2="effect1_backgroundBlur_2515_92256" result="shape"/>
</filter>
</defs>
</svg>
