<svg width="374" height="52" viewBox="0 0 374 52" fill="none" xmlns="http://www.w3.org/2000/svg">
<g filter="url(#filter0_b_2295_93536)">
<rect width="374" height="52" rx="1" fill="url(#paint0_linear_2295_93536)"/>
</g>
<path d="M171.781 32.18C170.665 32.18 169.729 32.018 168.973 31.694C168.229 31.358 167.659 30.926 167.263 30.398C166.879 29.858 166.675 29.294 166.651 28.706C166.651 28.598 166.687 28.508 166.759 28.436C166.831 28.364 166.921 28.328 167.029 28.328H168.631C168.787 28.328 168.901 28.364 168.973 28.436C169.057 28.496 169.129 28.574 169.189 28.67C169.261 28.898 169.399 29.126 169.603 29.354C169.807 29.57 170.083 29.75 170.431 29.894C170.791 30.038 171.241 30.11 171.781 30.11C172.645 30.11 173.287 29.966 173.707 29.678C174.139 29.39 174.355 29 174.355 28.508C174.355 28.16 174.241 27.884 174.013 27.68C173.785 27.464 173.431 27.272 172.951 27.104C172.483 26.924 171.859 26.738 171.079 26.546C170.179 26.33 169.423 26.072 168.811 25.772C168.211 25.46 167.755 25.07 167.443 24.602C167.143 24.134 166.993 23.54 166.993 22.82C166.993 22.124 167.179 21.506 167.551 20.966C167.935 20.426 168.475 20 169.171 19.688C169.879 19.376 170.719 19.22 171.691 19.22C172.471 19.22 173.161 19.328 173.761 19.544C174.361 19.748 174.859 20.024 175.255 20.372C175.651 20.708 175.951 21.074 176.155 21.47C176.371 21.854 176.485 22.232 176.497 22.604C176.497 22.7 176.461 22.79 176.389 22.874C176.329 22.946 176.239 22.982 176.119 22.982H174.445C174.349 22.982 174.253 22.958 174.157 22.91C174.061 22.862 173.983 22.772 173.923 22.64C173.851 22.268 173.617 21.95 173.221 21.686C172.825 21.422 172.315 21.29 171.691 21.29C171.043 21.29 170.521 21.41 170.125 21.65C169.729 21.89 169.531 22.262 169.531 22.766C169.531 23.102 169.627 23.384 169.819 23.612C170.023 23.828 170.341 24.02 170.773 24.188C171.217 24.356 171.799 24.536 172.519 24.728C173.539 24.956 174.373 25.22 175.021 25.52C175.669 25.82 176.143 26.204 176.443 26.672C176.743 27.128 176.893 27.71 176.893 28.418C176.893 29.21 176.677 29.888 176.245 30.452C175.825 31.004 175.231 31.43 174.463 31.73C173.695 32.03 172.801 32.18 171.781 32.18ZM181.458 32.18C180.834 32.18 180.27 32.06 179.766 31.82C179.262 31.568 178.86 31.238 178.56 30.83C178.272 30.41 178.128 29.942 178.128 29.426C178.128 28.586 178.464 27.92 179.136 27.428C179.82 26.924 180.72 26.588 181.836 26.42L184.302 26.06V25.682C184.302 25.178 184.176 24.788 183.924 24.512C183.672 24.236 183.24 24.098 182.628 24.098C182.196 24.098 181.842 24.188 181.566 24.368C181.302 24.536 181.104 24.764 180.972 25.052C180.876 25.208 180.738 25.286 180.558 25.286H179.136C179.004 25.286 178.902 25.25 178.83 25.178C178.77 25.106 178.74 25.01 178.74 24.89C178.752 24.698 178.83 24.464 178.974 24.188C179.118 23.912 179.346 23.648 179.658 23.396C179.97 23.132 180.372 22.91 180.864 22.73C181.356 22.55 181.95 22.46 182.646 22.46C183.402 22.46 184.038 22.556 184.554 22.748C185.082 22.928 185.502 23.174 185.814 23.486C186.126 23.798 186.354 24.164 186.498 24.584C186.642 25.004 186.714 25.448 186.714 25.916V31.568C186.714 31.688 186.672 31.79 186.588 31.874C186.504 31.958 186.402 32 186.282 32H184.824C184.692 32 184.584 31.958 184.5 31.874C184.428 31.79 184.392 31.688 184.392 31.568V30.866C184.236 31.094 184.026 31.31 183.762 31.514C183.498 31.706 183.174 31.868 182.79 32C182.418 32.12 181.974 32.18 181.458 32.18ZM182.07 30.47C182.49 30.47 182.868 30.38 183.204 30.2C183.552 30.02 183.822 29.744 184.014 29.372C184.218 28.988 184.32 28.508 184.32 27.932V27.554L182.52 27.842C181.812 27.95 181.284 28.124 180.936 28.364C180.588 28.604 180.414 28.898 180.414 29.246C180.414 29.51 180.492 29.738 180.648 29.93C180.816 30.11 181.026 30.248 181.278 30.344C181.53 30.428 181.794 30.47 182.07 30.47ZM192.106 32C191.914 32 191.77 31.958 191.674 31.874C191.59 31.778 191.518 31.67 191.458 31.55L188.092 23.198C188.068 23.138 188.056 23.084 188.056 23.036C188.056 22.928 188.092 22.838 188.164 22.766C188.248 22.682 188.344 22.64 188.452 22.64H189.91C190.054 22.64 190.162 22.682 190.234 22.766C190.306 22.838 190.354 22.91 190.378 22.982L192.772 29.3L195.166 22.982C195.19 22.91 195.238 22.838 195.31 22.766C195.382 22.682 195.49 22.64 195.634 22.64H197.11C197.206 22.64 197.29 22.682 197.362 22.766C197.446 22.838 197.488 22.928 197.488 23.036C197.488 23.084 197.482 23.138 197.47 23.198L194.086 31.55C194.038 31.67 193.966 31.778 193.87 31.874C193.774 31.958 193.63 32 193.438 32H192.106ZM202.828 32.18C201.496 32.18 200.44 31.796 199.66 31.028C198.88 30.26 198.46 29.168 198.4 27.752C198.388 27.632 198.382 27.482 198.382 27.302C198.382 27.11 198.388 26.96 198.4 26.852C198.448 25.952 198.652 25.172 199.012 24.512C199.384 23.852 199.894 23.348 200.542 23C201.19 22.64 201.952 22.46 202.828 22.46C203.8 22.46 204.616 22.664 205.276 23.072C205.936 23.468 206.434 24.026 206.77 24.746C207.106 25.454 207.274 26.276 207.274 27.212V27.59C207.274 27.71 207.232 27.812 207.148 27.896C207.064 27.98 206.956 28.022 206.824 28.022H200.848C200.848 28.022 200.848 28.04 200.848 28.076C200.848 28.112 200.848 28.142 200.848 28.166C200.86 28.586 200.938 28.976 201.082 29.336C201.238 29.684 201.46 29.966 201.748 30.182C202.048 30.398 202.402 30.506 202.81 30.506C203.146 30.506 203.428 30.458 203.656 30.362C203.884 30.254 204.07 30.134 204.214 30.002C204.358 29.87 204.46 29.762 204.52 29.678C204.628 29.534 204.712 29.45 204.772 29.426C204.844 29.39 204.946 29.372 205.078 29.372H206.626C206.746 29.372 206.842 29.408 206.914 29.48C206.998 29.552 207.034 29.642 207.022 29.75C207.01 29.942 206.908 30.176 206.716 30.452C206.536 30.728 206.272 30.998 205.924 31.262C205.576 31.526 205.138 31.748 204.61 31.928C204.094 32.096 203.5 32.18 202.828 32.18ZM200.848 26.51H204.826V26.456C204.826 25.988 204.748 25.58 204.592 25.232C204.436 24.884 204.208 24.608 203.908 24.404C203.608 24.2 203.248 24.098 202.828 24.098C202.408 24.098 202.048 24.2 201.748 24.404C201.448 24.608 201.22 24.884 201.064 25.232C200.92 25.58 200.848 25.988 200.848 26.456V26.51Z" fill="white"/>
<defs>
<filter id="filter0_b_2295_93536" x="-5" y="-5" width="384" height="62" filterUnits="userSpaceOnUse" color-interpolation-filters="sRGB">
<feFlood flood-opacity="0" result="BackgroundImageFix"/>
<feGaussianBlur in="BackgroundImageFix" stdDeviation="2.5"/>
<feComposite in2="SourceAlpha" operator="in" result="effect1_backgroundBlur_2295_93536"/>
<feBlend mode="normal" in="SourceGraphic" in2="effect1_backgroundBlur_2295_93536" result="shape"/>
</filter>
<linearGradient id="paint0_linear_2295_93536" x1="133.272" y1="-13.5" x2="378.437" y2="167.249" gradientUnits="userSpaceOnUse">
<stop stop-color="#AD1519"/>
<stop offset="1" stop-color="#FABD00"/>
</linearGradient>
</defs>
</svg>
