<svg width="14" height="14" viewBox="0 0 14 14" fill="none" xmlns="http://www.w3.org/2000/svg">
<path d="M0.871738 2.12881C0.784955 2.04203 0.784955 1.90132 0.871738 1.81454L1.81455 0.871732C1.90133 0.784949 2.04203 0.784949 2.12882 0.871732L8.09996 6.84288C8.18675 6.92966 8.18675 7.07037 8.09997 7.15715L7.15716 8.09996C7.07037 8.18674 6.92967 8.18674 6.84289 8.09996L0.871738 2.12881Z" fill="#F52A2A"/>
<path d="M7.15716 8.09996C7.07037 8.18674 6.92967 8.18674 6.84289 8.09996L5.90005 7.15713C5.81327 7.07034 5.81327 6.92964 5.90005 6.84286L11.8712 0.871728C11.958 0.784945 12.0987 0.784945 12.1854 0.871729L13.1283 1.81454C13.215 1.90132 13.215 2.04203 13.1283 2.12881L7.15716 8.09996Z" fill="#F52A2A"/>
<path d="M0.871738 2.12881C0.784955 2.04203 0.784955 1.90132 0.871738 1.81454L1.81455 0.871732C1.90133 0.784949 2.04203 0.784949 2.12882 0.871732L8.09996 6.84288C8.18675 6.92966 8.18675 7.07037 8.09997 7.15715L7.15716 8.09996C7.07037 8.18674 6.92967 8.18674 6.84289 8.09996L0.871738 2.12881Z" fill="#F52A2A"/>
<path d="M7.15716 8.09996C7.07037 8.18674 6.92967 8.18674 6.84289 8.09996L5.90005 7.15713C5.81327 7.07034 5.81327 6.92964 5.90005 6.84286L11.8712 0.871728C11.958 0.784945 12.0987 0.784945 12.1854 0.871729L13.1283 1.81454C13.215 1.90132 13.215 2.04203 13.1283 2.12881L7.15716 8.09996Z" fill="#F52A2A"/>
<path d="M2.12885 13.1283C2.04206 13.2151 1.90136 13.2151 1.81458 13.1283L0.871764 12.1855C0.784981 12.0987 0.784981 11.958 0.871764 11.8712L6.84289 5.90006C6.92967 5.81328 7.07038 5.81328 7.15716 5.90006L8.09996 6.84288C8.18675 6.92966 8.18675 7.07037 8.09997 7.15715L2.12885 13.1283Z" fill="#F52A2A"/>
<path d="M8.09996 6.84288C8.18675 6.92966 8.18675 7.07037 8.09997 7.15715L7.15716 8.09996C7.07037 8.18674 6.92967 8.18674 6.84289 8.09996L0.871738 2.12881C0.784955 2.04203 0.784955 1.90132 0.871738 1.81454L1.81455 0.871732C1.90133 0.784949 2.04203 0.784949 2.12882 0.871732L8.09996 6.84288Z" fill="#F52A2A"/>
<path d="M2.12885 13.1283C2.04206 13.2151 1.90136 13.2151 1.81458 13.1283L0.871764 12.1855C0.784981 12.0987 0.784981 11.958 0.871764 11.8712L6.84289 5.90006C6.92967 5.81328 7.07038 5.81328 7.15716 5.90006L8.09996 6.84288C8.18675 6.92966 8.18675 7.07037 8.09997 7.15715L2.12885 13.1283Z" fill="#F52A2A"/>
<path d="M8.09996 6.84288C8.18675 6.92966 8.18675 7.07037 8.09997 7.15715L7.15716 8.09996C7.07037 8.18674 6.92967 8.18674 6.84289 8.09996L0.871738 2.12881C0.784955 2.04203 0.784955 1.90132 0.871738 1.81454L1.81455 0.871732C1.90133 0.784949 2.04203 0.784949 2.12882 0.871732L8.09996 6.84288Z" fill="#F52A2A"/>
<path d="M0.871764 11.8712C0.784981 11.958 0.784981 12.0987 0.871764 12.1855L1.81458 13.1283C1.90136 13.2151 2.04206 13.2151 2.12885 13.1283L8.09997 7.15715C8.18675 7.07037 8.18675 6.92966 8.09996 6.84288L7.15716 5.90006C7.07038 5.81328 6.92967 5.81328 6.84289 5.90006L0.871764 11.8712Z" fill="#F52A2A"/>
<path d="M7.15716 5.90006C7.07038 5.81328 6.92967 5.81328 6.84289 5.90006L5.90005 6.84286C5.81327 6.92964 5.81327 7.07034 5.90005 7.15713L11.8712 13.1283C11.9579 13.215 12.0986 13.215 12.1854 13.1283L13.1282 12.1855C13.215 12.0987 13.215 11.958 13.1282 11.8712L7.15716 5.90006Z" fill="#F52A2A"/>
<path d="M0.871764 11.8712C0.784981 11.958 0.784981 12.0987 0.871764 12.1855L1.81458 13.1283C1.90136 13.2151 2.04206 13.2151 2.12885 13.1283L8.09997 7.15715C8.18675 7.07037 8.18675 6.92966 8.09996 6.84288L7.15716 5.90006C7.07038 5.81328 6.92967 5.81328 6.84289 5.90006L0.871764 11.8712Z" fill="#F52A2A"/>
<path d="M7.15716 5.90006C7.07038 5.81328 6.92967 5.81328 6.84289 5.90006L5.90005 6.84286C5.81327 6.92964 5.81327 7.07034 5.90005 7.15713L11.8712 13.1283C11.9579 13.215 12.0986 13.215 12.1854 13.1283L13.1282 12.1855C13.215 12.0987 13.215 11.958 13.1282 11.8712L7.15716 5.90006Z" fill="#F52A2A"/>
</svg>
