<svg width="32" height="31" viewBox="0 0 32 31" fill="none" xmlns="http://www.w3.org/2000/svg">
<path fill-rule="evenodd" clip-rule="evenodd" d="M11.5241 5.74512H30.577L19.2606 13.5029L11.563 8.22597C11.8561 7.44123 11.8586 6.55419 11.5241 5.74512ZM31.9608 6.74282L19.713 15.1391C19.4265 15.3347 19.0583 15.3194 18.792 15.1281L10.661 9.55401C10.5044 9.69515 10.335 9.82136 10.1549 9.931L8.39844 11.0004C9.32127 13.9787 11.6047 17.9337 13.7225 20.222L15.527 19.2355C17.1392 18.3542 19.1663 18.9227 20.0849 20.514L21.6398 23.2071H30.6964C31.4115 23.2071 31.9965 22.622 31.9965 21.9069V7.04527C31.9966 6.9434 31.9846 6.84187 31.9608 6.74282Z" fill="#AD1519"/>
<path fill-rule="evenodd" clip-rule="evenodd" d="M6.54463 10.2474L9.32177 8.55643C10.1459 8.05463 10.4195 6.98399 9.93699 6.1483L7.42979 1.8057C7.17259 1.36014 6.78327 1.07351 6.28146 0.960224C5.77959 0.846873 5.30501 0.938372 4.88123 1.23016L0.308839 4.37826C-1.86763 12.047 7.91296 28.6495 15.4141 30.5413L20.4266 28.1555C20.8912 27.9345 21.2078 27.5691 21.3605 27.0779C21.5133 26.5866 21.4597 26.1062 21.2025 25.6606L18.6953 21.318C18.2128 20.4823 17.1488 20.1839 16.3022 20.6467L13.4492 22.2063C10.6278 19.6971 7.30705 13.9454 6.54463 10.2474Z" fill="#FABD00"/>
</svg>
