<svg width="24" height="24" viewBox="0 0 24 24" fill="none" xmlns="http://www.w3.org/2000/svg">
<g clip-path="url(#clip0_1515_79561)">
<path d="M14.7824 13.7225C14.4896 13.4297 14.0148 13.4297 13.722 13.7225L12.7525 14.6919V10.1287C12.7525 9.71463 12.4168 9.37891 12.0027 9.37891C11.5886 9.37891 11.2529 9.71463 11.2529 10.1287V14.6919L10.2835 13.7225C9.99065 13.4297 9.51593 13.4297 9.22308 13.7225C8.93028 14.0153 8.93028 14.49 9.22308 14.7829C11.6409 17.2007 11.523 17.115 11.7158 17.1948C11.8528 17.2516 12.0035 17.2664 12.149 17.2375C12.2945 17.2086 12.4281 17.1372 12.5329 17.0323L14.7824 14.7829C15.0752 14.4901 15.0752 14.0153 14.7824 13.7225ZM15.7518 20.2511H8.25372C7.83963 20.2511 7.50391 19.9154 7.50391 19.5013C7.50391 19.0873 7.83963 18.7515 8.25372 18.7515H15.7518C16.1659 18.7515 16.5016 19.0873 16.5016 19.5013C16.5016 19.9154 16.1659 20.2511 15.7518 20.2511Z" fill="#594E4E"/>
<path d="M20.9988 7.49325C20.9961 7.29814 20.9174 7.11177 20.7795 6.97377C13.61 -0.195676 14.006 0.175667 13.8549 0.0947811C13.6127 -0.0347486 14.2965 0.00611607 4.6324 0.00611607C3.73446 0.00611607 3.00391 0.736665 3.00391 1.63461V22.3715C3.00391 23.2695 3.73446 24 4.6324 24H19.3708C20.2688 24 20.9993 23.2695 20.9993 22.3715C20.9993 22.1701 20.9996 7.55351 20.9988 7.49325ZM14.251 6.62548V2.56611L18.4393 6.7544C14.0825 6.7544 14.3739 6.75586 14.354 6.75178C14.3249 6.74576 14.2988 6.72991 14.2801 6.70691C14.2613 6.68391 14.2511 6.65515 14.251 6.62548ZM19.4997 22.3715C19.4997 22.4057 19.4861 22.4384 19.4619 22.4626C19.4378 22.4867 19.405 22.5003 19.3708 22.5004H4.6324C4.59823 22.5003 4.56546 22.4867 4.5413 22.4626C4.51714 22.4384 4.50355 22.4057 4.50353 22.3715V1.63456C4.50355 1.60039 4.51714 1.56763 4.5413 1.54346C4.56546 1.5193 4.59823 1.50571 4.6324 1.50569H12.7514V6.62548C12.7514 7.52343 13.482 8.25398 14.3799 8.25398H19.4997V22.3715Z" fill="#594E4E"/>
</g>
<defs>
<clipPath id="clip0_1515_79561">
<rect width="24" height="24" fill="white"/>
</clipPath>
</defs>
</svg>
