<svg width="14" height="15" viewBox="0 0 14 15" fill="none" xmlns="http://www.w3.org/2000/svg">
<path d="M0.0735664 7.52238C-0.02452 7.42429 -0.024519 7.26527 0.0735673 7.16718L1.13917 6.10157C1.23726 6.00349 1.39629 6.00349 1.49438 6.10157L8.24322 12.8504C8.34131 12.9485 8.34131 13.1075 8.24322 13.2056L7.17761 14.2712C7.07953 14.3693 6.9205 14.3693 6.82241 14.2712L0.0735664 7.52238Z" fill="#F2EDED"/>
<path d="M7.17761 14.2712C7.07953 14.3693 6.9205 14.3693 6.82241 14.2712L5.75678 13.2056C5.65869 13.1075 5.65869 12.9485 5.75678 12.8504L12.5056 6.10155C12.6037 6.00346 12.7627 6.00346 12.8608 6.10155L13.9264 7.16716C14.0245 7.26524 14.0245 7.42427 13.9264 7.52236L7.17761 14.2712Z" fill="#F2EDED"/>
<path d="M0.0735664 1.4944C-0.02452 1.39631 -0.024519 1.23728 0.0735673 1.13919L1.13917 0.0735875C1.23726 -0.0244989 1.39629 -0.0244989 1.49438 0.0735875L8.24322 6.82243C8.34131 6.92052 8.34131 7.07955 8.24322 7.17763L7.17761 8.24324C7.07953 8.34133 6.9205 8.34133 6.82241 8.24324L0.0735664 1.4944Z" fill="#F2EDED"/>
<path d="M7.17761 8.24324C7.07953 8.34133 6.9205 8.34133 6.82241 8.24324L5.75678 7.17761C5.65869 7.07953 5.65869 6.9205 5.75678 6.82241L12.5056 0.0735647C12.6037 -0.0245217 12.7627 -0.0245216 12.8608 0.0735648L13.9264 1.13917C14.0245 1.23726 14.0245 1.39629 13.9264 1.49437L7.17761 8.24324Z" fill="#F2EDED"/>
</svg>
