<svg width="24" height="27" viewBox="0 0 24 27" fill="none" xmlns="http://www.w3.org/2000/svg">
<path fill-rule="evenodd" clip-rule="evenodd" d="M17.8844 1.10637V2.11082C18.7246 2.12975 19.5524 2.31792 20.3181 2.66409C21.0839 3.01027 21.772 3.50736 22.3412 4.12557C22.9105 4.74378 23.3492 5.4704 23.6312 6.26207C23.9131 7.05373 24.0325 7.89411 23.9822 8.73298L24 19.9685C24.0089 24.1552 21.3778 26.733 17.1645 26.733L6.87111 26.7507C2.68445 26.7596 0.0178203 24.1196 0.0178203 19.924L2.5164e-05 8.82185C-0.00886371 4.95519 2.33781 2.4575 6.00891 2.12861V1.12417C6.00891 0.855414 6.11564 0.597624 6.30568 0.407588C6.49571 0.217551 6.7535 0.110822 7.02225 0.110822C7.29101 0.110822 7.54869 0.217551 7.73873 0.407588C7.92876 0.597624 8.0356 0.855414 8.0356 1.12417V2.05743L15.8577 2.04854V1.11527C15.8519 0.980562 15.8737 0.846063 15.9218 0.720087C15.9698 0.594111 16.0432 0.479323 16.1373 0.38274C16.2313 0.286157 16.3442 0.209804 16.4689 0.158456C16.5935 0.107109 16.7274 0.0818203 16.8622 0.0841294C16.9968 0.082702 17.1304 0.108133 17.2551 0.158999C17.3798 0.209865 17.493 0.285145 17.5882 0.380353C17.6834 0.47556 17.7587 0.588802 17.8096 0.713468C17.8604 0.838135 17.8859 0.971735 17.8844 1.10637ZM2.02671 9.23081L21.9555 9.20412V8.74188C21.9022 5.87078 20.4622 4.36852 17.8844 4.1463V5.17744C17.8844 5.44619 17.7777 5.70398 17.5877 5.89401C17.3976 6.08405 17.1398 6.19078 16.8711 6.19078C16.6023 6.19078 16.3447 6.08405 16.1546 5.89401C15.9646 5.70398 15.8577 5.44619 15.8577 5.17744V4.09302L8.0356 4.11081V5.18633C8.0356 5.45509 7.92876 5.71288 7.73873 5.90291C7.54869 6.09295 7.29101 6.19968 7.02225 6.19968C6.7535 6.19968 6.49571 6.09295 6.30568 5.90291C6.11564 5.71288 6.00891 5.45509 6.00891 5.18633V4.16409C3.44003 4.42187 2.02671 5.92408 2.02671 8.82185V9.23081ZM16.32 15.293V15.3019C16.3219 15.4459 16.3526 15.5881 16.4103 15.7202C16.4679 15.8522 16.5513 15.9714 16.6556 16.0708C16.7599 16.1701 16.8831 16.2477 17.0178 16.2988C17.1525 16.35 17.296 16.3736 17.44 16.3685C17.657 16.3641 17.8679 16.2954 18.0459 16.1711C18.2239 16.0469 18.3611 15.8726 18.4401 15.6704C18.5191 15.4681 18.5363 15.2471 18.4897 15.0351C18.443 14.823 18.3345 14.6296 18.1779 14.4792C18.0214 14.3288 17.8236 14.2283 17.6099 14.1902C17.3962 14.1522 17.176 14.1783 16.9771 14.2654C16.7782 14.3525 16.6097 14.4967 16.4927 14.6796C16.3758 14.8625 16.3156 15.0759 16.32 15.293V15.293ZM17.4044 21.2752C17.1112 21.2659 16.8332 21.143 16.6291 20.9323C16.425 20.7216 16.3109 20.4396 16.3111 20.1463C16.3037 19.853 16.4126 19.5688 16.6141 19.3556C16.8157 19.1424 17.0935 19.0176 17.3867 19.0086H17.4044C17.705 19.0086 17.9933 19.128 18.2058 19.3405C18.4184 19.553 18.5377 19.8412 18.5377 20.1418C18.5377 20.4424 18.4184 20.7307 18.2058 20.9432C17.9933 21.1558 17.705 21.2752 17.4044 21.2752V21.2752ZM10.8978 15.3108C10.9007 15.4548 10.9322 15.5968 10.9906 15.7285C11.0489 15.8602 11.1329 15.979 11.2376 16.0779C11.3424 16.1768 11.4658 16.2539 11.6006 16.3047C11.7354 16.3554 11.8789 16.3788 12.0229 16.3735C12.1669 16.3682 12.3083 16.3342 12.439 16.2737C12.5697 16.2131 12.6871 16.1272 12.7843 16.0208C12.8814 15.9145 12.9564 15.7898 13.0049 15.6542C13.0534 15.5185 13.0743 15.3746 13.0666 15.2308C13.0629 14.9444 12.9457 14.6712 12.7407 14.4713C12.5357 14.2713 12.2597 14.1608 11.9733 14.1641C11.6808 14.1796 11.4056 14.3076 11.2052 14.5213C11.0048 14.7349 10.8946 15.0178 10.8978 15.3108V15.3108ZM12.0356 21.213C11.7436 21.2212 11.4602 21.1136 11.2471 20.9138C11.034 20.7141 10.9085 20.4382 10.8978 20.1463C10.8967 19.8524 11.0087 19.5695 11.2106 19.356C11.4125 19.1425 11.6888 19.015 11.9822 18.9997C12.2698 19.002 12.5452 19.116 12.7502 19.3177C12.9552 19.5194 13.0738 19.793 13.0807 20.0805C13.0877 20.368 12.9824 20.6469 12.7873 20.8583C12.5923 21.0696 12.3227 21.1969 12.0356 21.213V21.213ZM5.4756 15.3553C5.48761 15.5673 5.56153 15.7711 5.68827 15.9415C5.81502 16.1119 5.98897 16.2414 6.1886 16.3139C6.38822 16.3864 6.60474 16.3989 6.81132 16.3495C7.01789 16.3002 7.20551 16.1913 7.35081 16.0364C7.49611 15.8814 7.59277 15.6873 7.62881 15.478C7.66485 15.2687 7.63863 15.0534 7.5535 14.8588C7.46838 14.6643 7.32804 14.499 7.14986 14.3834C6.97168 14.2678 6.7635 14.207 6.55112 14.2086C6.25858 14.2241 5.98342 14.3521 5.783 14.5658C5.58258 14.7794 5.47243 15.0623 5.4756 15.3553V15.3553ZM6.61329 21.2219C6.46853 21.2266 6.32425 21.2027 6.18871 21.1517C6.05316 21.1006 5.92903 21.0234 5.82336 20.9244C5.7177 20.8253 5.63261 20.7064 5.57293 20.5744C5.51325 20.4425 5.48019 20.2999 5.4756 20.1552C5.47276 19.8608 5.58411 19.5769 5.78636 19.3631C5.98862 19.1492 6.26598 19.0221 6.56002 19.0086C6.84761 19.0109 7.12302 19.1249 7.32803 19.3266C7.53303 19.5283 7.6515 19.8019 7.65843 20.0894C7.66536 20.3769 7.56019 20.6558 7.36514 20.8672C7.17009 21.0785 6.90044 21.2058 6.61329 21.2219V21.2219Z" fill="#594E4E"/>
</svg>
