<svg width="28" height="28" viewBox="0 0 28 28" fill="none" xmlns="http://www.w3.org/2000/svg">
<rect width="28" height="28" rx="0.5" fill="#594E4E"/>
<path d="M16.3681 14.6641L15.0281 16.0086C14.4847 16.5539 13.5286 16.5657 12.9734 16.0086L11.6333 14.6641L6.82031 19.4927C6.99947 19.5755 7.197 19.625 7.407 19.625H20.5945C20.8045 19.625 21.002 19.5756 21.1811 19.4927L16.3681 14.6641Z" fill="#FCFCFC"/>
<path d="M20.5938 8.375H7.40625C7.19625 8.375 6.99872 8.42444 6.81963 8.50728L11.9627 13.6674C11.963 13.6677 11.9634 13.6678 11.9637 13.6681C11.964 13.6683 11.9641 13.6686 11.9642 13.6689L13.6364 15.3468C13.8141 15.5244 14.186 15.5244 14.3636 15.3468L16.0356 13.6692C16.0356 13.6692 16.036 13.6685 16.0363 13.6681C16.0363 13.6681 16.0371 13.6677 16.0374 13.6674L21.1803 8.50725C21.0012 8.42438 20.8038 8.375 20.5938 8.375ZM6.14956 9.16287C6.05687 9.35031 6 9.55838 6 9.78125V18.2188C6 18.4416 6.05681 18.6497 6.14953 18.8371L10.9709 14.0002L6.14956 9.16287ZM21.8504 9.16281L17.0292 14.0002L21.8504 18.8372C21.9431 18.6498 22 18.4417 22 18.2188V9.78125C22 9.55831 21.9431 9.35025 21.8504 9.16281Z" fill="#FCFCFC"/>
</svg>
