<svg width="24" height="24" viewBox="0 0 24 24" fill="none" xmlns="http://www.w3.org/2000/svg">
<g filter="url(#filter0_b_2295_93685)">
<path d="M24 12C24 17.9897 19.6116 22.9542 13.875 23.8542V15.4688H16.6711L17.2031 12H13.875V9.74906C13.875 8.79984 14.34 7.875 15.8306 7.875H17.3438V4.92188C17.3438 4.92188 15.9703 4.6875 14.6573 4.6875C11.9166 4.6875 10.125 6.34875 10.125 9.35625V12H7.07812V15.4688H10.125V23.8542C4.38844 22.9542 0 17.9897 0 12C0 5.37281 5.37281 0 12 0C18.6272 0 24 5.37281 24 12Z" fill="#594E4E"/>
</g>
<defs>
<filter id="filter0_b_2295_93685" x="-2" y="-2" width="28" height="27.8545" filterUnits="userSpaceOnUse" color-interpolation-filters="sRGB">
<feFlood flood-opacity="0" result="BackgroundImageFix"/>
<feGaussianBlur in="BackgroundImageFix" stdDeviation="1"/>
<feComposite in2="SourceAlpha" operator="in" result="effect1_backgroundBlur_2295_93685"/>
<feBlend mode="normal" in="SourceGraphic" in2="effect1_backgroundBlur_2295_93685" result="shape"/>
</filter>
</defs>
</svg>
