<svg width="24" height="24" viewBox="0 0 24 24" fill="none" xmlns="http://www.w3.org/2000/svg">
<g filter="url(#filter0_b_2295_93697)">
<path d="M12.0039 0C6.99403 0 5.52883 0.00516967 5.24402 0.0288024C4.2159 0.114287 3.57615 0.276208 2.87917 0.623314C2.34204 0.890106 1.91843 1.19936 1.50035 1.63288C0.738959 2.42347 0.277507 3.3961 0.110461 4.55226C0.0292458 5.11354 0.00561946 5.22801 0.000820359 8.09496C-0.00102545 9.05061 0.000820359 10.3083 0.000820359 11.9953C0.000820359 17.0025 0.00635778 18.4666 0.0303533 18.7509C0.113415 19.7516 0.270308 20.3812 0.602553 21.0699C1.23751 22.3882 2.45021 23.3778 3.87886 23.7471C4.37354 23.8745 4.9199 23.9446 5.6213 23.9778C5.91848 23.9908 8.94744 24 11.9783 24C15.0091 24 18.0399 23.9963 18.3297 23.9815C19.1418 23.9433 19.6134 23.88 20.1349 23.7452C21.5728 23.3741 22.7633 22.3993 23.4112 21.0625C23.737 20.3905 23.9022 19.7369 23.9769 18.7884C23.9932 18.5816 24 15.2847 24 11.9922C24 8.69907 23.9926 5.40821 23.9764 5.20142C23.9007 4.23765 23.7355 3.5896 23.3992 2.90461C23.1232 2.34389 22.8168 1.92515 22.372 1.49699C21.5781 0.738524 20.6072 0.276947 19.4503 0.11004C18.8897 0.0289871 18.778 0.00498504 15.9096 0H12.0039Z" fill="#594E4E"/>
</g>
<path d="M11.9934 3.13867C9.58723 3.13867 9.28526 3.1492 8.3402 3.19222C7.397 3.23542 6.75318 3.38479 6.18984 3.60394C5.60712 3.8303 5.11281 4.13309 4.62035 4.62587C4.12752 5.11847 3.82481 5.61291 3.59777 6.19561C3.37812 6.75929 3.22861 7.40346 3.18616 8.34656C3.14389 9.29187 3.13281 9.59411 3.13281 12.001C3.13281 14.4078 3.14352 14.7089 3.18634 15.6543C3.22972 16.5977 3.37904 17.2417 3.59796 17.8052C3.82444 18.3881 4.12715 18.8825 4.61979 19.3751C5.11207 19.8681 5.60638 20.1716 6.18873 20.398C6.75244 20.6171 7.39644 20.7665 8.33946 20.8097C9.28452 20.8527 9.58631 20.8632 11.9923 20.8632C14.3987 20.8632 14.6997 20.8527 15.6448 20.8097C16.588 20.7665 17.2326 20.6171 17.7963 20.398C18.3788 20.1716 18.8724 19.8681 19.3647 19.3751C19.8575 18.8825 20.1602 18.3881 20.3872 17.8054C20.605 17.2417 20.7545 16.5975 20.7988 15.6544C20.8413 14.7091 20.8524 14.4078 20.8524 12.001C20.8524 9.59411 20.8413 9.29205 20.7988 8.34674C20.7545 7.40328 20.605 6.75929 20.3872 6.19579C20.1602 5.61291 19.8575 5.11847 19.3647 4.62587C18.8718 4.13291 18.379 3.83012 17.7957 3.60394C17.2309 3.38479 16.5867 3.23542 15.6435 3.19222C14.6985 3.1492 14.3976 3.13867 11.9907 3.13867H11.9934ZM11.1986 4.73573C11.4345 4.73536 11.6977 4.73573 11.9934 4.73573C14.359 4.73573 14.6394 4.74422 15.5736 4.78669C16.4374 4.8262 16.9062 4.97058 17.2185 5.09188C17.632 5.25251 17.9268 5.44453 18.2367 5.75471C18.5468 6.06489 18.7387 6.3603 18.8997 6.77387C19.021 7.0859 19.1655 7.55486 19.2048 8.41893C19.2473 9.35317 19.2565 9.63381 19.2565 11.9989C19.2565 14.3641 19.2473 14.6447 19.2048 15.5789C19.1653 16.443 19.021 16.912 18.8997 17.224C18.7391 17.6376 18.5468 17.932 18.2367 18.242C17.9266 18.5522 17.6322 18.7442 17.2185 18.9049C16.9066 19.0267 16.4374 19.1707 15.5736 19.2102C14.6396 19.2527 14.359 19.2619 11.9934 19.2619C9.62765 19.2619 9.34728 19.2527 8.4133 19.2102C7.54946 19.1704 7.08062 19.026 6.76813 18.9047C6.35467 18.7441 6.05934 18.552 5.74924 18.2419C5.43915 17.9317 5.24718 17.637 5.08623 17.2232C4.96496 16.9112 4.82043 16.4423 4.78112 15.5782C4.73866 14.644 4.73017 14.3633 4.73017 11.9967C4.73017 9.63011 4.73866 9.35095 4.78112 8.41672C4.82062 7.55265 4.96496 7.08368 5.08623 6.77129C5.24682 6.35771 5.43915 6.0623 5.74924 5.75212C6.05934 5.44194 6.35467 5.24993 6.76813 5.08893C7.08044 4.96707 7.54946 4.82306 8.4133 4.78337C9.23062 4.74644 9.54736 4.73536 11.1986 4.73351V4.73573ZM16.7227 6.20724C16.1358 6.20724 15.6596 6.68303 15.6596 7.27034C15.6596 7.85747 16.1358 8.33382 16.7227 8.33382C17.3097 8.33382 17.7859 7.85747 17.7859 7.27034C17.7859 6.68322 17.3097 6.20687 16.7227 6.20687V6.20724ZM11.9934 7.44981C9.48073 7.44981 7.44351 9.48758 7.44351 12.001C7.44351 14.5143 9.48073 16.5512 11.9934 16.5512C14.5061 16.5512 16.5426 14.5143 16.5426 12.001C16.5426 9.48758 14.5061 7.44981 11.9934 7.44981ZM11.9934 9.04686C13.6244 9.04686 14.9467 10.3694 14.9467 12.001C14.9467 13.6324 13.6244 14.9551 11.9934 14.9551C10.3623 14.9551 9.04013 13.6324 9.04013 12.001C9.04013 10.3694 10.3623 9.04686 11.9934 9.04686Z" fill="#F2EDED"/>
<defs>
<filter id="filter0_b_2295_93697" x="-2" y="-2" width="28" height="28" filterUnits="userSpaceOnUse" color-interpolation-filters="sRGB">
<feFlood flood-opacity="0" result="BackgroundImageFix"/>
<feGaussianBlur in="BackgroundImageFix" stdDeviation="1"/>
<feComposite in2="SourceAlpha" operator="in" result="effect1_backgroundBlur_2295_93697"/>
<feBlend mode="normal" in="SourceGraphic" in2="effect1_backgroundBlur_2295_93697" result="shape"/>
</filter>
</defs>
</svg>
