<svg width="24" height="24" viewBox="0 0 24 24" fill="none" xmlns="http://www.w3.org/2000/svg">
<g filter="url(#filter0_b_2295_93691)">
<rect width="24" height="24" rx="12" fill="#594E4E"/>
</g>
<path d="M9.32573 7.11696C9.32573 7.47907 9.21835 7.83304 9.01717 8.13412C8.816 8.4352 8.53006 8.66986 8.19552 8.80843C7.86098 8.947 7.49286 8.98326 7.13772 8.91262C6.78257 8.84197 6.45635 8.6676 6.2003 8.41156C5.94426 8.15551 5.76989 7.82929 5.69924 7.47414C5.6286 7.11899 5.66486 6.75088 5.80343 6.41634C5.942 6.08179 6.17666 5.79586 6.47774 5.59468C6.77882 5.39351 7.13279 5.28613 7.49489 5.28613C7.98046 5.28613 8.44614 5.47902 8.78949 5.82237C9.13283 6.16572 9.32573 6.6314 9.32573 7.11696ZM8.91074 10.1683V18.257C8.91106 18.3166 8.89958 18.3758 8.87697 18.431C8.85436 18.4862 8.82105 18.5364 8.77897 18.5787C8.73689 18.621 8.68686 18.6546 8.63177 18.6775C8.57667 18.7004 8.51758 18.7122 8.45791 18.7122H6.52822C6.46854 18.7124 6.40943 18.7008 6.35427 18.678C6.29911 18.6552 6.24899 18.6218 6.2068 18.5796C6.1646 18.5374 6.13116 18.4873 6.1084 18.4321C6.08564 18.377 6.07401 18.3178 6.07417 18.2582V10.1683C6.07417 10.0479 6.12201 9.93244 6.20716 9.84729C6.29231 9.76214 6.40779 9.7143 6.52822 9.7143H8.45791C8.57812 9.71462 8.6933 9.7626 8.77818 9.84772C8.86307 9.93283 8.91074 10.0481 8.91074 10.1683ZM18.9974 14.3793V18.2948C18.9976 18.3497 18.9869 18.404 18.9659 18.4547C18.945 18.5054 18.9143 18.5515 18.8755 18.5903C18.8367 18.6291 18.7906 18.6599 18.7399 18.6808C18.6892 18.7017 18.6348 18.7124 18.58 18.7122H16.505C16.4502 18.7124 16.3958 18.7017 16.3451 18.6808C16.2944 18.6599 16.2483 18.6291 16.2095 18.5903C16.1707 18.5515 16.14 18.5054 16.119 18.4547C16.0981 18.404 16.0874 18.3497 16.0876 18.2948V14.5001C16.0876 13.9338 16.2536 12.0199 14.6071 12.0199C13.3316 12.0199 13.0716 13.3296 13.0203 13.9179V18.2948C13.0204 18.4045 12.9772 18.5097 12.9002 18.5878C12.8233 18.6659 12.7187 18.7106 12.609 18.7122H10.6049C10.5501 18.7122 10.4959 18.7014 10.4453 18.6804C10.3947 18.6594 10.3488 18.6287 10.3101 18.5899C10.2715 18.5511 10.2408 18.5051 10.22 18.4544C10.1991 18.4038 10.1885 18.3496 10.1887 18.2948V10.133C10.1885 10.0782 10.1991 10.0239 10.22 9.9733C10.2408 9.92266 10.2715 9.87664 10.3101 9.83786C10.3488 9.79908 10.3947 9.76831 10.4453 9.74732C10.4959 9.72633 10.5501 9.71552 10.6049 9.71552H12.609C12.7197 9.71552 12.8259 9.7595 12.9042 9.83778C12.9825 9.91607 13.0264 10.0222 13.0264 10.133V10.8384C13.5 10.1281 14.2018 9.58004 15.6995 9.58004C19.0169 9.58004 18.9974 12.6778 18.9974 14.3793Z" fill="#F2EDED"/>
<defs>
<filter id="filter0_b_2295_93691" x="-2" y="-2" width="28" height="28" filterUnits="userSpaceOnUse" color-interpolation-filters="sRGB">
<feFlood flood-opacity="0" result="BackgroundImageFix"/>
<feGaussianBlur in="BackgroundImageFix" stdDeviation="1"/>
<feComposite in2="SourceAlpha" operator="in" result="effect1_backgroundBlur_2295_93691"/>
<feBlend mode="normal" in="SourceGraphic" in2="effect1_backgroundBlur_2295_93691" result="shape"/>
</filter>
</defs>
</svg>
