<svg width="160" height="160" viewBox="0 0 160 160" fill="none" xmlns="http://www.w3.org/2000/svg">
<g filter="url(#filter0_b_2295_93659)">
<rect width="160" height="160" rx="12" fill="white" fill-opacity="0.05"/>
<rect x="0.25" y="0.25" width="159.5" height="159.5" rx="11.75" stroke="url(#paint0_linear_2295_93659)" stroke-width="0.5"/>
</g>
<path d="M16 128.552V113.103H46.8966V144H16V128.552ZM42.4828 128.552V117.517H20.4138V139.586H42.4828V128.552ZM24.8276 128.552V121.931H38.069V135.172H24.8276V128.552ZM55.7241 141.793V139.586H51.3103V130.759H55.7241V117.517H60.1379V113.103H51.3103V108.69H33.6552V104.276H38.069V99.8621H29.2414V108.69H24.8276V104.276H16V99.8621H24.8276V91.0345H20.4138V95.4483H16V86.6207H24.8276V91.0345H29.2414V95.4483H33.6552V91.0345H38.069V95.4483H46.8966V91.0345H42.4828V86.6207H29.2414V82.2069H42.4828V77.7931H29.2414V73.3793H24.8276V77.7931H16V64.5517H20.4138V68.9655H46.8966V64.5517H42.4828V60.1379H33.6552V64.5517H29.2414V60.1379H20.4138V51.3103H29.2414V60.1379H33.6552V55.7241H42.4828V51.3103H46.8966V55.7241H42.4828V60.1379H46.8966V64.5517H51.3103V55.7241H55.7241V51.3103H51.3103V38.069H60.1379V42.4828H64.5517V46.8966H60.1379V51.3103H64.5517V77.7931H55.7241V73.3793H51.3103V77.7931H46.8966V82.2069H42.4828V86.6207H46.8966V91.0345H51.3103V95.4483H60.1379V91.0345H55.7241V86.6207H51.3103V82.2069H60.1379V91.0345H64.5517V82.2069H68.9655V91.0345H73.3793V77.7931H77.7931V73.3793H82.2069V77.7931H77.7931V82.2069H82.2069V86.6207H95.4483V82.2069H91.0345V77.7931H86.6207V68.9655H82.2069V64.5517H86.6207V60.1379H91.0345V55.7241H86.6207V51.3103H82.2069V60.1379H77.7931V55.7241H73.3793V60.1379H68.9655V55.7241H73.3793V51.3103H68.9655V38.069H64.5517V33.6552H68.9655V38.069H73.3793V20.4138H77.7931V29.2414H86.6207V24.8276H82.2069V16H91.0345V20.4138H86.6207V24.8276H95.4483V20.4138H99.8621V16H108.69V29.2414H99.8621V24.8276H95.4483V33.6552H99.8621V46.8966H104.276V42.4828H108.69V64.5517H117.517V60.1379H113.103V51.3103H121.931V64.5517H130.759V60.1379H126.345V51.3103H130.759V60.1379H135.172V55.7241H144V64.5517H139.586V60.1379H135.172V64.5517H130.759V77.7931H135.172V82.2069H130.759V86.6207H121.931V91.0345H117.517V95.4483H108.69V91.0345H104.276V86.6207H99.8621V95.4483H104.276V99.8621H117.517V104.276H126.345V99.8621H121.931V95.4483H126.345V91.0345H130.759V95.4483H135.172V99.8621H139.586V91.0345H135.172V86.6207H144V99.8621H139.586V108.69H144V117.517H139.586V130.759H144V135.172H130.759V144H117.517V139.586H126.345V135.172H117.517V126.345H113.103V135.172H108.69V139.586H113.103V144H104.276V130.759H99.8621V139.586H95.4483V135.172H91.0345V117.517H95.4483V130.759H99.8621V117.517H104.276V108.69H99.8621V104.276H95.4483V99.8621H99.8621V95.4483H95.4483V91.0345H91.0345V108.69H95.4483V113.103H86.6207V121.931H82.2069V130.759H86.6207V135.172H82.2069V139.586H91.0345V144H82.2069V139.586H77.7931V135.172H73.3793V144H55.7241V141.793ZM68.9655 135.172V130.759H73.3793V117.517H64.5517V121.931H68.9655V126.345H60.1379V130.759H55.7241V135.172H60.1379V139.586H68.9655V135.172ZM130.759 130.759V126.345H135.172V117.517H139.586V113.103H135.172V99.8621H130.759V113.103H135.172V117.517H130.759V121.931H126.345V135.172H130.759V130.759ZM108.69 128.552V126.345H104.276V130.759H108.69V128.552ZM82.2069 119.724V117.517H77.7931V121.931H82.2069V119.724ZM121.931 115.31V108.69H108.69V121.931H121.931V115.31ZM113.103 115.31V113.103H117.517V117.517H113.103V115.31ZM77.7931 110.897V108.69H86.6207V104.276H77.7931V99.8621H73.3793V104.276H77.7931V108.69H68.9655V104.276H64.5517V108.69H60.1379V104.276H55.7241V99.8621H51.3103V95.4483H46.8966V99.8621H42.4828V104.276H46.8966V99.8621H51.3103V104.276H55.7241V108.69H60.1379V113.103H77.7931V110.897ZM64.5517 97.6552V95.4483H60.1379V99.8621H64.5517V97.6552ZM86.6207 95.4483V91.0345H77.7931V95.4483H82.2069V99.8621H86.6207V95.4483ZM113.103 88.8276V86.6207H108.69V91.0345H113.103V88.8276ZM121.931 84.4138V82.2069H126.345V68.9655H121.931V73.3793H117.517V77.7931H113.103V73.3793H104.276V68.9655H99.8621V64.5517H104.276V51.3103H99.8621V46.8966H95.4483V42.4828H91.0345V46.8966H86.6207V33.6552H91.0345V38.069H95.4483V33.6552H91.0345V29.2414H86.6207V33.6552H82.2069V46.8966H86.6207V51.3103H91.0345V46.8966H95.4483V60.1379H91.0345V64.5517H86.6207V68.9655H91.0345V77.7931H95.4483V73.3793H104.276V77.7931H108.69V82.2069H117.517V86.6207H121.931V84.4138ZM117.517 80V77.7931H121.931V82.2069H117.517V80ZM46.8966 75.5862V73.3793H51.3103V68.9655H46.8966V73.3793H42.4828V77.7931H46.8966V75.5862ZM60.1379 66.7586V64.5517H55.7241V68.9655H60.1379V66.7586ZM60.1379 44.6897V42.4828H55.7241V46.8966H60.1379V44.6897ZM77.7931 42.4828V38.069H73.3793V46.8966H77.7931V42.4828ZM104.276 22.6207V20.4138H99.8621V24.8276H104.276V22.6207ZM139.586 141.793V139.586H144V144H139.586V141.793ZM139.586 77.7931V73.3793H135.172V68.9655H139.586V73.3793H144V82.2069H139.586V77.7931ZM16 31.4483V16H46.8966V46.8966H16V31.4483ZM42.4828 31.4483V20.4138H20.4138V42.4828H42.4828V31.4483ZM24.8276 31.4483V24.8276H38.069V38.069H24.8276V31.4483ZM113.103 31.4483V16H144V46.8966H113.103V31.4483ZM139.586 31.4483V20.4138H117.517V42.4828H139.586V31.4483ZM121.931 31.4483V24.8276H135.172V38.069H121.931V31.4483ZM51.3103 31.4483V29.2414H55.7241V33.6552H51.3103V31.4483ZM60.1379 27.0345V24.8276H55.7241V16H60.1379V20.4138H64.5517V16H68.9655V20.4138H64.5517V29.2414H60.1379V27.0345Z" fill="white"/>
<defs>
<filter id="filter0_b_2295_93659" x="-20" y="-20" width="200" height="200" filterUnits="userSpaceOnUse" color-interpolation-filters="sRGB">
<feFlood flood-opacity="0" result="BackgroundImageFix"/>
<feGaussianBlur in="BackgroundImageFix" stdDeviation="10"/>
<feComposite in2="SourceAlpha" operator="in" result="effect1_backgroundBlur_2295_93659"/>
<feBlend mode="normal" in="SourceGraphic" in2="effect1_backgroundBlur_2295_93659" result="shape"/>
</filter>
<linearGradient id="paint0_linear_2295_93659" x1="-43" y1="-46.5" x2="150.5" y2="151.5" gradientUnits="userSpaceOnUse">
<stop stop-color="white" stop-opacity="0.2"/>
<stop offset="1" stop-color="white" stop-opacity="0"/>
</linearGradient>
</defs>
</svg>
