<svg width="36" height="16" viewBox="0 0 36 16" fill="none" xmlns="http://www.w3.org/2000/svg">
<path d="M10.5 13.7201C10.5 14.3246 10.7401 14.9043 11.1676 15.3318C11.595 15.7592 12.1747 15.9993 12.7792 15.9993H24.2208C24.8253 15.9993 25.405 15.7592 25.8324 15.3318C26.2599 14.9043 26.5 14.3246 26.5 13.7201V6.78937H10.5456L10.5 13.7201ZM22.8476 8.79506C22.9921 8.79507 23.1333 8.83799 23.2534 8.91839C23.3734 8.99878 23.4669 9.11303 23.5219 9.24663C23.577 9.38024 23.5911 9.52717 23.5625 9.66881C23.5338 9.81044 23.4638 9.94038 23.3613 10.0422C23.2587 10.1439 23.1282 10.2129 22.9864 10.2404C22.8445 10.2679 22.6977 10.2527 22.5645 10.1966C22.4313 10.1405 22.3178 10.0461 22.2384 9.92545C22.1589 9.80477 22.1171 9.6632 22.1182 9.51871C22.1197 9.32627 22.1972 9.14222 22.3339 9.00667C22.4705 8.87112 22.6551 8.79506 22.8476 8.79506ZM18.4886 8.79506C18.6338 8.79167 18.7767 8.83168 18.899 8.90998C19.0212 8.98828 19.1174 9.1013 19.1751 9.23458C19.2327 9.36785 19.2493 9.5153 19.2226 9.65804C19.196 9.80079 19.1273 9.93233 19.0255 10.0358C18.9236 10.1393 18.7932 10.21 18.6509 10.239C18.5086 10.2679 18.3609 10.2536 18.2267 10.1981C18.0925 10.1425 17.978 10.0482 17.8978 9.92718C17.8175 9.80615 17.7753 9.66392 17.7764 9.51871C17.7778 9.32919 17.8529 9.14767 17.9859 9.01259C18.1188 8.87752 18.2991 8.7995 18.4886 8.79506ZM18.4886 12.3392C18.6329 12.3392 18.7739 12.382 18.8938 12.4621C19.0137 12.5423 19.1072 12.6562 19.1624 12.7895C19.2176 12.9227 19.2321 13.0694 19.204 13.2109C19.1758 13.3523 19.1063 13.4823 19.0043 13.5843C18.9023 13.6863 18.7724 13.7558 18.6309 13.7839C18.4894 13.812 18.3428 13.7976 18.2095 13.7424C18.0762 13.6872 17.9623 13.5937 17.8822 13.4738C17.802 13.3538 17.7592 13.2128 17.7592 13.0686C17.7592 12.8751 17.8361 12.6896 17.9729 12.5528C18.1097 12.4161 18.2952 12.3392 18.4886 12.3392ZM14.1296 8.78367C14.2755 8.78141 14.4187 8.82259 14.5411 8.90197C14.6634 8.98135 14.7594 9.09534 14.8168 9.22944C14.8742 9.36353 14.8904 9.51167 14.8633 9.655C14.8362 9.79832 14.7672 9.93036 14.6648 10.0343C14.5625 10.1382 14.4316 10.2094 14.2887 10.2387C14.1458 10.268 13.9974 10.2541 13.8624 10.1988C13.7275 10.1435 13.612 10.0494 13.5307 9.92824C13.4494 9.80713 13.406 9.66457 13.406 9.51871C13.406 9.32572 13.4819 9.14047 13.6172 9.00295C13.7526 8.86542 13.9367 8.78666 14.1296 8.78367ZM14.1296 12.3392C14.2739 12.3381 14.4152 12.3798 14.5358 12.459C14.6564 12.5382 14.7507 12.6514 14.807 12.7842C14.8632 12.917 14.8788 13.0636 14.8517 13.2052C14.8247 13.3469 14.7562 13.4774 14.655 13.5802C14.5538 13.683 14.4245 13.7535 14.2832 13.7827C14.142 13.812 13.9952 13.7987 13.8615 13.7445C13.7278 13.6904 13.6131 13.5978 13.5321 13.4785C13.451 13.3592 13.4071 13.2185 13.406 13.0743C13.4053 12.9785 13.4234 12.8835 13.4593 12.7947C13.4953 12.7059 13.5484 12.6251 13.6156 12.5569C13.6828 12.4886 13.7627 12.4343 13.851 12.3969C13.9392 12.3596 14.0338 12.34 14.1296 12.3392Z" fill="#FABD00"/>
<path d="M24.2076 2.12363H22.333V0.664942C22.3169 0.483369 22.2334 0.314405 22.0989 0.191332C21.9644 0.0682592 21.7887 0 21.6065 0C21.4242 0 21.2485 0.0682592 21.114 0.191332C20.9796 0.314405 20.8961 0.483369 20.88 0.664942V2.12363H16.1278V0.664942C16.1117 0.483369 16.0282 0.314405 15.8938 0.191332C15.7593 0.0682592 15.5836 0 15.4014 0C15.2191 0 15.0434 0.0682592 14.9089 0.191332C14.7744 0.314405 14.6909 0.483369 14.6748 0.664942V2.12363H12.7831C12.1786 2.12363 11.5989 2.36376 11.1715 2.79119C10.744 3.21863 10.5039 3.79835 10.5039 4.40283V6.192H26.4583V4.39144C26.4554 3.79383 26.2178 3.22129 25.7969 2.79712C25.3759 2.37295 24.8052 2.13109 24.2076 2.12363Z" fill="#FABD00"/>
<path d="M5 8.63989H9V9.63989H5V8.63989Z" fill="#FABD00"/>
<path d="M0 8.63989H4V9.63989H0V8.63989Z" fill="#FABD00"/>
<path d="M33.2453 7.49172L33.7971 6.93994L36.0042 9.14706L35.4525 9.69884L33.2453 7.49172Z" fill="#FABD00"/>
<path d="M35.4525 8.59528L36.0042 9.14706L33.7971 11.3542L33.2453 10.8024L35.4525 8.59528Z" fill="#FABD00"/>
<path d="M28.5 8.63989H33V9.63989H28.5V8.63989Z" fill="#FABD00"/>
</svg>
