<svg width="24" height="24" viewBox="0 0 24 24" fill="none" xmlns="http://www.w3.org/2000/svg">
<g clip-path="url(#clip0_2295_93674)">
<g filter="url(#filter0_b_2295_93674)">
<path d="M0.510625 11.8563C0.510062 13.8728 1.04106 15.8417 2.05075 17.5771L0.414062 23.5066L6.52956 21.9156C8.22103 22.8292 10.1162 23.308 12.0421 23.3081H12.0471C18.4048 23.3081 23.5801 18.1748 23.5828 11.8653C23.584 8.80792 22.3851 5.93295 20.2069 3.76997C18.0291 1.60718 15.1327 0.415458 12.0467 0.414062C5.68825 0.414062 0.513344 5.54709 0.510719 11.8563" fill="#594E4E"/>
</g>
<path d="M9.06187 6.89771C8.83819 6.4044 8.60278 6.39445 8.39006 6.3858C8.21587 6.37836 8.01675 6.37892 7.81781 6.37892C7.61869 6.37892 7.29516 6.45324 7.02169 6.74952C6.74794 7.04608 5.97656 7.76273 5.97656 9.22031C5.97656 10.678 7.04653 12.0866 7.19569 12.2845C7.34503 12.482 9.26128 15.5689 12.2962 16.7564C14.8184 17.7433 15.3317 17.547 15.8791 17.4975C16.4266 17.4482 17.6457 16.7811 17.8944 16.0892C18.1433 15.3975 18.1433 14.8046 18.0687 14.6807C17.9941 14.5572 17.795 14.4831 17.4964 14.335C17.1977 14.1868 15.7297 13.4701 15.4561 13.3712C15.1823 13.2724 14.9833 13.2231 14.7842 13.5198C14.5851 13.8159 14.0133 14.4831 13.839 14.6807C13.6649 14.8787 13.4906 14.9034 13.1921 14.7552C12.8933 14.6065 11.9317 14.2941 10.7909 13.2849C9.90328 12.4996 9.30403 11.5298 9.12984 11.2331C8.95566 10.937 9.11119 10.7764 9.26091 10.6288C9.39506 10.496 9.55959 10.2828 9.70903 10.1099C9.85791 9.93687 9.90759 9.81343 10.0072 9.61585C10.1068 9.41808 10.0569 9.24506 9.98241 9.09687C9.90759 8.94868 9.32737 7.48347 9.06187 6.89771Z" fill="#F2EDED"/>
</g>
<defs>
<filter id="filter0_b_2295_93674" x="-1.58594" y="-1.58594" width="27.168" height="27.0928" filterUnits="userSpaceOnUse" color-interpolation-filters="sRGB">
<feFlood flood-opacity="0" result="BackgroundImageFix"/>
<feGaussianBlur in="BackgroundImageFix" stdDeviation="1"/>
<feComposite in2="SourceAlpha" operator="in" result="effect1_backgroundBlur_2295_93674"/>
<feBlend mode="normal" in="SourceGraphic" in2="effect1_backgroundBlur_2295_93674" result="shape"/>
</filter>
<clipPath id="clip0_2295_93674">
<rect width="24" height="24" fill="white"/>
</clipPath>
</defs>
</svg>
