<svg width="24" height="24" viewBox="0 0 24 24" fill="none" xmlns="http://www.w3.org/2000/svg">
<path d="M23.9743 0.729873C23.8517 0.216387 23.2875 -0.133005 22.7759 0.0486046C22.7759 0.0486046 0.613005 7.87074 0.609317 7.87351C0.269144 7.99981 0.019315 8.32431 0.000877406 8.69582C-0.0157164 9.05259 0.204612 9.42411 0.530035 9.5753L9.11457 13.5827L13.3045 9.39276C14.1342 8.56307 15.4589 9.84633 14.608 10.6963L10.4181 14.8862L14.4274 23.4754C14.5905 23.7888 14.9095 23.9879 15.2598 24.0036C15.6405 24.0211 15.9927 23.7298 16.1291 23.3887L23.9513 1.22492C24.0071 1.0657 24.0152 0.893598 23.9743 0.729873Z" fill="#F2EDED"/>
</svg>
