<svg width="40" height="40" viewBox="0 0 40 40" fill="none" xmlns="http://www.w3.org/2000/svg">
<path d="M40 39C40 39.5523 39.5523 40 39 40L3.8147e-06 40L3.17786e-07 -3.17787e-07L39 -3.72727e-06C39.5523 -3.77556e-06 40 0.447712 40 0.999996L40 39Z" fill="#FEE1E1"/>
<path d="M11.5736 13.3018C11.4543 13.1825 11.4543 12.989 11.5736 12.8697L12.87 11.5734C12.9893 11.454 13.1828 11.454 13.3021 11.5734L21.5125 19.7837C21.6318 19.903 21.6318 20.0965 21.5125 20.2158L20.2161 21.5122C20.0968 21.6315 19.9033 21.6315 19.784 21.5122L11.5736 13.3018Z" fill="#F52A2A"/>
<path d="M20.2161 21.5122C20.0968 21.6315 19.9033 21.6315 19.784 21.5122L18.4876 20.2158C18.3682 20.0964 18.3682 19.903 18.4876 19.7837L26.6979 11.5734C26.8172 11.454 27.0107 11.454 27.13 11.5734L28.4264 12.8697C28.5457 12.989 28.5457 13.1825 28.4264 13.3018L20.2161 21.5122Z" fill="#F52A2A"/>
<path d="M11.5736 13.3018C11.4543 13.1825 11.4543 12.989 11.5736 12.8697L12.87 11.5734C12.9893 11.454 13.1828 11.454 13.3021 11.5734L21.5125 19.7837C21.6318 19.903 21.6318 20.0965 21.5125 20.2158L20.2161 21.5122C20.0968 21.6315 19.9033 21.6315 19.784 21.5122L11.5736 13.3018Z" fill="#F52A2A"/>
<path d="M20.2161 21.5122C20.0968 21.6315 19.9033 21.6315 19.784 21.5122L18.4876 20.2158C18.3682 20.0964 18.3682 19.903 18.4876 19.7837L26.6979 11.5734C26.8172 11.454 27.0107 11.454 27.13 11.5734L28.4264 12.8697C28.5457 12.989 28.5457 13.1825 28.4264 13.3018L20.2161 21.5122Z" fill="#F52A2A"/>
<path d="M13.3022 28.4261C13.1828 28.5454 12.9894 28.5454 12.87 28.4261L11.5737 27.1297C11.4543 27.0104 11.4543 26.8169 11.5737 26.6976L19.784 18.4873C19.9033 18.368 20.0968 18.368 20.2161 18.4873L21.5125 19.7837C21.6318 19.903 21.6318 20.0965 21.5125 20.2158L13.3022 28.4261Z" fill="#F52A2A"/>
<path d="M21.5125 19.7837C21.6318 19.903 21.6318 20.0965 21.5125 20.2158L20.2161 21.5122C20.0968 21.6315 19.9033 21.6315 19.784 21.5122L11.5736 13.3018C11.4543 13.1825 11.4543 12.989 11.5736 12.8697L12.87 11.5734C12.9893 11.454 13.1828 11.454 13.3021 11.5734L21.5125 19.7837Z" fill="#F52A2A"/>
<path d="M13.3022 28.4261C13.1828 28.5454 12.9894 28.5454 12.87 28.4261L11.5737 27.1297C11.4543 27.0104 11.4543 26.8169 11.5737 26.6976L19.784 18.4873C19.9033 18.368 20.0968 18.368 20.2161 18.4873L21.5125 19.7837C21.6318 19.903 21.6318 20.0965 21.5125 20.2158L13.3022 28.4261Z" fill="#F52A2A"/>
<path d="M21.5125 19.7837C21.6318 19.903 21.6318 20.0965 21.5125 20.2158L20.2161 21.5122C20.0968 21.6315 19.9033 21.6315 19.784 21.5122L11.5736 13.3018C11.4543 13.1825 11.4543 12.989 11.5736 12.8697L12.87 11.5734C12.9893 11.454 13.1828 11.454 13.3021 11.5734L21.5125 19.7837Z" fill="#F52A2A"/>
<path d="M11.5737 26.6976C11.4543 26.8169 11.4543 27.0104 11.5737 27.1297L12.87 28.4261C12.9894 28.5454 13.1828 28.5454 13.3022 28.4261L21.5125 20.2158C21.6318 20.0965 21.6318 19.903 21.5125 19.7837L20.2161 18.4873C20.0968 18.368 19.9033 18.368 19.784 18.4873L11.5737 26.6976Z" fill="#F52A2A"/>
<path d="M20.2161 18.4873C20.0968 18.368 19.9033 18.368 19.784 18.4873L18.4876 19.7837C18.3682 19.903 18.3682 20.0964 18.4876 20.2158L26.6978 28.4261C26.8172 28.5454 27.0106 28.5454 27.13 28.4261L28.4263 27.1297C28.5457 27.0104 28.5457 26.8169 28.4263 26.6976L20.2161 18.4873Z" fill="#F52A2A"/>
<path d="M11.5737 26.6976C11.4543 26.8169 11.4543 27.0104 11.5737 27.1297L12.87 28.4261C12.9894 28.5454 13.1828 28.5454 13.3022 28.4261L21.5125 20.2158C21.6318 20.0965 21.6318 19.903 21.5125 19.7837L20.2161 18.4873C20.0968 18.368 19.9033 18.368 19.784 18.4873L11.5737 26.6976Z" fill="#F52A2A"/>
<path d="M20.2161 18.4873C20.0968 18.368 19.9033 18.368 19.784 18.4873L18.4876 19.7837C18.3682 19.903 18.3682 20.0964 18.4876 20.2158L26.6978 28.4261C26.8172 28.5454 27.0106 28.5454 27.13 28.4261L28.4263 27.1297C28.5457 27.0104 28.5457 26.8169 28.4263 26.6976L20.2161 18.4873Z" fill="#F52A2A"/>
</svg>
