<svg width="24" height="24" viewBox="0 0 24 24" fill="none" xmlns="http://www.w3.org/2000/svg">
<g clip-path="url(#clip0_1515_74789)">
<path d="M5.87174 8.12906C5.78495 8.04227 5.78496 7.90157 5.87174 7.81479L6.81455 6.87198C6.90133 6.78519 7.04203 6.78519 7.12882 6.87198L13.1 12.8431C13.1867 12.9299 13.1867 13.0706 13.1 13.1574L12.1572 14.1002C12.0704 14.187 11.9297 14.187 11.8429 14.1002L5.87174 8.12906Z" fill="#F52A2A"/>
<path d="M12.1572 14.1002C12.0704 14.187 11.9297 14.187 11.8429 14.1002L10.9001 13.1574C10.8133 13.0706 10.8133 12.9299 10.9001 12.8431L16.8712 6.87197C16.958 6.78519 17.0987 6.78519 17.1854 6.87197L18.1283 7.81479C18.215 7.90157 18.215 8.04227 18.1283 8.12906L12.1572 14.1002Z" fill="#F52A2A"/>
<path d="M5.87174 8.12906C5.78495 8.04227 5.78496 7.90157 5.87174 7.81479L6.81455 6.87198C6.90133 6.78519 7.04203 6.78519 7.12882 6.87198L13.1 12.8431C13.1867 12.9299 13.1867 13.0706 13.1 13.1574L12.1572 14.1002C12.0704 14.187 11.9297 14.187 11.8429 14.1002L5.87174 8.12906Z" fill="#F52A2A"/>
<path d="M12.1572 14.1002C12.0704 14.187 11.9297 14.187 11.8429 14.1002L10.9001 13.1574C10.8133 13.0706 10.8133 12.9299 10.9001 12.8431L16.8712 6.87197C16.958 6.78519 17.0987 6.78519 17.1854 6.87197L18.1283 7.81479C18.215 7.90157 18.215 8.04227 18.1283 8.12906L12.1572 14.1002Z" fill="#F52A2A"/>
<path d="M7.12885 19.1285C7.04206 19.2153 6.90136 19.2153 6.81458 19.1285L5.87176 18.1857C5.78498 18.0989 5.78498 17.9582 5.87176 17.8714L11.8429 11.9003C11.9297 11.8135 12.0704 11.8135 12.1572 11.9003L13.1 12.8431C13.1867 12.9299 13.1867 13.0706 13.1 13.1574L7.12885 19.1285Z" fill="#F52A2A"/>
<path d="M13.1 12.8431C13.1867 12.9299 13.1867 13.0706 13.1 13.1574L12.1572 14.1002C12.0704 14.187 11.9297 14.187 11.8429 14.1002L5.87174 8.12906C5.78495 8.04227 5.78496 7.90157 5.87174 7.81479L6.81455 6.87198C6.90133 6.78519 7.04203 6.78519 7.12882 6.87198L13.1 12.8431Z" fill="#F52A2A"/>
<path d="M7.12885 19.1285C7.04206 19.2153 6.90136 19.2153 6.81458 19.1285L5.87176 18.1857C5.78498 18.0989 5.78498 17.9582 5.87176 17.8714L11.8429 11.9003C11.9297 11.8135 12.0704 11.8135 12.1572 11.9003L13.1 12.8431C13.1867 12.9299 13.1867 13.0706 13.1 13.1574L7.12885 19.1285Z" fill="#F52A2A"/>
<path d="M13.1 12.8431C13.1867 12.9299 13.1867 13.0706 13.1 13.1574L12.1572 14.1002C12.0704 14.187 11.9297 14.187 11.8429 14.1002L5.87174 8.12906C5.78495 8.04227 5.78496 7.90157 5.87174 7.81479L6.81455 6.87198C6.90133 6.78519 7.04203 6.78519 7.12882 6.87198L13.1 12.8431Z" fill="#F52A2A"/>
<path d="M5.87176 17.8714C5.78498 17.9582 5.78498 18.0989 5.87176 18.1857L6.81458 19.1285C6.90136 19.2153 7.04206 19.2153 7.12885 19.1285L13.1 13.1574C13.1867 13.0706 13.1867 12.9299 13.1 12.8431L12.1572 11.9003C12.0704 11.8135 11.9297 11.8135 11.8429 11.9003L5.87176 17.8714Z" fill="#F52A2A"/>
<path d="M12.1572 11.9003C12.0704 11.8135 11.9297 11.8135 11.8429 11.9003L10.9001 12.8431C10.8133 12.9299 10.8133 13.0706 10.9001 13.1574L16.8712 19.1285C16.9579 19.2153 17.0986 19.2153 17.1854 19.1285L18.1282 18.1857C18.215 18.0989 18.215 17.9582 18.1282 17.8714L12.1572 11.9003Z" fill="#F52A2A"/>
<path d="M5.87176 17.8714C5.78498 17.9582 5.78498 18.0989 5.87176 18.1857L6.81458 19.1285C6.90136 19.2153 7.04206 19.2153 7.12885 19.1285L13.1 13.1574C13.1867 13.0706 13.1867 12.9299 13.1 12.8431L12.1572 11.9003C12.0704 11.8135 11.9297 11.8135 11.8429 11.9003L5.87176 17.8714Z" fill="#F52A2A"/>
<path d="M12.1572 11.9003C12.0704 11.8135 11.9297 11.8135 11.8429 11.9003L10.9001 12.8431C10.8133 12.9299 10.8133 13.0706 10.9001 13.1574L16.8712 19.1285C16.9579 19.2153 17.0986 19.2153 17.1854 19.1285L18.1282 18.1857C18.215 18.0989 18.215 17.9582 18.1282 17.8714L12.1572 11.9003Z" fill="#F52A2A"/>
</g>
<defs>
<clipPath id="clip0_1515_74789">
<rect width="24" height="24" fill="white"/>
</clipPath>
</defs>
</svg>
