<svg width="32" height="32" viewBox="0 0 32 32" fill="none" xmlns="http://www.w3.org/2000/svg">
<rect width="32" height="32" rx="1" fill="white"/>
<path d="M17.6951 25.0911C16.8911 25.0911 16.1051 24.9951 15.3371 24.8031C14.5811 24.6111 13.8971 24.3051 13.2851 23.8851C12.6731 23.4771 12.1871 22.9491 11.8271 22.3011C11.4671 21.6531 11.2871 20.8731 11.2871 19.9611C11.2871 18.9771 11.4851 18.0771 11.8811 17.2611C12.2771 16.4331 12.8351 15.7011 13.5551 15.0651C14.2751 14.4291 15.1271 13.9011 16.1111 13.4811C17.1071 13.0491 18.1931 12.7431 19.3691 12.5631L19.9631 14.9391C18.9071 15.1311 17.9891 15.3831 17.2091 15.6951C16.4411 16.0071 15.8051 16.3731 15.3011 16.7931C14.7971 17.2131 14.4191 17.6631 14.1671 18.1431C13.9271 18.6351 13.8071 19.1511 13.8071 19.6911C13.8071 20.1231 13.8851 20.5011 14.0411 20.8251C14.2091 21.1491 14.4311 21.4191 14.7071 21.6351C14.9831 21.8631 15.2891 22.0431 15.6251 22.1751C15.9611 22.3191 16.3091 22.4211 16.6691 22.4811C17.0291 22.5411 17.3711 22.5711 17.6951 22.5711C18.5231 22.5711 19.2911 22.4931 19.9991 22.3371C20.7191 22.1811 21.3491 21.9891 21.8891 21.7611L22.6091 24.0831C22.3211 24.2271 21.9131 24.3771 21.3851 24.5331C20.8691 24.6891 20.2871 24.8211 19.6391 24.9291C19.0031 25.0371 18.3551 25.0911 17.6951 25.0911ZM14.1131 15.1191C13.6931 14.9511 13.3031 14.7111 12.9431 14.3991C12.5951 14.0871 12.3131 13.7031 12.0971 13.2471C11.8931 12.7791 11.7911 12.2451 11.7911 11.6451C11.7911 10.8891 11.9891 10.2351 12.3851 9.68308C12.7811 9.13108 13.3091 8.70508 13.9691 8.40508C14.6291 8.10508 15.3491 7.95508 16.1291 7.95508C16.5131 7.95508 16.8671 7.97908 17.1911 8.02708C17.5271 8.07508 17.8691 8.14708 18.2171 8.24308L17.8211 10.6371C17.5691 10.5771 17.3111 10.5291 17.0471 10.4931C16.7831 10.4571 16.5491 10.4391 16.3451 10.4391C15.9251 10.4391 15.5591 10.4991 15.2471 10.6191C14.9471 10.7391 14.7131 10.9131 14.5451 11.1411C14.3891 11.3571 14.3111 11.6151 14.3111 11.9151C14.3111 12.1551 14.3831 12.3831 14.5271 12.5991C14.6831 12.8151 14.8811 13.0071 15.1211 13.1751C15.3611 13.3311 15.6251 13.4631 15.9131 13.5711C16.2011 13.6671 16.4831 13.7211 16.7591 13.7331L14.1131 15.1191Z" fill="#140000"/>
</svg>
