<svg width="32" height="32" viewBox="0 0 32 32" fill="none" xmlns="http://www.w3.org/2000/svg">
<rect width="32" height="32" rx="1" fill="#BFB6B6"/>
<path d="M17.6951 25.0921C16.8911 25.0921 16.1051 24.9961 15.3371 24.8041C14.5811 24.6121 13.8971 24.3061 13.2851 23.8861C12.6731 23.4781 12.1871 22.9501 11.8271 22.3021C11.4671 21.6541 11.2871 20.8741 11.2871 19.9621C11.2871 18.9781 11.4851 18.0781 11.8811 17.2621C12.2771 16.4341 12.8351 15.7021 13.5551 15.0661C14.2751 14.4301 15.1271 13.9021 16.1111 13.4821C17.1071 13.0501 18.1931 12.7441 19.3691 12.5641L19.9631 14.9401C18.9071 15.1321 17.9891 15.3841 17.2091 15.6961C16.4411 16.0081 15.8051 16.3741 15.3011 16.7941C14.7971 17.2141 14.4191 17.6641 14.1671 18.1441C13.9271 18.6361 13.8071 19.1521 13.8071 19.6921C13.8071 20.1241 13.8851 20.5021 14.0411 20.8261C14.2091 21.1501 14.4311 21.4201 14.7071 21.6361C14.9831 21.8641 15.2891 22.0441 15.6251 22.1761C15.9611 22.3201 16.3091 22.4221 16.6691 22.4821C17.0291 22.5421 17.3711 22.5721 17.6951 22.5721C18.5231 22.5721 19.2911 22.4941 19.9991 22.3381C20.7191 22.1821 21.3491 21.9901 21.8891 21.7621L22.6091 24.0841C22.3211 24.2281 21.9131 24.3781 21.3851 24.5341C20.8691 24.6901 20.2871 24.8221 19.6391 24.9301C19.0031 25.0381 18.3551 25.0921 17.6951 25.0921ZM14.1131 15.1201C13.6931 14.9521 13.3031 14.7121 12.9431 14.4001C12.5951 14.0881 12.3131 13.7041 12.0971 13.2481C11.8931 12.7801 11.7911 12.2461 11.7911 11.6461C11.7911 10.8901 11.9891 10.2361 12.3851 9.68405C12.7811 9.13205 13.3091 8.70605 13.9691 8.40605C14.6291 8.10605 15.3491 7.95605 16.1291 7.95605C16.5131 7.95605 16.8671 7.98005 17.1911 8.02805C17.5271 8.07605 17.8691 8.14805 18.2171 8.24405L17.8211 10.6381C17.5691 10.5781 17.3111 10.5301 17.0471 10.4941C16.7831 10.4581 16.5491 10.4401 16.3451 10.4401C15.9251 10.4401 15.5591 10.5001 15.2471 10.6201C14.9471 10.7401 14.7131 10.9141 14.5451 11.1421C14.3891 11.3581 14.3111 11.6161 14.3111 11.9161C14.3111 12.1561 14.3831 12.3841 14.5271 12.6001C14.6831 12.8161 14.8811 13.0081 15.1211 13.1761C15.3611 13.3321 15.6251 13.4641 15.9131 13.5721C16.2011 13.6681 16.4831 13.7221 16.7591 13.7341L14.1131 15.1201Z" fill="#140000"/>
</svg>
