<svg width="224" height="150" viewBox="0 0 224 150" fill="none" xmlns="http://www.w3.org/2000/svg">
<path d="M213.088 21.5552L212.577 20.7002C208.273 13.5782 200.493 9.30018 192.292 9.80718C191.235 9.87321 190.185 10.0176 189.15 10.2392C181.683 11.8412 175.205 17.5082 172.514 24.7622C170.931 29.0282 170.489 33.9422 167.487 37.3292C163.581 41.7452 156.947 41.8832 151.126 41.7002C145.305 41.5172 138.657 41.6732 134.768 46.0982C132.334 48.8702 131.561 52.8122 131.758 56.5232C132.278 66.3482 139.093 75.1232 147.76 79.5032C156.428 83.8832 166.639 84.2612 176.134 82.3412C189.424 79.6412 202.064 72.2582 209.662 60.8432C217.26 49.4282 219.166 33.8762 213.088 21.5552Z" fill="#F5F5F5"/>
<path d="M27.3789 45.45C35.9167 45.45 42.8379 38.4979 42.8379 29.922C42.8379 21.3462 35.9167 14.394 27.3789 14.394C18.8411 14.394 11.9199 21.3462 11.9199 29.922C11.9199 38.4979 18.8411 45.45 27.3789 45.45Z" fill="#F5F5F5"/>
<path d="M211.173 133.071C211.173 133.113 166.277 133.149 110.907 133.149C55.5373 133.149 10.6328 133.113 10.6328 133.071C10.6328 133.029 55.5194 132.993 110.907 132.993C166.295 132.993 211.173 133.026 211.173 133.071Z" fill="#807070"/>
<path d="M35.2971 28.2002H187.247C187.781 28.2002 188.293 28.4132 188.67 28.7924C189.048 29.1716 189.26 29.6859 189.26 30.2222V127.632C189.259 128.79 188.801 129.901 187.985 130.72C187.17 131.539 186.064 131.999 184.911 132H37.334C36.1799 132 35.073 131.54 34.257 130.72C33.4409 129.9 32.9824 128.788 32.9824 127.629V30.5222C32.9832 29.9061 33.2274 29.3155 33.6614 28.8801C34.0954 28.4447 34.6837 28.2002 35.2971 28.2002Z" fill="#140000"/>
<path d="M26.4473 124.326H195.761V129.3C195.761 130.392 195.33 131.439 194.561 132.211C193.793 132.983 192.75 133.416 191.664 133.416H30.545C29.4582 133.416 28.4159 132.983 27.6475 132.211C26.879 131.439 26.4473 130.392 26.4473 129.3V124.326Z" fill="#140000"/>
<path d="M184.628 32.3193H37.1758V119.982H184.628V32.3193Z" fill="#F5F5F5"/>
<path d="M95.7148 124.326L97.8175 127.683H127.382L129.333 124.326H95.7148Z" fill="#807070"/>
<path d="M189.286 124.293H33.0059V124.794H189.286V124.293Z" fill="#807070"/>
<path d="M78.925 28.2002H62.6895V22.4522C62.6895 18.3992 65.9599 14.9702 69.9948 14.9702L78.925 15.1112V28.2002Z" fill="#E0E0E0"/>
<path d="M69.6445 14.9613C69.6445 14.9613 78.8853 14.1183 78.8853 26.2233V120.378H151.402V22.8003C151.401 21.7485 151.194 20.7072 150.793 19.7359C150.392 18.7645 149.803 17.8822 149.062 17.1393C148.321 16.3965 147.441 15.8077 146.473 15.4067C145.505 15.0057 144.468 14.8003 143.421 14.8023L69.6445 14.9613Z" fill="white"/>
<path d="M69.6452 14.9611L123.295 14.7871L136.287 14.7511L143.195 14.7301C144.405 14.6967 145.607 14.9375 146.712 15.4345C147.817 15.9315 148.796 16.672 149.577 17.6011C150.377 18.5575 150.944 19.6871 151.235 20.9011C151.312 21.2061 151.368 21.5157 151.405 21.8281C151.447 22.1281 151.444 22.4551 151.465 22.7701C151.465 23.3961 151.465 24.0261 151.465 24.6601C151.465 27.1861 151.465 29.7531 151.465 32.3611C151.465 37.5711 151.465 42.9301 151.465 48.4381C151.465 70.4401 151.465 94.6381 151.465 120.018V120.456H151.387H78.871H78.7993V120.384C78.7993 87.7861 78.8203 60.1051 78.8292 40.5841C78.8292 35.7001 78.8292 31.3261 78.8292 27.5131C78.8292 26.5591 78.8292 25.6411 78.7755 24.7621C78.7232 23.9185 78.6074 23.0801 78.429 22.2541C78.2574 21.5014 78.0196 20.7655 77.7182 20.0551C77.4346 19.4206 77.0862 18.8174 76.6788 18.2551C75.9811 17.3199 75.0868 16.5507 74.0595 16.0021C73.3089 15.6034 72.5038 15.3183 71.6702 15.1561C71.1645 15.0529 70.6508 14.9946 70.135 14.9821C69.7886 14.9821 69.6094 14.9821 69.6094 14.9821C69.7844 14.9716 69.96 14.9716 70.135 14.9821C70.6525 14.9908 71.1681 15.045 71.6761 15.1441C72.5095 15.3042 73.3146 15.5873 74.0655 15.9841C75.0999 16.5309 76.0006 17.3014 76.7027 18.2401C77.1138 18.8022 77.466 19.4054 77.754 20.0401C78.0584 20.7533 78.2993 21.4922 78.4738 22.2481C78.6544 23.077 78.7722 23.9184 78.8262 24.7651C78.8919 25.6471 78.883 26.5651 78.883 27.5191C78.883 31.3321 78.883 35.7061 78.883 40.5901C78.883 60.1231 78.8979 87.8041 78.9099 120.39L78.8382 120.321H151.354L151.277 120.399V120.039C151.277 94.6501 151.277 70.4611 151.277 48.4591C151.277 42.9571 151.277 37.5981 151.277 32.3821V24.6601C151.259 23.3971 151.369 22.1311 151.053 20.9311C150.78 19.7476 150.242 18.6424 149.479 17.7001C148.712 16.7855 147.75 16.0562 146.664 15.5664C145.578 15.0766 144.397 14.839 143.207 14.8711H136.284L123.271 14.8921L69.6452 14.9611Z" fill="#807070"/>
<path d="M109.927 43.536C109.927 43.578 105.516 43.614 100.071 43.614C94.6262 43.614 90.2148 43.578 90.2148 43.536C90.2148 43.494 94.6232 43.458 100.071 43.458C105.519 43.458 109.927 43.5 109.927 43.536Z" fill="#807070"/>
<path d="M114.342 45.9003C114.342 45.9453 108.945 45.9783 102.285 45.9783C95.6244 45.9783 90.2305 45.9453 90.2305 45.9003C90.2305 45.8553 95.6274 45.8223 102.285 45.8223C108.942 45.8223 114.342 45.8583 114.342 45.9003Z" fill="#807070"/>
<path d="M115.924 55.2152C115.924 55.2572 110.351 55.2932 103.476 55.2932C96.6005 55.2932 91.0273 55.2572 91.0273 55.2152C91.0273 55.1732 96.6005 55.1372 103.476 55.1372C110.351 55.1372 115.924 55.1702 115.924 55.2152Z" fill="#807070"/>
<path d="M132.187 64.2933C132.187 64.3353 122.868 64.3713 111.376 64.3713C99.8829 64.3713 90.5645 64.3353 90.5645 64.2933C90.5645 64.2513 99.8799 64.2153 111.376 64.2153C122.871 64.2153 132.187 64.2483 132.187 64.2933Z" fill="#807070"/>
<path d="M132.187 66.9989C132.187 67.0439 122.868 67.0769 111.376 67.0769C99.8829 67.0769 90.5645 67.0439 90.5645 66.9989C90.5645 66.9539 99.8799 66.9209 111.376 66.9209C122.871 66.9209 132.187 66.9569 132.187 66.9989Z" fill="#807070"/>
<path d="M132.187 69.7079C132.187 69.7529 122.868 69.7859 111.376 69.7859C99.8829 69.7859 90.5645 69.7529 90.5645 69.7079C90.5645 69.6629 99.8799 69.6299 111.376 69.6299C122.871 69.6299 132.187 69.6659 132.187 69.7079Z" fill="#807070"/>
<path d="M132.187 72.4169C132.187 72.4589 122.868 72.4949 111.376 72.4949C99.8829 72.4949 90.5645 72.4589 90.5645 72.4169C90.5645 72.3749 99.8799 72.3389 111.376 72.3389C122.871 72.3389 132.187 72.3749 132.187 72.4169Z" fill="#807070"/>
<path d="M132.187 75.1263C132.187 75.1683 122.868 75.2043 111.376 75.2043C99.8829 75.2043 90.5645 75.1683 90.5645 75.1263C90.5645 75.0843 99.8799 75.0483 111.376 75.0483C122.871 75.0483 132.187 75.0813 132.187 75.1263Z" fill="#807070"/>
<path d="M106.349 77.8353C106.349 77.8773 102.813 77.9133 98.4552 77.9133C94.0977 77.9133 90.5645 77.8773 90.5645 77.8353C90.5645 77.7933 94.0977 77.7573 98.4552 77.7573C102.813 77.7573 106.349 77.7903 106.349 77.8353Z" fill="#807070"/>
<path d="M97.129 29.5443C97.1268 29.3121 97.1724 29.0819 97.2631 28.8683C97.3538 28.6546 97.4875 28.4622 97.6558 28.303C97.8241 28.1437 98.0234 28.0213 98.2411 27.9432C98.4589 27.8651 98.6903 27.8331 98.921 27.8493C99.1837 27.8351 99.4462 27.8818 99.6881 27.9859C99.9299 28.0899 100.145 28.2485 100.316 28.4493L99.7334 28.9803C99.6437 28.862 99.5281 28.766 99.3955 28.6999C99.2628 28.6338 99.1168 28.5994 98.9688 28.5993C98.7232 28.5993 98.4877 28.6973 98.3141 28.8717C98.1405 29.0461 98.0429 29.2826 98.0429 29.5293C98.0429 29.7759 98.1405 30.0125 98.3141 30.1869C98.4877 30.3613 98.7232 30.4593 98.9688 30.4593C99.1168 30.4592 99.2628 30.4247 99.3955 30.3587C99.5281 30.2926 99.6437 30.1966 99.7334 30.0783L100.316 30.6063C100.146 30.8098 99.9321 30.9713 99.6901 31.0779C99.4482 31.1846 99.1849 31.2337 98.921 31.2213C98.6919 31.2373 98.4619 31.2059 98.2454 31.1289C98.0289 31.0519 97.8304 30.931 97.6624 30.7738C97.4943 30.6165 97.3602 30.4262 97.2685 30.2147C97.1767 30.0032 97.1292 29.775 97.129 29.5443Z" fill="#807070"/>
<path d="M103.314 30.459V31.17H100.713V27.915H103.255V28.626H101.618V29.175H103.06V29.865H101.618V30.465L103.314 30.459Z" fill="#807070"/>
<path d="M105.24 30.3H104.741V31.164H103.824V27.915H105.318C106.214 27.915 106.757 28.374 106.757 29.115C106.765 29.3303 106.709 29.543 106.595 29.7258C106.482 29.9086 106.317 30.0532 106.121 30.141L106.823 31.164H105.84L105.24 30.3ZM105.24 28.635H104.732V29.589H105.24C105.619 29.589 105.81 29.412 105.81 29.115C105.81 28.818 105.628 28.641 105.249 28.641L105.24 28.635Z" fill="#807070"/>
<path d="M107.893 28.644H106.898V27.915H109.801V28.644H108.81V31.17H107.893V28.644Z" fill="#807070"/>
<path d="M110.145 27.915H111.061V31.17H110.145V27.915Z" fill="#807070"/>
<path d="M112.632 28.626V29.343H114.062V30.054H112.632V31.17H111.715V27.915H114.257V28.626H112.632Z" fill="#807070"/>
<path d="M114.688 27.915H115.604V31.17H114.688V27.915Z" fill="#807070"/>
<path d="M116.092 29.5441C116.09 29.312 116.136 29.082 116.227 28.8686C116.318 28.6552 116.451 28.4629 116.62 28.3038C116.788 28.1447 116.987 28.0221 117.204 27.9439C117.422 27.8657 117.653 27.8334 117.884 27.8491C118.146 27.8349 118.408 27.8816 118.65 27.9857C118.891 28.0897 119.105 28.2483 119.276 28.4491L118.693 28.9801C118.604 28.8616 118.488 28.7655 118.355 28.6994C118.223 28.6333 118.077 28.599 117.929 28.5991C117.683 28.5991 117.448 28.6971 117.274 28.8715C117.1 29.0459 117.003 29.2824 117.003 29.5291C117.003 29.7757 117.1 30.0123 117.274 30.1867C117.448 30.3611 117.683 30.4591 117.929 30.4591C118.077 30.4592 118.223 30.4249 118.355 30.3588C118.488 30.2927 118.604 30.1966 118.693 30.0781L119.276 30.6061C119.107 30.8096 118.893 30.971 118.652 31.0777C118.41 31.1844 118.147 31.2335 117.884 31.2211C116.847 31.2361 116.092 30.5341 116.092 29.5441Z" fill="#807070"/>
<path d="M121.79 30.537H120.422L120.165 31.17H119.23L120.661 27.915H121.557L122.991 31.17H122.038L121.79 30.537ZM121.524 29.859L121.106 28.818L120.688 29.859H121.524Z" fill="#807070"/>
<path d="M123.788 28.644H122.793V27.915H125.696V28.644H124.704V31.17H123.788V28.644Z" fill="#807070"/>
<path d="M126.037 27.915H126.954V31.17H126.037V27.915Z" fill="#807070"/>
<path d="M127.439 29.5441C127.439 28.5661 128.204 27.8491 129.231 27.8491C130.259 27.8491 131.023 28.5661 131.023 29.5441C131.023 30.5221 130.259 31.2361 129.231 31.2361C128.204 31.2361 127.439 30.5191 127.439 29.5441ZM130.127 29.5441C130.118 29.3728 130.058 29.2081 129.956 29.0704C129.854 28.9328 129.714 28.8281 129.554 28.7693C129.393 28.7105 129.219 28.7002 129.053 28.7397C128.886 28.7791 128.735 28.8666 128.618 28.9913C128.5 29.1161 128.422 29.2726 128.392 29.4415C128.362 29.6105 128.382 29.7846 128.45 29.9422C128.517 30.0999 128.629 30.2343 128.772 30.3288C128.914 30.4233 129.082 30.4738 129.252 30.4741C129.371 30.474 129.488 30.4494 129.597 30.4018C129.706 30.3541 129.804 30.2846 129.885 30.1974C129.966 30.1102 130.028 30.0072 130.068 29.8948C130.107 29.7824 130.124 29.6631 130.116 29.5441H130.127Z" fill="#807070"/>
<path d="M134.608 27.915V31.17H133.852L132.421 29.436V31.17H131.525V27.915H132.278L133.709 29.649V27.915H134.608Z" fill="#807070"/>
<path d="M138.283 89.2679C138.283 89.3099 134.149 89.3459 129.054 89.3459C123.959 89.3459 119.822 89.3099 119.822 89.2679C119.822 89.2259 123.956 89.1899 129.054 89.1899C134.152 89.1899 138.283 89.2259 138.283 89.2679Z" fill="#807070"/>
<path d="M138.283 91.8843C138.283 91.9263 134.149 91.9623 129.054 91.9623C123.959 91.9623 119.822 91.9263 119.822 91.8843C119.822 91.8423 123.947 91.8003 129.057 91.8003C134.167 91.8003 138.283 91.8423 138.283 91.8843Z" fill="#807070"/>
<path d="M137.057 103.251C137.053 103.207 137.053 103.163 137.057 103.119C137.057 103.026 137.042 102.9 137.031 102.738C137.031 102.654 137.025 102.561 137.013 102.459C137.013 102.354 136.98 102.243 136.962 102.123C136.925 101.843 136.868 101.567 136.792 101.295C136.603 100.544 136.301 99.8267 135.896 99.168C134.948 97.5756 133.477 96.365 131.736 95.7445C129.996 95.1241 128.094 95.1328 126.359 95.7691C126.005 95.8973 125.66 96.0496 125.326 96.225C124.988 96.412 124.662 96.6215 124.352 96.852C124.037 97.0882 123.738 97.3447 123.456 97.62C123.178 97.9107 122.918 98.2194 122.68 98.5441C122.187 99.2087 121.804 99.9493 121.548 100.737C121.002 102.367 121.002 104.132 121.548 105.762C121.804 106.55 122.187 107.29 122.68 107.955C122.918 108.28 123.178 108.588 123.456 108.879C123.738 109.154 124.037 109.411 124.352 109.647C124.962 110.11 125.639 110.477 126.359 110.733C127.69 111.218 129.124 111.339 130.517 111.084C131.626 110.876 132.679 110.433 133.605 109.787C134.532 109.14 135.311 108.303 135.893 107.331C136.298 106.672 136.6 105.955 136.789 105.204C136.865 104.933 136.922 104.656 136.959 104.376C136.977 104.256 136.998 104.145 137.01 104.043C137.022 103.941 137.01 103.845 137.028 103.761C137.028 103.599 137.048 103.461 137.054 103.38C137.05 103.337 137.05 103.294 137.054 103.251C137.058 103.294 137.058 103.337 137.054 103.38V103.764C137.054 103.848 137.054 103.944 137.054 104.046C137.054 104.148 137.028 104.262 137.01 104.385C136.979 104.667 136.928 104.946 136.854 105.219C136.676 105.979 136.382 106.706 135.982 107.376C135.032 108.999 133.545 110.238 131.781 110.875C130.017 111.513 128.086 111.511 126.323 110.868C125.962 110.738 125.61 110.584 125.269 110.406C124.923 110.218 124.592 110.004 124.277 109.767C123.954 109.528 123.646 109.267 123.358 108.987C123.073 108.691 122.809 108.376 122.566 108.045C122.063 107.368 121.672 106.613 121.41 105.81C120.853 104.149 120.853 102.35 121.41 100.689C121.673 99.8863 122.063 99.1316 122.566 98.454C122.809 98.123 123.074 97.8092 123.361 97.515C123.649 97.2339 123.955 96.9723 124.277 96.732C125.183 96.0601 126.22 95.5868 127.32 95.3428C128.419 95.0989 129.558 95.0897 130.661 95.316C131.765 95.5423 132.809 95.9989 133.725 96.6563C134.642 97.3137 135.411 98.1571 135.982 99.132C136.381 99.802 136.675 100.529 136.854 101.289C136.928 101.564 136.98 101.843 137.01 102.126C137.028 102.249 137.045 102.36 137.054 102.462C137.063 102.564 137.054 102.66 137.054 102.747V103.128C137.059 103.169 137.06 103.21 137.057 103.251Z" fill="#262121"/>
<path d="M134.054 104.441C134.712 101.666 133.004 98.8803 130.241 98.2201C127.478 97.5598 124.705 99.2747 124.048 102.05C123.39 104.826 125.098 107.611 127.861 108.272C130.624 108.932 133.397 107.217 134.054 104.441Z" fill="#262121"/>
<path d="M140.491 98.8022L140.276 98.9222L139.634 99.2642L137.164 100.557L133.261 102.6C132.864 102.808 132.434 102.946 131.991 103.008C131.75 103.039 131.505 103.018 131.272 102.946C131.04 102.875 130.825 102.755 130.641 102.594C130.447 102.425 130.308 102.2 130.244 101.949C130.208 101.818 130.204 101.681 130.234 101.548C130.263 101.416 130.325 101.293 130.414 101.19C130.601 100.985 130.858 100.861 131.134 100.842C131.278 100.823 131.425 100.851 131.552 100.922C131.679 100.993 131.78 101.104 131.839 101.238V101.259C131.846 102.125 131.54 102.965 130.976 103.62C130.681 103.975 130.317 104.264 129.906 104.47C129.495 104.677 129.045 104.796 128.586 104.82C128.102 104.846 127.618 104.775 127.162 104.609C126.706 104.444 126.287 104.188 125.931 103.857C125.546 103.519 125.279 103.066 125.167 102.564C125.115 102.3 125.151 102.026 125.268 101.784C125.388 101.537 125.594 101.342 125.848 101.238C125.979 101.188 126.121 101.171 126.261 101.191C126.4 101.21 126.532 101.265 126.645 101.349C126.86 101.522 127.018 101.756 127.096 102.021C127.181 102.277 127.223 102.546 127.219 102.816C127.231 102.95 127.231 103.085 127.219 103.218C127.212 103.353 127.195 103.488 127.168 103.62C126.958 104.711 126.367 105.691 125.501 106.383C125.065 106.746 124.558 107.014 124.013 107.169C123.468 107.324 122.896 107.363 122.335 107.283C121.179 107.089 120.142 106.455 119.438 105.513C119.027 104.985 118.743 104.369 118.608 103.713C118.461 103.061 118.512 102.38 118.754 101.757C118.886 101.446 119.109 101.182 119.394 101.001C119.682 100.822 120.027 100.757 120.361 100.818C120.525 100.856 120.678 100.929 120.81 101.033C120.942 101.136 121.05 101.268 121.126 101.418C121.271 101.702 121.378 102.005 121.442 102.318C121.723 103.531 121.646 104.8 121.221 105.969C120.819 107.095 120.044 108.049 119.026 108.669C118.057 109.263 116.919 109.513 115.792 109.38C115.254 109.315 114.734 109.145 114.259 108.882C113.801 108.622 113.395 108.277 113.065 107.865C112.427 107.091 112.077 106.117 112.076 105.111C112.086 104.638 112.187 104.171 112.375 103.737C112.455 103.522 112.579 103.326 112.738 103.162C112.898 102.997 113.089 102.867 113.301 102.78C113.516 102.713 113.745 102.707 113.964 102.762C114.169 102.83 114.356 102.944 114.51 103.095C114.798 103.387 115.014 103.742 115.14 104.133C115.27 104.494 115.338 104.875 115.341 105.258C115.341 105.444 115.341 105.624 115.341 105.804C115.341 105.984 115.326 106.158 115.308 106.329C115.196 107.508 114.854 108.653 114.301 109.698C113.954 110.357 113.524 110.969 113.023 111.519C112.853 111.708 112.709 111.84 112.614 111.93C112.518 112.02 112.467 112.062 112.467 112.062C112.467 112.062 112.512 112.011 112.605 111.918C112.697 111.825 112.832 111.69 112.999 111.498C113.487 110.942 113.906 110.329 114.247 109.671C114.785 108.629 115.115 107.492 115.221 106.323C115.239 106.152 115.248 105.978 115.251 105.801C115.254 105.624 115.251 105.444 115.251 105.261C115.246 104.888 115.178 104.517 115.051 104.166C114.931 103.793 114.727 103.453 114.454 103.173C114.311 103.036 114.138 102.933 113.949 102.873C113.752 102.824 113.545 102.83 113.351 102.891C113.155 102.974 112.977 103.097 112.83 103.252C112.682 103.407 112.568 103.59 112.494 103.791C112.32 104.212 112.228 104.662 112.223 105.117C112.228 106.094 112.57 107.038 113.19 107.79C113.513 108.196 113.912 108.533 114.364 108.783C114.817 109.033 115.314 109.191 115.827 109.248C116.924 109.375 118.031 109.13 118.972 108.552C119.963 107.945 120.715 107.014 121.102 105.915C121.516 104.773 121.59 103.535 121.314 102.351C121.254 102.052 121.154 101.762 121.015 101.49C120.95 101.358 120.857 101.241 120.742 101.15C120.626 101.058 120.492 100.993 120.349 100.959C120.054 100.905 119.749 100.965 119.495 101.127C119.235 101.289 119.033 101.53 118.919 101.814C118.688 102.406 118.64 103.054 118.781 103.674C118.912 104.308 119.187 104.902 119.585 105.411C120.265 106.319 121.265 106.931 122.38 107.121C122.921 107.195 123.471 107.155 123.995 107.004C124.52 106.853 125.007 106.593 125.427 106.242C126.264 105.574 126.836 104.627 127.039 103.572C127.087 103.317 127.107 103.058 127.099 102.798C127.104 102.544 127.066 102.29 126.986 102.048C126.915 101.813 126.777 101.605 126.588 101.448C126.495 101.379 126.385 101.334 126.27 101.318C126.154 101.302 126.037 101.316 125.928 101.358C125.709 101.45 125.531 101.618 125.427 101.832C125.323 102.046 125.291 102.289 125.337 102.522C125.446 102.989 125.699 103.409 126.06 103.722C126.4 104.041 126.802 104.288 127.239 104.449C127.677 104.609 128.142 104.679 128.607 104.655C129.048 104.632 129.478 104.518 129.873 104.32C130.267 104.121 130.616 103.843 130.898 103.503C131.445 102.872 131.744 102.063 131.74 101.226V101.247C131.691 101.134 131.606 101.041 131.497 100.983C131.389 100.924 131.264 100.904 131.143 100.926C130.899 100.94 130.671 101.047 130.504 101.226C130.426 101.315 130.372 101.422 130.346 101.537C130.32 101.652 130.323 101.772 130.355 101.886C130.411 102.119 130.538 102.329 130.719 102.486C130.89 102.638 131.091 102.751 131.309 102.819C131.527 102.886 131.756 102.906 131.982 102.876C132.415 102.819 132.834 102.687 133.222 102.486L137.134 100.485L139.622 99.2222L140.27 98.8952L140.491 98.8022Z" fill="#807070"/>
<path d="M113.737 24.7953C113.737 24.8403 107.42 24.8763 99.6276 24.8763C91.8354 24.8763 85.5156 24.8403 85.5156 24.7953C85.5156 24.7503 91.8324 24.7173 99.6276 24.7173C107.423 24.7173 113.737 24.7533 113.737 24.7953Z" fill="#E0E0E0"/>
<path d="M118.442 24.7953C117.793 24.9033 117.131 24.9033 116.482 24.7953C117.131 24.6913 117.793 24.6913 118.442 24.7953Z" fill="#E0E0E0"/>
<path d="M146.534 24.7953C146.534 24.8403 140.77 24.8763 133.664 24.8763C126.559 24.8763 120.795 24.8403 120.795 24.7953C120.795 24.7503 126.553 24.7173 133.664 24.7173C140.776 24.7173 146.534 24.7533 146.534 24.7953Z" fill="#E0E0E0"/>
<path d="M113.737 32.682C113.737 32.727 107.42 32.76 99.6276 32.76C91.8354 32.76 85.5156 32.727 85.5156 32.682C85.5156 32.637 91.8324 32.604 99.6276 32.604C107.423 32.604 113.737 32.64 113.737 32.682Z" fill="#E0E0E0"/>
<path d="M118.442 32.682C117.793 32.786 117.131 32.786 116.482 32.682C117.131 32.578 117.793 32.578 118.442 32.682Z" fill="#E0E0E0"/>
<path d="M146.534 32.682C146.534 32.727 140.77 32.76 133.664 32.76C126.559 32.76 120.795 32.727 120.795 32.682C120.795 32.637 126.553 32.604 133.664 32.604C140.776 32.604 146.534 32.64 146.534 32.682Z" fill="#E0E0E0"/>
<path d="M139.629 63.9004L132.225 81.1834C132.189 81.2639 132.179 81.3533 132.195 81.4398C132.211 81.5264 132.253 81.6059 132.315 81.668C132.377 81.7301 132.457 81.7718 132.543 81.7876C132.629 81.8033 132.718 81.7925 132.798 81.7564L138.506 79.2244C138.562 79.1985 138.622 79.1849 138.684 79.1844C138.746 79.1838 138.807 79.1965 138.863 79.2214C138.92 79.2464 138.97 79.2831 139.012 79.3291C139.053 79.3751 139.084 79.4294 139.103 79.4884L141.029 85.2934C141.059 85.3788 141.114 85.4529 141.187 85.5053C141.261 85.5577 141.348 85.5859 141.438 85.5859C141.528 85.5859 141.616 85.5577 141.69 85.5053C141.763 85.4529 141.818 85.3788 141.848 85.2934L148.81 66.6514L139.629 63.9004Z" fill="#262121"/>
<path d="M149.279 66.7894L152.824 85.2634C152.841 85.3497 152.883 85.429 152.945 85.491C153.007 85.553 153.086 85.5948 153.172 85.611C153.258 85.6271 153.347 85.617 153.427 85.5817C153.508 85.5465 153.575 85.4878 153.622 85.4134L156.925 80.1004C156.957 80.0488 157 80.0045 157.05 79.9703C157.1 79.9361 157.157 79.9127 157.216 79.9017C157.276 79.8907 157.337 79.8923 157.396 79.9063C157.455 79.9204 157.51 79.9466 157.558 79.9834L162.4 83.7004C162.471 83.7546 162.558 83.7853 162.647 83.7884C162.737 83.7914 162.825 83.7667 162.9 83.7175C162.975 83.6683 163.034 83.5971 163.067 83.5135C163.1 83.4299 163.107 83.338 163.087 83.2504L158.41 63.9004L149.279 66.7894Z" fill="#262121"/>
<g opacity="0.3">
<path d="M139.629 63.9004L132.225 81.1834C132.189 81.2639 132.179 81.3533 132.195 81.4398C132.211 81.5264 132.253 81.6059 132.315 81.668C132.377 81.7301 132.457 81.7718 132.543 81.7876C132.629 81.8033 132.718 81.7925 132.798 81.7564L138.506 79.2244C138.562 79.1985 138.622 79.1849 138.684 79.1844C138.746 79.1838 138.807 79.1965 138.863 79.2214C138.92 79.2464 138.97 79.2831 139.012 79.3291C139.053 79.3751 139.084 79.4294 139.103 79.4884L141.029 85.2934C141.059 85.3788 141.114 85.4529 141.187 85.5053C141.261 85.5577 141.348 85.5859 141.438 85.5859C141.528 85.5859 141.616 85.5577 141.69 85.5053C141.763 85.4529 141.818 85.3788 141.848 85.2934L148.81 66.6514L139.629 63.9004Z" fill="black"/>
</g>
<g opacity="0.3">
<path d="M149.279 66.7894L152.824 85.2634C152.841 85.3497 152.883 85.429 152.945 85.491C153.007 85.553 153.086 85.5948 153.172 85.611C153.258 85.6271 153.347 85.617 153.427 85.5817C153.508 85.5465 153.575 85.4878 153.622 85.4134L156.925 80.1004C156.957 80.0488 157 80.0045 157.05 79.9703C157.1 79.9361 157.157 79.9127 157.216 79.9017C157.276 79.8907 157.337 79.8923 157.396 79.9063C157.455 79.9204 157.51 79.9466 157.558 79.9834L162.4 83.7004C162.471 83.7546 162.558 83.7853 162.647 83.7884C162.737 83.7914 162.825 83.7667 162.9 83.7175C162.975 83.6683 163.034 83.5971 163.067 83.5135C163.1 83.4299 163.107 83.338 163.087 83.2504L158.41 63.9004L149.279 66.7894Z" fill="black"/>
</g>
<path d="M149.638 33.6182L152.069 31.8242L153.98 34.1672L156.779 33.0392L158.048 35.7872L161.041 35.3912L161.588 38.3702L164.583 38.7332L164.377 41.7572L167.188 42.8552L166.241 45.7322L168.69 47.5022L167.062 50.0522L168.997 52.3742L166.784 54.4382L168.086 57.1712L165.434 58.6172L166.017 61.5902L163.09 62.3282L162.917 65.3522L159.9 65.3372L158.983 68.2232L156.065 67.4552L154.461 70.0202L151.827 68.5472L149.638 70.6322L147.452 68.5472L144.817 70.0202L143.214 67.4552L140.296 68.2232L139.379 65.3372L136.362 65.3522L136.189 62.3282L133.262 61.5902L133.844 58.6172L131.192 57.1712L132.491 54.4382L130.281 52.3742L132.217 50.0522L130.589 47.5022L133.038 45.7322L132.088 42.8552L134.902 41.7572L134.696 38.7332L137.691 38.3702L138.238 35.3912L141.23 35.7872L142.5 33.0392L145.298 34.1672L147.207 31.8242L149.638 33.6182Z" fill="#262121"/>
<path d="M159.3 60.9336C164.636 55.5736 164.636 46.8834 159.3 41.5235C153.964 36.1635 145.312 36.1635 139.976 41.5235C134.64 46.8834 134.64 55.5736 139.976 60.9336C145.312 66.2935 153.964 66.2935 159.3 60.9336Z" fill="white"/>
<path d="M152.619 47.9759L156.284 48.5159C156.42 48.5357 156.547 48.5933 156.652 48.6822C156.757 48.7711 156.835 48.8878 156.878 49.019C156.92 49.1501 156.925 49.2905 156.892 49.4243C156.858 49.5581 156.789 49.6799 156.69 49.7759L154.035 52.3709C153.949 52.4543 153.885 52.5575 153.848 52.6715C153.811 52.7855 153.803 52.9068 153.823 53.0249L154.447 56.6999C154.47 56.8356 154.455 56.9751 154.403 57.1025C154.351 57.2299 154.265 57.3403 154.154 57.4211C154.043 57.5019 153.912 57.55 153.776 57.5598C153.639 57.5697 153.502 57.541 153.381 57.4769L150.096 55.7399C149.99 55.6837 149.873 55.6543 149.754 55.6543C149.634 55.6543 149.517 55.6837 149.412 55.7399L146.126 57.4679C146.005 57.5314 145.868 57.5596 145.732 57.5492C145.595 57.5388 145.464 57.4904 145.354 57.4093C145.243 57.3282 145.157 57.2177 145.106 57.0902C145.055 56.9628 145.04 56.8234 145.063 56.6879L145.693 53.0219C145.714 52.9041 145.705 52.783 145.669 52.6691C145.632 52.5553 145.569 52.4519 145.484 52.3679L142.832 49.7669C142.734 49.6707 142.664 49.5487 142.631 49.4147C142.598 49.2807 142.603 49.1401 142.646 49.0088C142.688 48.8776 142.767 48.761 142.872 48.6723C142.977 48.5835 143.105 48.5263 143.241 48.5069L146.909 47.9759C147.027 47.9596 147.139 47.9143 147.235 47.8442C147.331 47.7741 147.409 47.6813 147.461 47.5739L149.107 44.2379C149.168 44.1146 149.262 44.0108 149.378 43.9382C149.494 43.8656 149.629 43.8271 149.766 43.8271C149.903 43.8271 150.037 43.8656 150.153 43.9382C150.27 44.0108 150.363 44.1146 150.424 44.2379L152.058 47.5799C152.112 47.687 152.192 47.7791 152.29 47.8481C152.387 47.9172 152.501 47.9611 152.619 47.9759Z" fill="#262121"/>
<path d="M202.723 62.1303C202.723 62.1303 199.162 76.7793 183.223 73.4223C183.223 73.4223 187.843 58.5873 202.723 62.1303Z" fill="#807070"/>
<path d="M195.029 84.3151C195.029 84.3151 187.711 95.2741 175.615 87.6961C175.615 87.6961 183.858 76.9051 195.029 84.3151Z" fill="#807070"/>
<path d="M183.362 101.034C183.362 101.034 172.687 110.151 162.455 98.85C162.473 98.85 174.04 90.174 183.362 101.034Z" fill="#807070"/>
<path d="M172.059 65.5894C172.059 65.5894 183.898 71.3044 178.151 84.4024C178.151 84.4024 166.357 77.7424 172.059 65.5894Z" fill="#807070"/>
<path d="M169.49 81.3813C169.49 81.3813 175.395 89.3884 166.593 96.2674C166.593 96.2674 161.065 87.6303 169.49 81.3813Z" fill="#807070"/>
<path d="M196.874 45C196.874 45 198.233 56.874 185.465 58.776C185.471 58.776 184.841 46.47 196.874 45Z" fill="#807070"/>
<path d="M178.563 33C178.563 33 188.887 37.332 184.404 49.5C184.404 49.476 174.056 44.286 178.563 33Z" fill="#807070"/>
<path d="M172.331 50.334C172.331 50.334 186.003 51.9 184.8 66.849C184.8 66.849 170.837 64.335 172.331 50.334Z" fill="#807070"/>
<path d="M152.871 102.513C152.871 102.513 152.928 102.492 153.044 102.459L153.555 102.324C154.006 102.204 154.672 102.045 155.514 101.769C157.894 101.029 160.195 100.055 162.384 98.8591C165.632 97.076 168.631 94.8677 171.302 92.2921C172.881 90.7771 174.353 89.1531 175.707 87.4321L176.735 86.0461L177.251 85.3471C177.419 85.1071 177.571 84.8581 177.735 84.6121L178.7 83.1121L179.596 81.5461C179.742 81.2821 179.894 81.0211 180.038 80.7601C180.181 80.4991 180.304 80.2201 180.435 79.9531C180.698 79.4161 180.964 78.8881 181.218 78.3541C181.471 77.8201 181.672 77.2741 181.899 76.7401C182.009 76.4731 182.128 76.2091 182.23 75.9421L182.529 75.1321L183.099 73.5361C183.257 72.9991 183.398 72.4651 183.568 71.9401C183.646 71.6761 183.723 71.4151 183.798 71.1541C183.873 70.8931 183.926 70.6291 183.992 70.3681L184.354 68.8201C185.134 65.1845 185.476 61.4678 185.372 57.7501C185.29 55.2451 185.013 52.7505 184.542 50.2891C184.354 49.4191 184.189 48.7501 184.091 48.2941C184.04 48.0691 184.001 47.8981 183.974 47.7751C183.947 47.6521 183.941 47.5981 183.941 47.5981C183.941 47.5981 183.959 47.6551 183.989 47.7721L184.121 48.2881C184.231 48.7411 184.419 49.4101 184.601 50.2771C185.847 56.4087 185.811 62.7335 184.494 68.8501C184.374 69.3601 184.254 69.8781 184.133 70.4041C184.07 70.6651 184.019 70.9321 183.941 71.1931C183.864 71.4541 183.789 71.7181 183.711 71.9821L183.243 73.5811L182.672 75.1831C182.576 75.4531 182.481 75.7231 182.373 75.9961C182.266 76.2691 182.152 76.5301 182.039 76.8001L181.358 78.4201C181.104 78.9541 180.835 79.4851 180.575 80.0221L180.175 80.8321C180.029 81.0961 179.877 81.3571 179.73 81.6211L178.834 83.1931L177.864 84.6931C177.699 84.9391 177.547 85.1881 177.377 85.4281L176.857 86.1331L175.827 87.5221C174.472 89.2503 172.998 90.8804 171.415 92.4001C168.733 94.9789 165.72 97.1855 162.455 98.9611C160.252 100.15 157.935 101.112 155.538 101.832C154.693 102.099 154.021 102.249 153.567 102.357L153.053 102.48L152.871 102.513Z" fill="#807070"/>
<path d="M168.209 87.8374C168.224 87.9488 168.224 88.062 168.209 88.1734C168.191 88.3864 168.158 88.6984 168.113 89.0734C168.02 89.8384 167.862 90.8914 167.638 92.0464C167.414 93.2014 167.163 94.2394 166.963 94.9804C166.862 95.3524 166.778 95.6524 166.712 95.8594C166.686 95.9688 166.647 96.0746 166.596 96.1744C166.603 96.0627 166.622 95.9521 166.652 95.8444C166.709 95.6014 166.778 95.3044 166.856 94.9444C167.029 94.1974 167.262 93.1594 167.486 92.0074C167.71 90.8554 167.883 89.8084 168.002 89.0494C168.059 88.6954 168.11 88.3954 168.149 88.1494C168.158 88.0436 168.178 87.9391 168.209 87.8374Z" fill="#140000"/>
<path d="M171.118 99.7291C171.005 99.734 170.893 99.7239 170.783 99.6991L169.887 99.5641C169.123 99.4501 168.062 99.3001 166.901 99.1621C165.739 99.0241 164.664 98.9251 163.893 98.8621L162.979 98.7811C162.866 98.7771 162.754 98.761 162.645 98.7331C162.757 98.7185 162.87 98.7185 162.982 98.7331C163.2 98.7331 163.514 98.7331 163.899 98.7631C164.675 98.8021 165.742 98.8831 166.918 99.0211C168.095 99.1591 169.152 99.3211 169.905 99.4711C170.287 99.5431 170.592 99.6061 170.801 99.6541C170.909 99.6657 171.016 99.6909 171.118 99.7291Z" fill="#140000"/>
<path d="M185.507 85.2002C185.379 85.2453 185.247 85.2774 185.113 85.2962L184.032 85.5092C183.118 85.6922 181.86 85.9562 180.48 86.2892C179.101 86.6222 177.861 86.9702 176.965 87.2282L175.905 87.5282C175.778 87.5729 175.647 87.6051 175.514 87.6242C175.631 87.5575 175.757 87.5051 175.887 87.4682C176.132 87.3782 176.484 87.2582 176.935 87.1142C177.831 86.8292 179.059 86.4662 180.442 86.1302C181.824 85.7942 183.091 85.5452 184.026 85.3922C184.486 85.3142 184.859 85.2602 185.119 85.2272C185.247 85.2051 185.377 85.196 185.507 85.2002Z" fill="#140000"/>
<path d="M175.057 73.9653C175.149 74.078 175.23 74.1996 175.299 74.3283C175.451 74.5683 175.651 74.9283 175.881 75.3693C177.079 77.7174 177.811 80.2768 178.037 82.9053C178.079 83.4063 178.097 83.8053 178.097 84.1053C178.111 84.251 178.111 84.3977 178.097 84.5433C178.067 84.4002 178.051 84.2545 178.049 84.1083C178.034 83.8293 177.998 83.4243 177.942 82.9233C177.659 80.3185 176.934 77.7817 175.797 75.4233C175.579 74.9703 175.397 74.6103 175.263 74.3613C175.181 74.2363 175.112 74.1037 175.057 73.9653Z" fill="#140000"/>
<path d="M190.916 67.1343C190.819 67.2186 190.714 67.2929 190.602 67.3563L189.724 67.9293C188.989 68.4213 187.992 69.1293 186.946 69.9753C185.901 70.8213 185.005 71.6613 184.375 72.2823L183.634 73.0263C183.55 73.1227 183.456 73.2102 183.354 73.2873C183.422 73.1797 183.501 73.0792 183.589 72.9873C183.751 72.7983 183.993 72.5313 184.297 72.2103C185.098 71.3736 185.95 70.5881 186.848 69.8583C187.745 69.128 188.685 68.4538 189.664 67.8393C190.044 67.6053 190.351 67.4253 190.56 67.3053C190.671 67.234 190.791 67.1766 190.916 67.1343Z" fill="#140000"/>
<path d="M175.987 56.2891C176.027 56.3137 176.066 56.3429 176.1 56.3761L176.399 56.6461C176.659 56.8831 177.029 57.2461 177.474 57.6751C178.37 58.5571 179.565 59.8141 180.807 61.2751C182.049 62.7361 183.095 64.1251 183.821 65.1511C184.182 65.6641 184.469 66.0841 184.66 66.3781L184.878 66.7201C184.926 66.8011 184.95 66.8431 184.944 66.8461C184.908 66.8146 184.877 66.7782 184.851 66.7381L184.609 66.4141L183.731 65.2141C182.984 64.2061 181.939 62.8321 180.688 61.3741C179.436 59.9161 178.268 58.6471 177.402 57.7471L176.357 56.7001L176.076 56.4001C176.013 56.3311 175.984 56.2951 175.987 56.2891Z" fill="#140000"/>
<path d="M192.454 48.8584C192.365 48.9907 192.265 49.1151 192.155 49.2304L191.325 50.2144C190.629 51.0484 189.694 52.2214 188.732 53.5714C187.771 54.9214 186.97 56.1904 186.409 57.1234L185.769 58.2274C185.697 58.3677 185.612 58.5012 185.516 58.6264C185.571 58.4785 185.638 58.335 185.716 58.1974C185.853 57.9274 186.065 57.5404 186.334 57.0664C186.872 56.1184 187.663 54.8374 188.628 53.4814C189.592 52.1254 190.545 50.9584 191.262 50.1424C191.62 49.7314 191.919 49.4074 192.131 49.1884C192.229 49.0695 192.337 48.9591 192.454 48.8584Z" fill="#140000"/>
<path d="M180.096 37.584C180.177 37.7249 180.249 37.8713 180.311 38.022C180.439 38.304 180.609 38.718 180.836 39.222C181.269 40.248 181.843 41.682 182.431 43.281C183.02 44.88 183.512 46.341 183.85 47.406C184.02 47.937 184.149 48.369 184.238 48.669C184.29 48.8226 184.33 48.9801 184.358 49.14C184.284 48.9949 184.224 48.8432 184.178 48.687L183.745 47.439C183.384 46.386 182.873 44.931 182.285 43.335C181.697 41.739 181.141 40.302 180.735 39.264C180.538 38.763 180.376 38.364 180.254 38.031C180.186 37.8877 180.133 37.738 180.096 37.584Z" fill="#140000"/>
<path d="M23.8926 58.8692C23.8926 58.8692 27.2586 72.7112 42.3203 69.5402C42.3113 69.5402 37.9448 55.5212 23.8926 58.8692Z" fill="#807070"/>
<path d="M31.1621 79.8331C31.1621 79.8331 38.0762 90.1892 49.5002 83.0282C49.5002 83.0282 41.711 72.8311 31.1621 79.8331Z" fill="#807070"/>
<path d="M42.1777 95.6309C42.1777 95.6309 52.2667 104.25 61.9286 93.5699C61.9286 93.5699 50.9884 85.3679 42.1777 95.6309Z" fill="#807070"/>
<path d="M52.8624 62.1392C52.8624 62.1392 41.6743 67.5392 47.1041 79.9142C47.1011 79.9142 58.2593 73.6232 52.8624 62.1392Z" fill="#807070"/>
<path d="M55.2888 77.061C55.2888 77.061 49.7098 84.627 58.0246 91.128C58.0246 91.128 63.2513 82.968 55.2888 77.061Z" fill="#807070"/>
<path d="M29.4126 42.6812C29.4126 42.6812 28.1283 53.9012 40.1945 55.6982C40.1945 55.6982 40.7799 44.0702 29.4126 42.6812Z" fill="#807070"/>
<path d="M46.7158 31.3262C46.7158 31.3262 36.9554 35.4212 41.1935 46.9262C41.1935 46.9112 50.9718 42.0002 46.7158 31.3262Z" fill="#807070"/>
<path d="M52.6064 47.7212C52.6064 47.7212 39.683 49.2032 40.821 63.3212C40.821 63.3272 54.019 60.9542 52.6064 47.7212Z" fill="#807070"/>
<path d="M73.8274 97.9893L73.6512 97.9563L73.1405 97.8423C72.6925 97.7373 72.0295 97.5963 71.1902 97.3473C68.8124 96.6821 66.4969 95.8098 64.2701 94.7403C62.7282 94.0085 61.2321 93.1829 59.7901 92.2683C58.1304 91.2265 56.5465 90.0676 55.0503 88.8003C53.3917 87.4044 51.843 85.8818 50.4179 84.2463L49.3308 82.9293C48.9784 82.4763 48.6439 82.0053 48.2944 81.5403C48.1212 81.3063 47.948 81.0693 47.7718 80.8353L47.2909 80.1003C46.9743 79.6023 46.6368 79.1103 46.3292 78.6003C45.7319 77.5563 45.1345 76.5423 44.6417 75.4803C44.1041 74.4453 43.68 73.3803 43.238 72.3363C40.1212 64.5529 39.3384 56.0239 40.986 47.7993C41.1652 46.9413 41.3474 46.2843 41.452 45.8343C41.5087 45.6153 41.5505 45.4443 41.5804 45.3243C41.6103 45.2043 41.6312 45.1533 41.6312 45.1533C41.6312 45.1533 41.6312 45.2133 41.5953 45.3303C41.5595 45.4473 41.5326 45.6303 41.4818 45.8403C41.3863 46.2933 41.213 46.9533 41.0428 47.8113C40.587 50.2423 40.3284 52.7064 40.2692 55.1793C40.1834 61.0289 41.2407 66.8386 43.3814 72.2793C43.8204 73.3143 44.2445 74.3793 44.7821 75.4113C45.2689 76.4673 45.8782 77.4783 46.4606 78.5193C46.7593 79.0293 47.1027 79.5183 47.4193 80.0193L47.9002 80.7573L48.4199 81.4593C48.7663 81.9243 49.1008 82.3953 49.4503 82.8453L50.5344 84.1563C53.243 87.2644 56.3834 89.9642 59.8588 92.1723C63.3825 94.4099 67.2034 96.136 71.2081 97.2993C72.0414 97.5573 72.7015 97.7073 73.1495 97.8213L73.6542 97.9533L73.8274 97.9893Z" fill="#807070"/>
<path d="M56.4978 83.1602C56.5305 83.2576 56.5535 83.3581 56.5665 83.4602C56.6053 83.6942 56.6501 83.9762 56.7039 84.3092C56.8174 85.0262 56.9846 86.0162 57.1937 87.1052C57.4028 88.1942 57.6238 89.1722 57.791 89.8802C57.8657 90.2072 57.9284 90.4802 57.9822 90.7202C58.0117 90.8176 58.0288 90.9184 58.0329 91.0202C57.9846 90.9248 57.9475 90.8241 57.9224 90.7202C57.8627 90.5282 57.7791 90.2432 57.6835 89.8922C57.4924 89.1902 57.2594 88.2122 57.0444 87.1202C56.8293 86.0282 56.686 85.0202 56.5993 84.3092C56.5545 83.9492 56.5247 83.6552 56.5097 83.4512C56.4943 83.355 56.4903 83.2573 56.4978 83.1602Z" fill="#140000"/>
<path d="M53.7598 94.3982C53.856 94.3588 53.9561 94.3297 54.0584 94.3112C54.2556 94.2662 54.5482 94.2062 54.9066 94.1372C55.6264 94.0022 56.627 93.8372 57.738 93.7112C58.849 93.5852 59.8585 93.5042 60.5903 93.4712C60.9576 93.4532 61.2533 93.4412 61.4564 93.4412C61.5625 93.4271 61.6699 93.4271 61.776 93.4412C61.6737 93.4689 61.5683 93.4841 61.4624 93.4862L60.5992 93.5642C59.8705 93.6272 58.864 93.7232 57.7559 93.8642C56.6479 94.0052 55.6653 94.1372 54.9246 94.2452L54.0674 94.3682C53.9666 94.3915 53.8632 94.4016 53.7598 94.3982Z" fill="#140000"/>
<path d="M40.1523 80.6641C40.2806 80.6596 40.409 80.6706 40.5346 80.6971C40.7795 80.7271 41.132 80.7781 41.565 80.8501C42.4371 80.9941 43.6318 81.2281 44.94 81.5461C46.2481 81.8641 47.4159 82.2061 48.2552 82.4791C48.6733 82.6141 49.0108 82.7311 49.2438 82.8151C49.366 82.8517 49.4841 82.9009 49.5962 82.9621C49.4686 82.9471 49.3433 82.9169 49.2228 82.8721L48.2223 82.5721C47.3771 82.3291 46.2063 82.0051 44.9011 81.6871C43.596 81.3691 42.4103 81.1201 41.5471 80.9461L40.5257 80.7451C40.399 80.7297 40.274 80.7026 40.1523 80.6641Z" fill="#140000"/>
<path d="M50.0297 70.0532C49.9814 70.1825 49.9214 70.307 49.8505 70.4252C49.7251 70.6592 49.5518 71.0012 49.3457 71.4302C48.8118 72.5421 48.3722 73.6972 48.0316 74.8832C47.6946 76.0704 47.4558 77.2835 47.3178 78.5102C47.267 78.9812 47.2312 79.3652 47.2163 79.6292C47.2142 79.7675 47.1982 79.9052 47.1685 80.0402C47.1514 79.9029 47.1464 79.7644 47.1535 79.6262C47.1535 79.3592 47.1685 78.9752 47.2073 78.5012C47.315 77.2613 47.541 76.0347 47.8823 74.8382C48.2241 73.6434 48.6813 72.4849 49.2472 71.3792C49.4652 70.9562 49.6534 70.6202 49.7967 70.3952C49.8614 70.2728 49.9395 70.1581 50.0297 70.0532Z" fill="#140000"/>
<path d="M35.041 63.6001C35.1546 63.6419 35.2637 63.6952 35.3666 63.7591C35.5726 63.8701 35.8653 64.0411 36.2237 64.2631C37.1497 64.8428 38.0394 65.479 38.8878 66.1681C39.7352 66.8585 40.5391 67.6009 41.2951 68.3911C41.5938 68.6911 41.8118 68.9461 41.9641 69.1261C42.0486 69.2183 42.1236 69.3188 42.1881 69.4261C42.0892 69.3539 41.999 69.2703 41.9193 69.1771L41.2145 68.4661C40.6171 67.8661 39.7749 67.0921 38.7863 66.2851C37.7977 65.4781 36.8539 64.8151 36.161 64.3531L35.3337 63.8071C35.2284 63.7499 35.1301 63.6804 35.041 63.6001Z" fill="#140000"/>
<path d="M49.1517 53.3491C49.0448 53.4846 48.928 53.612 48.8023 53.7301L47.8197 54.7351C46.9983 55.5841 45.8813 56.7841 44.7105 58.1611C43.5398 59.5381 42.5422 60.8371 41.8344 61.7911L41.0041 62.9221C40.9089 63.065 40.8031 63.2003 40.6875 63.3271C40.7647 63.1735 40.8536 63.0261 40.9533 62.8861C41.1325 62.6071 41.4043 62.2081 41.7448 61.7251C42.4317 60.7531 43.4203 59.4421 44.5941 58.0591C45.7678 56.6761 46.8908 55.5001 47.742 54.6571C48.1661 54.2401 48.5126 53.9071 48.7605 53.6851C48.8826 53.5638 49.0134 53.4515 49.1517 53.3491Z" fill="#140000"/>
<path d="M33.5879 46.3262C33.7037 46.4167 33.8117 46.5171 33.9105 46.6262C34.1106 46.8332 34.3913 47.1392 34.7288 47.5262C35.6126 48.5407 36.4439 49.6001 37.2197 50.7002C38.1157 51.9812 38.8803 53.1932 39.388 54.0872C39.6419 54.5342 39.839 54.9002 39.9853 55.1582C40.0608 55.2878 40.1238 55.4245 40.1735 55.5662C40.083 55.4468 40.0021 55.3204 39.9316 55.1882L39.3074 54.1442C38.7757 53.2652 38.0171 52.0682 37.1092 50.7902C36.2012 49.5122 35.3172 48.4052 34.6601 47.6162C34.3614 47.2382 34.0837 46.9262 33.8806 46.6862C33.7706 46.5769 33.6725 46.4562 33.5879 46.3262Z" fill="#140000"/>
<path d="M45.2704 35.6733C45.2327 35.8223 45.1828 35.9678 45.1211 36.1083C45.0046 36.4083 44.8523 36.8013 44.6671 37.2723C44.2848 38.2533 43.7711 39.6123 43.2036 41.1213C42.6362 42.6303 42.1643 44.0043 41.8118 45.0003C41.6446 45.4773 41.5132 45.8733 41.4027 46.1793C41.3599 46.3266 41.3029 46.4693 41.2324 46.6053C41.2569 46.4545 41.2938 46.306 41.3429 46.1613C41.4236 45.8613 41.549 45.4683 41.7073 44.9613C42.0269 43.9563 42.4898 42.5613 43.0483 41.0613C43.6068 39.5613 44.1474 38.1993 44.5566 37.2273C44.7627 36.7413 44.9329 36.3513 45.0554 36.0813C45.1141 35.9389 45.1861 35.8023 45.2704 35.6733Z" fill="#140000"/>
<path d="M73.8118 49.8002C75.9891 50.0852 76.3116 52.3262 77.118 54.2072C77.9244 56.0882 79.4686 57.7622 80.6573 59.4452C81.2845 60.3452 82.1506 61.1342 82.3656 62.1902C82.6016 63.2942 82.0998 64.4372 81.8639 65.5622C81.6279 66.6872 81.7952 68.0642 82.8704 68.5622C82.7496 68.7038 82.5977 68.8152 82.4266 68.8876C82.2555 68.96 82.07 68.9914 81.8848 68.9792C81.8848 69.4982 81.386 69.9452 80.8424 70.0952C80.2946 70.2047 79.7301 70.1986 79.1848 70.0772C79.3312 70.4222 79.0206 70.8392 78.6353 70.9772C78.2442 71.0846 77.8317 71.0846 77.4406 70.9772C77.0525 70.8665 76.6459 70.8369 76.2459 70.8902C75.3499 71.0852 74.8273 72.0902 73.9313 72.2162C72.7008 72.3962 71.8167 70.8152 70.6011 71.0912C70.0307 71.2202 69.6514 71.7212 69.1825 72.0632C68.7136 72.4052 67.9221 72.3182 67.6891 71.8262C67.038 72.6512 66.0315 73.4522 64.9713 73.6712C65.0471 73.4908 65.0679 73.292 65.0312 73.0998C64.9946 72.9075 64.902 72.7306 64.7652 72.5912C64.1838 73.068 63.4854 73.3789 62.7432 73.4912C62.9663 73.2854 63.1421 73.0334 63.2587 72.7527C63.3752 72.4719 63.4296 72.1691 63.4182 71.8652C63.1684 72.0622 62.8772 72.1994 62.5667 72.2664C62.2562 72.3335 61.9346 72.3286 61.6262 72.2522C62.7193 71.6252 62.8209 70.1672 62.4386 69.0722C62.0563 67.9772 61.3096 66.9962 61.1663 65.8412C61.008 64.5842 62.4774 62.9942 62.1907 61.7612C61.7487 59.8592 61.7815 58.7012 61.8592 56.9252C61.9099 55.7642 62.4207 54.7322 62.9284 53.6492C63.5229 52.3077 64.5411 51.2005 65.8255 50.4992C66.9813 49.8452 68.6479 49.2452 69.971 49.2152C72.3304 49.1642 73.2891 49.0892 75.1558 50.3432" fill="#807070"/>
<path d="M66.5437 65.2862C65.7687 63.7751 65.1262 62.1992 64.6232 60.5762C64.119 58.9456 64.0266 57.2146 64.3544 55.5392C64.4112 55.2902 64.9518 53.5832 65.2086 53.5742C65.3908 53.5742 65.125 55.1252 65.2385 55.2722C66.3107 56.6582 66.7916 58.4372 66.8841 60.1892C66.9592 61.8966 66.845 63.6072 66.5437 65.2892" fill="#807070"/>
<path d="M76.8587 79.656C74.2514 79.9559 67.9794 77.202 67.6299 74.592L65.5154 58.884C64.8165 54.684 66.6653 50.784 70.8675 50.184L71.2587 50.151C73.1587 49.9976 75.0464 50.5688 76.5458 51.7508C78.0453 52.9328 79.0463 54.6388 79.3496 56.529C79.947 60.174 80.5443 64.206 80.6727 66.177C80.9475 70.254 76.9424 71.214 76.9424 71.214C76.9424 71.214 77.0439 72.156 77.1903 73.347C77.5218 76.023 77.0977 78.957 76.8587 79.647V79.656Z" fill="#FFBE9D"/>
<path d="M76.9421 71.2143C75.0674 71.3605 73.1903 70.9638 71.5332 70.0713C71.5332 70.0713 73.0504 73.0323 77.0675 72.3393L76.9421 71.2143Z" fill="#EB996E"/>
<path d="M77.8377 60.0754C77.8512 60.2266 77.8053 60.377 77.7099 60.4947C77.6145 60.6124 77.4771 60.688 77.327 60.7054C77.2537 60.7177 77.1786 60.715 77.1064 60.6975C77.0341 60.68 76.9661 60.648 76.9064 60.6035C76.8467 60.559 76.7966 60.5028 76.7591 60.4383C76.7215 60.3739 76.6973 60.3025 76.6879 60.2284C76.6744 60.0772 76.7203 59.9268 76.8157 59.8091C76.9111 59.6914 77.0485 59.6158 77.1986 59.5984C77.272 59.5857 77.3471 59.588 77.4196 59.6054C77.492 59.6227 77.5602 59.6546 77.62 59.6992C77.6797 59.7439 77.7299 59.8002 77.7673 59.8649C77.8047 59.9295 77.8287 60.0012 77.8377 60.0754Z" fill="#807070"/>
<path d="M78.6307 58.3953C78.565 58.4763 78.102 58.1853 77.4778 58.2363C76.8536 58.2873 76.4235 58.6383 76.3489 58.5663C76.2742 58.4943 76.3758 58.3923 76.5639 58.2333C76.818 58.0225 77.1312 57.8967 77.4599 57.8733C77.7839 57.8454 78.1083 57.9221 78.3858 58.0923C78.5889 58.2243 78.6635 58.3563 78.6307 58.3953Z" fill="#807070"/>
<path d="M71.9793 60.534C71.9891 60.6847 71.9419 60.8336 71.8473 60.9509C71.7526 61.0682 71.6174 61.1454 71.4685 61.167C71.3953 61.1789 71.3204 61.1759 71.2483 61.1582C71.1762 61.1405 71.1083 61.1085 71.0487 61.064C70.9891 61.0195 70.939 60.9635 70.9014 60.8993C70.8637 60.8351 70.8392 60.7639 70.8294 60.69C70.8196 60.5393 70.8667 60.3904 70.9614 60.273C71.0561 60.1557 71.1913 60.0786 71.3401 60.057C71.4133 60.0455 71.4881 60.0488 71.5601 60.0667C71.632 60.0845 71.6997 60.1166 71.7592 60.161C71.8187 60.2054 71.8688 60.2612 71.9065 60.3253C71.9443 60.3893 71.9691 60.4602 71.9793 60.534Z" fill="#807070"/>
<path d="M72.5303 59.0311C72.4645 59.1121 71.9986 58.8241 71.3774 58.8751C70.7562 58.9261 70.3201 59.2771 70.2484 59.2051C70.1768 59.1331 70.2723 59.0311 70.4605 58.8691C70.7145 58.6588 71.028 58.5339 71.3565 58.5121C71.6814 58.4837 72.0069 58.5605 72.2853 58.7311C72.4884 58.8631 72.5751 58.9951 72.5303 59.0311Z" fill="#807070"/>
<path d="M75.1526 63.6632C75.4724 63.5324 75.8077 63.4437 76.1502 63.3992C76.3085 63.3692 76.4488 63.3242 76.4727 63.2132C76.4741 63.047 76.424 62.8845 76.3294 62.7482L75.7619 61.5692C74.9704 59.8892 74.3821 58.5002 74.4508 58.4702C74.5195 58.4402 75.2154 59.7752 76.0068 61.4552L76.5564 62.6552C76.6716 62.8402 76.7181 63.0601 76.6878 63.2762C76.6694 63.3344 76.638 63.3876 76.5961 63.4318C76.5542 63.4759 76.5028 63.51 76.4459 63.5312C76.3589 63.5616 76.2687 63.5817 76.1771 63.5912C75.84 63.6585 75.4958 63.6827 75.1526 63.6632Z" fill="#807070"/>
<path d="M72.2778 56.7C72.2061 56.865 71.5879 56.745 70.8502 56.79C70.1125 56.835 69.5062 56.997 69.4196 56.838C69.3807 56.763 69.4942 56.607 69.7421 56.457C70.0737 56.2759 70.4418 56.1724 70.8188 56.1543C71.1958 56.1361 71.5721 56.2037 71.9194 56.352C72.1942 56.475 72.3226 56.616 72.2778 56.7Z" fill="#807070"/>
<path d="M78.3663 56.9429C78.2498 57.0959 77.7301 56.9969 77.1179 57.0479C76.5056 57.0989 76.0009 57.2519 75.8694 57.1139C75.8097 57.0479 75.8694 56.8979 76.0905 56.7419C76.3869 56.5497 76.7269 56.436 77.0789 56.4113C77.4309 56.3867 77.7834 56.4519 78.1035 56.6009C78.3305 56.7269 78.4171 56.8679 78.3663 56.9429Z" fill="#807070"/>
<path d="M66.0893 61.8753C66.0176 61.8513 63.237 61.2753 63.5476 64.0503C63.8583 66.8253 66.5701 65.9433 66.5672 65.8503C66.5642 65.7573 66.0893 61.8753 66.0893 61.8753Z" fill="#FFBE9D"/>
<path d="M65.605 64.905C65.605 64.905 65.5602 64.944 65.4825 64.992C65.3733 65.0528 65.2454 65.0699 65.1241 65.04C64.8255 64.965 64.5268 64.527 64.4491 64.026C64.4166 63.7885 64.437 63.5467 64.5089 63.318C64.5246 63.2285 64.5619 63.1441 64.6176 63.0725C64.6733 63.0008 64.7457 62.944 64.8285 62.907C64.882 62.8863 64.941 62.8848 64.9954 62.9029C65.0499 62.9209 65.0964 62.9574 65.1271 63.006C65.1749 63.081 65.163 63.138 65.1779 63.141C65.1928 63.144 65.2317 63.087 65.1958 62.976C65.1735 62.9084 65.128 62.851 65.0674 62.814C64.9848 62.7644 64.8861 62.7493 64.7926 62.772C64.6819 62.8082 64.5821 62.8721 64.5027 62.9576C64.4233 63.0431 64.3668 63.1476 64.3386 63.261C64.2489 63.5147 64.2212 63.7864 64.258 64.053C64.3386 64.611 64.6821 65.103 65.0943 65.175C65.171 65.1889 65.2499 65.185 65.3249 65.1637C65.4 65.1424 65.4692 65.1042 65.5273 65.052C65.605 64.974 65.6139 64.908 65.605 64.905Z" fill="#EB996E"/>
<path d="M77.0059 52.1461C77.424 51.8461 75.9068 50.5501 74.748 50.1841C72.9948 49.6291 70.4024 49.4731 68.921 50.0971C67.129 50.8471 65.7223 51.9541 64.9995 53.7541C64.3147 55.5785 64.1261 57.5532 64.4529 59.4751C64.5011 60.069 64.7074 60.6389 65.0503 61.1251C65.5102 61.6921 66.2987 61.9891 66.3674 62.8381C66.3867 63.1495 66.5259 63.4411 66.7557 63.6511C67.3291 64.1281 67.8846 63.5461 68.1086 63.0031C68.5835 61.8421 68.4939 60.5341 68.4073 59.2831C68.3867 58.3887 68.2192 57.5038 67.9115 56.6641C67.7204 56.2171 67.4516 55.8061 67.2843 55.3501C67.1877 55.1274 67.1403 54.8862 67.1455 54.6433C67.1507 54.4004 67.2082 54.1615 67.3142 53.9431C67.3678 53.8562 67.4299 53.7748 67.4993 53.7001C67.8436 53.3149 68.2836 53.0285 68.7743 52.8703C69.265 52.7122 69.7888 52.6879 70.2919 52.8001C71.9136 53.1631 74.6733 53.6641 75.3035 53.0491C76.1995 52.1491 76.3877 51.6391 76.3877 51.6391L77.0059 52.1461Z" fill="#807070"/>
<path d="M73.4878 64.1999C73.452 64.1999 73.446 64.3649 73.5296 64.5989C73.6447 64.9069 73.8538 65.1705 74.127 65.3519C74.3895 65.5275 74.6822 65.6526 74.9901 65.7209C75.2201 65.7749 75.3694 65.7809 75.3814 65.7449C75.3933 65.7089 75.2679 65.6279 75.0588 65.5259C74.7936 65.4071 74.5379 65.2676 74.2942 65.1089C73.7387 64.7519 73.5744 64.1759 73.4878 64.1999Z" fill="#807070"/>
<path d="M66.1777 62.2383C66.2016 62.2863 66.2225 62.3373 66.2464 62.3943C66.2464 62.4003 66.2195 62.3373 66.1777 62.2383Z" fill="#262121"/>
<path d="M65.2323 61.8002C65.2323 61.8002 65.6953 61.2002 66.1791 62.2262C65.6027 60.8642 61.7708 51.0152 72.2779 49.7162C72.2779 49.7162 68.4818 49.0442 66.194 50.9402C66.194 50.9522 61.5408 53.7452 65.2323 61.8002Z" fill="#140000"/>
<path d="M85.3231 111.534L60.9011 111.867C60.9011 111.867 54.0706 108.996 52.195 108.918C50.3194 108.84 46.592 109.08 44.8687 111.867C43.0767 114.747 42.8408 119.826 48.3273 123.516C53.6734 127.116 78.1133 130.434 81.4793 130.116L87.6378 121.8C87.6378 121.8 87.7035 114.975 87.6378 114.648C87.5721 114.321 86.5387 111.399 86.5387 111.399L85.3231 111.534Z" fill="#807070"/>
<path d="M70.7033 123.054L58.0488 127.773L63.8161 143.619C65.2885 142.971 65.3303 133.665 65.3303 133.665L73.5616 130.965L70.7033 123.054Z" fill="#262121"/>
<g opacity="0.6">
<path d="M64.2305 128.514C64.1291 128.379 63.9816 128.286 63.8162 128.254C63.6509 128.221 63.4793 128.251 63.3345 128.337C63.1937 128.434 63.096 128.582 63.062 128.75C63.028 128.918 63.0604 129.093 63.1523 129.237C63.2603 129.381 63.4175 129.479 63.5936 129.513C63.7697 129.547 63.9519 129.514 64.1051 129.42C64.2386 129.304 64.3222 129.141 64.3383 128.964C64.3545 128.787 64.3019 128.611 64.1917 128.472" fill="white"/>
</g>
<path d="M58.0488 127.773L59.3271 127.299L64.4045 142.698C64.4045 142.698 64.3567 143.517 63.831 143.619L58.0488 127.773Z" fill="#807070"/>
<path d="M65.5027 133.893C65.425 133.917 65.2518 133.542 64.8635 133.254C64.4753 132.966 64.081 132.879 64.084 132.798C64.087 132.717 64.5768 132.666 65.0367 133.026C65.4967 133.386 65.5803 133.881 65.5027 133.893Z" fill="#807070"/>
<path d="M65.4265 135.804C65.3578 135.849 65.104 135.564 64.6828 135.42C64.2617 135.276 63.8914 135.327 63.8645 135.249C63.8376 135.171 64.2587 134.949 64.7784 135.15C65.2981 135.351 65.4982 135.777 65.4265 135.804Z" fill="#807070"/>
<path d="M63.7886 137.475C63.7468 137.412 64.0873 137.175 64.5861 137.205C65.0848 137.235 65.3805 137.55 65.3268 137.607C65.273 137.664 64.9684 137.523 64.5622 137.493C64.156 137.463 63.8245 137.55 63.7886 137.475Z" fill="#807070"/>
<path d="M67.3128 133.068C67.2292 133.068 67.2083 132.669 67.0141 132.243C66.82 131.817 66.5632 131.526 66.6139 131.46C66.6647 131.394 67.0589 131.622 67.274 132.129C67.489 132.636 67.3875 133.086 67.3128 133.068Z" fill="#807070"/>
<path d="M69.0486 132C69.0158 132 68.8575 131.724 68.75 131.205C68.6974 130.9 68.6814 130.59 68.7022 130.281C68.7148 130.098 68.7398 129.915 68.7768 129.735C68.7945 129.631 68.8278 129.529 68.8754 129.435C68.9114 129.364 68.9701 129.307 69.0421 129.273C69.1141 129.239 69.1952 129.231 69.2726 129.249C69.3402 129.268 69.4024 129.302 69.4543 129.35C69.5062 129.397 69.5463 129.456 69.5713 129.522C69.6077 129.618 69.6308 129.719 69.64 129.822C69.6977 130.319 69.6288 130.823 69.4399 131.286C69.2338 131.778 68.9919 132.009 68.968 131.988C68.9441 131.967 69.1054 131.688 69.2487 131.217C69.3315 130.94 69.3787 130.654 69.3891 130.365C69.3933 130.196 69.3843 130.026 69.3622 129.858C69.3443 129.675 69.2935 129.531 69.2039 129.516C69.1711 129.516 69.1591 129.516 69.1203 129.564C69.0872 129.637 69.0631 129.713 69.0486 129.792C69.0113 129.958 68.9834 130.127 68.965 130.296C68.9387 130.587 68.9387 130.881 68.965 131.172C69.0113 131.446 69.0392 131.722 69.0486 132Z" fill="#807070"/>
<path d="M68.8998 131.943C68.8789 131.922 69.0999 131.667 69.5867 131.454C69.8717 131.335 70.1745 131.264 70.4827 131.244C70.6673 131.236 70.8523 131.245 71.0353 131.271C71.155 131.276 71.2717 131.311 71.3737 131.374C71.4758 131.437 71.5599 131.526 71.6177 131.631C71.6431 131.702 71.6473 131.779 71.6298 131.852C71.6122 131.925 71.5738 131.991 71.5191 132.042C71.4424 132.118 71.3548 132.182 71.2593 132.231C71.0929 132.323 70.9136 132.389 70.7276 132.426C70.4157 132.492 70.0923 132.479 69.7868 132.387C69.2672 132.228 69.0581 131.94 69.082 131.922C69.3268 132.029 69.5782 132.119 69.8346 132.192C70.1118 132.245 70.3971 132.237 70.6709 132.168C70.8289 132.13 70.9807 132.069 71.1219 131.988C71.2802 131.901 71.3907 131.787 71.3518 131.73C71.313 131.673 71.1488 131.565 70.9905 131.55C70.8257 131.522 70.6588 131.508 70.4917 131.508C70.2048 131.514 69.9202 131.56 69.6465 131.646C69.1865 131.793 68.9267 131.982 68.8998 131.943Z" fill="#807070"/>
<path d="M81.1424 121.095L93.3877 126.795L86.3989 142.134C84.9802 141.375 85.6672 132.093 85.6672 132.093L77.6719 128.76L81.1424 121.095Z" fill="#262121"/>
<g opacity="0.6">
<path d="M87.1665 127.05C87.2781 126.927 87.4302 126.849 87.5949 126.829C87.7596 126.81 87.9256 126.851 88.0625 126.945C88.1919 127.053 88.2754 127.206 88.296 127.373C88.3165 127.541 88.2725 127.709 88.173 127.845C88.0543 127.98 87.8904 128.065 87.7128 128.085C87.5352 128.105 87.3565 128.058 87.2113 127.953C87.0883 127.825 87.0195 127.654 87.0195 127.476C87.0195 127.298 87.0883 127.127 87.2113 126.999" fill="white"/>
</g>
<path d="M93.388 126.801L92.1515 126.225L85.9004 141.177C85.9004 141.177 85.8855 141.999 86.3992 142.14L93.388 126.801Z" fill="#807070"/>
<path d="M85.4753 132.3C85.5529 132.33 85.756 131.97 86.1652 131.7C86.5744 131.43 86.9746 131.4 86.9776 131.307C86.9806 131.214 86.4967 131.139 86.0099 131.46C85.5231 131.781 85.4006 132.3 85.4753 132.3Z" fill="#807070"/>
<path d="M85.4179 134.223C85.4806 134.274 85.7554 134.007 86.1884 133.899C86.6215 133.791 86.9859 133.869 87.0157 133.794C87.0456 133.719 86.6484 133.476 86.1197 133.623C85.5911 133.77 85.3343 134.19 85.4179 134.223Z" fill="#807070"/>
<path d="M86.9121 136.02C86.9599 135.957 86.6343 135.684 86.1385 135.687C85.6427 135.69 85.3202 135.969 85.368 136.029C85.4157 136.089 85.7323 135.972 86.1415 135.975C86.5507 135.978 86.8643 136.089 86.9121 136.02Z" fill="#807070"/>
<path d="M83.7378 131.349C83.8214 131.349 83.8752 130.956 84.0962 130.548C84.3172 130.14 84.6009 129.867 84.5561 129.798C84.5113 129.729 84.0992 129.927 83.8453 130.398C83.5914 130.869 83.6631 131.358 83.7378 131.349Z" fill="#807070"/>
<path d="M82.0923 130.149C82.1251 130.164 82.3044 129.891 82.4388 129.381C82.5167 129.081 82.5578 128.773 82.5612 128.463C82.5617 128.28 82.5508 128.096 82.5284 127.914C82.5202 127.806 82.495 127.7 82.4537 127.599C82.4228 127.526 82.3685 127.465 82.2993 127.426C82.2301 127.387 82.1499 127.372 82.0714 127.383C82.0026 127.397 81.9379 127.427 81.8825 127.47C81.827 127.513 81.7823 127.569 81.7518 127.632C81.7078 127.727 81.6776 127.828 81.6622 127.932C81.6262 128.114 81.6072 128.299 81.6055 128.484C81.6048 128.797 81.6521 129.107 81.7459 129.405C81.8079 129.687 81.9525 129.944 82.161 130.143C82.2028 130.119 82.0475 129.843 81.943 129.351C81.8819 129.069 81.8568 128.779 81.8683 128.49C81.8775 128.321 81.8995 128.152 81.934 127.986C81.9669 127.806 82.0296 127.665 82.1192 127.656C82.155 127.656 82.167 127.656 82.1968 127.713C82.2255 127.787 82.2436 127.865 82.2506 127.944C82.2763 128.114 82.2923 128.285 82.2984 128.457C82.306 128.749 82.287 129.042 82.2416 129.33C82.1746 129.6 82.1247 129.873 82.0923 130.149Z" fill="#807070"/>
<path d="M82.2448 130.101C82.2687 130.08 82.0685 129.801 81.5996 129.558C81.3191 129.414 81.016 129.32 80.7036 129.279C80.5205 129.255 80.3354 129.249 80.1511 129.261C80.0345 129.257 79.9188 129.282 79.8145 129.335C79.7101 129.387 79.6205 129.465 79.5538 129.561C79.5242 129.63 79.5147 129.706 79.5263 129.781C79.5379 129.855 79.5702 129.924 79.6195 129.981C79.6903 130.062 79.7729 130.132 79.8644 130.188C80.0232 130.294 80.1975 130.374 80.3811 130.425C80.6859 130.515 81.0082 130.527 81.3189 130.461C81.8535 130.344 82.0835 130.071 82.0596 130.053C81.8063 130.138 81.5479 130.207 81.286 130.26C81.0073 130.293 80.7248 130.263 80.4587 130.173C80.304 130.122 80.1573 130.049 80.0227 129.957C79.8704 129.858 79.7688 129.735 79.8136 129.684C79.8584 129.633 80.0287 129.534 80.184 129.528C80.3509 129.513 80.5188 129.513 80.6857 129.528C80.9717 129.554 81.2523 129.622 81.519 129.729C81.973 129.93 82.2149 130.137 82.2448 130.101Z" fill="#807070"/>
<path d="M86.5391 111.402C86.5391 111.402 97.085 107.445 100.968 107.958C103.139 108.258 106.532 109.908 106.792 112.704C107.052 115.5 106.371 119.235 102.61 121.056C98.8501 122.877 83.878 129.627 80.3208 130.656C76.7637 131.685 67.8873 134.13 67.8873 134.13L64.5273 124.5C64.5273 124.5 82.9162 118.104 83.8869 117.387C84.8576 116.67 87.3156 115.698 87.3156 115.698L86.5391 111.402Z" fill="#807070"/>
<path d="M49.877 112.716L49.9516 112.695L50.1637 112.632C50.3488 112.575 50.6236 112.494 50.985 112.407C51.4193 112.3 51.8604 112.223 52.3051 112.176C52.8952 112.122 53.4891 112.122 54.0792 112.176C54.7953 112.236 55.5032 112.372 56.1908 112.581C56.5733 112.696 56.9459 112.841 57.3048 113.016L58.4517 113.58C60.0316 114.336 61.7908 115.113 63.6694 115.857C67.4266 117.357 71.0345 118.089 73.606 118.674C74.8963 118.974 75.9416 119.196 76.6584 119.37L77.4887 119.565L77.7037 119.616H77.7784L77.7067 119.592L77.4917 119.532C77.3065 119.481 77.0287 119.403 76.6703 119.313C75.9535 119.13 74.9142 118.881 73.6239 118.584C71.0554 117.984 67.4565 117.246 63.7112 115.74C61.8356 114.996 60.0764 114.225 58.4965 113.472L57.3436 112.929C56.9787 112.754 56.6001 112.608 56.2117 112.494C55.518 112.286 54.8041 112.153 54.0822 112.098C53.4861 112.043 52.8863 112.043 52.2902 112.098C51.8428 112.151 51.3996 112.235 50.9641 112.35C50.6057 112.443 50.3309 112.53 50.1487 112.593L49.9397 112.671C49.9171 112.684 49.8961 112.699 49.877 112.716Z" fill="#140000"/>
<path d="M50.4297 111.318C50.4297 111.336 50.7522 111.279 51.2689 111.222C51.9405 111.151 52.6165 111.132 53.2909 111.165C53.9669 111.201 54.6389 111.29 55.3009 111.432C55.8087 111.54 56.1193 111.63 56.1223 111.612C56.0561 111.576 55.9859 111.548 55.9132 111.528C55.7173 111.46 55.5179 111.402 55.3159 111.354C53.9882 111.021 52.6087 110.95 51.254 111.144C50.9972 111.18 50.7881 111.219 50.6567 111.255C50.5789 111.267 50.5027 111.288 50.4297 111.318Z" fill="#140000"/>
<path d="M90.9766 114.204C90.9766 114.222 91.2752 113.994 91.786 113.679C93.1054 112.859 94.5856 112.334 96.1256 112.14C96.7229 112.068 97.0873 112.059 97.0843 112.038C96.9979 112.03 96.9108 112.03 96.8245 112.038C96.5881 112.037 96.3519 112.048 96.1166 112.071C94.5542 112.223 93.0521 112.755 91.7412 113.622C91.4933 113.79 91.2961 113.922 91.1677 114.042C91.0982 114.089 91.0341 114.143 90.9766 114.204Z" fill="#140000"/>
<path d="M85.6847 128.595L85.601 128.628L85.3621 128.73C85.15 128.814 84.8424 128.961 84.4303 129.12C83.6089 129.447 82.3934 129.897 80.8463 130.41C77.7312 131.433 73.2512 132.735 67.8931 134.091L67.9558 134.124C66.9553 131.34 65.8651 128.265 64.6944 125.034L64.6615 125.106L68.6935 123.441L91.0368 114.204C91.9477 113.238 92.784 112.386 93.5695 111.696C94.2334 111.106 94.9424 110.57 95.69 110.091C96.1604 109.794 96.6459 109.522 97.1445 109.275L97.5358 109.092L97.6672 109.026L97.5328 109.083L97.1355 109.257C96.6323 109.496 96.1427 109.762 95.6691 110.055C94.9153 110.53 94.2003 111.063 93.5306 111.651C92.7392 112.338 91.8969 113.187 90.983 114.15C85.5383 116.394 77.543 119.688 68.6278 123.351L64.5898 125.019L64.5391 125.04L64.557 125.091C65.7218 128.322 66.8269 131.391 67.8274 134.178L67.8423 134.22H67.8901C73.2482 132.852 77.7222 131.535 80.8343 130.497C82.3904 129.972 83.603 129.516 84.4183 129.177C84.8275 129.015 85.1351 128.862 85.3442 128.772L85.5801 128.661L85.6847 128.595Z" fill="#140000"/>
<path d="M59.6134 77.6401C59.6134 77.6401 56.5789 79.3981 55.9637 81.4621C55.5874 82.7161 52.756 98.7511 52.308 101.913C51.86 105.075 52.8038 107.418 54.1478 108.468C55.4918 109.518 59.5596 110.913 59.5596 110.913L65.2851 112.776L66.9247 108.576L61.4771 100.713L62.0027 95.4151L59.6134 77.6401Z" fill="#262121"/>
<path d="M65.5836 74.8711L67.4772 73.4671C67.4772 73.4671 69.9442 76.0021 72.7785 75.7021C75.6129 75.4021 77.2914 73.2241 77.2914 73.2241L85.7436 74.9551C86.3111 75.0691 87.3445 75.4291 88.3331 76.8481C89.4381 78.4321 94.6678 85.4521 94.6678 85.4521H98.3294C98.8247 85.4523 99.3106 85.5882 99.7348 85.8451C100.159 86.102 100.505 86.4702 100.737 86.9101C101.361 88.1101 102.111 89.7061 102.039 90.3691C101.913 91.4881 102.128 94.5691 100.635 95.5231C100.16 95.8231 98.4609 96.7411 97.1467 96.6811C95.2024 96.5881 92.9445 95.5711 91.6453 94.6591C90.5432 93.8851 87.9836 91.2121 86.998 90.1591V90.1741L86.3649 112.446L64.2127 111.822L59.6133 77.6401C59.6133 77.6401 65.3596 74.8711 65.5836 74.8711Z" fill="#262121"/>
<path d="M87.0765 80.8384C87.0467 80.8384 86.9899 83.5984 86.9481 87.0034C86.9063 90.4084 86.9003 93.1684 86.9332 93.1684C86.966 93.1684 87.0228 90.4114 87.0616 87.0034C87.1004 83.5954 87.1094 80.8384 87.0765 80.8384Z" fill="#807070"/>
<path d="M56.9316 98.8414C56.9316 98.8414 57.1198 98.8714 57.4543 98.9344C57.9263 99.0292 58.3862 99.1771 58.8252 99.3754C59.4769 99.6686 60.0907 100.04 60.653 100.482C61.3436 101.028 61.988 101.63 62.5794 102.282C63.2126 102.969 63.792 103.65 64.3356 104.253C64.8114 104.794 65.3149 105.31 65.8439 105.798C66.2016 106.124 66.5808 106.424 66.9788 106.698C67.1192 106.8 67.2356 106.866 67.3103 106.914C67.3477 106.941 67.3878 106.963 67.4298 106.98C67.3982 106.947 67.362 106.919 67.3223 106.896C67.2506 106.839 67.1401 106.767 67.0057 106.662C66.6186 106.372 66.2486 106.06 65.8976 105.726C65.4526 105.309 64.9508 104.778 64.4043 104.172C63.8577 103.566 63.2903 102.882 62.6541 102.192C62.0576 101.537 61.4061 100.935 60.7068 100.392C60.1357 99.9498 59.5116 99.5809 58.8491 99.2944C58.4026 99.1013 57.9342 98.9642 57.4543 98.8864C57.3238 98.8639 57.1922 98.8489 57.0601 98.8414C57.0174 98.8367 56.9743 98.8367 56.9316 98.8414Z" fill="#807070"/>
<path d="M56.4297 97.332C56.4297 97.353 56.7642 97.401 57.2928 97.548C58.6768 97.9305 59.9325 98.6808 60.9276 99.72C61.3099 100.116 61.5249 100.392 61.5249 100.38C61.4914 100.307 61.4482 100.238 61.3965 100.176C61.2704 99.9962 61.1327 99.8248 60.9844 99.663C60.0088 98.5787 58.7308 97.8145 57.3167 97.47C57.1047 97.4153 56.8891 97.3752 56.6716 97.35C56.5918 97.3358 56.5107 97.3297 56.4297 97.332Z" fill="#807070"/>
<g opacity="0.3">
<path d="M97.6642 93.423C96.4904 93.744 95.0807 92.049 94.0145 90.987C93.462 90.435 92.8855 89.847 92.6824 89.091C92.5358 88.4549 92.5998 87.7882 92.8646 87.192C93.0629 86.6545 93.3246 86.1429 93.6441 85.668C93.5486 86.583 93.3216 87.987 93.6292 89.136C93.8861 90.093 94.4894 90.858 95.1225 91.581C95.7557 92.304 96.6159 93.15 97.6552 93.423" fill="black"/>
</g>
<path d="M92.659 92.4542C92.6829 92.4542 92.5455 92.0642 92.435 91.4252C92.3731 91.0511 92.3372 90.6732 92.3275 90.2942C92.3228 89.8304 92.3547 89.3669 92.4231 88.9082C92.4982 88.4508 92.61 88.0004 92.7576 87.5612C92.8831 87.2029 93.0338 86.854 93.2086 86.5172C93.5072 85.9442 93.7551 85.6172 93.7372 85.6172C93.668 85.6826 93.6068 85.7562 93.555 85.8362C93.4863 85.9228 93.4234 86.014 93.3668 86.1092C93.2838 86.2311 93.207 86.3573 93.1369 86.4872C92.9508 86.8222 92.791 87.1712 92.659 87.5312C92.5033 87.9751 92.3863 88.4319 92.3096 88.8962C92.241 89.3619 92.212 89.8326 92.223 90.3032C92.2373 90.6872 92.2823 91.0694 92.3574 91.4462C92.3842 91.6082 92.4261 91.7462 92.4589 91.8782C92.4853 91.9858 92.5172 92.0919 92.5545 92.1962C92.5827 92.2847 92.6177 92.371 92.659 92.4542Z" fill="#807070"/>
<path d="M76.3694 74.1001C76.3694 74.1301 76.6143 74.2831 76.8861 74.5261C77.1578 74.7691 77.355 75.0001 77.355 74.9791C77.2597 74.768 77.1218 74.579 76.9501 74.4241C76.7784 74.2692 76.5766 74.1517 76.3574 74.0791L76.3694 74.1001Z" fill="#807070"/>
<path d="M74.0701 75.4321C74.0462 75.4561 74.2673 75.6961 74.4465 76.0501C74.6257 76.4041 74.6944 76.7251 74.7302 76.7221C74.7431 76.4682 74.6796 76.2163 74.548 75.9991C74.451 75.765 74.2841 75.5668 74.0701 75.4321Z" fill="#807070"/>
<path d="M70.1152 76.8273C70.2195 76.6143 70.3044 76.3925 70.3691 76.1643C70.4677 75.948 70.5428 75.7217 70.5931 75.4893C70.3136 75.8823 70.1482 76.3454 70.1152 76.8273Z" fill="#807070"/>
<path d="M67.5742 75.6213C67.6071 75.6213 67.6937 75.2403 67.9446 74.8293C68.1954 74.4183 68.4941 74.1603 68.4702 74.1333C68.2046 74.2796 67.9883 74.5021 67.849 74.7723C67.6773 75.0225 67.5819 75.3175 67.5742 75.6213Z" fill="#807070"/>
<path d="M60.2771 82.833C60.2472 82.833 60.6205 85.881 61.1163 89.628C61.6121 93.375 62.0332 96.411 62.0661 96.408C62.0989 96.405 61.7226 93.36 61.2268 89.613C60.731 85.866 60.3099 82.83 60.2771 82.833Z" fill="#807070"/>
<path d="M93.483 87.7593C93.4718 87.864 93.4718 87.9696 93.483 88.0743C93.4899 88.1971 93.5048 88.3194 93.5278 88.4403C93.5427 88.5123 93.5546 88.5873 93.5666 88.6683C93.5785 88.7493 93.6084 88.8303 93.6323 88.9173C93.7387 89.3305 93.8847 89.7324 94.0683 90.1173C94.2967 90.5851 94.5687 91.0301 94.8807 91.4463C95.2005 91.8578 95.564 92.233 95.9649 92.5653C96.2949 92.8343 96.6608 93.0555 97.052 93.2223C97.1357 93.2583 97.2133 93.2943 97.291 93.3213L97.512 93.3843L97.7061 93.4383C97.7658 93.4383 97.8226 93.4533 97.8734 93.4593C97.9721 93.4759 98.0719 93.4849 98.172 93.4863C97.7944 93.4115 97.4252 93.2989 97.07 93.1503C96.693 92.9736 96.3398 92.7498 96.0186 92.4843C95.6271 92.1531 95.2717 91.781 94.9584 91.3743C94.6509 90.9651 94.3801 90.5294 94.149 90.0723C93.966 89.6944 93.8142 89.3021 93.695 88.8993C93.5188 88.2003 93.5128 87.7563 93.483 87.7593Z" fill="#807070"/>
<g opacity="0.3">
<path d="M60.9905 113.217C60.0497 112.761 59.8376 111.537 59.7421 110.493C59.4613 107.433 59.1796 104.374 58.8968 101.316C58.7654 99.876 58.7027 98.235 59.7122 97.206C60.6351 96.267 62.1015 96.21 63.4127 96.213C71.5215 96.237 78.6835 96.477 86.7923 96.513L86.3802 110.763L60.9905 113.217Z" fill="black"/>
</g>
<path d="M90.2877 98.7001L89.4246 115.227C89.4078 115.534 89.2745 115.822 89.0523 116.033C88.83 116.244 88.5357 116.362 88.2299 116.361L62.0249 116.409C61.7182 116.409 61.423 116.291 61.2006 116.079C60.9782 115.867 60.8456 115.577 60.8303 115.269L59.8297 99.0211C59.7969 98.3491 60.2747 97.4491 60.9557 97.4371H89.0811C89.2444 97.4352 89.4064 97.467 89.557 97.5305C89.7076 97.594 89.8436 97.6878 89.9567 97.8061C90.0698 97.9245 90.1575 98.0649 90.2144 98.2187C90.2714 98.3724 90.2963 98.5363 90.2877 98.7001Z" fill="#E0E0E0"/>
<path d="M90.2875 98.7002C90.2888 98.6802 90.2888 98.6601 90.2875 98.6402C90.2927 98.5783 90.2927 98.516 90.2875 98.4542C90.2564 98.2447 90.1707 98.0471 90.0391 97.8817C89.9074 97.7162 89.7345 97.5888 89.5379 97.5122C89.3354 97.4379 89.1197 97.4073 88.9047 97.4222H87.3128L77.1581 97.4042L62.0964 97.3892H61.0271C60.8369 97.3805 60.6485 97.4296 60.4866 97.5302C60.328 97.6325 60.1918 97.7662 60.0863 97.9232C59.8725 98.2368 59.758 98.608 59.7578 98.9882C59.7787 99.3572 59.8026 99.7292 59.8235 100.101C59.9131 101.601 60.0087 103.101 60.1013 104.652C60.2924 107.745 60.4895 110.952 60.6986 114.225L60.7374 114.825C60.7554 115.032 60.7524 115.23 60.7882 115.446C60.8303 115.656 60.9248 115.851 61.0627 116.014C61.2007 116.176 61.3775 116.301 61.5767 116.376C61.7742 116.445 61.9833 116.473 62.1919 116.46H63.9839H68.6879L77.5822 116.439L85.6313 116.421H87.489H87.943C88.0976 116.423 88.2522 116.416 88.4059 116.4C88.7093 116.358 88.9868 116.206 89.1856 115.972C89.3844 115.738 89.4906 115.439 89.4841 115.131C89.499 114.831 89.514 114.561 89.5289 114.279C89.5588 113.715 89.5857 113.166 89.6125 112.629C89.8306 108.33 90.0068 104.85 90.1262 102.429C90.186 101.229 90.2308 100.296 90.2606 99.6602C90.2756 99.3452 90.2875 99.1052 90.2935 98.9402C90.2995 98.7752 90.2935 98.6942 90.2935 98.6942L90.2756 98.9402C90.2756 99.1052 90.2517 99.3452 90.2338 99.6602C90.1979 100.296 90.1442 101.226 90.0785 102.429C89.947 104.829 89.7589 108.312 89.5259 112.611C89.499 113.148 89.4692 113.7 89.4393 114.261C89.4254 114.543 89.4104 114.828 89.3945 115.116C89.3979 115.401 89.3005 115.677 89.1197 115.896C88.9332 116.116 88.6728 116.259 88.388 116.298C88.2408 116.309 88.0931 116.309 87.946 116.298H85.6283H77.5793H68.685H63.981H62.189C61.9948 116.312 61.7998 116.286 61.6155 116.223C61.434 116.154 61.2727 116.04 61.1469 115.892C61.021 115.743 60.9346 115.565 60.8957 115.374C60.8629 115.188 60.8629 114.972 60.8479 114.774L60.8091 114.174C60.606 110.895 60.4089 107.694 60.2118 104.601C60.1162 103.056 60.0206 101.535 59.9131 100.05C59.8922 99.6782 59.8683 99.3092 59.8474 98.9402C59.8449 98.5837 59.949 98.2346 60.1461 97.9382C60.2328 97.7884 60.3576 97.6645 60.5077 97.5791C60.6578 97.4937 60.8278 97.4499 61.0003 97.4522H62.0695H77.1283L87.2829 97.4342H88.8748C89.0863 97.4163 89.2991 97.4439 89.499 97.5152C89.6638 97.58 89.8111 97.6828 89.9291 97.8152C90.0951 97.9885 90.2054 98.208 90.2457 98.4452C90.2642 98.5293 90.2781 98.6145 90.2875 98.7002Z" fill="#807070"/>
<path d="M73.3086 106.767C73.3086 107.074 73.3992 107.374 73.5688 107.629C73.7385 107.884 73.9796 108.083 74.2618 108.2C74.5439 108.318 74.8544 108.348 75.1539 108.289C75.4535 108.229 75.7286 108.081 75.9445 107.864C76.1605 107.647 76.3076 107.371 76.3671 107.07C76.4267 106.769 76.3961 106.457 76.2793 106.174C76.1624 105.89 75.9645 105.648 75.7106 105.478C75.4566 105.307 75.1581 105.216 74.8527 105.216C74.4434 105.217 74.0511 105.381 73.7617 105.671C73.4723 105.962 73.3094 106.356 73.3086 106.767Z" fill="white"/>
<path d="M73.3082 106.767C73.3232 106.767 73.3082 106.629 73.3799 106.395C73.4709 106.063 73.6696 105.772 73.9444 105.567C74.1663 105.4 74.4301 105.298 74.7063 105.273C74.9825 105.248 75.2602 105.301 75.5082 105.425C75.7563 105.55 75.9649 105.741 76.1107 105.978C76.2565 106.215 76.3337 106.488 76.3337 106.767C76.3338 106.987 76.2857 107.204 76.193 107.403C76.1002 107.602 75.9649 107.779 75.7968 107.919C75.6287 108.06 75.4318 108.162 75.22 108.218C75.0083 108.274 74.7869 108.283 74.5716 108.243C74.342 108.202 74.1251 108.107 73.9384 107.967C73.6636 107.762 73.4649 107.47 73.3739 107.139C73.3112 106.905 73.3172 106.767 73.3023 106.767C73.2977 106.8 73.2977 106.833 73.3023 106.866C73.3029 106.962 73.3139 107.057 73.3351 107.151C73.4138 107.5 73.6113 107.811 73.8936 108.03C74.0888 108.182 74.3171 108.284 74.5596 108.33C74.839 108.385 75.1278 108.363 75.3959 108.267C75.6947 108.162 75.9543 107.967 76.1396 107.709C76.3303 107.451 76.4388 107.14 76.4509 106.819C76.4629 106.497 76.378 106.18 76.2072 105.907C76.0363 105.635 75.7876 105.421 75.4936 105.294C75.1996 105.166 74.8741 105.131 74.5596 105.192C74.3171 105.237 74.0888 105.34 73.8936 105.492C73.6111 105.712 73.4136 106.024 73.3351 106.374C73.3138 106.467 73.3028 106.563 73.3023 106.659C73.2988 106.695 73.3008 106.731 73.3082 106.767Z" fill="#807070"/>
<path d="M89.4058 100.536C89.3729 100.536 89.2445 103.311 89.1071 106.737C88.9697 110.163 88.901 112.944 88.9339 112.944C88.9668 112.944 89.0922 110.169 89.2326 106.743C89.3729 103.317 89.4357 100.536 89.4058 100.536Z" fill="#807070"/>
<path d="M97.2824 78.9749C97.4347 78.8429 96.7657 76.2479 96.7657 76.2479C96.7657 76.2479 98.5427 73.3349 98.5905 72.3959C98.6383 71.4569 97.8887 69.5279 97.8887 69.5279L92.7874 68.2109C92.7874 68.2109 91.1507 71.2679 90.8222 72.3479C90.4937 73.4279 91.3927 77.0999 91.3927 77.0999L92.2558 78.9809C92.2558 78.9809 94.8542 81.0419 97.2824 78.9749Z" fill="#FFBE9D"/>
<path d="M98.5773 72.9572C98.7766 72.5881 98.9561 72.2086 99.1149 71.8202C99.4374 71.0492 99.8347 70.2962 99.1149 69.8642C99.003 69.7901 98.8765 69.741 98.7441 69.7203C98.6117 69.6996 98.4763 69.7077 98.3473 69.7442C98.3473 69.7442 98.4578 69.0962 98.0725 68.8442C97.9609 68.7735 97.8341 68.7306 97.7027 68.7191C97.5712 68.7076 97.439 68.7279 97.3169 68.7782C97.3169 68.7782 97.4364 67.8782 96.8838 67.4792C96.6754 67.3414 96.4329 67.2645 96.1834 67.2571C95.934 67.2497 95.6874 67.312 95.4711 67.4372C95.4711 67.4372 95.9102 63.4412 95.949 63.2372C96.0864 62.4602 95.8027 61.7732 95.0321 61.9652C94.7484 62.0342 94.5931 62.3342 94.2615 63.6362C93.93 64.9382 93.3984 67.1582 93.3984 67.1582C93.3984 67.1582 92.5024 68.7212 92.0813 69.5582C91.6602 70.3952 90.8209 72.3362 90.7522 72.8582C90.57 74.1812 91.3495 75.9332 91.3495 75.9332L96.7703 76.2332C96.7703 76.2332 98.3712 73.3352 98.5773 72.9572Z" fill="#FFBE9D"/>
<path d="M98.2406 69.915C98.0868 70.1045 97.9471 70.305 97.8225 70.515L97.3924 71.172C97.3028 71.3008 97.2249 71.4374 97.1594 71.58C97.0831 71.7416 97.0611 71.9238 97.0967 72.099C97.1123 72.1909 97.1521 72.277 97.212 72.3482C97.2718 72.4194 97.3496 72.4732 97.4372 72.504C97.6013 72.5449 97.7746 72.5235 97.924 72.444C98.0508 72.3798 98.1717 72.3045 98.2854 72.219C98.3929 72.141 98.4915 72.069 98.5841 71.997C98.7603 71.859 98.8977 71.742 98.9873 71.658C99.0769 71.574 99.1276 71.523 99.1217 71.517C99.1157 71.511 98.8977 71.676 98.5243 71.934C98.3197 72.0893 98.103 72.2277 97.8762 72.348C97.7498 72.4123 97.6048 72.4293 97.4671 72.396C97.3981 72.3715 97.337 72.3288 97.2902 72.2723C97.2434 72.2158 97.2127 72.1476 97.2013 72.075C97.1723 71.9231 97.1911 71.7658 97.255 71.625C97.3173 71.4869 97.3912 71.3544 97.476 71.229L97.8822 70.56C98.0196 70.3556 98.1395 70.1398 98.2406 69.915Z" fill="#EB996E"/>
<path d="M93.7809 70.392C93.8297 70.1056 93.8103 69.8115 93.7241 69.534C93.6755 69.2488 93.5598 68.9793 93.3866 68.748C93.3568 68.763 93.5091 69.111 93.6136 69.561C93.7181 70.011 93.76 70.392 93.7809 70.392Z" fill="#EB996E"/>
<path d="M91.6465 71.5591C92.146 71.0719 92.776 70.7415 93.4594 70.6081C94.1404 70.4771 94.8373 70.4508 95.5262 70.5301C96.0757 70.5781 96.7208 70.7221 96.9568 71.2171C97.1927 71.7121 96.906 72.3871 96.4162 72.6781C95.9017 72.9353 95.32 73.0245 94.7526 72.9331C94.1901 72.8398 93.6183 72.8167 93.0502 72.8641" fill="#FFBE9D"/>
<path d="M93.0505 72.8642C93.0505 72.8642 93.2028 72.8642 93.4776 72.8642C93.8665 72.8811 94.2543 72.9182 94.6394 72.9752C94.9097 73.0097 95.1825 73.0207 95.4547 73.0082C95.7725 72.9989 96.0844 72.92 96.3687 72.7772C96.688 72.6111 96.931 72.3273 97.0466 71.9852C97.1092 71.803 97.1226 71.6073 97.0855 71.4182C97.0399 71.2242 96.9356 71.0491 96.7868 70.9172C96.4867 70.6814 96.1242 70.5395 95.7444 70.5092C95.4023 70.4697 95.0584 70.4487 94.714 70.4462C94.1288 70.4352 93.5461 70.5245 92.9907 70.7102C92.6161 70.8368 92.2656 71.0265 91.9544 71.2712C91.8719 71.3378 91.7931 71.4089 91.7184 71.4842C91.6676 71.5382 91.6437 71.5682 91.6467 71.5712C91.6497 71.5742 91.7602 71.4662 91.9812 71.3042C92.2968 71.0784 92.6454 70.9033 93.0146 70.7852C93.5651 70.6167 94.1388 70.5377 94.714 70.5512C95.0535 70.5572 95.3924 70.5802 95.7295 70.6202C96.086 70.6489 96.4264 70.7813 96.7091 71.0012C96.8409 71.1184 96.9336 71.2734 96.9749 71.4452C97.008 71.6144 96.9956 71.7894 96.9391 71.9522C96.8332 72.2672 96.6108 72.5293 96.3179 72.6842C96.048 72.8228 95.7516 72.9016 95.4488 72.9152C95.1818 72.9283 94.9142 72.9213 94.6483 72.8942C94.2602 72.8427 93.8691 72.8176 93.4776 72.8192C93.3715 72.823 93.2658 72.833 93.161 72.8492C93.0863 72.8492 93.0505 72.8582 93.0505 72.8642Z" fill="#EB996E"/>
<path d="M98.2016 69.9782C97.6312 70.8482 97.1264 71.8052 96.6456 72.7292C96.5312 73.0109 96.3434 73.2565 96.102 73.4402C95.8959 73.5662 95.3852 73.3352 95.1582 73.2572L96.7232 69.6782" fill="#FFBE9D"/>
<path d="M96.7227 69.6782C96.6693 69.763 96.6233 69.8524 96.5854 69.9452L96.2389 70.6952C95.9402 71.3312 95.549 72.2252 95.107 73.2332L95.0801 73.2902L95.1398 73.3112C95.3185 73.3831 95.501 73.4452 95.6864 73.4972C95.7647 73.517 95.8447 73.529 95.9253 73.5332C95.9686 73.5355 96.0121 73.5304 96.0537 73.5182C96.0962 73.508 96.136 73.4886 96.1702 73.4612C96.2965 73.3697 96.404 73.2546 96.4868 73.1222C96.6481 72.8672 96.7616 72.6122 96.89 72.3782C97.1349 71.9012 97.3589 71.4782 97.556 71.1212C97.7531 70.7642 97.9144 70.4822 98.0309 70.2872C98.0948 70.1915 98.1516 70.0912 98.2011 69.9872C98.1218 70.0801 98.0518 70.1806 97.9921 70.2872C97.8666 70.4762 97.6934 70.7522 97.4873 71.1032C97.2813 71.4542 97.0483 71.8772 96.7974 72.3512C96.666 72.5852 96.5465 72.8462 96.3942 73.0832C96.3152 73.2019 96.2137 73.3039 96.0955 73.3832C96.0351 73.4148 95.9685 73.4328 95.9004 73.4359C95.8323 73.439 95.7644 73.4272 95.7013 73.4012C95.519 73.3497 95.3396 73.2886 95.1637 73.2182L95.1966 73.2962C95.6386 72.2822 96.0239 71.3852 96.2957 70.7402L96.6093 69.9752C96.656 69.8799 96.694 69.7805 96.7227 69.6782Z" fill="#EB996E"/>
<path d="M97.1469 68.6133C96.6432 69.8813 96.1394 71.1493 95.6357 72.4173C95.5431 72.6931 95.4059 72.9515 95.2295 73.1823C95.1387 73.2955 95.022 73.3848 94.8894 73.4428C94.7568 73.5008 94.6122 73.5257 94.4679 73.5153C94.2748 73.4646 94.1042 73.3505 93.983 73.1913C93.8618 73.0321 93.797 72.8368 93.7989 72.6363C93.8108 72.2358 93.9065 71.8423 94.0796 71.4813C94.533 70.3256 94.8955 69.136 95.1638 67.9233" fill="#FFBE9D"/>
<path d="M95.1647 67.9233C95.1467 67.9594 95.1336 67.9978 95.1259 68.0373L95.0363 68.3733C94.9586 68.6733 94.8451 69.0873 94.6868 69.6033C94.5285 70.1193 94.3195 70.7283 94.0596 71.4033C93.9006 71.7484 93.7939 72.1155 93.743 72.4923C93.7288 72.6991 93.769 72.9061 93.8595 73.0923C93.9485 73.2941 94.1109 73.454 94.3135 73.5393C94.4165 73.5767 94.5264 73.5915 94.6356 73.5827C94.7448 73.5739 94.8509 73.5417 94.9467 73.4883C95.1291 73.3886 95.2825 73.2428 95.3917 73.0653C95.5734 72.7352 95.7263 72.3899 95.8486 72.0333C96.1085 71.3703 96.3414 70.7733 96.5386 70.2633L96.9955 69.0633C97.0433 68.9313 97.0821 68.8233 97.112 68.7363C97.1285 68.6989 97.1405 68.6596 97.1478 68.6193C97.1236 68.6522 97.1044 68.6886 97.0911 68.7273C97.0552 68.8143 97.0075 68.9193 96.9537 69.0483L96.4699 70.2243C96.2668 70.7313 96.0248 71.3253 95.759 71.9853C95.6357 72.3343 95.4839 72.6725 95.3051 72.9963C95.2054 73.156 95.0666 73.2872 94.9019 73.3773C94.8205 73.4239 94.7301 73.4523 94.6368 73.4606C94.5435 73.4689 94.4495 73.4569 94.3613 73.4253C94.1863 73.3489 94.0458 73.2099 93.967 73.0353C93.8841 72.865 93.8481 72.6754 93.8625 72.4863C93.9073 72.121 94.008 71.7648 94.1612 71.4303C94.418 70.7613 94.6151 70.1463 94.7585 69.6303C94.9019 69.1143 95.0124 68.6823 95.0781 68.3883C95.1079 68.2383 95.1318 68.1243 95.1468 68.0463C95.1583 68.0064 95.1644 67.965 95.1647 67.9233Z" fill="#EB996E"/>
<path d="M100.62 88.2751C100.483 87.7711 97.0364 77.5321 97.0364 77.5321L91.3379 76.8481L93.6675 85.6681C93.6675 85.6681 93.3061 87.9091 93.6675 89.2351C94.0289 90.5611 96.9528 94.1701 98.4462 93.3031C99.9395 92.4361 100.755 88.7791 100.62 88.2751Z" fill="#FFBE9D"/>
<path d="M93.6562 75.9424C93.7666 75.956 93.8785 75.9416 93.9818 75.9004C94.2379 75.8202 94.4732 75.6843 94.6709 75.5023C94.8687 75.3203 95.0239 75.0966 95.1257 74.8474C95.1744 74.7476 95.198 74.6374 95.1944 74.5264C95.052 74.8607 94.8495 75.1658 94.5971 75.4264C94.3185 75.6561 93.9993 75.8312 93.6562 75.9424Z" fill="#EB996E"/>
</svg>
