<svg width="24" height="24" viewBox="0 0 24 24" fill="none" xmlns="http://www.w3.org/2000/svg">
<rect x="0.25" y="0.25" width="23.5" height="23.5" rx="0.25" fill="#594E4E" stroke="#594E4E" stroke-width="0.5"/>
<path d="M10.1167 17.3279C10.0369 17.4077 9.90759 17.4077 9.8278 17.3279L8.6721 16.1722C8.59232 16.0924 8.59232 15.9631 8.6721 15.8833L18.4955 6.05984C18.5753 5.98005 18.7047 5.98005 18.7845 6.05984L19.9402 7.21554C20.0199 7.29532 20.0199 7.42468 19.9402 7.50446L10.1167 17.3279Z" fill="white"/>
<path d="M11.2717 15.884C11.3515 15.9638 11.3515 16.0931 11.2717 16.1729L10.1167 17.3279C10.0369 17.4077 9.90759 17.4077 9.8278 17.3279L5.05984 12.5614C4.98005 12.4816 4.98005 12.3522 5.05984 12.2724L6.21554 11.1167C6.29532 11.0369 6.42468 11.0369 6.50446 11.1167L11.2717 15.884Z" fill="white"/>
</svg>
