<svg width="32" height="32" viewBox="0 0 32 32" fill="none" xmlns="http://www.w3.org/2000/svg">
<path d="M5.44577 8.76C5.39243 8.76 5.34443 8.74134 5.30177 8.704C5.26443 8.66667 5.24577 8.61867 5.24577 8.56V4.584L4.09377 5.472C4.04577 5.50934 3.9951 5.52267 3.94177 5.512C3.89377 5.50134 3.8511 5.472 3.81377 5.424L3.41377 4.904C3.38177 4.856 3.36843 4.80534 3.37377 4.752C3.38443 4.69867 3.41377 4.656 3.46177 4.624L5.28577 3.216C5.31777 3.19467 5.3471 3.18134 5.37377 3.176C5.40577 3.16534 5.44043 3.16 5.47777 3.16H6.32577C6.3791 3.16 6.42443 3.17867 6.46177 3.216C6.4991 3.25334 6.51777 3.30134 6.51777 3.36V8.56C6.51777 8.61867 6.4991 8.66667 6.46177 8.704C6.42443 8.74134 6.3791 8.76 6.32577 8.76H5.44577Z" fill="white"/>
<path d="M3.15267 18.76C3.09401 18.76 3.04601 18.7413 3.00867 18.704C2.97134 18.6667 2.95267 18.6187 2.95267 18.56V18.08C2.95267 18.0373 2.96334 17.9813 2.98467 17.912C3.01134 17.8373 3.06734 17.7653 3.15267 17.696L4.20867 16.648C4.59801 16.3493 4.91267 16.096 5.15267 15.888C5.39801 15.68 5.57934 15.4907 5.69667 15.32C5.81401 15.1493 5.87267 14.984 5.87267 14.824C5.87267 14.616 5.81401 14.4453 5.69667 14.312C5.58467 14.1733 5.40067 14.104 5.14467 14.104C4.97401 14.104 4.83001 14.1413 4.71267 14.216C4.60067 14.2853 4.51267 14.3787 4.44867 14.496C4.38467 14.6133 4.34201 14.7413 4.32067 14.88C4.30467 14.9493 4.27001 14.9973 4.21667 15.024C4.16867 15.0507 4.11801 15.064 4.06467 15.064H3.21667C3.16334 15.064 3.12067 15.048 3.08867 15.016C3.05667 14.9787 3.04067 14.9387 3.04067 14.896C3.04601 14.6507 3.09667 14.4187 3.19267 14.2C3.29401 13.9813 3.43534 13.7867 3.61667 13.616C3.79801 13.4453 4.01667 13.312 4.27267 13.216C4.52867 13.1147 4.81934 13.064 5.14467 13.064C5.59267 13.064 5.96867 13.1387 6.27267 13.288C6.57667 13.432 6.80601 13.632 6.96067 13.888C7.11534 14.144 7.19267 14.44 7.19267 14.776C7.19267 15.032 7.13934 15.2693 7.03267 15.488C6.93134 15.7067 6.78201 15.9173 6.58467 16.12C6.38734 16.3173 6.15267 16.5227 5.88067 16.736L4.93667 17.68H7.11267C7.17134 17.68 7.21934 17.6987 7.25667 17.736C7.294 17.7733 7.31267 17.8213 7.31267 17.88V18.56C7.31267 18.6187 7.294 18.6667 7.25667 18.704C7.21934 18.7413 7.17134 18.76 7.11267 18.76H3.15267Z" fill="white"/>
<path d="M5.11361 28.84C4.71894 28.84 4.38028 28.792 4.09761 28.696C3.81494 28.6 3.58294 28.4773 3.40161 28.328C3.22028 28.1787 3.08428 28.016 2.99361 27.84C2.90294 27.6587 2.85494 27.4853 2.84961 27.32C2.84961 27.272 2.86561 27.232 2.89761 27.2C2.92961 27.168 2.96961 27.152 3.01761 27.152H3.89761C3.95628 27.152 4.00428 27.1653 4.04161 27.192C4.07894 27.2133 4.11361 27.2533 4.14561 27.312C4.18828 27.4347 4.25761 27.5333 4.35361 27.608C4.44961 27.6827 4.56161 27.736 4.68961 27.768C4.82294 27.7947 4.96428 27.808 5.11361 27.808C5.41228 27.808 5.64694 27.7387 5.81761 27.6C5.98828 27.4613 6.07361 27.2667 6.07361 27.016C6.07361 26.76 5.99361 26.576 5.83361 26.464C5.67361 26.352 5.44694 26.296 5.15361 26.296H4.29761C4.24428 26.296 4.19894 26.2773 4.16161 26.24C4.12428 26.2027 4.10561 26.1573 4.10561 26.104V25.712C4.10561 25.648 4.11628 25.5947 4.13761 25.552C4.16428 25.5093 4.19094 25.4773 4.21761 25.456L5.59361 24.192H3.33761C3.27894 24.192 3.23094 24.1733 3.19361 24.136C3.15628 24.0987 3.13761 24.0533 3.13761 24V23.36C3.13761 23.3013 3.15628 23.2533 3.19361 23.216C3.23094 23.1787 3.27894 23.16 3.33761 23.16H6.88961C6.94828 23.16 6.99628 23.1787 7.03361 23.216C7.07094 23.2533 7.08961 23.3013 7.08961 23.36V23.936C7.08961 23.9947 7.07894 24.0453 7.05761 24.088C7.03628 24.1253 7.00961 24.1547 6.97761 24.176L5.67361 25.464L5.75361 25.472C6.06828 25.504 6.34828 25.5813 6.59361 25.704C6.83894 25.8267 7.03094 26.0027 7.16961 26.232C7.31361 26.456 7.38561 26.7413 7.38561 27.088C7.38561 27.4507 7.28694 27.7627 7.08961 28.024C6.89228 28.2853 6.62294 28.488 6.28161 28.632C5.94028 28.7707 5.55094 28.84 5.11361 28.84Z" fill="white"/>
<path d="M11.1438 5.51C11.1438 5.37193 11.2558 5.26 11.3938 5.26H28.8938C29.0319 5.26 29.1438 5.37193 29.1438 5.51V7.01C29.1438 7.14808 29.0319 7.26 28.8938 7.26H11.3938C11.2558 7.26 11.1438 7.14808 11.1438 7.01V5.51Z" fill="white"/>
<path d="M11.1438 15.51C11.1438 15.3719 11.2558 15.26 11.3938 15.26H28.8938C29.0319 15.26 29.1438 15.3719 29.1438 15.51V17.01C29.1438 17.1481 29.0319 17.26 28.8938 17.26H11.3938C11.2558 17.26 11.1438 17.1481 11.1438 17.01V15.51Z" fill="white"/>
<path d="M11.1438 25.01C11.1438 24.8719 11.2558 24.76 11.3938 24.76H28.8938C29.0319 24.76 29.1438 24.8719 29.1438 25.01V26.51C29.1438 26.6481 29.0319 26.76 28.8938 26.76H11.3938C11.2558 26.76 11.1438 26.6481 11.1438 26.51V25.01Z" fill="white"/>
</svg>
