<svg width="16" height="16" viewBox="0 0 16 16" fill="none" xmlns="http://www.w3.org/2000/svg">
<path d="M1.13822 5.98746C1.04059 5.88983 1.04059 5.73154 1.13822 5.63391L2.19888 4.57325C2.29651 4.47561 2.4548 4.47561 2.55243 4.57325L9.26995 11.2908C9.36758 11.3884 9.36758 11.5467 9.26994 11.6443L8.20928 12.705C8.11165 12.8026 7.95336 12.8026 7.85573 12.705L1.13822 5.98746Z" fill="white"/>
<path d="M8.20928 12.705C8.11165 12.8026 7.95336 12.8026 7.85573 12.705L6.79505 11.6443C6.69742 11.5467 6.69742 11.3884 6.79505 11.2907L13.5126 4.57322C13.6102 4.47559 13.7685 4.47559 13.8661 4.57322L14.9268 5.63388C15.0244 5.73151 15.0244 5.88981 14.9268 5.98744L8.20928 12.705Z" fill="white"/>
</svg>
