<svg width="40" height="56" viewBox="0 0 40 56" fill="none" xmlns="http://www.w3.org/2000/svg">
<rect width="40" height="56" rx="1" fill="#140000"/>
<mask id="mask0_221_32933" style="mask-type:luminance" maskUnits="userSpaceOnUse" x="6" y="16" width="28" height="25">
<path d="M34 16.6299H6V40.0017H34V16.6299Z" fill="white"/>
</mask>
<g mask="url(#mask0_221_32933)">
<path d="M20.0008 32.9863C19.7616 32.9863 19.5329 32.8881 19.3684 32.7152L13.2435 26.2895C12.7126 25.7334 13.107 24.8081 13.8758 24.8081H17.0841V18.0903C17.0841 17.2853 17.7386 16.6299 18.5424 16.6299H21.4591C22.263 16.6299 22.9174 17.2853 22.9174 18.0903V24.8081H26.1258C26.8947 24.8081 27.289 25.7334 26.7581 26.2895L20.6331 32.7152C20.4686 32.8881 20.2399 32.9863 20.0008 32.9863Z" fill="white"/>
<path opacity="0.3" d="M31.9583 39.996H8.04167C6.91583 39.996 6 39.0788 6 37.9515V37.3673C6 36.2398 6.91583 35.3228 8.04167 35.3228H31.9583C33.0841 35.3228 34 36.2398 34 37.3673V37.9515C34 39.0788 33.0841 39.996 31.9583 39.996Z" fill="white"/>
</g>
</svg>
