<svg width="46" height="16" viewBox="0 0 46 16" fill="none" xmlns="http://www.w3.org/2000/svg">
<path fill-rule="evenodd" clip-rule="evenodd" d="M24 16C28.4183 16 32 12.4183 32 8C32 3.58172 28.4183 0 24 0C19.5817 0 16 3.58172 16 8C16 12.4183 19.5817 16 24 16ZM25 4C25 3.44772 24.5523 3 24 3C23.4477 3 23 3.44772 23 4V8C23 8.26522 23.1054 8.51957 23.2929 8.70711L26.1213 11.5355C26.5118 11.9261 27.145 11.9261 27.5355 11.5355C27.9261 11.145 27.9261 10.5118 27.5355 10.1213L25 7.58579V4Z" fill="#AD1519"/>
<path d="M10 8H14V9H10V8Z" fill="#FABD00"/>
<path d="M34 8H38V9H34V8Z" fill="#FABD00"/>
<path d="M5 8H9V9H5V8Z" fill="#FABD00"/>
<path d="M43.2453 6.85183L43.7971 6.30005L46.0042 8.50717L45.4525 9.05895L43.2453 6.85183Z" fill="#FABD00"/>
<path d="M45.4525 7.95539L46.0042 8.50717L43.7971 10.7143L43.2453 10.1625L45.4525 7.95539Z" fill="#FABD00"/>
<path d="M0 8H4V9H0V8Z" fill="#FABD00"/>
<path d="M39 8H43V9H39V8Z" fill="#FABD00"/>
</svg>
