<svg width="56" height="46" viewBox="0 0 56 46" fill="none" xmlns="http://www.w3.org/2000/svg">
<path d="M47.5354 16.9302C52.2106 16.9302 56.0005 13.1403 56.0005 8.46512C56.0005 3.78996 52.2106 0 47.5354 0C42.8603 0 39.0703 3.78996 39.0703 8.46512C39.0703 13.1403 42.8603 16.9302 47.5354 16.9302Z" fill="#FABD00"/>
<path fill-rule="evenodd" clip-rule="evenodd" d="M39.9918 16.5629L28.3907 25.265C28.2782 25.35 28.141 25.3959 28 25.3959C27.859 25.3959 27.7218 25.35 27.6093 25.265L3.35479 7.07414C4.13098 6.70688 4.9853 6.51154 5.86047 6.51154H36.637C36.308 8.33386 36.4429 10.2097 37.0291 11.9662C37.6154 13.7227 38.6342 15.3035 39.9918 16.5629ZM56 15.594V39.7208C56 40.6247 55.7916 41.505 55.4009 42.302L38.3248 22.6994L43.5367 18.7899C45.6877 19.6253 48.0463 19.7664 50.2816 19.1932C52.5168 18.62 54.5165 17.3614 56 15.594ZM52.6035 45.0369C51.8318 45.3962 50.9908 45.582 50.1395 45.5813H5.86047C5.00093 45.5813 4.16223 45.3938 3.39647 45.0369L20.8086 25.0488L25.2651 28.3906C26.0539 28.9828 27.0136 29.3029 28 29.3029C28.9863 29.3029 29.9461 28.9828 30.7349 28.3906L35.1914 25.0488L52.6035 45.0369ZM0.59907 42.302C0.204932 41.4987 3.81259e-06 40.6157 0 39.7208V12.372C0 11.4968 0.195349 10.6399 0.562605 9.86372L17.6752 22.6994L0.59907 42.302Z" fill="#AD1519"/>
</svg>
