<svg width="56" height="56" viewBox="0 0 56 56" fill="none" xmlns="http://www.w3.org/2000/svg">
<rect width="56" height="56" rx="1" fill="#F52A2A"/>
<path d="M19.4756 38.7245C19.3237 38.8763 19.0775 38.8763 18.9256 38.7245L17.2757 37.0745C17.1238 36.9227 17.1238 36.6764 17.2757 36.5246L27.7252 26.0751C27.8771 25.9232 28.1233 25.9232 28.2752 26.0751L29.9251 27.725C30.077 27.8768 30.077 28.1231 29.9251 28.2749L19.4756 38.7245Z" fill="white"/>
<path d="M29.9251 27.725C30.077 27.8768 30.077 28.1231 29.9251 28.2749L28.2752 29.9249C28.1233 30.0768 27.8771 30.0768 27.7252 29.9249L17.2757 19.4754C17.1238 19.3236 17.1238 19.0773 17.2757 18.9255L18.9256 17.2755C19.0775 17.1237 19.3237 17.1237 19.4756 17.2755L29.9251 27.725Z" fill="white"/>
<path d="M19.4756 38.7245C19.3237 38.8763 19.0775 38.8763 18.9256 38.7245L17.2757 37.0745C17.1238 36.9227 17.1238 36.6764 17.2757 36.5246L27.7252 26.0751C27.8771 25.9232 28.1233 25.9232 28.2752 26.0751L29.9251 27.725C30.077 27.8768 30.077 28.1231 29.9251 28.2749L19.4756 38.7245Z" fill="white"/>
<path d="M29.9251 27.725C30.077 27.8768 30.077 28.1231 29.9251 28.2749L28.2752 29.9249C28.1233 30.0768 27.8771 30.0768 27.7252 29.9249L17.2757 19.4754C17.1238 19.3236 17.1238 19.0773 17.2757 18.9255L18.9256 17.2755C19.0775 17.1237 19.3237 17.1237 19.4756 17.2755L29.9251 27.725Z" fill="white"/>
<path d="M38.7247 36.5245C38.8765 36.6764 38.8765 36.9226 38.7247 37.0745L37.0747 38.7244C36.9229 38.8763 36.6766 38.8763 36.5248 38.7244L26.0753 28.2749C25.9234 28.1231 25.9234 27.8768 26.0753 27.725L27.7252 26.0751C27.8771 25.9232 28.1233 25.9232 28.2752 26.0751L38.7247 36.5245Z" fill="white"/>
<path d="M27.7252 26.0751C27.8771 25.9232 28.1233 25.9232 28.2752 26.0751L29.9251 27.725C30.077 27.8768 30.077 28.1231 29.9251 28.2749L19.4756 38.7245C19.3237 38.8763 19.0775 38.8763 18.9256 38.7245L17.2757 37.0745C17.1238 36.9227 17.1238 36.6764 17.2757 36.5246L27.7252 26.0751Z" fill="white"/>
<path d="M38.7247 36.5245C38.8765 36.6764 38.8765 36.9226 38.7247 37.0745L37.0747 38.7244C36.9229 38.8763 36.6766 38.8763 36.5248 38.7244L26.0753 28.2749C25.9234 28.1231 25.9234 27.8768 26.0753 27.725L27.7252 26.0751C27.8771 25.9232 28.1233 25.9232 28.2752 26.0751L38.7247 36.5245Z" fill="white"/>
<path d="M27.7252 26.0751C27.8771 25.9232 28.1233 25.9232 28.2752 26.0751L29.9251 27.725C30.077 27.8768 30.077 28.1231 29.9251 28.2749L19.4756 38.7245C19.3237 38.8763 19.0775 38.8763 18.9256 38.7245L17.2757 37.0745C17.1238 36.9227 17.1238 36.6764 17.2757 36.5246L27.7252 26.0751Z" fill="white"/>
<path d="M36.5248 38.7244C36.6766 38.8763 36.9229 38.8763 37.0747 38.7244L38.7247 37.0745C38.8765 36.9226 38.8765 36.6764 38.7247 36.5245L28.2752 26.0751C28.1233 25.9232 27.8771 25.9232 27.7252 26.0751L26.0753 27.725C25.9234 27.8768 25.9234 28.1231 26.0753 28.2749L36.5248 38.7244Z" fill="white"/>
<path d="M26.0753 27.725C25.9234 27.8768 25.9234 28.1231 26.0753 28.2749L27.7252 29.9249C27.8771 30.0768 28.1233 30.0768 28.2752 29.9249L38.7246 19.4755C38.8765 19.3236 38.8765 19.0774 38.7246 18.9255L37.0747 17.2756C36.9229 17.1237 36.6766 17.1237 36.5248 17.2756L26.0753 27.725Z" fill="white"/>
<path d="M36.5248 38.7244C36.6766 38.8763 36.9229 38.8763 37.0747 38.7244L38.7247 37.0745C38.8765 36.9226 38.8765 36.6764 38.7247 36.5245L28.2752 26.0751C28.1233 25.9232 27.8771 25.9232 27.7252 26.0751L26.0753 27.725C25.9234 27.8768 25.9234 28.1231 26.0753 28.2749L36.5248 38.7244Z" fill="white"/>
<path d="M26.0753 27.725C25.9234 27.8768 25.9234 28.1231 26.0753 28.2749L27.7252 29.9249C27.8771 30.0768 28.1233 30.0768 28.2752 29.9249L38.7246 19.4755C38.8765 19.3236 38.8765 19.0774 38.7246 18.9255L37.0747 17.2756C36.9229 17.1237 36.6766 17.1237 36.5248 17.2756L26.0753 27.725Z" fill="white"/>
</svg>
