<svg width="176" height="197" viewBox="0 0 176 197" fill="none" xmlns="http://www.w3.org/2000/svg">
<path d="M49.2571 36.1355L46.9513 35.9802C45.7399 35.901 45.5893 35.4654 46.4993 34.6735C47.3048 33.9729 47.8182 33.1414 48.0396 32.1788C48.0519 32.1057 48.0304 32.0418 47.975 31.9869C47.9258 31.9504 47.9105 31.9626 47.9289 32.0235C48.2302 32.9799 48.6422 33.8297 49.1648 34.573C49.337 34.8105 49.5707 34.9537 49.8658 35.0024L52.4852 35.4502C53.2845 35.5842 53.6811 35.2492 53.675 34.445C53.675 34.2623 53.7027 34.0856 53.758 33.915C54.004 33.1901 54.17 33.2084 54.256 33.9699C54.3852 35.1456 55.2368 35.6512 56.8109 35.4867C57.1798 35.4441 57.3612 35.24 57.3551 34.8745L57.3366 33.1657C57.3366 32.7758 57.5026 32.4773 57.8347 32.2702L60.5186 30.6071C60.6806 30.5059 60.8028 30.3528 60.8649 30.1733C60.927 29.9938 60.9252 29.7986 60.8599 29.6202C60.3372 28.1703 60.1989 26.6839 60.4448 25.1609C60.8506 22.6846 59.7346 19.8244 57.6041 18.536C57.395 18.408 57.4104 18.3136 57.6502 18.2527C58.8369 17.9542 59.2581 17.0983 58.9138 15.6849C58.8277 15.3621 58.6217 15.2402 58.2958 15.3194C56.0085 15.9103 53.7611 16.1327 51.5537 15.9865C50.8404 15.9438 50.7358 15.6697 51.24 15.1641L52.4852 13.9305C52.7496 13.6624 52.8756 13.3396 52.8633 12.9619C52.851 12.4928 52.9248 12.0542 53.0847 11.646C53.2095 11.3394 53.4381 11.087 53.7303 10.9332C57.2351 9.12394 59.6885 6.50136 63.5162 5.00274C82.4176 -2.39286 101.211 -1.58872 119.898 7.41515C124.602 9.68134 127.977 14.095 130.071 18.4355C130.569 19.465 130.747 20.7778 130.606 22.3739C130.495 23.6349 130.037 24.6919 129.232 25.5447C127.027 27.8658 126.013 30.4792 124.869 33.385C123.449 36.9762 117.398 38.0179 116.946 41.2436C116.898 41.5758 116.743 41.8811 116.504 42.1117C115.427 43.1291 114.305 44.1403 113.137 45.1455C112.448 45.7303 111.714 45.9009 110.933 45.6572C110.385 45.4866 110.103 45.112 110.084 44.5333C110.072 44.2165 110.216 44.0033 110.518 43.8936L115.803 41.9472C115.907 41.9084 115.998 41.839 116.062 41.7482C116.126 41.6574 116.161 41.5495 116.162 41.4387C116.163 41.3278 116.13 41.2193 116.068 41.1274C116.005 41.0355 115.916 40.9645 115.812 40.9238C114.115 40.2598 112.249 39.879 110.213 39.7816C108.359 39.6902 107.262 38.3378 105.473 38.3378C104.357 38.3286 103.222 38.0911 102.161 38.4931C99.2192 39.6079 95.8804 40.7959 93.9159 43.4459C92.1942 45.773 89.8454 47.6371 86.8693 49.0382C85.9224 49.483 85.5166 50.2231 85.6519 51.2588L85.9009 53.132C86.0731 54.4174 86.7925 54.8956 88.0591 54.5667C88.5695 54.4387 89.0429 54.2286 89.4795 53.9361C89.9468 53.6194 90.3096 53.7108 90.5678 54.2103L91.7484 56.4856C91.9144 56.8146 92.1788 57.0248 92.5416 57.1161C93.4393 57.3537 94.2694 57.1923 95.0319 56.6318C95.1517 56.5411 95.2478 56.4232 95.312 56.288C95.3762 56.1529 95.4067 56.0044 95.4008 55.8551C95.3701 54.7037 95.9204 53.9575 97.0518 53.6163C97.1855 53.5758 97.3056 53.5001 97.3994 53.3974C97.4932 53.2947 97.5572 53.1688 97.5846 53.0329C97.6121 52.8971 97.6019 52.7564 97.5551 52.6259C97.5084 52.4953 97.4269 52.3797 97.3193 52.2913L96.3139 51.4781C96.2184 51.3994 96.141 51.3013 96.0871 51.1905C96.0331 51.0796 96.0038 50.9586 96.0012 50.8355C95.9986 50.7125 96.0226 50.5903 96.0718 50.4773C96.121 50.3643 96.1941 50.2631 96.2863 50.1805C97.6144 49.02 99.459 48.7458 99.911 46.8908C99.9697 46.6387 100.125 46.4191 100.344 46.2786C100.658 46.0776 100.987 46.0562 101.331 46.2146C102.002 46.5192 102.002 46.8238 101.331 47.1284C99.0993 48.1458 98.303 49.8515 98.9425 52.2457C99.004 52.4528 99.1393 52.5868 99.3484 52.6477L100.105 52.8487C100.461 52.9462 100.643 53.1808 100.649 53.5524C100.655 53.7595 100.6 53.9636 100.483 54.1646C100.348 54.3839 100.154 54.5179 99.9017 54.5667C98.9733 54.7372 98.4691 55.3708 98.3891 56.4673C98.3631 56.8168 98.2096 57.1451 97.9571 57.392C97.7046 57.6388 97.37 57.7875 97.0149 57.8106L90.6878 58.2035C90.607 58.2096 90.5261 58.1968 90.4512 58.1661C90.3763 58.1354 90.3095 58.0877 90.2559 58.0267C90.2024 57.9657 90.1635 57.893 90.1424 57.8143C90.1214 57.7356 90.1186 57.6531 90.1344 57.573L90.6601 55.1789C90.7892 54.5697 90.5525 54.3443 89.9499 54.5027C89.5564 54.6063 89.1506 54.7525 88.7324 54.9413C88.5175 55.0395 88.3351 55.1954 88.2062 55.3911C88.0772 55.5867 88.0071 55.8141 88.0038 56.047L87.9761 57.8929C87.97 58.3437 87.7455 58.6056 87.3028 58.6787L85.8363 58.9163C85.679 58.9415 85.5297 59.0025 85.4 59.0945C85.2704 59.1864 85.1641 59.3068 85.0893 59.4463C84.622 60.2992 83.964 60.9358 83.1155 61.3561C82.722 61.545 82.6482 61.4627 82.8941 61.1094C83.2815 60.552 83.2538 59.8758 82.8941 59.3184C82.1624 58.2035 81.3938 57.1131 80.5883 56.047C80.3793 55.7729 80.3055 55.4683 80.367 55.1332C80.533 54.189 80.3823 53.2782 79.915 52.401C79.8048 52.1947 79.6397 52.0222 79.4376 51.9022C79.2355 51.7821 79.0042 51.7192 78.7686 51.7201C78.533 51.7211 78.3021 51.7859 78.101 51.9075C77.8999 52.0291 77.7362 52.2029 77.6277 52.4101L76.484 54.6032C76.318 54.9261 76.069 55.1545 75.7369 55.2886L73.551 56.1749C73.3112 56.2663 73.1821 56.443 73.1636 56.7049L73.0068 58.7244C72.9822 59.1082 73.1483 59.3702 73.5049 59.5103C74.4026 59.8758 75.3096 59.9215 76.2258 59.6473C76.5639 59.5377 76.8099 59.3214 76.9636 58.9986L77.9782 56.842C78.0396 56.708 78.138 56.6714 78.2733 56.7323L78.5223 56.842C78.6084 56.8786 78.633 56.9395 78.5961 57.0248L76.8621 61.2008C76.7269 61.5297 76.8375 61.682 77.1942 61.6577L79.2694 61.5206C79.749 61.4901 79.8566 61.6759 79.5922 62.078C79.5061 62.2059 79.3924 62.3004 79.251 62.3613C78.9189 62.5075 78.5961 62.4831 78.2825 62.2882C77.9259 62.0567 77.6738 62.1389 77.5262 62.5349C77.434 62.7847 77.434 63.0344 77.5262 63.2842C77.643 63.6071 77.8552 63.8508 78.1626 64.0152C79.1649 64.5513 79.5891 65.4012 79.4354 66.5647C79.3801 67.0094 79.128 67.1983 78.6791 67.1313L74.4641 66.5008C74.1813 66.4581 74.0152 66.5769 73.9661 66.8571L73.1452 71.1063C73.0828 71.4266 73.1221 71.758 73.2577 72.0543C73.3932 72.3507 73.6182 72.5974 73.9015 72.7602L75.5063 73.6831C75.6062 73.7415 75.6881 73.8259 75.7431 73.927C75.7981 74.0282 75.8242 74.1423 75.8185 74.2571C75.8128 74.3719 75.7756 74.4829 75.7108 74.5783C75.646 74.6736 75.5562 74.7495 75.451 74.798C74.0245 75.4437 72.9331 76.455 72.1768 77.8317C71.9603 78.2188 71.6329 78.5336 71.236 78.7364C68.4321 80.1802 65.9326 82.9307 65.9419 86.266C65.9419 88.0631 65.8988 89.7689 65.8127 91.3832C65.7943 91.7365 65.8927 92.0503 66.1079 92.3244C67.5528 94.152 69.4406 95.9004 71.771 97.5696C73.9476 99.123 77.5078 98.8489 79.9888 98.4742C81.4276 98.261 82.5344 98.6874 83.3092 99.7535C83.5121 100.028 83.7857 100.168 84.13 100.174L85.9655 100.192C86.0798 100.195 86.1912 100.229 86.2879 100.289C86.3847 100.35 86.4631 100.435 86.515 100.536C86.5669 100.637 86.5904 100.75 86.583 100.863C86.5755 100.977 86.5375 101.086 86.4727 101.179C86.0854 101.733 85.8271 102.303 85.698 102.888C85.6304 103.192 85.7072 103.457 85.9286 103.683C87.6564 105.492 88.6833 107.518 89.0091 109.76C89.0522 110.076 88.9753 110.363 88.7786 110.618C87.4935 112.263 87.3736 114.036 88.4189 115.937C89.8823 118.599 91.2658 120.996 92.5693 123.128C92.7538 123.427 93.0212 123.588 93.3717 123.613C98.9118 123.996 102.825 122.175 105.113 118.148C105.305 117.81 105.602 117.541 105.961 117.381C106.226 117.265 106.459 117.103 106.662 116.896C106.951 116.604 107.034 116.263 106.911 115.873C106.795 115.507 106.788 115.148 106.893 114.795C106.991 114.472 107.185 114.222 107.474 114.045L110.997 111.953C111.148 111.863 111.27 111.732 111.349 111.575C111.427 111.418 111.459 111.241 111.44 111.066L110.813 105.912C110.771 105.561 110.867 105.205 111.08 104.916C112.279 103.284 113.632 101.794 115.138 100.448C117.235 98.5717 118.997 96.4426 120.423 94.0606C120.669 93.6464 120.74 93.2169 120.636 92.7722C120.556 92.4554 120.374 92.2209 120.091 92.0686C119.99 92.0202 119.88 91.9944 119.769 91.9928C119.657 91.9912 119.547 92.014 119.446 92.0594L115.166 94.0424C115.1 94.0716 115.029 94.0877 114.957 94.0897C114.884 94.0917 114.813 94.0796 114.746 94.054C114.679 94.0285 114.618 93.9901 114.566 93.941C114.515 93.8919 114.474 93.8332 114.447 93.7682L114.299 93.421C114.195 93.1773 114.275 93.0372 114.539 93.0006C115.265 92.8849 115.953 92.6382 116.605 92.2605C120.393 90.0735 123.553 87.5636 126.086 84.7308C126.867 83.8658 127.359 82.8028 127.562 81.5417C127.63 81.1518 127.464 80.9325 127.064 80.8838C126.394 80.7985 125.801 80.5457 125.284 80.1254C124.909 79.8268 124.531 79.8207 124.15 80.1071L122.84 81.0848C122.545 81.3102 122.237 81.3285 121.918 81.1397C120.921 80.567 120.101 79.8421 119.455 78.9648C119.35 78.8308 119.369 78.7151 119.51 78.6176L119.713 78.4805C119.935 78.3343 120.131 78.3587 120.303 78.5536C121.275 79.6624 122.428 80.0614 123.762 79.7507C125.33 79.3852 126.621 79.8695 128.189 79.6228C130.803 79.2268 133.622 79.6654 136.647 80.9386C139.036 81.9346 140.834 84.3927 142.707 86.1381C143.008 86.4183 143.306 86.4153 143.601 86.1289C144.807 84.9654 145.228 83.6099 144.865 82.0626C144.158 79.0471 144.893 75.8184 147.069 72.3764C147.168 72.2188 147.319 72.0999 147.497 72.04C147.675 71.9801 147.869 71.9827 148.047 72.0475C148.816 72.3277 149.28 72.9003 149.44 73.7654C149.482 73.9883 149.57 74.197 149.698 74.3776C149.796 74.5238 149.928 74.5665 150.094 74.5055C150.291 74.4385 150.408 74.3045 150.445 74.1035C150.5 73.8537 150.608 73.6313 150.768 73.4364C150.965 73.211 151.146 73.2262 151.312 73.4821C151.755 74.1705 152.019 74.8832 152.105 75.6204C152.247 76.7961 152.52 77.9901 152.926 79.2024C153.037 79.5314 152.917 79.7324 152.566 79.8055L151.34 80.0522C150.934 80.1375 150.842 80.3568 151.063 80.7102L153.848 85.0141C154.002 85.2517 154.039 85.5045 153.959 85.7726C145.225 113.945 120.737 132.997 90.9737 133.966C67.2792 134.733 43.7785 122.525 31.5116 102.175C31.3394 101.889 31.3333 101.596 31.4932 101.298C31.8375 100.676 32.0527 99.9972 32.1388 99.2601C32.2372 98.456 32.5138 98.3889 32.9689 99.0591C33.2394 99.4611 33.5714 99.7292 33.965 99.8632C34.0543 99.8943 34.1497 99.9046 34.2437 99.8934C34.3377 99.8821 34.4278 99.8497 34.5071 99.7985C34.5865 99.7473 34.6529 99.6787 34.7012 99.598C34.7495 99.5173 34.7785 99.4267 34.7858 99.3332C34.9027 97.731 34.6506 96.2385 34.0295 94.8556C33.9875 94.7589 33.9746 94.6518 33.9924 94.5478C34.0102 94.4438 34.0579 94.3474 34.1296 94.2705C34.2013 94.1936 34.2938 94.1397 34.3957 94.1154C34.4976 94.0911 34.6044 94.0975 34.7028 94.1337C35.2132 94.3165 35.7328 94.2982 36.2616 94.0789C37.2269 93.6829 37.5251 93.0006 37.1562 92.032C36.5936 90.5425 35.2101 90.2684 34.463 89.0074C32.5631 85.7817 29.6116 82.8119 28.5048 79.9609C26.3712 74.4659 24.2867 67.8684 22.2515 60.1682C21.9809 59.1508 21.9287 58.2188 22.0947 57.372C22.5005 55.2946 22.9371 53.1381 23.4044 50.9024C23.6012 49.9459 24.1546 49.3977 25.0646 49.2576C25.1736 49.2408 25.2759 49.1954 25.3604 49.1262C25.4449 49.0569 25.5084 48.9665 25.5442 48.8646L26.6233 45.9496C26.7586 45.5841 27.0168 45.3526 27.3981 45.2552C28.3265 45.0237 29.172 44.6033 29.9344 43.9941C30.3095 43.6834 30.743 43.5403 31.2349 43.5646C32.2187 43.6134 33.1626 43.4976 34.0664 43.2174C34.4046 43.1138 34.6598 43.2174 34.832 43.5281C34.9918 43.8022 35.0226 44.1007 34.9242 44.4236C34.881 44.5535 34.881 44.6937 34.9241 44.8237C34.9673 44.9536 35.0514 45.0664 35.164 45.1455C35.5944 45.4684 36.031 45.7547 36.4737 46.0045C37.7588 46.7416 38.1554 46.4157 37.6635 45.0267C37.3929 44.2652 37.5559 43.5098 38.1523 42.7605C38.4167 42.4315 38.7211 42.3889 39.0654 42.6326C39.336 42.8275 39.5696 43.0651 39.7664 43.3453C40.0026 43.6874 40.3158 43.9664 40.6795 44.1586C42.1183 44.9079 43.591 45.31 45.0974 45.3648C45.3099 45.3714 45.5214 45.3343 45.7187 45.2559C45.916 45.1775 46.0948 45.0594 46.2438 44.9092C46.3928 44.759 46.5089 44.5799 46.5846 44.3831C46.6603 44.1862 46.6941 43.976 46.6838 43.7657C46.567 41.3106 47.52 38.9987 49.543 36.83C49.9365 36.4036 49.8412 36.1721 49.2571 36.1355ZM66.0433 31.1554L56.4788 38.2647C56.1099 38.5388 55.9378 38.9043 55.9624 39.3612L56.0638 41.6C56.1007 42.3798 56.5034 42.6722 57.272 42.4772L73.0437 38.4292C73.4188 38.3378 73.6555 38.1032 73.7539 37.7255C73.963 36.9336 74.3319 36.169 74.8607 35.4319C75.0636 35.1456 75.3403 34.9872 75.6908 34.9567L77.6738 34.774C78.0366 34.7435 78.261 34.5547 78.3471 34.2074C78.8697 32.191 79.7828 30.2812 81.0864 28.478C81.2671 28.2282 81.3865 27.9401 81.435 27.6365C81.4834 27.333 81.4597 27.0224 81.3657 26.7296C81.2716 26.4367 81.1098 26.1696 80.8932 25.9497C80.6766 25.7297 80.4111 25.5629 80.118 25.4625C77.7507 24.6401 75.5955 23.6471 73.6525 22.4835C70.9962 20.8935 67.8787 21.6246 65.1487 22.2642C64.7797 22.3495 64.5953 22.581 64.5953 22.9587L64.6045 27.5185C64.6045 27.884 64.7121 28.216 64.9273 28.5145L66.1817 30.1959C66.2894 30.3422 66.3352 30.5243 66.3093 30.7035C66.2835 30.8827 66.1881 31.0449 66.0433 31.1554ZM119.104 110.143C119.239 109.86 119.268 109.538 119.186 109.235C119.104 108.933 118.917 108.669 118.657 108.49C118.397 108.312 118.081 108.23 117.767 108.26C117.452 108.29 117.158 108.429 116.937 108.654L113.552 112.007C113.356 112.198 113.224 112.444 113.174 112.711L112.713 115.352C112.675 115.574 112.695 115.803 112.771 116.016C112.847 116.228 112.976 116.418 113.147 116.567C113.318 116.717 113.525 116.82 113.747 116.868C113.97 116.916 114.201 116.907 114.419 116.841L115.701 116.458C115.883 116.403 116.052 116.31 116.195 116.186C116.338 116.061 116.453 115.908 116.531 115.736L119.104 110.143Z" fill="#140000"/>
<path d="M84.8842 165.455C84.8842 168.758 83.562 171.926 81.2084 174.262C78.8548 176.597 75.6627 177.909 72.3342 177.909C69.0057 177.909 65.8136 176.597 63.46 174.262C61.1065 171.926 59.7842 168.758 59.7842 165.455C59.7842 162.152 61.1065 158.984 63.46 156.648C65.8136 154.312 69.0057 153 72.3342 153C75.6627 153 78.8548 154.312 81.2084 156.648C83.562 158.984 84.8842 162.152 84.8842 165.455ZM81.8341 165.473C81.8341 162.969 80.832 160.568 79.0481 158.798C77.2643 157.027 74.8449 156.033 72.3222 156.033C69.7994 156.033 67.38 157.027 65.5962 158.798C63.8124 160.568 62.8102 162.969 62.8102 165.473C62.8102 167.976 63.8124 170.377 65.5962 172.148C67.38 173.918 69.7994 174.912 72.3222 174.912C74.8449 174.912 77.2643 173.918 79.0481 172.148C80.832 170.377 81.8341 167.976 81.8341 165.473Z" fill="#140000"/>
<path d="M3.25505 162.129L13.3276 162.141C13.4033 162.141 13.476 162.17 13.5301 162.223C13.5842 162.275 13.6153 162.347 13.6169 162.422L13.6471 164.898C13.6479 164.937 13.641 164.975 13.6268 165.01C13.6126 165.046 13.5914 165.078 13.5645 165.105C13.5375 165.133 13.5054 165.154 13.4699 165.169C13.4344 165.184 13.3962 165.192 13.3577 165.191H3.25505C3.17831 165.191 3.10472 165.222 3.05046 165.276C2.9962 165.329 2.96571 165.402 2.96571 165.479L2.98379 174.284C2.98379 174.36 3.01428 174.433 3.06854 174.487C3.1228 174.541 3.1964 174.571 3.27313 174.571L14.5392 174.595C14.6149 174.597 14.6869 174.628 14.7399 174.682C14.7928 174.735 14.8225 174.807 14.8225 174.882L14.7984 177.227C14.7968 177.303 14.7656 177.374 14.7115 177.427C14.6574 177.479 14.5847 177.509 14.509 177.509H0.289339C0.212602 177.509 0.139009 177.478 0.0847479 177.425C0.0304867 177.371 0 177.298 0 177.221L0.00602986 154.035C0.00602986 153.997 0.0135091 153.96 0.0280496 153.925C0.0425902 153.89 0.0639103 153.859 0.0907777 153.832C0.117645 153.805 0.149547 153.784 0.184651 153.77C0.219755 153.755 0.25738 153.748 0.295376 153.748L14.7923 153.742C14.8303 153.742 14.868 153.749 14.9031 153.764C14.9382 153.778 14.9701 153.799 14.9969 153.826C15.0238 153.853 15.0451 153.884 15.0597 153.919C15.0742 153.954 15.0817 153.991 15.0817 154.029L15.0757 156.404C15.0757 156.48 15.0452 156.553 14.9909 156.607C14.9367 156.661 14.8631 156.691 14.7863 156.691L3.24902 156.673C3.17228 156.673 3.09868 156.703 3.04442 156.757C2.99016 156.811 2.95967 156.884 2.95967 156.96L2.96571 161.842C2.96571 161.918 2.9962 161.991 3.05046 162.045C3.10472 162.098 3.17831 162.129 3.25505 162.129Z" fill="#140000"/>
<path d="M22.1765 171.413C25.0698 177.227 33.7439 175.451 33.762 168.727C33.7741 163.842 33.7761 158.974 33.768 154.125C33.768 153.857 33.9027 153.724 34.1719 153.724L36.5047 153.754C36.7659 153.754 36.8945 153.885 36.8905 154.149C36.8141 158.268 36.8242 162.181 36.9206 165.885C36.9929 168.701 36.7699 170.751 36.2515 172.035C34.6602 175.989 29.8921 178.968 25.546 177.67C22.3834 176.725 20.2697 174.865 19.2048 172.089C18.6582 170.653 18.4312 168.161 18.5236 164.611C18.6201 161.022 18.6221 157.516 18.5296 154.095C18.5216 153.859 18.6361 153.742 18.8732 153.742L21.2422 153.736C21.427 153.736 21.5215 153.827 21.5255 154.011C21.6099 158.23 21.6018 162.442 21.5014 166.645C21.4491 168.819 21.6742 170.408 22.1765 171.413Z" fill="#140000"/>
<path d="M51.3874 164.767C51.353 164.778 51.3219 164.798 51.2966 164.824C51.2714 164.85 51.2527 164.881 51.2421 164.916C51.2315 164.95 51.2293 164.987 51.2357 165.022C51.2421 165.058 51.2569 165.091 51.2789 165.12L60.0374 177.066C60.2584 177.369 60.18 177.519 59.8023 177.515L57.3128 177.503C57.1628 177.501 57.0156 177.464 56.8828 177.397C56.75 177.33 56.6351 177.233 56.5472 177.114L47.9997 165.419C47.827 165.18 47.5899 165.06 47.2885 165.06H44.6362C44.5943 165.06 44.5527 165.068 44.514 165.084C44.4752 165.099 44.44 165.122 44.4103 165.151C44.3806 165.18 44.3571 165.214 44.3411 165.252C44.325 165.29 44.3167 165.33 44.3167 165.371L44.3348 177.198C44.3348 177.409 44.2303 177.515 44.0214 177.515L41.7368 177.509C41.5279 177.509 41.4234 177.405 41.4234 177.198V154.059C41.4234 153.812 41.5479 153.692 41.7971 153.7C43.8506 153.784 45.9483 153.786 48.0902 153.706C49.8061 153.646 51.1724 153.867 52.1891 154.37C56.921 156.709 56.3242 163.074 51.3874 164.767ZM44.3107 157.086L44.3228 161.716C44.3228 161.772 44.334 161.828 44.3558 161.881C44.3776 161.933 44.4096 161.98 44.4499 162.02C44.4902 162.06 44.538 162.092 44.5907 162.114C44.6434 162.135 44.6998 162.147 44.7568 162.147L49.5308 162.141C50.3077 162.139 51.0522 161.859 51.6004 161.362C52.1487 160.865 52.4558 160.192 52.4543 159.491V159.287C52.4536 158.94 52.3771 158.596 52.2292 158.276C52.0812 157.955 51.8648 157.664 51.5922 157.419C51.3196 157.174 50.9962 156.98 50.6404 156.848C50.2846 156.716 49.9035 156.648 49.5188 156.649L44.7447 156.655C44.6877 156.655 44.6313 156.666 44.5786 156.688C44.526 156.709 44.4781 156.741 44.4378 156.781C44.3975 156.821 44.3656 156.869 44.3438 156.921C44.3219 156.973 44.3107 157.029 44.3107 157.086Z" fill="#140000"/>
<path d="M88.2357 154.149C88.2357 154.045 88.277 153.947 88.3504 153.874C88.4239 153.801 88.5236 153.76 88.6275 153.76L95.8428 153.748C99.1416 153.743 102.307 154.983 104.644 157.197C106.98 159.41 108.296 162.415 108.302 165.55V165.694C108.305 167.247 107.986 168.786 107.364 170.223C106.741 171.659 105.827 172.965 104.673 174.065C103.519 175.166 102.149 176.04 100.64 176.637C99.1311 177.233 97.5133 177.542 95.879 177.544L88.6637 177.556C88.5597 177.556 88.4601 177.516 88.3866 177.443C88.3131 177.37 88.2718 177.271 88.2718 177.168L88.2357 154.149ZM91.2134 157.08L91.1773 174.272C91.1773 174.382 91.2211 174.487 91.2991 174.564C91.3771 174.642 91.4829 174.685 91.5932 174.685L95.5776 174.691C96.8553 174.694 98.121 174.465 99.3024 174.019C100.484 173.573 101.558 172.918 102.463 172.092C103.368 171.265 104.086 170.283 104.577 169.202C105.069 168.121 105.322 166.961 105.325 165.79V165.61C105.329 163.245 104.309 160.975 102.487 159.298C100.666 157.622 98.1938 156.678 95.6138 156.673L91.6294 156.667C91.5191 156.667 91.4132 156.711 91.3352 156.788C91.2572 156.865 91.2134 156.97 91.2134 157.08Z" fill="#140000"/>
<path d="M115.271 174.589L126.464 174.583C126.544 174.583 126.621 174.615 126.677 174.671C126.734 174.727 126.766 174.803 126.766 174.882L126.76 177.21C126.76 177.289 126.728 177.365 126.671 177.421C126.615 177.477 126.538 177.509 126.458 177.509L112.221 177.515C112.141 177.515 112.064 177.483 112.007 177.427C111.951 177.371 111.919 177.295 111.919 177.215L111.937 154.053C111.937 153.974 111.969 153.897 112.025 153.841C112.082 153.785 112.159 153.754 112.239 153.754L126.76 153.742C126.84 153.742 126.916 153.773 126.973 153.829C127.029 153.885 127.061 153.962 127.061 154.041L127.055 156.398C127.055 156.477 127.023 156.553 126.967 156.609C126.91 156.665 126.834 156.697 126.754 156.697L115.271 156.679C115.191 156.679 115.114 156.711 115.057 156.767C115.001 156.823 114.969 156.899 114.969 156.978L114.957 161.859C114.957 161.939 114.989 162.015 115.045 162.071C115.102 162.127 115.179 162.159 115.259 162.159L125.192 162.135C125.272 162.135 125.349 162.166 125.406 162.222C125.462 162.278 125.494 162.354 125.494 162.434L125.488 164.904C125.488 164.984 125.456 165.06 125.4 165.116C125.343 165.172 125.266 165.203 125.186 165.203L115.271 165.174C115.191 165.174 115.114 165.205 115.057 165.261C115.001 165.317 114.969 165.393 114.969 165.473V174.29C114.969 174.37 115.001 174.446 115.057 174.502C115.114 174.558 115.191 174.589 115.271 174.589Z" fill="#140000"/>
<path d="M134.433 159.186L134.445 177.323C134.445 177.372 134.425 177.42 134.39 177.454C134.355 177.489 134.308 177.509 134.258 177.509L131.6 177.497C131.55 177.497 131.503 177.477 131.468 177.442C131.433 177.408 131.413 177.36 131.413 177.311L131.395 153.921C131.395 153.872 131.415 153.825 131.45 153.79C131.485 153.755 131.532 153.736 131.582 153.736L134.463 153.73C134.493 153.73 134.522 153.737 134.548 153.751C134.574 153.764 134.597 153.784 134.614 153.808L141.871 163.69C141.889 163.714 141.912 163.733 141.938 163.746C141.964 163.759 141.993 163.766 142.022 163.766C142.052 163.766 142.08 163.759 142.107 163.746C142.133 163.733 142.156 163.714 142.173 163.69L149.467 153.808C149.484 153.784 149.506 153.764 149.533 153.751C149.559 153.737 149.588 153.73 149.617 153.73L152.474 153.748C152.524 153.748 152.572 153.767 152.607 153.802C152.642 153.837 152.661 153.884 152.661 153.933L152.649 177.311C152.649 177.336 152.644 177.36 152.635 177.382C152.626 177.405 152.612 177.425 152.595 177.442C152.577 177.46 152.557 177.473 152.534 177.483C152.511 177.492 152.487 177.497 152.462 177.497L149.876 177.503C149.827 177.503 149.779 177.483 149.744 177.448C149.709 177.414 149.69 177.366 149.69 177.317L149.672 159.174C149.671 159.135 149.658 159.097 149.635 159.065C149.612 159.034 149.579 159.011 149.542 158.999C149.505 158.987 149.464 158.987 149.427 158.999C149.39 159.011 149.357 159.034 149.334 159.066L142.173 168.703C142.156 168.726 142.133 168.746 142.107 168.759C142.08 168.772 142.052 168.779 142.022 168.779C141.993 168.779 141.964 168.772 141.938 168.759C141.912 168.746 141.889 168.726 141.871 168.703L134.771 159.078C134.747 159.046 134.715 159.023 134.678 159.011C134.64 158.999 134.6 158.999 134.563 159.011C134.525 159.023 134.493 159.046 134.47 159.077C134.446 159.109 134.434 159.147 134.433 159.186Z" fill="#140000"/>
<path d="M166.477 162.069L172.318 154.089C172.487 153.853 172.718 153.736 173.011 153.736L175.736 153.742C175.784 153.742 175.832 153.755 175.873 153.78C175.914 153.805 175.948 153.841 175.97 153.883C175.992 153.926 176.002 153.973 175.999 154.021C175.997 154.069 175.98 154.115 175.953 154.155L168.111 164.982C167.813 165.39 167.655 165.883 167.659 166.388L167.665 177.168C167.665 177.258 167.628 177.345 167.564 177.409C167.5 177.473 167.412 177.509 167.321 177.509L165.012 177.515C164.791 177.515 164.683 177.407 164.687 177.192C164.703 173.626 164.703 170.023 164.687 166.382C164.687 165.752 164.48 165.158 164.066 164.599C161.522 161.158 159.001 157.67 156.501 154.137C156.32 153.881 156.389 153.752 156.706 153.748L159.473 153.742C159.77 153.742 160.005 153.859 160.178 154.095L165.977 162.069C166.142 162.3 166.308 162.3 166.477 162.069Z" fill="#140000"/>
<path d="M0.109453 196.926V192.46H1.71011C2.05947 192.46 2.34891 192.523 2.57841 192.65C2.80791 192.776 2.97967 192.949 3.09369 193.169C3.20771 193.387 3.26471 193.632 3.26471 193.906C3.26471 194.18 3.20698 194.428 3.0915 194.647C2.97748 194.865 2.80499 195.038 2.57403 195.166C2.34453 195.293 2.05582 195.356 1.70791 195.356H0.607193V194.785H1.64652C1.86725 194.785 2.04632 194.747 2.18373 194.671C2.32113 194.594 2.422 194.489 2.48632 194.357C2.55063 194.225 2.58279 194.074 2.58279 193.906C2.58279 193.737 2.55063 193.587 2.48632 193.457C2.422 193.326 2.3204 193.223 2.18153 193.149C2.04412 193.075 1.86286 193.038 1.63775 193.038H0.786991V196.926H0.109453Z" fill="#140000"/>
<path d="M5.91139 196.926V192.46H7.51204C7.85994 192.46 8.14865 192.52 8.37815 192.639C8.60911 192.758 8.7816 192.923 8.89562 193.134C9.00964 193.343 9.06665 193.585 9.06665 193.86C9.06665 194.133 9.00891 194.374 8.89343 194.582C8.77941 194.788 8.60691 194.949 8.37595 195.064C8.14645 195.178 7.85775 195.236 7.50985 195.236H6.2973V194.656H7.44846C7.66772 194.656 7.84606 194.625 7.98347 194.562C8.12234 194.5 8.22393 194.409 8.28825 194.29C8.35257 194.17 8.38473 194.027 8.38473 193.86C8.38473 193.691 8.35184 193.545 8.28606 193.422C8.22174 193.298 8.12015 193.204 7.98128 193.138C7.84387 193.071 7.66334 193.038 7.43968 193.038H6.58893V196.926H5.91139ZM8.12819 194.911L9.23769 196.926H8.46586L7.37829 194.911H8.12819Z" fill="#140000"/>
<path d="M15.6443 194.693C15.6443 195.17 15.5565 195.58 15.3811 195.923C15.2057 196.264 14.9652 196.528 14.6597 196.712C14.3557 196.895 14.01 196.987 13.6226 196.987C13.2338 196.987 12.8866 196.895 12.5811 196.712C12.277 196.528 12.0373 196.264 11.8619 195.921C11.6865 195.578 11.5988 195.168 11.5988 194.693C11.5988 194.216 11.6865 193.807 11.8619 193.465C12.0373 193.122 12.277 192.859 12.5811 192.676C12.8866 192.491 13.2338 192.399 13.6226 192.399C14.01 192.399 14.3557 192.491 14.6597 192.676C14.9652 192.859 15.2057 193.122 15.3811 193.465C15.5565 193.807 15.6443 194.216 15.6443 194.693ZM14.9733 194.693C14.9733 194.329 14.9141 194.023 14.7957 193.775C14.6787 193.525 14.5179 193.336 14.3133 193.208C14.1101 193.079 13.8799 193.014 13.6226 193.014C13.3639 193.014 13.1329 193.079 12.9297 193.208C12.7265 193.336 12.5657 193.525 12.4473 193.775C12.3304 194.023 12.2719 194.329 12.2719 194.693C12.2719 195.056 12.3304 195.363 12.4473 195.613C12.5657 195.862 12.7265 196.051 12.9297 196.18C13.1329 196.308 13.3639 196.372 13.6226 196.372C13.8799 196.372 14.1101 196.308 14.3133 196.18C14.5179 196.051 14.6787 195.862 14.7957 195.613C14.9141 195.363 14.9733 195.056 14.9733 194.693Z" fill="#140000"/>
<path d="M18.3414 196.926V192.46H21.126V193.04H19.0189V194.401H20.9265V194.979H19.0189V196.926H18.3414Z" fill="#140000"/>
<path d="M23.8116 196.926V192.46H26.627V193.04H24.4892V194.401H26.4801V194.979H24.4892V196.346H26.6534V196.926H23.8116Z" fill="#140000"/>
<path d="M31.8337 193.633C31.8103 193.427 31.7138 193.267 31.5442 193.153C31.3747 193.039 31.1612 192.981 30.904 192.981C30.7198 192.981 30.5604 193.01 30.426 193.068C30.2915 193.125 30.187 193.204 30.1124 193.304C30.0393 193.403 30.0028 193.515 30.0028 193.642C30.0028 193.748 30.0276 193.84 30.0773 193.917C30.1285 193.994 30.195 194.058 30.2769 194.111C30.3602 194.162 30.4494 194.204 30.5444 194.239C30.6394 194.273 30.7308 194.3 30.8185 194.322L31.257 194.436C31.4002 194.471 31.5472 194.518 31.6977 194.577C31.8483 194.637 31.9879 194.715 32.1165 194.813C32.2452 194.91 32.3489 195.031 32.4279 195.175C32.5083 195.319 32.5485 195.491 32.5485 195.692C32.5485 195.945 32.4827 196.169 32.3511 196.365C32.221 196.562 32.0317 196.717 31.7832 196.83C31.5362 196.943 31.2373 197 30.8864 197C30.5502 197 30.2593 196.947 30.0137 196.841C29.7682 196.735 29.5759 196.584 29.4371 196.389C29.2982 196.193 29.2215 195.961 29.2068 195.692H29.8866C29.8997 195.853 29.9524 195.987 30.0444 196.095C30.138 196.201 30.2571 196.28 30.4018 196.333C30.548 196.384 30.7081 196.409 30.882 196.409C31.0735 196.409 31.2438 196.379 31.3929 196.32C31.5435 196.259 31.6619 196.174 31.7481 196.067C31.8344 195.958 31.8775 195.83 31.8775 195.685C31.8775 195.553 31.8395 195.444 31.7635 195.36C31.6889 195.276 31.5874 195.206 31.4587 195.151C31.3315 195.096 31.1876 195.047 31.0268 195.005L30.4961 194.861C30.1365 194.763 29.8515 194.62 29.641 194.431C29.4319 194.242 29.3274 193.992 29.3274 193.681C29.3274 193.424 29.3976 193.199 29.5379 193.007C29.6783 192.815 29.8683 192.666 30.108 192.56C30.3478 192.453 30.6182 192.399 30.9193 192.399C31.2234 192.399 31.4916 192.452 31.724 192.558C31.9579 192.664 32.1421 192.81 32.2766 192.996C32.4111 193.181 32.4812 193.393 32.4871 193.633H31.8337Z" fill="#140000"/>
<path d="M37.6597 193.633C37.6363 193.427 37.5399 193.267 37.3703 193.153C37.2007 193.039 36.9873 192.981 36.73 192.981C36.5458 192.981 36.3865 193.01 36.252 193.068C36.1175 193.125 36.013 193.204 35.9385 193.304C35.8654 193.403 35.8288 193.515 35.8288 193.642C35.8288 193.748 35.8537 193.84 35.9034 193.917C35.9545 193.994 36.0211 194.058 36.1029 194.111C36.1862 194.162 36.2754 194.204 36.3704 194.239C36.4654 194.273 36.5568 194.3 36.6445 194.322L37.083 194.436C37.2263 194.471 37.3732 194.518 37.5238 194.577C37.6743 194.637 37.8139 194.715 37.9426 194.813C38.0712 194.91 38.175 195.031 38.2539 195.175C38.3343 195.319 38.3745 195.491 38.3745 195.692C38.3745 195.945 38.3088 196.169 38.1772 196.365C38.0471 196.562 37.8578 196.717 37.6093 196.83C37.3622 196.943 37.0633 197 36.7125 197C36.3763 197 36.0854 196.947 35.8398 196.841C35.5942 196.735 35.402 196.584 35.2631 196.389C35.1242 196.193 35.0475 195.961 35.0329 195.692H35.7126C35.7258 195.853 35.7784 195.987 35.8705 196.095C35.964 196.201 36.0832 196.28 36.2279 196.333C36.3741 196.384 36.5342 196.409 36.7081 196.409C36.8996 196.409 37.0699 196.379 37.219 196.32C37.3695 196.259 37.488 196.174 37.5742 196.067C37.6605 195.958 37.7036 195.83 37.7036 195.685C37.7036 195.553 37.6656 195.444 37.5896 195.36C37.515 195.276 37.4134 195.206 37.2848 195.151C37.1576 195.096 37.0136 195.047 36.8528 195.005L36.3222 194.861C35.9626 194.763 35.6775 194.62 35.467 194.431C35.258 194.242 35.1535 193.992 35.1535 193.681C35.1535 193.424 35.2236 193.199 35.364 193.007C35.5043 192.815 35.6944 192.666 35.9341 192.56C36.1738 192.453 36.4442 192.399 36.7454 192.399C37.0494 192.399 37.3177 192.452 37.5501 192.558C37.784 192.664 37.9682 192.81 38.1026 192.996C38.2371 193.181 38.3073 193.393 38.3131 193.633H37.6597Z" fill="#140000"/>
<path d="M41.7141 192.46V196.926H41.0365V192.46H41.7141Z" fill="#140000"/>
<path d="M48.4539 194.693C48.4539 195.17 48.3662 195.58 48.1908 195.923C48.0154 196.264 47.7749 196.528 47.4694 196.712C47.1654 196.895 46.8197 196.987 46.4323 196.987C46.0435 196.987 45.6963 196.895 45.3908 196.712C45.0867 196.528 44.847 196.264 44.6716 195.921C44.4962 195.578 44.4085 195.168 44.4085 194.693C44.4085 194.216 44.4962 193.807 44.6716 193.465C44.847 193.122 45.0867 192.859 45.3908 192.676C45.6963 192.491 46.0435 192.399 46.4323 192.399C46.8197 192.399 47.1654 192.491 47.4694 192.676C47.7749 192.859 48.0154 193.122 48.1908 193.465C48.3662 193.807 48.4539 194.216 48.4539 194.693ZM47.783 194.693C47.783 194.329 47.7238 194.023 47.6054 193.775C47.4884 193.525 47.3276 193.336 47.123 193.208C46.9198 193.079 46.6896 193.014 46.4323 193.014C46.1736 193.014 45.9426 193.079 45.7394 193.208C45.5362 193.336 45.3754 193.525 45.257 193.775C45.1401 194.023 45.0816 194.329 45.0816 194.693C45.0816 195.056 45.1401 195.363 45.257 195.613C45.3754 195.862 45.5362 196.051 45.7394 196.18C45.9426 196.308 46.1736 196.372 46.4323 196.372C46.6896 196.372 46.9198 196.308 47.123 196.18C47.3276 196.051 47.4884 195.862 47.6054 195.613C47.7238 195.363 47.783 195.056 47.783 194.693Z" fill="#140000"/>
<path d="M54.7755 192.46V196.926H54.1528L51.8703 193.651H51.8286V196.926H51.151V192.46H51.7781L54.0629 195.74H54.1046V192.46H54.7755Z" fill="#140000"/>
<path d="M57.9956 196.926H57.2764L58.8924 192.46H59.6752L61.2912 196.926H60.572L59.3024 193.271H59.2674L57.9956 196.926ZM58.1162 195.177H60.4492V195.744H58.1162V195.177Z" fill="#140000"/>
<path d="M63.7921 196.926V192.46H64.4696V196.346H66.5044V196.926H63.7921Z" fill="#140000"/>
<path d="M75.8812 193.04V192.46H79.3566V193.04H77.9554V196.926H77.2801V193.04H75.8812Z" fill="#140000"/>
<path d="M81.9769 196.926V192.46H83.5776C83.9255 192.46 84.2142 192.52 84.4437 192.639C84.6747 192.758 84.8471 192.923 84.9612 193.134C85.0752 193.343 85.1322 193.585 85.1322 193.86C85.1322 194.133 85.0744 194.374 84.959 194.582C84.8449 194.788 84.6725 194.949 84.4415 195.064C84.212 195.178 83.9233 195.236 83.5754 195.236H82.3628V194.656H83.514C83.7333 194.656 83.9116 194.625 84.049 194.562C84.1879 194.5 84.2895 194.409 84.3538 194.29C84.4181 194.17 84.4503 194.027 84.4503 193.86C84.4503 193.691 84.4174 193.545 84.3516 193.422C84.2873 193.298 84.1857 193.204 84.0468 193.138C83.9094 193.071 83.7289 193.038 83.5052 193.038H82.6545V196.926H81.9769ZM84.1937 194.911L85.3032 196.926H84.5314L83.4438 194.911H84.1937Z" fill="#140000"/>
<path d="M88.1883 196.926H87.4691L89.0852 192.46H89.8679L91.4839 196.926H90.7647L89.4952 193.271H89.4601L88.1883 196.926ZM88.3089 195.177H90.6419V195.744H88.3089V195.177Z" fill="#140000"/>
<path d="M94.6623 192.46V196.926H93.9848V192.46H94.6623Z" fill="#140000"/>
<path d="M101.126 192.46V196.926H100.503L98.2206 193.651H98.179V196.926H97.5014V192.46H98.1285L100.413 195.74H100.455V192.46H101.126Z" fill="#140000"/>
<path d="M104.644 192.46V196.926H103.967V192.46H104.644Z" fill="#140000"/>
<path d="M111.108 192.46V196.926H110.485L108.202 193.651H108.161V196.926H107.483V192.46H108.11L110.395 195.74H110.437V192.46H111.108Z" fill="#140000"/>
<path d="M116.988 193.871C116.945 193.739 116.888 193.62 116.816 193.515C116.746 193.409 116.662 193.319 116.564 193.245C116.466 193.169 116.355 193.112 116.229 193.073C116.105 193.033 115.968 193.014 115.819 193.014C115.566 193.014 115.338 193.079 115.135 193.208C114.932 193.337 114.771 193.527 114.652 193.777C114.535 194.026 114.477 194.33 114.477 194.691C114.477 195.053 114.536 195.359 114.655 195.609C114.773 195.859 114.935 196.049 115.141 196.178C115.347 196.307 115.582 196.372 115.845 196.372C116.089 196.372 116.302 196.323 116.483 196.224C116.666 196.125 116.807 195.985 116.906 195.805C117.007 195.623 117.058 195.41 117.058 195.164L117.233 195.197H115.948V194.641H117.713V195.149C117.713 195.524 117.633 195.849 117.472 196.126C117.313 196.4 117.092 196.613 116.81 196.762C116.529 196.912 116.208 196.987 115.845 196.987C115.439 196.987 115.082 196.894 114.775 196.708C114.47 196.522 114.231 196.258 114.06 195.916C113.889 195.573 113.804 195.166 113.804 194.695C113.804 194.339 113.853 194.019 113.953 193.736C114.052 193.452 114.192 193.212 114.372 193.014C114.553 192.815 114.766 192.663 115.01 192.558C115.255 192.452 115.524 192.399 115.814 192.399C116.057 192.399 116.283 192.435 116.492 192.506C116.702 192.577 116.89 192.678 117.053 192.809C117.218 192.94 117.355 193.095 117.463 193.276C117.571 193.454 117.645 193.653 117.683 193.871H116.988Z" fill="#140000"/>
<path d="M127.778 196.926H127.059L128.675 192.46H129.458L131.074 196.926H130.354L129.085 193.271H129.05L127.778 196.926ZM127.899 195.177H130.232V195.744H127.899V195.177Z" fill="#140000"/>
<path d="M137.093 193.912H136.409C136.383 193.767 136.334 193.639 136.262 193.528C136.191 193.418 136.103 193.324 135.999 193.247C135.895 193.17 135.779 193.112 135.65 193.073C135.523 193.033 135.388 193.014 135.245 193.014C134.986 193.014 134.754 193.079 134.55 193.208C134.346 193.337 134.186 193.527 134.067 193.777C133.95 194.027 133.892 194.332 133.892 194.693C133.892 195.056 133.95 195.363 134.067 195.613C134.186 195.863 134.347 196.052 134.552 196.18C134.757 196.308 134.987 196.372 135.243 196.372C135.384 196.372 135.519 196.353 135.646 196.315C135.775 196.276 135.891 196.219 135.995 196.143C136.098 196.067 136.186 195.975 136.258 195.866C136.331 195.756 136.381 195.629 136.409 195.487L137.093 195.489C137.057 195.708 136.986 195.91 136.88 196.095C136.777 196.278 136.643 196.437 136.479 196.57C136.317 196.703 136.131 196.805 135.922 196.878C135.713 196.951 135.485 196.987 135.238 196.987C134.849 196.987 134.503 196.895 134.199 196.712C133.895 196.528 133.655 196.264 133.48 195.921C133.306 195.578 133.219 195.168 133.219 194.693C133.219 194.216 133.306 193.807 133.482 193.465C133.657 193.122 133.897 192.859 134.201 192.676C134.505 192.491 134.851 192.399 135.238 192.399C135.476 192.399 135.699 192.433 135.905 192.501C136.112 192.568 136.299 192.667 136.464 192.798C136.629 192.927 136.766 193.086 136.874 193.273C136.982 193.459 137.055 193.672 137.093 193.912Z" fill="#140000"/>
<path d="M140.105 196.926H139.386L141.002 192.46H141.785L143.401 196.926H142.682L141.412 193.271H141.377L140.105 196.926ZM140.226 195.177H142.559V195.744H140.226V195.177Z" fill="#140000"/>
<path d="M147.356 196.926H145.902V192.46H147.402C147.842 192.46 148.22 192.549 148.535 192.728C148.851 192.906 149.093 193.161 149.261 193.494C149.431 193.825 149.515 194.223 149.515 194.686C149.515 195.152 149.43 195.551 149.259 195.886C149.089 196.22 148.844 196.477 148.522 196.658C148.201 196.836 147.812 196.926 147.356 196.926ZM146.579 196.337H147.318C147.66 196.337 147.945 196.273 148.171 196.145C148.398 196.016 148.568 195.829 148.68 195.585C148.793 195.339 148.849 195.04 148.849 194.686C148.849 194.336 148.793 194.039 148.68 193.795C148.569 193.55 148.403 193.365 148.182 193.238C147.962 193.112 147.688 193.049 147.36 193.049H146.579V196.337Z" fill="#140000"/>
<path d="M152.21 196.926V192.46H155.026V193.04H152.888V194.401H154.879V194.979H152.888V196.346H155.052V196.926H152.21Z" fill="#140000"/>
<path d="M157.783 192.46H158.605L160.035 195.932H160.088L161.517 192.46H162.34V196.926H161.695V193.694H161.653L160.329 196.919H159.794L158.469 193.692H158.428V196.926H157.783V192.46Z" fill="#140000"/>
<path d="M164.831 192.46H165.6L166.773 194.49H166.822L167.995 192.46H168.764L167.135 195.173V196.926H166.46V195.173L164.831 192.46Z" fill="#140000"/>
</svg>
