<svg width="36" height="36" viewBox="0 0 36 36" fill="none" xmlns="http://www.w3.org/2000/svg">
<rect width="36" height="36" rx="18" fill="#140000"/>
<path d="M13.9925 10.6759C13.9925 11.2191 13.8314 11.75 13.5297 12.2017C13.2279 12.6533 12.799 13.0053 12.2972 13.2131C11.7954 13.421 11.2432 13.4754 10.7105 13.3694C10.1778 13.2634 9.68843 13.0019 9.30436 12.6178C8.92029 12.2338 8.65873 11.7444 8.55277 11.2117C8.44681 10.679 8.50119 10.1268 8.70905 9.62499C8.9169 9.12318 9.2689 8.69427 9.72052 8.39251C10.1721 8.09075 10.7031 7.92969 11.2462 7.92969C11.9746 7.92969 12.6731 8.21902 13.1881 8.73404C13.7032 9.24907 13.9925 9.94758 13.9925 10.6759ZM13.37 15.253V27.3859C13.3705 27.4754 13.3533 27.5641 13.3194 27.647C13.2854 27.7298 13.2355 27.8051 13.1724 27.8686C13.1092 27.932 13.0342 27.9824 12.9516 28.0168C12.8689 28.0511 12.7803 28.0688 12.6908 28.0688H9.79623C9.70672 28.0691 9.61805 28.0516 9.53531 28.0175C9.45257 27.9833 9.37739 27.9332 9.3141 27.8699C9.25081 27.8066 9.20065 27.7314 9.16651 27.6487C9.13237 27.5659 9.11492 27.4773 9.11516 27.3878V15.253C9.11516 15.0724 9.18692 14.8991 9.31464 14.7714C9.44237 14.6437 9.6156 14.5719 9.79623 14.5719H12.6908C12.8711 14.5724 13.0438 14.6444 13.1712 14.7721C13.2985 14.8997 13.37 15.0727 13.37 15.253ZM28.5 21.5694V27.4427C28.5002 27.525 28.4842 27.6065 28.4528 27.6826C28.4214 27.7587 28.3753 27.8278 28.3171 27.886C28.259 27.9442 28.1898 27.9903 28.1138 28.0217C28.0377 28.053 27.9561 28.0691 27.8739 28.0688H24.7614C24.6791 28.0691 24.5976 28.053 24.5215 28.0217C24.4455 27.9903 24.3763 27.9442 24.3182 27.886C24.26 27.8278 24.2138 27.7587 24.1825 27.6826C24.1511 27.6065 24.1351 27.525 24.1353 27.4427V21.7506C24.1353 20.9011 24.3843 18.0304 21.9145 18.0304C20.0013 18.0304 19.6113 19.9949 19.5344 20.8773V27.4427C19.5344 27.6072 19.4697 27.7651 19.3543 27.8822C19.2388 27.9994 19.0819 28.0664 18.9174 28.0688H15.9112C15.8291 28.0688 15.7477 28.0526 15.6719 28.0211C15.596 27.9896 15.5271 27.9435 15.4691 27.8853C15.4111 27.8272 15.3652 27.7581 15.3339 27.6822C15.3026 27.6062 15.2867 27.5248 15.2869 27.4427V15.1999C15.2867 15.1178 15.3026 15.0364 15.3339 14.9604C15.3652 14.8845 15.4111 14.8154 15.4691 14.7573C15.5271 14.6991 15.596 14.653 15.6719 14.6215C15.7477 14.59 15.8291 14.5738 15.9112 14.5738H18.9174C19.0835 14.5738 19.2428 14.6397 19.3602 14.7572C19.4776 14.8746 19.5436 15.0339 19.5436 15.1999V16.2581C20.2539 15.1926 21.3067 14.3705 23.5531 14.3705C28.5293 14.3705 28.5 19.0172 28.5 21.5694Z" fill="white"/>
</svg>
