<svg width="32" height="31" viewBox="0 0 32 31" fill="none" xmlns="http://www.w3.org/2000/svg">
<path fill-rule="evenodd" clip-rule="evenodd" d="M11.528 5.74512H30.5809L19.2645 13.5029L11.5669 8.22597C11.86 7.44123 11.8625 6.55419 11.528 5.74512ZM31.9647 6.74282L19.717 15.1391C19.4304 15.3347 19.0622 15.3194 18.7959 15.1281L10.6649 9.55401C10.5083 9.69515 10.3389 9.82136 10.1589 9.931L8.40234 11.0004C9.32517 13.9787 11.6086 17.9337 13.7264 20.222L15.5309 19.2355C17.1431 18.3542 19.1702 18.9227 20.0889 20.514L21.6437 23.2071H30.7003C31.4154 23.2071 32.0005 22.622 32.0005 21.9069V7.04527C32.0005 6.9434 31.9885 6.84187 31.9647 6.74282Z" fill="#AD1519"/>
<path fill-rule="evenodd" clip-rule="evenodd" d="M6.54463 10.2474L9.32177 8.55643C10.1459 8.05463 10.4195 6.98399 9.93699 6.1483L7.42979 1.8057C7.17259 1.36014 6.78327 1.07351 6.28146 0.960224C5.77959 0.846873 5.30501 0.938372 4.88123 1.23016L0.308839 4.37826C-1.86763 12.047 7.91296 28.6495 15.4141 30.5413L20.4266 28.1555C20.8912 27.9345 21.2078 27.5691 21.3605 27.0779C21.5133 26.5866 21.4597 26.1062 21.2025 25.6606L18.6953 21.318C18.2128 20.4823 17.1488 20.1839 16.3022 20.6467L13.4492 22.2063C10.6278 19.6971 7.30705 13.9454 6.54463 10.2474Z" fill="#FABD00"/>
</svg>
