<svg width="36" height="36" viewBox="0 0 36 36" fill="none" xmlns="http://www.w3.org/2000/svg">
<g filter="url(#filter0_b_1056_66741)">
<path d="M18.0059 0C10.491 0 8.29324 0.0077545 7.86603 0.0432037C6.32386 0.17143 5.36422 0.414312 4.31876 0.934971C3.51306 1.33516 2.87764 1.79904 2.25053 2.44931C1.10844 3.6352 0.41626 5.09415 0.165692 6.82839C0.0438687 7.67031 0.00842918 7.84202 0.00123054 12.1424C-0.00153817 13.5759 0.00123054 15.4625 0.00123054 17.9929C0.00123054 25.5037 0.00953667 27.6999 0.0455299 28.1264C0.170122 29.6275 0.405462 30.5718 0.90383 31.6049C1.85627 33.5823 3.67531 35.0667 5.81829 35.6206C6.56031 35.8117 7.37984 35.9169 8.43195 35.9668C8.87772 35.9862 13.4212 36 17.9674 36C22.5136 36 27.0598 35.9945 27.4945 35.9723C28.7128 35.915 29.4202 35.82 30.2023 35.6178C32.3591 35.0611 34.145 33.5989 35.1168 31.5938C35.6055 30.5857 35.8533 29.6053 35.9654 28.1826C35.9898 27.8725 36 22.927 36 17.9882C36 13.0486 35.9889 8.11232 35.9646 7.80214C35.851 6.35648 35.6032 5.38439 35.0988 4.35692C34.6849 3.51584 34.2253 2.88772 33.558 2.24548C32.3672 1.10779 30.9108 0.41542 29.1754 0.16506C28.3345 0.0434806 28.167 0.00747756 23.8645 0H18.0059Z" fill="white" fill-opacity="0.11"/>
</g>
<path d="M17.9979 4.70801C14.3887 4.70801 13.9357 4.72379 12.5181 4.78832C11.1033 4.85313 10.1376 5.07718 9.29257 5.40591C8.41849 5.74545 7.67703 6.19964 6.93833 6.93881C6.19909 7.67771 5.74502 8.41937 5.40447 9.29341C5.07499 10.1389 4.85073 11.1052 4.78705 12.5198C4.72364 13.9378 4.70703 14.3912 4.70703 18.0014C4.70703 21.6117 4.72309 22.0634 4.78732 23.4814C4.85239 24.8966 5.07638 25.8626 5.40475 26.7078C5.74447 27.5821 6.19854 28.3238 6.9375 29.0627C7.67592 29.8021 8.41738 30.2574 9.29091 30.597C10.1365 30.9257 11.1025 31.1498 12.517 31.2146C13.9346 31.2791 14.3873 31.2949 17.9963 31.2949C21.6059 31.2949 22.0574 31.2791 23.475 31.2146C24.8898 31.1498 25.8567 30.9257 26.7022 30.597C27.576 30.2574 28.3164 29.8021 29.0548 29.0627C29.794 28.3238 30.2481 27.5821 30.5887 26.7081C30.9154 25.8626 31.1396 24.8963 31.2061 23.4817C31.2698 22.0637 31.2864 21.6117 31.2864 18.0014C31.2864 14.3912 31.2698 13.9381 31.2061 12.5201C31.1396 11.1049 30.9154 10.1389 30.5887 9.29369C30.2481 8.41937 29.794 7.67771 29.0548 6.93881C28.3155 6.19936 27.5763 5.74517 26.7014 5.40591C25.8542 5.07718 24.8879 4.85313 23.4731 4.78832C22.0555 4.72379 21.6042 4.70801 17.9938 4.70801H17.9979ZM16.8057 7.1036C17.1596 7.10304 17.5544 7.1036 17.9979 7.1036C21.5463 7.1036 21.9669 7.11633 23.3681 7.18003C24.6639 7.2393 25.3671 7.45587 25.8356 7.63783C26.4558 7.87877 26.898 8.16679 27.3628 8.63206C27.828 9.09733 28.1159 9.54045 28.3574 10.1608C28.5393 10.6288 28.756 11.3323 28.815 12.6284C28.8787 14.0297 28.8925 14.4507 28.8925 17.9984C28.8925 21.5461 28.8787 21.967 28.815 23.3684C28.7558 24.6645 28.5393 25.3679 28.3574 25.836C28.1165 26.4563 27.828 26.8981 27.3628 27.3631C26.8977 27.8283 26.4561 28.1164 25.8356 28.3573C25.3677 28.5401 24.6639 28.7561 23.3681 28.8154C21.9672 28.8791 21.5463 28.8929 17.9979 28.8929C14.4493 28.8929 14.0287 28.8791 12.6278 28.8154C11.332 28.7556 10.6287 28.539 10.16 28.357C9.53981 28.1161 9.09682 27.8281 8.63168 27.3628C8.16653 26.8975 7.87859 26.4555 7.63716 25.8349C7.45525 25.3668 7.23846 24.6634 7.17949 23.3673C7.11581 21.9659 7.10307 21.545 7.10307 17.9951C7.10307 14.4452 7.11581 14.0264 7.17949 12.6251C7.23874 11.329 7.45525 10.6255 7.63716 10.1569C7.87803 9.53657 8.16653 9.09346 8.63168 8.62819C9.09682 8.16292 9.53981 7.87489 10.16 7.63339C10.6285 7.45061 11.332 7.23459 12.6278 7.17505C13.8537 7.11966 14.3289 7.10304 16.8057 7.10027V7.1036ZM25.0919 9.31086C24.2115 9.31086 23.4972 10.0245 23.4972 10.9055C23.4972 11.7862 24.2115 12.5007 25.0919 12.5007C25.9724 12.5007 26.6867 11.7862 26.6867 10.9055C26.6867 10.0248 25.9724 9.31031 25.0919 9.31031V9.31086ZM17.9979 11.1747C14.2289 11.1747 11.1731 14.2314 11.1731 18.0014C11.1731 21.7715 14.2289 24.8268 17.9979 24.8268C21.767 24.8268 24.8217 21.7715 24.8217 18.0014C24.8217 14.2314 21.767 11.1747 17.9979 11.1747ZM17.9979 13.5703C20.4444 13.5703 22.4279 15.5541 22.4279 18.0014C22.4279 20.4485 20.4444 22.4326 17.9979 22.4326C15.5512 22.4326 13.568 20.4485 13.568 18.0014C13.568 15.5541 15.5512 13.5703 17.9979 13.5703Z" fill="white" fill-opacity="0.6"/>
<defs>
<filter id="filter0_b_1056_66741" x="-2" y="-2" width="40" height="40" filterUnits="userSpaceOnUse" color-interpolation-filters="sRGB">
<feFlood flood-opacity="0" result="BackgroundImageFix"/>
<feGaussianBlur in="BackgroundImageFix" stdDeviation="1"/>
<feComposite in2="SourceAlpha" operator="in" result="effect1_backgroundBlur_1056_66741"/>
<feBlend mode="normal" in="SourceGraphic" in2="effect1_backgroundBlur_1056_66741" result="shape"/>
</filter>
</defs>
</svg>
