<svg width="36" height="36" viewBox="0 0 36 36" fill="none" xmlns="http://www.w3.org/2000/svg">
<g clip-path="url(#clip0_1021_23515)">
<path d="M0.769844 17.7846C0.769 20.8093 1.5655 23.7627 3.08003 26.3659L0.625 35.2601L9.79825 32.8735C12.3354 34.2441 15.1782 34.9622 18.067 34.9624H18.0746C27.6111 34.9624 35.374 27.2624 35.3781 17.7982C35.3799 13.2121 33.5816 8.89962 30.3143 5.65515C27.0476 2.41097 22.703 0.623385 18.0739 0.621292C8.53628 0.621292 0.773922 8.32083 0.769984 17.7846" fill="url(#paint0_linear_1021_23515)"/>
<path d="M0.150469 17.779C0.149484 20.9125 0.974531 23.9715 2.54306 26.6679L0 35.881L9.50217 33.4088C12.1203 34.8253 15.0681 35.572 18.0676 35.5732H18.0754C27.954 35.5732 35.9958 27.5962 36 17.7932C36.0017 13.0423 34.1387 8.57484 30.7547 5.21414C27.3703 1.85386 22.8703 0.00195349 18.0754 0C8.19506 0 0.154406 7.97581 0.150469 17.779ZM5.80922 26.2035L5.45442 25.6447C3.96295 23.2916 3.17573 20.5723 3.17686 17.7801C3.18009 9.63195 9.86316 3.00279 18.081 3.00279C22.0607 3.00447 25.8007 4.54381 28.6138 7.33674C31.4267 10.13 32.9746 13.843 32.9736 17.7921C32.97 25.9402 26.2867 32.5702 18.0754 32.5702H18.0695C15.3958 32.5688 12.7735 31.8564 10.4867 30.51L9.94247 30.1898L4.30369 31.6567L5.80922 26.2034V26.2035Z" fill="url(#paint1_linear_1021_23515)"/>
<path d="M13.5967 10.3466C13.2612 9.60661 12.9081 9.59168 12.589 9.5787C12.3277 9.56754 12.029 9.56837 11.7306 9.56837C11.4319 9.56837 10.9466 9.67986 10.5364 10.1243C10.1258 10.5691 8.96875 11.6441 8.96875 13.8305C8.96875 16.017 10.5737 18.13 10.7974 18.4267C11.0215 18.723 13.8958 23.3533 18.4481 25.1346C22.2315 26.6149 23.0014 26.3205 23.8225 26.2463C24.6438 26.1723 26.4725 25.1716 26.8456 24.1339C27.2189 23.0963 27.2189 22.2069 27.107 22.021C26.995 21.8359 26.6964 21.7247 26.2485 21.5025C25.8004 21.2802 23.5985 20.2051 23.188 20.0568C22.7774 19.9086 22.4789 19.8347 22.1802 20.2796C21.8815 20.7239 21.0238 21.7247 20.7624 22.021C20.5013 22.3181 20.2398 22.3551 19.7921 22.1328C19.3439 21.9098 17.9015 21.4411 16.1903 19.9273C14.8588 18.7494 13.96 17.2947 13.6987 16.8497C13.4374 16.4054 13.6707 16.1646 13.8953 15.9432C14.0965 15.744 14.3433 15.4242 14.5675 15.1648C14.7908 14.9053 14.8653 14.7201 15.0146 14.4238C15.1641 14.1271 15.0893 13.8676 14.9775 13.6453C14.8653 13.423 13.995 11.2252 13.5967 10.3466Z" fill="white"/>
</g>
<defs>
<linearGradient id="paint0_linear_1021_23515" x1="1738.28" y1="3464.51" x2="1738.28" y2="0.621292" gradientUnits="userSpaceOnUse">
<stop stop-color="#140000"/>
<stop offset="1" stop-color="#140000"/>
</linearGradient>
<linearGradient id="paint1_linear_1021_23515" x1="1800" y1="3588.1" x2="1800" y2="0" gradientUnits="userSpaceOnUse">
<stop stop-color="#F9F9F9"/>
<stop offset="1" stop-color="#140000"/>
</linearGradient>
<clipPath id="clip0_1021_23515">
<rect width="36" height="36" fill="white"/>
</clipPath>
</defs>
</svg>
