<svg width="160" height="50" viewBox="0 0 160 50" fill="none" xmlns="http://www.w3.org/2000/svg">
<path d="M10.0976 13.4834L9.24343 13.4254C8.79469 13.3959 8.73888 13.2334 9.076 12.9379C9.37441 12.6765 9.56461 12.3662 9.64661 12.007C9.65117 11.9798 9.6432 11.9559 9.6227 11.9354C9.60448 11.9218 9.59878 11.9263 9.60561 11.9491C9.71723 12.3059 9.86985 12.623 10.0635 12.9004C10.1272 12.989 10.2138 13.0424 10.3231 13.0606L11.2935 13.2277C11.5897 13.2777 11.7366 13.1527 11.7343 12.8526C11.7343 12.7844 11.7445 12.7185 11.7651 12.6549C11.8562 12.3844 11.9177 12.3912 11.9496 12.6753C11.9974 13.114 12.3129 13.3027 12.896 13.2413C13.0327 13.2254 13.0999 13.1493 13.0976 13.0129L13.0908 12.3753C13.0908 12.2298 13.1523 12.1184 13.2753 12.0411L14.2696 11.4206C14.3296 11.3828 14.3749 11.3257 14.3979 11.2587C14.4209 11.1917 14.4202 11.1189 14.396 11.0523C14.2024 10.5113 14.1511 9.95668 14.2423 9.38841C14.3926 8.46439 13.9792 7.39717 13.1899 6.9164C13.1124 6.86867 13.1181 6.83344 13.207 6.8107C13.6466 6.69932 13.8026 6.37995 13.6751 5.85259C13.6432 5.73212 13.5669 5.68666 13.4461 5.71621C12.5988 5.9367 11.7662 6.01966 10.9484 5.96511C10.6842 5.9492 10.6455 5.84691 10.8323 5.65824L11.2935 5.19794C11.3915 5.09792 11.4382 4.97745 11.4336 4.83651C11.4291 4.66148 11.4564 4.49782 11.5156 4.34552C11.5619 4.23113 11.6466 4.13695 11.7548 4.07957C13.0532 3.40445 13.9621 2.42588 15.3801 1.8667C22.3823 -0.892856 29.3446 -0.592807 36.2671 2.76685C38.0097 3.61244 39.2603 5.25931 40.0359 6.8789C40.2204 7.26306 40.2864 7.75291 40.2341 8.34846C40.1931 8.819 40.0233 9.21338 39.7249 9.53162C38.9083 10.3977 38.5325 11.3728 38.1088 12.4571C37.5826 13.7971 35.3412 14.1858 35.1737 15.3894C35.156 15.5134 35.0983 15.6273 35.0097 15.7133C34.6111 16.0929 34.1954 16.4703 33.7626 16.8453C33.5075 17.0636 33.2352 17.1272 32.946 17.0363C32.7432 16.9726 32.6384 16.8328 32.6316 16.6169C32.6271 16.4987 32.6806 16.4191 32.7922 16.3782L34.75 15.652C34.7889 15.6375 34.8224 15.6116 34.8461 15.5777C34.8699 15.5438 34.8828 15.5035 34.8832 15.4622C34.8835 15.4208 34.8713 15.3803 34.8482 15.346C34.825 15.3117 34.792 15.2853 34.7535 15.2701C34.1248 15.0223 33.4334 14.8802 32.6794 14.8439C31.9927 14.8098 31.5861 14.3051 30.9232 14.3051C30.5098 14.3017 30.0895 14.2131 29.6966 14.3631C28.6066 14.7791 27.3697 15.2223 26.6419 16.2111C26.0041 17.0795 25.134 17.775 24.0315 18.2979C23.6807 18.4638 23.5303 18.74 23.5804 19.1264L23.6727 19.8254C23.7365 20.305 24.003 20.4834 24.4722 20.3607C24.6613 20.313 24.8367 20.2345 24.9984 20.1254C25.1715 20.0072 25.3059 20.0413 25.4016 20.2277L25.839 21.0767C25.9005 21.1995 25.9984 21.2779 26.1328 21.312C26.4654 21.4006 26.7729 21.3404 27.0554 21.1313C27.0997 21.0974 27.1353 21.0534 27.1591 21.003C27.1829 20.9526 27.1942 20.8972 27.192 20.8415C27.1806 20.4118 27.3845 20.1334 27.8036 20.0061C27.8532 19.991 27.8977 19.9627 27.9324 19.9244C27.9672 19.8861 27.9909 19.8391 28.001 19.7884C28.0112 19.7377 28.0074 19.6852 27.9901 19.6365C27.9728 19.5878 27.9426 19.5447 27.9027 19.5117L27.5303 19.2082C27.4949 19.1789 27.4662 19.1423 27.4462 19.1009C27.4263 19.0596 27.4154 19.0144 27.4144 18.9685C27.4135 18.9226 27.4224 18.877 27.4406 18.8348C27.4588 18.7926 27.4859 18.7549 27.52 18.7241C28.0121 18.291 28.6954 18.1887 28.8629 17.4966C28.8846 17.4025 28.9422 17.3206 29.0234 17.2681C29.1396 17.1931 29.2615 17.1852 29.389 17.2443C29.6373 17.3579 29.6373 17.4716 29.389 17.5852C28.5622 17.9648 28.2672 18.6013 28.5041 19.4946C28.5269 19.5719 28.577 19.6219 28.6544 19.6447L28.9346 19.7197C29.0667 19.7561 29.1339 19.8436 29.1362 19.9822C29.1385 20.0595 29.118 20.1357 29.0747 20.2107C29.0246 20.2925 28.9528 20.3425 28.8594 20.3607C28.5155 20.4243 28.3287 20.6607 28.2991 21.0699C28.2894 21.2003 28.2326 21.3228 28.139 21.4149C28.0455 21.507 27.9215 21.5625 27.79 21.5711L25.446 21.7177C25.4161 21.72 25.3861 21.7152 25.3584 21.7038C25.3306 21.6923 25.3059 21.6745 25.286 21.6518C25.2662 21.629 25.2518 21.6019 25.244 21.5725C25.2362 21.5432 25.2352 21.5123 25.241 21.4825L25.4358 20.5891C25.4836 20.3618 25.3959 20.2777 25.1727 20.3368C25.0269 20.3755 24.8766 20.43 24.7217 20.5005C24.6421 20.5371 24.5745 20.5953 24.5267 20.6683C24.4789 20.7413 24.4529 20.8262 24.4517 20.9131L24.4415 21.6018C24.4392 21.77 24.3561 21.8678 24.192 21.895L23.6488 21.9837C23.5905 21.9931 23.5352 22.0159 23.4871 22.0502C23.4391 22.0845 23.3997 22.1294 23.372 22.1815C23.1989 22.4997 22.9552 22.7372 22.6408 22.8941C22.495 22.9645 22.4677 22.9339 22.5588 22.802C22.7023 22.594 22.6921 22.3417 22.5588 22.1337C22.2877 21.7177 22.003 21.3109 21.7046 20.9131C21.6272 20.8108 21.5998 20.6971 21.6226 20.5721C21.6841 20.2198 21.6283 19.8799 21.4552 19.5526C21.4143 19.4756 21.3532 19.4113 21.2783 19.3665C21.2034 19.3217 21.1177 19.2982 21.0305 19.2986C20.9432 19.2989 20.8576 19.3231 20.7831 19.3685C20.7086 19.4138 20.648 19.4787 20.6078 19.556L20.1841 20.3743C20.1226 20.4948 20.0304 20.5801 19.9074 20.6301L19.0976 20.9608C19.0087 20.9949 18.9609 21.0608 18.9541 21.1586L18.896 21.9121C18.8869 22.0553 18.9484 22.153 19.0805 22.2053C19.413 22.3417 19.749 22.3588 20.0884 22.2565C20.2137 22.2156 20.3048 22.1349 20.3618 22.0144L20.7376 21.2097C20.7604 21.1597 20.7969 21.1461 20.847 21.1688L20.9392 21.2097C20.9711 21.2233 20.9802 21.2461 20.9666 21.2779L20.3242 22.8361C20.2741 22.9589 20.3151 23.0157 20.4472 23.0066L21.216 22.9555C21.3937 22.9441 21.4335 23.0134 21.3356 23.1634C21.3037 23.2112 21.2616 23.2464 21.2092 23.2691C21.0862 23.3237 20.9666 23.3146 20.8504 23.2419C20.7183 23.1555 20.6249 23.1862 20.5702 23.3339C20.536 23.4271 20.536 23.5203 20.5702 23.6135C20.6135 23.734 20.6921 23.8249 20.806 23.8863C21.1773 24.0863 21.3344 24.4034 21.2775 24.8376C21.257 25.0035 21.1636 25.074 20.9973 25.049L19.4358 24.8137C19.331 24.7978 19.2695 24.8421 19.2513 24.9467L18.9472 26.5322C18.9241 26.6517 18.9387 26.7754 18.9889 26.886C19.0391 26.9965 19.1224 27.0886 19.2274 27.1493L19.8219 27.4937C19.8589 27.5155 19.8893 27.547 19.9096 27.5847C19.93 27.6225 19.9397 27.6651 19.9376 27.7079C19.9355 27.7507 19.9217 27.7921 19.8977 27.8277C19.8737 27.8633 19.8404 27.8916 19.8014 27.9097C19.273 28.1506 18.8686 28.528 18.5885 29.0417C18.5083 29.1861 18.387 29.3036 18.2399 29.3793C17.2012 29.918 16.2753 30.9443 16.2787 32.1888C16.2787 32.8594 16.2627 33.4958 16.2308 34.0982C16.224 34.2301 16.2605 34.3471 16.3402 34.4494C16.8755 35.1313 17.5748 35.7837 18.4381 36.4066C19.2445 36.9862 20.5634 36.8839 21.4825 36.7441C22.0155 36.6646 22.4255 36.8237 22.7126 37.2215C22.7877 37.3238 22.8891 37.376 23.0167 37.3783L23.6966 37.3851C23.739 37.3863 23.7802 37.3988 23.8161 37.4214C23.8519 37.444 23.881 37.4759 23.9002 37.5135C23.9194 37.5512 23.9281 37.5934 23.9254 37.6356C23.9226 37.6778 23.9085 37.7185 23.8845 37.7534C23.741 37.9602 23.6454 38.1728 23.5975 38.391C23.5725 38.5046 23.6009 38.6035 23.6829 38.6876C24.323 39.3627 24.7034 40.1185 24.8242 40.955C24.8401 41.0732 24.8116 41.1801 24.7387 41.2756C24.2627 41.8893 24.2182 42.5508 24.6055 43.26C25.1476 44.2533 25.6601 45.1478 26.1431 45.9434C26.2114 46.0548 26.3105 46.115 26.4403 46.1241C28.4927 46.2673 29.9426 45.5877 30.7899 44.0851C30.861 43.9589 30.9712 43.8585 31.1043 43.7987C31.2022 43.7555 31.2888 43.6953 31.364 43.618C31.471 43.5089 31.5018 43.3816 31.4562 43.2361C31.4129 43.0997 31.4107 42.9656 31.4494 42.8338C31.4858 42.7133 31.5576 42.6201 31.6646 42.5542L32.9699 41.7734C33.0258 41.7399 33.071 41.691 33.1001 41.6324C33.1291 41.5738 33.1409 41.5079 33.1339 41.4426L32.9015 39.5196C32.8861 39.3883 32.9215 39.2555 33.0006 39.1479C33.4448 38.5387 33.9459 37.983 34.504 37.4806C35.2808 36.7805 35.9334 35.986 36.4619 35.0973C36.553 34.9427 36.5792 34.7824 36.5405 34.6165C36.5108 34.4983 36.4437 34.4108 36.3389 34.3539C36.3015 34.3359 36.2607 34.3263 36.2193 34.3257C36.178 34.3251 36.1372 34.3336 36.0997 34.3505L34.5143 35.0904C34.4898 35.1013 34.4634 35.1073 34.4367 35.1081C34.4099 35.1088 34.3834 35.1043 34.3585 35.0948C34.3337 35.0853 34.3111 35.0709 34.2921 35.0526C34.2731 35.0343 34.258 35.0124 34.2478 34.9881L34.1931 34.8586C34.1544 34.7677 34.184 34.7154 34.2819 34.7017C34.5507 34.6585 34.8059 34.5665 35.0473 34.4256C36.4505 33.6095 37.6213 32.673 38.5598 31.616C38.8491 31.2932 39.0313 30.8966 39.1065 30.426C39.1315 30.2805 39.0701 30.1987 38.922 30.1805C38.6737 30.1487 38.4539 30.0544 38.2625 29.8975C38.1236 29.7861 37.9835 29.7839 37.8423 29.8907L37.3571 30.2555C37.2477 30.3396 37.1339 30.3465 37.0154 30.276C36.6464 30.0623 36.3423 29.7918 36.1031 29.4645C36.0644 29.4145 36.0712 29.3713 36.1236 29.3349L36.1988 29.2838C36.2808 29.2292 36.3537 29.2383 36.4175 29.3111C36.7774 29.7248 37.2045 29.8737 37.6988 29.7577C38.2796 29.6213 38.758 29.802 39.3388 29.71C40.3069 29.5622 41.3514 29.7259 42.4721 30.201C43.357 30.5726 44.0233 31.4898 44.7169 32.1411C44.8285 32.2456 44.939 32.2445 45.0484 32.1377C45.4948 31.7035 45.6509 31.1977 45.5165 30.6204C45.2545 29.4952 45.5267 28.2904 46.3331 27.0061C46.3696 26.9473 46.4255 26.903 46.4915 26.8806C46.5575 26.8582 46.6295 26.8592 46.6953 26.8834C46.98 26.9879 47.152 27.2016 47.2112 27.5244C47.227 27.6076 47.2596 27.6855 47.3069 27.7528C47.3433 27.8074 47.3923 27.8233 47.4538 27.8006C47.5267 27.7756 47.57 27.7256 47.5836 27.6506C47.6041 27.5574 47.644 27.4744 47.7032 27.4016C47.7761 27.3175 47.8433 27.3232 47.9048 27.4187C48.0688 27.6756 48.1668 27.9415 48.1987 28.2166C48.2511 28.6553 48.3524 29.1008 48.5028 29.5531C48.5438 29.6759 48.4994 29.7509 48.3695 29.7782L47.9151 29.8702C47.7647 29.9021 47.7306 29.9839 47.8126 30.1157L48.8445 31.7217C48.9014 31.8103 48.9151 31.9047 48.8855 32.0047C45.6497 42.5167 36.578 49.6258 25.5519 49.9872C16.7741 50.2737 8.06804 45.7183 3.52366 38.125C3.45988 38.0182 3.45761 37.9091 3.51683 37.7977C3.64439 37.5658 3.72412 37.3124 3.75601 37.0374C3.79245 36.7373 3.89496 36.7123 4.06352 36.9623C4.16375 37.1124 4.28675 37.2124 4.43254 37.2624C4.46563 37.274 4.50096 37.2778 4.53578 37.2737C4.57061 37.2695 4.60401 37.2574 4.63339 37.2382C4.66278 37.2191 4.68737 37.1935 4.70527 37.1634C4.72318 37.1333 4.7339 37.0995 4.73663 37.0646C4.77991 36.4668 4.68652 35.9099 4.45646 35.3939C4.44089 35.3578 4.43611 35.3179 4.44269 35.279C4.44928 35.2402 4.46695 35.2043 4.49351 35.1756C4.52007 35.1469 4.55436 35.1268 4.59211 35.1177C4.62986 35.1086 4.66943 35.111 4.70588 35.1245C4.89495 35.1927 5.08743 35.1859 5.28333 35.1041C5.64096 34.9563 5.75143 34.7017 5.61476 34.3403C5.40634 33.7845 4.89381 33.6822 4.61705 33.2117C3.91318 32.0081 2.8198 30.9 2.40978 29.8361C1.61935 27.7858 0.847148 25.324 0.0931683 22.4508C-0.00705865 22.0712 -0.0264201 21.7234 0.0350828 21.4075C0.185423 20.6323 0.347152 19.8277 0.520272 18.9934C0.593164 18.6365 0.798175 18.432 1.1353 18.3797C1.17571 18.3734 1.21359 18.3565 1.24489 18.3307C1.27619 18.3048 1.29972 18.2711 1.31297 18.2331L1.71275 17.1454C1.76286 17.009 1.85853 16.9226 1.99976 16.8863C2.34372 16.7999 2.65693 16.643 2.93939 16.4157C3.07834 16.2998 3.23893 16.2464 3.42116 16.2555C3.78562 16.2737 4.13527 16.2305 4.47012 16.1259C4.59541 16.0873 4.68994 16.1259 4.75372 16.2418C4.81294 16.3441 4.82434 16.4555 4.78789 16.576C4.77189 16.6245 4.77189 16.6768 4.78787 16.7253C4.80386 16.7737 4.835 16.8158 4.87673 16.8453C5.03618 16.9658 5.19791 17.0727 5.36191 17.1658C5.83799 17.4409 5.98491 17.3193 5.80268 16.801C5.70246 16.5169 5.76283 16.235 5.98378 15.9554C6.08173 15.8327 6.19448 15.8168 6.32204 15.9077C6.42227 15.9804 6.50883 16.0691 6.58172 16.1736C6.66924 16.3013 6.78528 16.4054 6.91999 16.4771C7.45301 16.7567 7.99857 16.9067 8.55665 16.9272C8.63537 16.9296 8.71374 16.9158 8.78683 16.8865C8.85992 16.8573 8.92615 16.8132 8.98136 16.7572C9.03656 16.7011 9.07954 16.6343 9.10759 16.5608C9.13564 16.4874 9.14816 16.409 9.14435 16.3305C9.10107 15.4144 9.45413 14.5518 10.2036 13.7425C10.3493 13.5834 10.314 13.4971 10.0976 13.4834ZM16.3163 11.6251L12.773 14.2779C12.6363 14.3802 12.5726 14.5165 12.5817 14.687L12.6193 15.5224C12.6329 15.8133 12.7821 15.9225 13.0669 15.8497L18.9096 14.3392C19.0486 14.3051 19.1363 14.2176 19.1727 14.0767C19.2502 13.7812 19.3868 13.4959 19.5827 13.2209C19.6579 13.114 19.7604 13.0549 19.8903 13.0436L20.6249 12.9754C20.7593 12.964 20.8424 12.8935 20.8743 12.764C21.0679 12.0116 21.4062 11.299 21.8891 10.6261C21.9561 10.5329 22.0003 10.4254 22.0182 10.3121C22.0362 10.1989 22.0274 10.083 21.9926 9.97371C21.9577 9.86444 21.8978 9.76479 21.8175 9.68271C21.7373 9.60063 21.639 9.53838 21.5303 9.50093C20.6534 9.19406 19.855 8.82354 19.1351 8.38938C18.1511 7.7961 16.9962 8.06887 15.9848 8.30755C15.8482 8.33937 15.7798 8.42575 15.7798 8.56668L15.7832 10.2681C15.7832 10.4045 15.8231 10.5284 15.9028 10.6398L16.3675 11.2671C16.4074 11.3217 16.4244 11.3897 16.4148 11.4565C16.4052 11.5234 16.3699 11.5839 16.3163 11.6251ZM35.9733 41.0983C36.0232 40.9925 36.0339 40.8724 36.0035 40.7595C35.9732 40.6466 35.9037 40.548 35.8074 40.4814C35.7111 40.4148 35.5943 40.3843 35.4776 40.3955C35.361 40.4067 35.2521 40.4588 35.1703 40.5425L33.9163 41.7938C33.8437 41.8649 33.7948 41.9566 33.7762 42.0564L33.6054 43.0418C33.5913 43.1248 33.5987 43.21 33.6269 43.2894C33.655 43.3688 33.703 43.4397 33.7664 43.4953C33.8297 43.551 33.9062 43.5896 33.9886 43.6075C34.0711 43.6254 34.1568 43.622 34.2375 43.5975L34.7125 43.4543C34.78 43.4339 34.8423 43.3993 34.8954 43.3528C34.9484 43.3064 34.9909 43.2491 35.02 43.185L35.9733 41.0983Z" fill="#F2EDED"/>
<path d="M108.352 21.0621C108.352 22.9449 107.602 24.7505 106.268 26.0818C104.934 27.4131 103.125 28.161 101.238 28.161C99.3514 28.161 97.542 27.4131 96.2079 26.0818C94.8738 24.7505 94.1243 22.9449 94.1243 21.0621C94.1243 19.1794 94.8738 17.3737 96.2079 16.0424C97.542 14.7111 99.3514 13.9632 101.238 13.9632C103.125 13.9632 104.934 14.7111 106.268 16.0424C107.602 17.3737 108.352 19.1794 108.352 21.0621ZM106.623 21.0724C106.623 19.6454 106.055 18.2768 105.044 17.2678C104.033 16.2588 102.661 15.6919 101.231 15.6919C99.8013 15.6919 98.4299 16.2588 97.4187 17.2678C96.4076 18.2768 95.8395 19.6454 95.8395 21.0724C95.8395 22.4993 96.4076 23.8679 97.4187 24.8769C98.4299 25.8859 99.8013 26.4528 101.231 26.4528C102.661 26.4528 104.033 25.8859 105.044 24.8769C106.055 23.8679 106.623 22.4993 106.623 21.0724Z" fill="#F2EDED"/>
<path d="M62.0813 19.1664L67.7908 19.1732C67.8337 19.1732 67.8749 19.1899 67.9056 19.2199C67.9362 19.2499 67.9539 19.2906 67.9548 19.3334L67.9719 20.745C67.9723 20.7668 67.9684 20.7885 67.9604 20.8087C67.9523 20.829 67.9403 20.8474 67.9251 20.863C67.9098 20.8785 67.8916 20.8909 67.8714 20.8993C67.8513 20.9078 67.8297 20.9121 67.8079 20.9121H62.0813C62.0378 20.9121 61.9961 20.9293 61.9653 20.96C61.9345 20.9907 61.9173 21.0324 61.9173 21.0758L61.9275 26.0948C61.9275 26.1382 61.9448 26.1798 61.9755 26.2105C62.0063 26.2412 62.048 26.2584 62.0915 26.2584L68.4776 26.2721C68.5205 26.273 68.5613 26.2906 68.5913 26.3212C68.6214 26.3518 68.6382 26.3929 68.6382 26.4358L68.6245 27.7723C68.6236 27.8152 68.6059 27.8559 68.5753 27.8859C68.5446 27.9158 68.5034 27.9326 68.4605 27.9326H60.4002C60.3567 27.9326 60.315 27.9153 60.2842 27.8847C60.2535 27.854 60.2362 27.8123 60.2362 27.7689L60.2396 14.5531C60.2396 14.5316 60.2438 14.5103 60.2521 14.4905C60.2603 14.4706 60.2724 14.4526 60.2876 14.4374C60.3029 14.4222 60.3209 14.4101 60.3408 14.4019C60.3607 14.3937 60.3821 14.3894 60.4036 14.3894L68.6211 14.386C68.6426 14.386 68.6639 14.3902 68.6838 14.3985C68.7037 14.4067 68.7218 14.4187 68.737 14.4339C68.7523 14.4491 68.7644 14.4672 68.7726 14.487C68.7808 14.5069 68.7851 14.5282 68.7851 14.5497L68.7817 15.9033C68.7817 15.9467 68.7644 15.9883 68.7336 16.019C68.7029 16.0497 68.6611 16.067 68.6177 16.067L62.0779 16.0567C62.0344 16.0567 61.9926 16.074 61.9619 16.1047C61.9311 16.1354 61.9138 16.177 61.9138 16.2204L61.9173 19.0027C61.9173 19.0461 61.9345 19.0877 61.9653 19.1184C61.9961 19.1491 62.0378 19.1664 62.0813 19.1664Z" fill="#F2EDED"/>
<path d="M72.8067 24.4581C74.4468 27.7723 79.3636 26.7597 79.3738 22.9272C79.3807 20.1426 79.3818 17.3683 79.3773 14.6042C79.3773 14.4519 79.4536 14.3758 79.6062 14.3758L80.9285 14.3928C81.0766 14.3928 81.1495 14.4678 81.1472 14.6179C81.1039 16.966 81.1096 19.1959 81.1643 21.3076C81.2053 22.9124 81.0788 24.0808 80.785 24.8127C79.8829 27.0665 77.1802 28.7645 74.7167 28.0246C72.924 27.4859 71.7258 26.4255 71.1222 24.8434C70.8124 24.0251 70.6837 22.6044 70.7361 20.5814C70.7908 18.5356 70.7919 16.5375 70.7395 14.5872C70.735 14.4531 70.7999 14.386 70.9343 14.386L72.2771 14.3826C72.3819 14.3826 72.4354 14.4349 72.4377 14.5394C72.4855 16.9444 72.481 19.3448 72.424 21.7406C72.3944 22.9795 72.522 23.8853 72.8067 24.4581Z" fill="#F2EDED"/>
<path d="M89.3646 20.67C89.3451 20.6766 89.3275 20.6878 89.3132 20.7025C89.2988 20.7173 89.2882 20.7352 89.2822 20.7549C89.2762 20.7745 89.275 20.7953 89.2786 20.8155C89.2822 20.8358 89.2906 20.8548 89.3031 20.8712L94.2678 27.6803C94.393 27.853 94.3486 27.9383 94.1345 27.936L92.7234 27.9292C92.6384 27.928 92.5549 27.9074 92.4796 27.869C92.4043 27.8305 92.3392 27.7752 92.2894 27.7075L87.4444 21.0417C87.3464 20.9053 87.212 20.8371 87.0412 20.8371H85.5378C85.514 20.8371 85.4904 20.8417 85.4685 20.8506C85.4465 20.8595 85.4265 20.8725 85.4097 20.889C85.3929 20.9055 85.3796 20.925 85.3705 20.9465C85.3614 20.968 85.3567 20.9911 85.3567 21.0144L85.3669 27.7553C85.3669 27.8758 85.3077 27.936 85.1893 27.936L83.8943 27.9326C83.7758 27.9326 83.7166 27.8735 83.7166 27.7553V14.5667C83.7166 14.4258 83.7872 14.3576 83.9284 14.3621C85.0924 14.4099 86.2815 14.411 87.4956 14.3655C88.4683 14.3314 89.2428 14.4576 89.8191 14.744C92.5013 16.0772 92.163 19.7051 89.3646 20.67ZM85.3533 16.292L85.3601 18.9311C85.3601 18.9633 85.3665 18.9952 85.3788 19.025C85.3912 19.0548 85.4093 19.0819 85.4322 19.1047C85.455 19.1275 85.4821 19.1455 85.512 19.1579C85.5418 19.1702 85.5738 19.1766 85.6061 19.1766L88.3122 19.1732C88.7526 19.1722 89.1746 19.0125 89.4854 18.7293C89.7961 18.446 89.9703 18.0624 89.9694 17.6627V17.5468C89.969 17.3488 89.9256 17.1529 89.8418 16.9702C89.7579 16.7875 89.6352 16.6217 89.4807 16.482C89.3262 16.3424 89.1428 16.2318 88.9412 16.1565C88.7395 16.0811 88.5235 16.0426 88.3054 16.0431L85.5993 16.0465C85.567 16.0465 85.535 16.0529 85.5051 16.0652C85.4753 16.0775 85.4482 16.0956 85.4253 16.1184C85.4025 16.1412 85.3844 16.1683 85.372 16.1981C85.3596 16.2278 85.3533 16.2598 85.3533 16.292Z" fill="#F2EDED"/>
<path d="M110.252 14.6179C110.252 14.5591 110.275 14.5027 110.317 14.4611C110.358 14.4196 110.415 14.3962 110.474 14.3962L114.564 14.3894C116.434 14.3865 118.228 15.0936 119.552 16.3551C120.877 17.6167 121.623 19.3294 121.626 21.1167V21.1985C121.628 22.084 121.447 22.9611 121.094 23.7798C120.741 24.5985 120.223 25.3428 119.569 25.97C118.915 26.5973 118.138 27.0953 117.283 27.4355C116.428 27.7758 115.511 27.9516 114.584 27.953L110.494 27.9599C110.435 27.9599 110.379 27.9365 110.337 27.8949C110.296 27.8534 110.272 27.797 110.272 27.7382L110.252 14.6179ZM111.94 16.2886L111.919 26.088C111.919 26.1504 111.944 26.2102 111.988 26.2543C112.032 26.2984 112.092 26.3232 112.155 26.3232L114.413 26.3266C115.138 26.3281 115.855 26.198 116.525 25.9438C117.194 25.6895 117.803 25.3162 118.316 24.8451C118.829 24.3739 119.237 23.8142 119.515 23.1979C119.793 22.5816 119.937 21.9207 119.938 21.2531V21.1508C119.941 19.8026 119.362 18.5085 118.33 17.5532C117.298 16.5979 115.896 16.0596 114.434 16.0567L112.175 16.0533C112.113 16.0533 112.053 16.0781 112.009 16.1222C111.964 16.1664 111.94 16.2262 111.94 16.2886Z" fill="#F2EDED"/>
<path d="M125.576 26.2687L131.921 26.2653C131.967 26.2653 132.01 26.2832 132.042 26.3152C132.074 26.3472 132.092 26.3905 132.092 26.4358L132.089 27.7621C132.089 27.8073 132.071 27.8507 132.039 27.8827C132.007 27.9146 131.963 27.9326 131.918 27.9326L123.847 27.936C123.802 27.936 123.758 27.918 123.726 27.8861C123.694 27.8541 123.676 27.8107 123.676 27.7655L123.687 14.5633C123.687 14.5181 123.705 14.4747 123.737 14.4428C123.769 14.4108 123.812 14.3928 123.858 14.3928L132.089 14.386C132.134 14.386 132.177 14.404 132.209 14.4359C132.241 14.4679 132.259 14.5113 132.259 14.5565L132.256 15.8999C132.256 15.9451 132.238 15.9885 132.206 16.0205C132.174 16.0524 132.131 16.0704 132.085 16.0704L125.576 16.0602C125.531 16.0602 125.487 16.0781 125.455 16.1101C125.423 16.1421 125.405 16.1854 125.405 16.2306L125.398 19.0129C125.398 19.0581 125.416 19.1015 125.449 19.1335C125.481 19.1654 125.524 19.1834 125.569 19.1834L131.2 19.1698C131.246 19.1698 131.289 19.1877 131.321 19.2197C131.353 19.2517 131.371 19.295 131.371 19.3403L131.368 20.7484C131.368 20.7937 131.35 20.837 131.318 20.869C131.286 20.901 131.242 20.9189 131.197 20.9189L125.576 20.9019C125.531 20.9019 125.487 20.9198 125.455 20.9518C125.423 20.9838 125.405 21.0271 125.405 21.0724V26.0982C125.405 26.1434 125.423 26.1868 125.455 26.2187C125.487 26.2507 125.531 26.2687 125.576 26.2687Z" fill="#F2EDED"/>
<path d="M136.438 17.4888L136.445 27.8269C136.445 27.8549 136.434 27.8818 136.414 27.9016C136.394 27.9215 136.367 27.9326 136.339 27.9326L134.832 27.9258C134.804 27.9258 134.777 27.9146 134.757 27.8948C134.738 27.875 134.726 27.8481 134.726 27.8201L134.716 14.4883C134.716 14.4603 134.727 14.4334 134.747 14.4136C134.767 14.3937 134.794 14.3826 134.822 14.3826L136.455 14.3792C136.472 14.3793 136.489 14.3834 136.503 14.3911C136.518 14.3988 136.531 14.4099 136.541 14.4235L140.655 20.0563C140.664 20.0697 140.677 20.0805 140.692 20.0881C140.707 20.0956 140.723 20.0995 140.74 20.0995C140.757 20.0995 140.773 20.0956 140.788 20.0881C140.803 20.0805 140.816 20.0697 140.825 20.0563L144.96 14.4235C144.97 14.4099 144.982 14.3988 144.997 14.3911C145.012 14.3834 145.029 14.3793 145.045 14.3792L146.665 14.3894C146.693 14.3894 146.72 14.4006 146.74 14.4204C146.76 14.4402 146.771 14.4671 146.771 14.4951L146.764 27.8201C146.764 27.834 146.761 27.8477 146.756 27.8605C146.751 27.8733 146.743 27.885 146.733 27.8948C146.723 27.9046 146.711 27.9124 146.699 27.9177C146.686 27.923 146.672 27.9258 146.658 27.9258L145.192 27.9292C145.164 27.9292 145.137 27.918 145.117 27.8982C145.097 27.8784 145.086 27.8515 145.086 27.8235L145.076 17.482C145.076 17.4598 145.069 17.4382 145.055 17.4204C145.042 17.4025 145.024 17.3893 145.002 17.3825C144.981 17.3757 144.959 17.3757 144.937 17.3826C144.916 17.3894 144.898 17.4027 144.885 17.4206L140.825 22.9136C140.816 22.927 140.803 22.9378 140.788 22.9454C140.773 22.9529 140.757 22.9568 140.74 22.9568C140.723 22.9568 140.707 22.9529 140.692 22.9454C140.677 22.9378 140.664 22.927 140.655 22.9136L136.63 17.4274C136.616 17.4095 136.598 17.3962 136.577 17.3894C136.556 17.3825 136.533 17.3825 136.512 17.3893C136.491 17.3961 136.472 17.4093 136.459 17.4272C136.446 17.4451 136.438 17.4666 136.438 17.4888Z" fill="#F2EDED"/>
<path d="M154.602 19.1323L157.913 14.5838C158.009 14.4497 158.14 14.3826 158.306 14.3826L159.85 14.386C159.878 14.3861 159.905 14.3937 159.928 14.4079C159.951 14.4221 159.97 14.4424 159.983 14.4666C159.996 14.4908 160.001 14.518 160 14.5453C159.998 14.5725 159.989 14.5988 159.973 14.6213L155.528 20.7928C155.36 21.0254 155.27 21.3061 155.272 21.594L155.275 27.7382C155.275 27.7898 155.255 27.8392 155.218 27.8757C155.182 27.9121 155.132 27.9326 155.08 27.9326L153.772 27.936C153.647 27.936 153.585 27.8746 153.587 27.7519C153.596 25.7197 153.596 23.666 153.587 21.5906C153.587 21.2315 153.47 20.8928 153.235 20.5745C151.794 18.6129 150.364 16.625 148.947 14.611C148.845 14.4656 148.884 14.3917 149.063 14.3894L150.632 14.386C150.8 14.386 150.934 14.4531 151.032 14.5872L154.319 19.1323C154.412 19.2641 154.506 19.2641 154.602 19.1323Z" fill="#F2EDED"/>
<path d="M60.2982 39V36.4545H61.2055C61.4036 36.4545 61.5676 36.4906 61.6977 36.5627C61.8278 36.6348 61.9252 36.7334 61.9898 36.8585C62.0544 36.9828 62.0867 37.1228 62.0867 37.2786C62.0867 37.4352 62.054 37.576 61.9886 37.7012C61.9239 37.8255 61.8262 37.9241 61.6952 37.997C61.5651 38.0691 61.4015 38.1051 61.2043 38.1051H60.5804V37.7795H61.1695C61.2946 37.7795 61.3961 37.7579 61.474 37.7148C61.5519 37.6709 61.6091 37.6113 61.6455 37.5359C61.682 37.4605 61.7002 37.3747 61.7002 37.2786C61.7002 37.1825 61.682 37.0971 61.6455 37.0225C61.6091 36.948 61.5515 36.8896 61.4728 36.8473C61.3949 36.805 61.2921 36.7839 61.1645 36.7839H60.6823V39H60.2982Z" fill="#F2EDED"/>
<path d="M63.587 39V36.4545H64.4943C64.6915 36.4545 64.8552 36.4885 64.9852 36.5565C65.1162 36.6244 65.2139 36.7184 65.2786 36.8386C65.3432 36.9579 65.3755 37.0959 65.3755 37.2525C65.3755 37.4083 65.3428 37.5454 65.2773 37.6639C65.2127 37.7815 65.1149 37.8731 64.984 37.9386C64.8539 38.004 64.6903 38.0367 64.4931 38.0367H63.8057V37.7061H64.4583C64.5826 37.7061 64.6836 37.6883 64.7615 37.6527C64.8402 37.6171 64.8978 37.5653 64.9343 37.4973C64.9707 37.4294 64.989 37.3478 64.989 37.2525C64.989 37.1564 64.9703 37.0731 64.933 37.0027C64.8966 36.9322 64.839 36.8784 64.7603 36.8411C64.6824 36.803 64.5801 36.7839 64.4533 36.7839H63.971V39H63.587ZM64.8436 37.8516L65.4725 39H65.035L64.4185 37.8516H64.8436Z" fill="#F2EDED"/>
<path d="M69.104 37.7273C69.104 37.9991 69.0542 38.2327 68.9548 38.4283C68.8554 38.623 68.7191 38.773 68.5459 38.8782C68.3736 38.9826 68.1776 39.0348 67.958 39.0348C67.7376 39.0348 67.5408 38.9826 67.3676 38.8782C67.1953 38.773 67.0594 38.6226 66.96 38.427C66.8605 38.2315 66.8108 37.9982 66.8108 37.7273C66.8108 37.4555 66.8605 37.2222 66.96 37.0275C67.0594 36.832 67.1953 36.682 67.3676 36.5776C67.5408 36.4724 67.7376 36.4197 67.958 36.4197C68.1776 36.4197 68.3736 36.4724 68.5459 36.5776C68.7191 36.682 68.8554 36.832 68.9548 37.0275C69.0542 37.2222 69.104 37.4555 69.104 37.7273ZM68.7236 37.7273C68.7236 37.5201 68.6901 37.3457 68.623 37.204C68.5567 37.0615 68.4655 36.9538 68.3495 36.8809C68.2344 36.8071 68.1038 36.7702 67.958 36.7702C67.8113 36.7702 67.6804 36.8071 67.5653 36.8809C67.4501 36.9538 67.3589 37.0615 67.2918 37.204C67.2255 37.3457 67.1924 37.5201 67.1924 37.7273C67.1924 37.9344 67.2255 38.1093 67.2918 38.2518C67.3589 38.3935 67.4501 38.5012 67.5653 38.5749C67.6804 38.6478 67.8113 38.6843 67.958 38.6843C68.1038 38.6843 68.2344 38.6478 68.3495 38.5749C68.4655 38.5012 68.5567 38.3935 68.623 38.2518C68.6901 38.1093 68.7236 37.9344 68.7236 37.7273Z" fill="#F2EDED"/>
<path d="M70.6328 39V36.4545H72.2113V36.7852H71.0168V37.5607H72.0982V37.8901H71.0168V39H70.6328Z" fill="#F2EDED"/>
<path d="M73.7336 39V36.4545H75.3295V36.7852H74.1176V37.5607H75.2462V37.8901H74.1176V38.6694H75.3444V39H73.7336Z" fill="#F2EDED"/>
<path d="M78.2808 37.1232C78.2675 37.0056 78.2128 36.9144 78.1167 36.8498C78.0206 36.7843 77.8996 36.7516 77.7538 36.7516C77.6494 36.7516 77.5591 36.7682 77.4828 36.8013C77.4066 36.8336 77.3474 36.8784 77.3051 36.9355C77.2637 36.9919 77.243 37.0561 77.243 37.1282C77.243 37.1887 77.257 37.2409 77.2852 37.2848C77.3142 37.3287 77.3519 37.3656 77.3983 37.3954C77.4455 37.4244 77.4961 37.4489 77.5499 37.4687C77.6038 37.4878 77.6556 37.5035 77.7053 37.516L77.9539 37.5806C78.0351 37.6005 78.1184 37.6274 78.2037 37.6614C78.2891 37.6954 78.3682 37.7401 78.4411 37.7956C78.514 37.8511 78.5729 37.9199 78.6176 38.0019C78.6632 38.084 78.686 38.1822 78.686 38.2965C78.686 38.4407 78.6487 38.5687 78.5741 38.6806C78.5004 38.7924 78.3931 38.8807 78.2522 38.9453C78.1122 39.0099 77.9427 39.0423 77.7438 39.0423C77.5533 39.0423 77.3884 39.012 77.2492 38.9515C77.11 38.891 77.001 38.8053 76.9223 38.6942C76.8436 38.5824 76.8001 38.4498 76.7918 38.2965H77.1771C77.1845 38.3885 77.2144 38.4651 77.2666 38.5265C77.3196 38.5869 77.3871 38.6321 77.4692 38.6619C77.552 38.6909 77.6428 38.7054 77.7414 38.7054C77.8499 38.7054 77.9464 38.6884 78.031 38.6545C78.1163 38.6197 78.1834 38.5716 78.2323 38.5103C78.2812 38.4481 78.3056 38.3756 78.3056 38.2928C78.3056 38.2174 78.2841 38.1557 78.241 38.1076C78.1987 38.0595 78.1412 38.0198 78.0682 37.9883C77.9961 37.9568 77.9145 37.929 77.8234 37.905L77.5226 37.823C77.3188 37.7675 77.1572 37.6858 77.0379 37.5781C76.9194 37.4704 76.8601 37.3279 76.8601 37.1506C76.8601 37.0039 76.8999 36.8759 76.9795 36.7665C77.059 36.6571 77.1667 36.5722 77.3026 36.5117C77.4385 36.4504 77.5918 36.4197 77.7625 36.4197C77.9348 36.4197 78.0869 36.45 78.2186 36.5105C78.3512 36.571 78.4556 36.6542 78.5318 36.7603C78.6081 36.8655 78.6478 36.9865 78.6512 37.1232H78.2808Z" fill="#F2EDED"/>
<path d="M81.5832 37.1232C81.57 37.0056 81.5153 36.9144 81.4192 36.8498C81.323 36.7843 81.2021 36.7516 81.0562 36.7516C80.9518 36.7516 80.8615 36.7682 80.7853 36.8013C80.709 36.8336 80.6498 36.8784 80.6075 36.9355C80.5661 36.9919 80.5454 37.0561 80.5454 37.1282C80.5454 37.1887 80.5595 37.2409 80.5877 37.2848C80.6167 37.3287 80.6544 37.3656 80.7008 37.3954C80.748 37.4244 80.7985 37.4489 80.8524 37.4687C80.9062 37.4878 80.958 37.5035 81.0078 37.516L81.2563 37.5806C81.3375 37.6005 81.4208 37.6274 81.5062 37.6614C81.5915 37.6954 81.6706 37.7401 81.7435 37.7956C81.8165 37.8511 81.8753 37.9199 81.92 38.0019C81.9656 38.084 81.9884 38.1822 81.9884 38.2965C81.9884 38.4407 81.9511 38.5687 81.8765 38.6806C81.8028 38.7924 81.6955 38.8807 81.5546 38.9453C81.4146 39.0099 81.2451 39.0423 81.0463 39.0423C80.8557 39.0423 80.6908 39.012 80.5516 38.9515C80.4124 38.891 80.3034 38.8053 80.2247 38.6942C80.146 38.5824 80.1025 38.4498 80.0942 38.2965H80.4795C80.487 38.3885 80.5168 38.4651 80.569 38.5265C80.622 38.5869 80.6896 38.6321 80.7716 38.6619C80.8545 38.6909 80.9452 38.7054 81.0438 38.7054C81.1523 38.7054 81.2489 38.6884 81.3334 38.6545C81.4187 38.6197 81.4859 38.5716 81.5347 38.5103C81.5836 38.4481 81.6081 38.3756 81.6081 38.2928C81.6081 38.2174 81.5865 38.1557 81.5434 38.1076C81.5012 38.0595 81.4436 38.0198 81.3707 37.9883C81.2986 37.9568 81.217 37.929 81.1258 37.905L80.8251 37.823C80.6212 37.7675 80.4596 37.6858 80.3403 37.5781C80.2218 37.4704 80.1626 37.3279 80.1626 37.1506C80.1626 37.0039 80.2024 36.8759 80.2819 36.7665C80.3614 36.6571 80.4692 36.5722 80.6051 36.5117C80.7409 36.4504 80.8942 36.4197 81.0649 36.4197C81.2373 36.4197 81.3893 36.45 81.5211 36.5105C81.6536 36.571 81.758 36.6542 81.8343 36.7603C81.9105 36.8655 81.9503 36.9865 81.9536 37.1232H81.5832Z" fill="#F2EDED"/>
<path d="M83.8814 36.4545V39H83.4973V36.4545H83.8814Z" fill="#F2EDED"/>
<path d="M87.7018 37.7273C87.7018 37.9991 87.6521 38.2327 87.5527 38.4283C87.4532 38.623 87.3169 38.773 87.1438 38.8782C86.9714 38.9826 86.7754 39.0348 86.5559 39.0348C86.3355 39.0348 86.1387 38.9826 85.9655 38.8782C85.7931 38.773 85.6572 38.6226 85.5578 38.427C85.4584 38.2315 85.4087 37.9982 85.4087 37.7273C85.4087 37.4555 85.4584 37.2222 85.5578 37.0275C85.6572 36.832 85.7931 36.682 85.9655 36.5776C86.1387 36.4724 86.3355 36.4197 86.5559 36.4197C86.7754 36.4197 86.9714 36.4724 87.1438 36.5776C87.3169 36.682 87.4532 36.832 87.5527 37.0275C87.6521 37.2222 87.7018 37.4555 87.7018 37.7273ZM87.3215 37.7273C87.3215 37.5201 87.2879 37.3457 87.2208 37.204C87.1545 37.0615 87.0634 36.9538 86.9474 36.8809C86.8322 36.8071 86.7017 36.7702 86.5559 36.7702C86.4092 36.7702 86.2783 36.8071 86.1631 36.8809C86.0479 36.9538 85.9568 37.0615 85.8897 37.204C85.8234 37.3457 85.7902 37.5201 85.7902 37.7273C85.7902 37.9344 85.8234 38.1093 85.8897 38.2518C85.9568 38.3935 86.0479 38.5012 86.1631 38.5749C86.2783 38.6478 86.4092 38.6843 86.5559 38.6843C86.7017 38.6843 86.8322 38.6478 86.9474 38.5749C87.0634 38.5012 87.1545 38.3935 87.2208 38.2518C87.2879 38.1093 87.3215 37.9344 87.3215 37.7273Z" fill="#F2EDED"/>
<path d="M91.2851 36.4545V39H90.9322L89.6383 37.1332H89.6147V39H89.2306V36.4545H89.5861L90.8812 38.3239H90.9048V36.4545H91.2851Z" fill="#F2EDED"/>
<path d="M93.1104 39H92.7027L93.6188 36.4545H94.0625L94.9785 39H94.5708L93.8512 36.9169H93.8313L93.1104 39ZM93.1788 38.0032H94.5012V38.3263H93.1788V38.0032Z" fill="#F2EDED"/>
<path d="M96.3961 39V36.4545H96.7801V38.6694H97.9335V39H96.3961Z" fill="#F2EDED"/>
<path d="M103.249 36.7852V36.4545H105.219V36.7852H104.424V39H104.042V36.7852H103.249Z" fill="#F2EDED"/>
<path d="M106.704 39V36.4545H107.611C107.809 36.4545 107.972 36.4885 108.102 36.5565C108.233 36.6244 108.331 36.7184 108.396 36.8386C108.46 36.9579 108.493 37.0959 108.493 37.2525C108.493 37.4083 108.46 37.5454 108.394 37.6639C108.33 37.7815 108.232 37.8731 108.101 37.9386C107.971 38.004 107.807 38.0367 107.61 38.0367H106.923V37.7061H107.575C107.7 37.7061 107.801 37.6883 107.879 37.6527C107.957 37.6171 108.015 37.5653 108.051 37.4973C108.088 37.4294 108.106 37.3478 108.106 37.2525C108.106 37.1564 108.087 37.0731 108.05 37.0027C108.014 36.9322 107.956 36.8784 107.877 36.8411C107.799 36.803 107.697 36.7839 107.57 36.7839H107.088V39H106.704ZM107.961 37.8516L108.589 39H108.152L107.535 37.8516H107.961Z" fill="#F2EDED"/>
<path d="M110.225 39H109.817L110.733 36.4545H111.177L112.093 39H111.685L110.966 36.9169H110.946L110.225 39ZM110.293 38.0032H111.616V38.3263H110.293V38.0032Z" fill="#F2EDED"/>
<path d="M113.895 36.4545V39H113.511V36.4545H113.895Z" fill="#F2EDED"/>
<path d="M117.558 36.4545V39H117.205L115.912 37.1332H115.888V39H115.504V36.4545H115.859L117.154 38.3239H117.178V36.4545H117.558Z" fill="#F2EDED"/>
<path d="M119.553 36.4545V39H119.169V36.4545H119.553Z" fill="#F2EDED"/>
<path d="M123.216 36.4545V39H122.864L121.57 37.1332H121.546V39H121.162V36.4545H121.517L122.813 38.3239H122.836V36.4545H123.216Z" fill="#F2EDED"/>
<path d="M126.549 37.2587C126.525 37.1833 126.493 37.1158 126.452 37.0561C126.413 36.9956 126.365 36.9442 126.31 36.902C126.254 36.8589 126.191 36.8262 126.119 36.8038C126.049 36.7814 125.971 36.7702 125.887 36.7702C125.744 36.7702 125.614 36.8071 125.499 36.8809C125.384 36.9546 125.293 37.0627 125.226 37.2052C125.159 37.3469 125.126 37.5205 125.126 37.726C125.126 37.9323 125.16 38.1068 125.227 38.2493C125.294 38.3918 125.386 38.4999 125.503 38.5737C125.62 38.6474 125.753 38.6843 125.902 38.6843C126.04 38.6843 126.161 38.6561 126.264 38.5998C126.367 38.5434 126.447 38.4639 126.503 38.3611C126.561 38.2576 126.589 38.1358 126.589 37.9957L126.689 38.0144H125.96V37.6974H126.961V37.987C126.961 38.2008 126.915 38.3864 126.824 38.5438C126.734 38.7005 126.609 38.8214 126.449 38.9068C126.29 38.9921 126.107 39.0348 125.902 39.0348C125.671 39.0348 125.469 38.9818 125.295 38.8757C125.122 38.7696 124.987 38.6193 124.89 38.4245C124.793 38.229 124.745 37.997 124.745 37.7285C124.745 37.5255 124.773 37.3432 124.829 37.1816C124.886 37.0201 124.965 36.8829 125.067 36.7702C125.169 36.6567 125.29 36.5701 125.428 36.5105C125.567 36.45 125.72 36.4197 125.884 36.4197C126.022 36.4197 126.15 36.44 126.268 36.4806C126.388 36.5212 126.494 36.5788 126.587 36.6534C126.68 36.728 126.758 36.8166 126.819 36.9194C126.88 37.0213 126.922 37.1344 126.943 37.2587H126.549Z" fill="#F2EDED"/>
<path d="M132.666 39H132.258L133.174 36.4545H133.618L134.534 39H134.126L133.407 36.9169H133.387L132.666 39ZM132.734 38.0032H134.057V38.3263H132.734V38.0032Z" fill="#F2EDED"/>
<path d="M137.946 37.2823H137.558C137.543 37.1995 137.516 37.1265 137.475 37.0636C137.434 37.0006 137.385 36.9471 137.326 36.9032C137.267 36.8593 137.201 36.8262 137.128 36.8038C137.056 36.7814 136.98 36.7702 136.898 36.7702C136.752 36.7702 136.62 36.8071 136.504 36.8809C136.389 36.9546 136.298 37.0627 136.231 37.2052C136.165 37.3478 136.131 37.5218 136.131 37.7273C136.131 37.9344 136.165 38.1093 136.231 38.2518C136.298 38.3943 136.39 38.502 136.506 38.5749C136.622 38.6478 136.752 38.6843 136.897 38.6843C136.977 38.6843 137.054 38.6735 137.126 38.652C137.199 38.6296 137.265 38.5969 137.323 38.5538C137.382 38.5107 137.432 38.4581 137.473 38.3959C137.514 38.333 137.543 38.2609 137.558 38.1797L137.946 38.1809C137.925 38.306 137.885 38.4212 137.826 38.5265C137.767 38.6309 137.691 38.7212 137.598 38.7974C137.506 38.8728 137.401 38.9312 137.282 38.9727C137.164 39.0141 137.035 39.0348 136.895 39.0348C136.674 39.0348 136.478 38.9826 136.305 38.8782C136.133 38.773 135.997 38.6226 135.898 38.427C135.799 38.2315 135.75 37.9982 135.75 37.7273C135.75 37.4555 135.8 37.2222 135.899 37.0275C135.998 36.832 136.134 36.682 136.307 36.5776C136.479 36.4724 136.675 36.4197 136.895 36.4197C137.03 36.4197 137.156 36.4392 137.272 36.4782C137.39 36.5163 137.496 36.5726 137.589 36.6472C137.683 36.7209 137.76 36.8113 137.822 36.9181C137.883 37.0242 137.925 37.1456 137.946 37.2823Z" fill="#F2EDED"/>
<path d="M139.654 39H139.246L140.162 36.4545H140.606L141.522 39H141.114L140.394 36.9169H140.374L139.654 39ZM139.722 38.0032H141.044V38.3263H139.722V38.0032Z" fill="#F2EDED"/>
<path d="M143.763 39H142.939V36.4545H143.789C144.039 36.4545 144.253 36.5055 144.432 36.6074C144.611 36.7085 144.748 36.8539 144.843 37.0437C144.939 37.2326 144.988 37.4592 144.988 37.7235C144.988 37.9887 144.939 38.2166 144.842 38.4071C144.746 38.5977 144.607 38.7444 144.424 38.8471C144.242 38.949 144.022 39 143.763 39ZM143.323 38.6644H143.742C143.936 38.6644 144.097 38.628 144.226 38.555C144.354 38.4813 144.45 38.3748 144.514 38.2356C144.578 38.0956 144.61 37.9249 144.61 37.7235C144.61 37.5238 144.578 37.3544 144.514 37.2152C144.451 37.076 144.357 36.9703 144.232 36.8983C144.107 36.8262 143.951 36.7901 143.766 36.7901H143.323V38.6644Z" fill="#F2EDED"/>
<path d="M146.515 39V36.4545H148.111V36.7852H146.899V37.5607H148.028V37.8901H146.899V38.6694H148.126V39H146.515Z" fill="#F2EDED"/>
<path d="M149.674 36.4545H150.14L150.95 38.4332H150.98L151.791 36.4545H152.257V39H151.891V37.158H151.868L151.117 38.9963H150.814L150.063 37.1568H150.039V39H149.674V36.4545Z" fill="#F2EDED"/>
<path d="M153.669 36.4545H154.105L154.77 37.6117H154.797L155.462 36.4545H155.898L154.975 38.0007V39H154.592V38.0007L153.669 36.4545Z" fill="#F2EDED"/>
</svg>
