<svg width="56" height="55" viewBox="0 0 56 55" fill="none" xmlns="http://www.w3.org/2000/svg">
<path d="M28.0005 24.2671C27.8642 24.2671 27.7289 24.2372 27.6029 24.1784L11.7362 16.7117C11.5762 16.6361 11.4409 16.5165 11.3462 16.367C11.2515 16.2174 11.2012 16.0441 11.2012 15.8671C11.2012 15.69 11.2515 15.5167 11.3462 15.3671C11.4409 15.2176 11.5762 15.098 11.7362 15.0224L27.6029 7.55572C27.7272 7.49716 27.863 7.4668 28.0005 7.4668C28.1379 7.4668 28.2737 7.49716 28.3981 7.55572L44.2647 15.0224C44.4248 15.098 44.56 15.2176 44.6547 15.3671C44.7495 15.5167 44.7998 15.69 44.7998 15.8671C44.7998 16.0441 44.7495 16.2174 44.6547 16.367C44.56 16.5165 44.4248 16.6361 44.2647 16.7117L28.3981 24.1784C28.2721 24.2372 28.1367 24.2671 28.0005 24.2671ZM14.3262 15.8671L28.0005 22.3024L41.6747 15.8671L28.0005 9.43172L14.3262 15.8671Z" fill="#262121"/>
<path d="M28.0005 31.7331C27.8577 31.7331 27.714 31.7004 27.5833 31.6351L16.3833 26.0351C16.2282 25.9575 16.0978 25.8382 16.0067 25.6907C15.9155 25.5432 15.8672 25.3732 15.8672 25.1998V18.0626C15.8672 17.9054 15.9069 17.7509 15.9826 17.6132C16.0583 17.4755 16.1675 17.3591 16.3002 17.2749C16.4328 17.1906 16.5845 17.1413 16.7414 17.1313C16.8982 17.1213 17.055 17.1511 17.1972 17.2179L28.0005 22.3018L38.8029 17.2179C38.9452 17.1509 39.1021 17.121 39.259 17.1308C39.416 17.1407 39.5679 17.19 39.7006 17.2743C39.8334 17.3585 39.9427 17.475 40.0185 17.6128C40.0942 17.7506 40.1339 17.9053 40.1339 18.0626V25.1998C40.1339 25.5535 39.9341 25.8764 39.6177 26.0351L28.4177 31.6351C28.2871 31.7004 28.1433 31.7331 28.0005 31.7331ZM17.7339 24.623L28.0005 29.7563L38.2672 24.623V19.5335L28.3981 24.1778C28.2738 24.2363 28.138 24.2667 28.0005 24.2667C27.8631 24.2667 27.7273 24.2363 27.6029 24.1778L17.7339 19.5335V24.623ZM43.8672 16.7998H28.0005C27.753 16.7998 27.5156 16.7014 27.3406 16.5264C27.1655 16.3514 27.0672 16.114 27.0672 15.8664C27.0672 15.6189 27.1655 15.3815 27.3406 15.2065C27.5156 15.0314 27.753 14.9331 28.0005 14.9331H43.8672C44.1147 14.9331 44.3521 15.0314 44.5272 15.2065C44.7022 15.3815 44.8005 15.6189 44.8005 15.8664C44.8005 16.114 44.7022 16.3514 44.5272 16.5264C44.3521 16.7014 44.1147 16.7998 43.8672 16.7998Z" fill="#262121"/>
<path d="M43.8664 25.2002C43.6189 25.2002 43.3815 25.1019 43.2064 24.9269C43.0314 24.7518 42.9331 24.5144 42.9331 24.2669V15.8669C42.9331 15.6194 43.0314 15.382 43.2064 15.2069C43.3815 15.0319 43.6189 14.9336 43.8664 14.9336C44.1139 14.9336 44.3513 15.0319 44.5264 15.2069C44.7014 15.382 44.7997 15.6194 44.7997 15.8669V24.2669C44.7997 24.5144 44.7014 24.7518 44.5264 24.9269C44.3513 25.1019 44.1139 25.2002 43.8664 25.2002ZM27.9997 18.6669C27.7522 18.6669 27.5148 18.5686 27.3398 18.3935C27.1647 18.2185 27.0664 17.9811 27.0664 17.7336V14.0002C27.0664 13.7527 27.1647 13.5153 27.3398 13.3403C27.5148 13.1652 27.7522 13.0669 27.9997 13.0669C28.2473 13.0669 28.4847 13.1652 28.6597 13.3403C28.8347 13.5153 28.9331 13.7527 28.9331 14.0002V17.7336C28.9331 17.9811 28.8347 18.2185 28.6597 18.3935C28.4847 18.5686 28.2473 18.6669 27.9997 18.6669Z" fill="#262121"/>
<path d="M41.9989 28.0003C41.8301 28.0001 41.6644 27.9542 41.5195 27.8673C41.3747 27.7804 41.2562 27.6558 41.1766 27.5069C41.097 27.3579 41.0593 27.1901 41.0675 27.0214C41.0758 26.8527 41.1296 26.6894 41.2233 26.5489L43.09 23.7489C43.2274 23.543 43.441 23.4001 43.6837 23.3516C43.9265 23.3031 44.1786 23.353 44.3845 23.4904C44.5905 23.6278 44.7334 23.8414 44.7819 24.0841C44.8304 24.3269 44.7805 24.579 44.6431 24.7849L42.7764 27.5849C42.6911 27.7129 42.5754 27.8177 42.4398 27.8902C42.3042 27.9626 42.1527 28.0005 41.9989 28.0003Z" fill="#262121"/>
<path d="M45.734 28.0004C45.5802 28.0006 45.4288 27.9627 45.2932 27.8903C45.1575 27.8178 45.0419 27.713 44.9565 27.5851L43.0899 24.7851C42.9646 24.5791 42.9238 24.3328 42.9759 24.0975C43.0281 23.8622 43.1691 23.6561 43.3696 23.5223C43.5701 23.3886 43.8146 23.3375 44.0519 23.3798C44.2891 23.422 44.5009 23.5543 44.6429 23.7491L46.5096 26.5491C46.603 26.6896 46.6566 26.8529 46.6647 27.0214C46.6727 27.19 46.635 27.3576 46.5555 27.5065C46.4759 27.6553 46.3575 27.7798 46.2129 27.8668C46.0683 27.9538 45.9028 27.9999 45.734 28.0004ZM27.9997 27.0671C27.7522 27.0671 27.5148 26.9687 27.3398 26.7937C27.1647 26.6187 27.0664 26.3813 27.0664 26.1337V23.3337C27.0664 23.0862 27.1647 22.8488 27.3398 22.6738C27.5148 22.4987 27.7522 22.4004 27.9997 22.4004C28.2473 22.4004 28.4847 22.4987 28.6597 22.6738C28.8347 22.8488 28.9331 23.0862 28.9331 23.3337V26.1337C28.9331 26.3813 28.8347 26.6187 28.6597 26.7937C28.4847 26.9687 28.2473 27.0671 27.9997 27.0671Z" fill="#262121"/>
<path d="M55.0667 35.4667H0.933333C0.685798 35.4667 0.448401 35.3683 0.273367 35.1933C0.0983331 35.0183 0 34.7809 0 34.5333V3.73427C0.00123489 2.74426 0.395062 1.79515 1.09511 1.09511C1.79515 0.395062 2.74426 0.00123489 3.73427 0L52.2657 0C53.2557 0.00123489 54.2048 0.395062 54.9049 1.09511C55.6049 1.79515 55.9988 2.74426 56 3.73427V34.5333C56 34.7809 55.9017 35.0183 55.7266 35.1933C55.5516 35.3683 55.3142 35.4667 55.0667 35.4667ZM1.86667 33.6H54.1333V3.73427C54.1331 3.23902 53.9362 2.76414 53.5861 2.41395C53.2359 2.06376 52.761 1.86691 52.2657 1.86667H3.73427C3.23902 1.86691 2.76414 2.06376 2.41395 2.41395C2.06376 2.76414 1.86691 3.23902 1.86667 3.73427V33.6Z" fill="#262121"/>
<path d="M52.2657 42.9329H3.73427C2.74426 42.9317 1.79515 42.5379 1.09511 41.8378C0.395062 41.1378 0.00123489 40.1887 0 39.1987L0 34.5329C0 34.2854 0.0983331 34.048 0.273367 33.873C0.448401 33.6979 0.685798 33.5996 0.933333 33.5996H55.0667C55.3142 33.5996 55.5516 33.6979 55.7266 33.873C55.9017 34.048 56 34.2854 56 34.5329V39.1987C55.9988 40.1887 55.6049 41.1378 54.9049 41.8378C54.2048 42.5379 53.2557 42.9317 52.2657 42.9329ZM1.86667 35.4663V39.1987C1.86667 40.2291 2.70387 41.0663 3.73427 41.0663H52.2657C52.761 41.066 53.2359 40.8692 53.5861 40.519C53.9362 40.1688 54.1331 39.6939 54.1333 39.1987V35.4663H1.86667Z" fill="#262121"/>
<path d="M30.7991 39.2001H25.1991C24.9516 39.2001 24.7142 39.1017 24.5391 38.9267C24.3641 38.7517 24.2658 38.5143 24.2658 38.2667C24.2658 38.0192 24.3641 37.7818 24.5391 37.6068C24.7142 37.4317 24.9516 37.3334 25.1991 37.3334H30.7991C31.0466 37.3334 31.284 37.4317 31.4591 37.6068C31.6341 37.7818 31.7324 38.0192 31.7324 38.2667C31.7324 38.5143 31.6341 38.7517 31.4591 38.9267C31.284 39.1017 31.0466 39.2001 30.7991 39.2001ZM51.3324 35.4667H4.66576C4.41822 35.4667 4.18082 35.3684 4.00579 35.1934C3.83076 35.0183 3.73242 34.7809 3.73242 34.5334V4.66673C3.73242 4.4192 3.83076 4.1818 4.00579 4.00677C4.18082 3.83173 4.41822 3.7334 4.66576 3.7334H51.3324C51.58 3.7334 51.8174 3.83173 51.9924 4.00677C52.1674 4.1818 52.2658 4.4192 52.2658 4.66673V34.5334C52.2658 34.7809 52.1674 35.0183 51.9924 35.1934C51.8174 35.3684 51.58 35.4667 51.3324 35.4667ZM5.59909 33.6001H50.3991V5.60007H5.59909V33.6001ZM40.1324 54.1334H15.8658C14.322 54.1334 13.0658 52.8771 13.0658 51.3334C13.0658 49.7897 14.322 48.5334 15.8658 48.5334H40.1324C41.6762 48.5334 42.9324 49.7897 42.9324 51.3334C42.9324 52.8771 41.6762 54.1334 40.1324 54.1334ZM15.8658 50.4001C15.3515 50.4001 14.9324 50.8191 14.9324 51.3334C14.9324 51.8477 15.3515 52.2667 15.8658 52.2667H40.1324C40.6467 52.2667 41.0658 51.8477 41.0658 51.3334C41.0658 50.8191 40.6467 50.4001 40.1324 50.4001H15.8658Z" fill="#262121"/>
<path d="M38.2674 50.4002H17.7341C17.4866 50.4002 17.2492 50.3019 17.0741 50.1269C16.8991 49.9518 16.8008 49.7144 16.8008 49.4669C16.8008 49.2194 16.8991 48.982 17.0741 48.8069C17.2492 48.6319 17.4866 48.5336 17.7341 48.5336C20.8309 48.5336 22.4008 46.3356 22.4008 42.0002C22.4008 41.7527 22.4991 41.5153 22.6741 41.3403C22.8492 41.1652 23.0866 41.0669 23.3341 41.0669H32.6674C32.915 41.0669 33.1524 41.1652 33.3274 41.3403C33.5025 41.5153 33.6008 41.7527 33.6008 42.0002C33.6008 46.3356 35.1706 48.5336 38.2674 48.5336C38.515 48.5336 38.7524 48.6319 38.9274 48.8069C39.1025 48.982 39.2008 49.2194 39.2008 49.4669C39.2008 49.7144 39.1025 49.9518 38.9274 50.1269C38.7524 50.3019 38.515 50.4002 38.2674 50.4002ZM22.2804 48.5336H33.7221C32.5723 47.2605 31.8956 45.3649 31.7602 42.9336H24.2422C24.106 45.3649 23.4302 47.2605 22.2804 48.5336Z" fill="#262121"/>
</svg>
