<svg width="16" height="16" viewBox="0 0 16 16" fill="none" xmlns="http://www.w3.org/2000/svg">
<path d="M14.8618 10.0125C14.9594 10.1102 14.9594 10.2685 14.8618 10.3661L13.8011 11.4268C13.7035 11.5244 13.5452 11.5244 13.4476 11.4268L6.73005 4.70924C6.63242 4.61161 6.63242 4.45332 6.73005 4.35569L7.79071 3.29503C7.88835 3.19739 8.04664 3.19739 8.14427 3.29503L14.8618 10.0125Z" fill="#FCFCFC"/>
<path d="M7.79071 3.29503C7.88835 3.19739 8.04664 3.19739 8.14427 3.29503L9.20495 4.35571C9.30258 4.45334 9.30258 4.61163 9.20495 4.70926L2.48744 11.4268C2.38981 11.5244 2.23151 11.5244 2.13388 11.4268L1.07322 10.3661C0.975592 10.2685 0.975592 10.1102 1.07322 10.0126L7.79071 3.29503Z" fill="#FCFCFC"/>
</svg>
