<svg width="40" height="55" viewBox="0 0 40 55" fill="none" xmlns="http://www.w3.org/2000/svg">
<path d="M0 37H40V54.5C40 54.7761 39.7761 55 39.5 55H0.5C0.223857 55 0 54.7761 0 54.5V37Z" fill="#F5E3E3"/>
<path d="M23.958 44.8539C24.014 44.7979 24.014 44.707 23.958 44.651L23.349 44.0421C23.293 43.986 23.2021 43.986 23.1461 44.0421L19.2896 47.8985C19.2335 47.9546 19.2335 48.0455 19.2896 48.1015L19.8985 48.7104C19.9546 48.7665 20.0454 48.7665 20.1015 48.7104L23.958 44.8539Z" fill="#AD1519"/>
<path d="M19.8985 48.7104C19.9546 48.7665 20.0454 48.7665 20.1015 48.7104L20.7104 48.1015C20.7665 48.0454 20.7665 47.9546 20.7104 47.8985L16.8539 44.042C16.7979 43.986 16.707 43.986 16.651 44.042L16.042 44.651C15.986 44.707 15.986 44.7979 16.042 44.8539L19.8985 48.7104Z" fill="#AD1519"/>
<path d="M0 0.5C0 0.223858 0.223858 0 0.5 0H39.5C39.7761 0 40 0.223858 40 0.5V36H0V0.5Z" fill="#F5E3E3"/>
<path d="M13.1382 20.0125C13.0406 20.1102 13.0406 20.2685 13.1382 20.3661L14.1989 21.4268C14.2965 21.5244 14.4548 21.5244 14.5524 21.4268L21.2699 14.7092C21.3676 14.6116 21.3676 14.4533 21.2699 14.3557L20.2093 13.295C20.1117 13.1974 19.9534 13.1974 19.8557 13.295L13.1382 20.0125Z" fill="#AD1519"/>
<path d="M20.2093 13.295C20.1117 13.1974 19.9534 13.1974 19.8557 13.295L18.795 14.3557C18.6974 14.4533 18.6974 14.6116 18.795 14.7093L25.5126 21.4268C25.6102 21.5244 25.7685 21.5244 25.8661 21.4268L26.9268 20.3661C27.0244 20.2685 27.0244 20.1102 26.9268 20.0126L20.2093 13.295Z" fill="#AD1519"/>
</svg>
