<svg width="12" height="12" viewBox="0 0 12 12" fill="none" xmlns="http://www.w3.org/2000/svg">
<path d="M4.85394 2.04204C4.79789 1.98599 4.70702 1.98599 4.65097 2.04204L4.04205 2.65096C3.986 2.707 3.986 2.79788 4.04205 2.85393L7.89853 6.71041C7.95458 6.76646 8.04546 6.76646 8.10151 6.71041L8.71042 6.10149C8.76647 6.04544 8.76647 5.95457 8.71042 5.89852L4.85394 2.04204Z" fill="#BFB6B6"/>
<path d="M8.71042 6.10149C8.76647 6.04544 8.76647 5.95457 8.71042 5.89852L8.10149 5.28959C8.04544 5.23354 7.95457 5.23354 7.89852 5.28959L4.04204 9.14607C3.98599 9.20212 3.98599 9.293 4.04204 9.34904L4.65096 9.95796C4.707 10.014 4.79788 10.014 4.85393 9.95796L8.71042 6.10149Z" fill="#BFB6B6"/>
</svg>
