<svg width="40" height="40" viewBox="0 0 40 40" fill="none" xmlns="http://www.w3.org/2000/svg">
<rect width="40" height="40" rx="1" fill="#140000"/>
<path fill-rule="evenodd" clip-rule="evenodd" d="M9.00055 18.537C8.99374 17.2912 9.23242 16.0563 9.70296 14.9027C10.1735 13.7491 10.8667 12.6995 11.7429 11.8139C12.6191 10.9283 13.6612 10.2239 14.8097 9.74108C15.9582 9.25826 17.1905 9.00648 18.4363 9C19.6781 9.00024 20.9073 9.24745 22.0527 9.72711C23.198 10.2068 24.2365 10.9094 25.1078 11.794C26.8799 13.5908 27.8726 16.0134 27.871 18.537C27.8845 19.7847 27.6504 21.0225 27.1823 22.179C26.7142 23.3356 26.0213 24.3878 25.1438 25.2748C24.2663 26.1618 23.2217 26.866 22.0702 27.3466C20.9188 27.8272 19.6835 28.0746 18.4358 28.0746C17.1881 28.0746 15.9528 27.8272 14.8014 27.3466C13.6499 26.866 12.6052 26.1618 11.7278 25.2748C10.8503 24.3878 10.1574 23.3356 9.6893 22.179C9.22118 21.0225 8.98708 19.7847 9.00055 18.537ZM27.7148 26.215L30.5253 28.492H30.5737C30.8469 28.769 31 29.1425 31 29.5315C31 29.9206 30.8469 30.2939 30.5737 30.571C30.4389 30.7069 30.2786 30.8149 30.1019 30.8885C29.9251 30.9622 29.7356 31.0001 29.5441 31.0001C29.3527 31.0001 29.1631 30.9622 28.9864 30.8885C28.8097 30.8149 28.6493 30.7069 28.5145 30.571L26.1825 27.898C25.9626 27.6753 25.8389 27.3751 25.8382 27.062C25.8387 26.7457 25.9622 26.442 26.1825 26.215C26.3869 26.0139 26.662 25.9012 26.9487 25.9012C27.2353 25.9012 27.5105 26.0139 27.7148 26.215Z" fill="white"/>
</svg>
