<svg width="24" height="24" viewBox="0 0 24 24" fill="none" xmlns="http://www.w3.org/2000/svg">
<path fill-rule="evenodd" clip-rule="evenodd" d="M0.000600045 10.404C-0.0068261 9.04492 0.253553 7.69769 0.766865 6.43927C1.28018 5.18085 2.03637 4.03584 2.99225 3.06971C3.94812 2.10358 5.08496 1.33515 6.33784 0.808442C7.59071 0.281735 8.93507 0.00707223 10.2941 0C11.6487 0.000267204 12.9897 0.269945 14.2392 0.793208C15.4886 1.31647 16.6216 2.08292 17.5721 3.04803C19.5052 5.00815 20.5882 7.65099 20.5865 10.404C20.6012 11.765 20.3458 13.1154 19.8351 14.3771C19.3244 15.6387 18.5686 16.7866 17.6114 17.7542C16.6541 18.7219 15.5145 19.4901 14.2584 20.0143C13.0023 20.5386 11.6547 20.8086 10.2935 20.8086C8.93242 20.8086 7.58481 20.5386 6.32872 20.0143C5.07262 19.4901 3.93297 18.7219 2.97572 17.7542C2.01847 16.7866 1.26264 15.6387 0.751962 14.3771C0.241285 13.1154 -0.0140959 11.765 0.000600045 10.404ZM20.4161 18.7799L23.4821 21.2638H23.5349C23.8328 21.5661 23.9999 21.9735 23.9999 22.3979C23.9999 22.8223 23.8328 23.2296 23.5349 23.5318C23.3878 23.6802 23.2129 23.7979 23.0201 23.8783C22.8273 23.9586 22.6205 24 22.4117 24C22.2028 24 21.996 23.9586 21.8032 23.8783C21.6105 23.7979 21.4355 23.6802 21.2885 23.5318L18.7445 20.6159C18.5045 20.373 18.3696 20.0454 18.3689 19.7039C18.3694 19.3589 18.5041 19.0275 18.7445 18.7799C18.9674 18.5606 19.2676 18.4376 19.5803 18.4376C19.893 18.4376 20.1932 18.5606 20.4161 18.7799Z" fill="#140000"/>
</svg>
