<svg width="48" height="48" viewBox="0 0 48 48" fill="none" xmlns="http://www.w3.org/2000/svg">
<rect x="0.25" y="0.25" width="47.5" height="47.5" rx="0.75" stroke="#140000" stroke-width="0.5"/>
<path fill-rule="evenodd" clip-rule="evenodd" d="M10.0007 22.1381C9.99204 20.5525 10.2958 18.9807 10.8947 17.5125C11.4935 16.0444 12.3758 14.7085 13.491 13.5813C14.6062 12.4542 15.9325 11.5577 17.3942 10.9432C18.8559 10.3287 20.4243 10.0083 22.0099 10C23.5903 10.0003 25.1548 10.3149 26.6125 10.9254C28.0702 11.5359 29.3919 12.4301 30.5009 13.5561C32.7562 15.8429 34.0197 18.9262 34.0177 22.1381C34.0348 23.7259 33.7369 25.3014 33.1411 26.7733C32.5453 28.2453 31.6635 29.5845 30.5467 30.7134C29.4299 31.8423 28.1003 32.7385 26.6348 33.3502C25.1694 33.9618 23.5972 34.2768 22.0092 34.2768C20.4212 34.2768 18.849 33.9618 17.3835 33.3502C15.9181 32.7385 14.5885 31.8423 13.4717 30.7134C12.3549 29.5845 11.4731 28.2453 10.8773 26.7733C10.2815 25.3014 9.98355 23.7259 10.0007 22.1381ZM33.8189 31.91L37.3959 34.8079H37.4575C37.8051 35.1605 38 35.6359 38 36.131C38 36.6262 37.8051 37.1014 37.4575 37.454C37.2859 37.627 37.0818 37.7644 36.8569 37.8581C36.632 37.9519 36.3907 38.0002 36.1471 38.0002C35.9034 38.0002 35.6622 37.9519 35.4373 37.8581C35.2123 37.7644 35.0082 37.627 34.8367 37.454L31.8687 34.0521C31.5887 33.7686 31.4314 33.3865 31.4305 32.988C31.4311 32.5855 31.5883 32.1989 31.8687 31.91C32.1287 31.6541 32.4789 31.5106 32.8438 31.5106C33.2086 31.5106 33.5588 31.6541 33.8189 31.91Z" fill="#140000"/>
</svg>
