<svg width="40" height="56" viewBox="0 0 40 56" fill="none" xmlns="http://www.w3.org/2000/svg">
<rect width="40" height="56" rx="1" fill="#140000"/>
<path fill-rule="evenodd" clip-rule="evenodd" d="M15.3225 27.9997C15.3178 28.9263 15.5882 29.8334 16.0995 30.6061C16.6109 31.3789 17.3401 31.9824 18.1948 32.3403C19.0495 32.6982 19.9912 32.7944 20.9006 32.6166C21.81 32.4387 22.6461 31.9948 23.303 31.3413C23.9599 30.6878 24.408 29.8539 24.5905 28.9455C24.7731 28.037 24.6818 27.0949 24.3283 26.2384C23.9748 25.3818 23.375 24.6495 22.6049 24.1342C21.8348 23.6189 20.929 23.3438 20.0024 23.3438C19.3894 23.3422 18.7821 23.4613 18.2152 23.6944C17.6482 23.9276 17.1328 24.2702 16.6982 24.7025C16.2636 25.1349 15.9185 25.6485 15.6824 26.2142C15.4464 26.7799 15.3241 27.3867 15.3225 27.9997ZM26.889 20.8599C29.1186 22.659 30.8531 24.9963 31.9289 27.6516C31.9758 27.7595 32 27.876 32 27.9936C32 28.1113 31.9758 28.2278 31.9289 28.3357C29.4245 34.1315 24.9691 37.5994 20 37.5994H19.988C15.0357 37.5994 10.5755 34.1315 8.07112 28.3357C8.02421 28.2278 8 28.1113 8 27.9936C8 27.876 8.02421 27.7595 8.07112 27.6516C10.5755 21.8558 15.0309 18.3999 19.988 18.3999H20.0024C22.5089 18.4202 24.9349 19.2872 26.8866 20.8599H26.889ZM20.0024 30.8916C20.7726 30.8916 21.5112 30.5856 22.0558 30.041C22.6004 29.4964 22.9063 28.7578 22.9063 27.9876C22.9063 27.2175 22.6004 26.4789 22.0558 25.9343C21.5112 25.3897 20.7726 25.0837 20.0024 25.0837C19.8652 25.0832 19.7282 25.0953 19.5932 25.1197C19.5702 25.74 19.307 26.3272 18.8592 26.7571C18.4114 27.1869 17.814 27.426 17.1933 27.4237H17.1345C17.097 27.6135 17.0774 27.8063 17.0757 27.9997C17.0808 28.7711 17.3918 29.509 17.9406 30.0513C18.4894 30.5935 19.2309 30.8958 20.0024 30.8916Z" fill="white"/>
</svg>
