<svg width="16" height="16" viewBox="0 0 16 16" fill="none" xmlns="http://www.w3.org/2000/svg">
<path d="M10.0125 1.13822C10.1102 1.04059 10.2685 1.04059 10.3661 1.13822L11.4268 2.19888C11.5244 2.29651 11.5244 2.4548 11.4268 2.55243L4.70924 9.26995C4.61161 9.36758 4.45332 9.36758 4.35569 9.26995L3.29503 8.20929C3.19739 8.11166 3.19739 7.95336 3.29503 7.85573L10.0125 1.13822Z" fill="#262121"/>
<path d="M3.29503 8.20929C3.19739 8.11166 3.19739 7.95336 3.29503 7.85573L4.35571 6.79505C4.45334 6.69742 4.61163 6.69742 4.70926 6.79505L11.4268 13.5126C11.5244 13.6102 11.5244 13.7685 11.4268 13.8661L10.3661 14.9268C10.2685 15.0244 10.1102 15.0244 10.0126 14.9268L3.29503 8.20929Z" fill="#262121"/>
</svg>
