<svg width="136" height="15" viewBox="0 0 136 15" fill="none" xmlns="http://www.w3.org/2000/svg">
<path d="M4.13293 11C3.99293 11 3.88093 10.9673 3.79693 10.902C3.72226 10.8367 3.6616 10.748 3.61493 10.636L0.49293 1.634C0.474263 1.578 0.46493 1.52667 0.46493 1.48C0.46493 1.40533 0.49293 1.34 0.54893 1.284C0.60493 1.228 0.670263 1.2 0.74493 1.2H1.47293C1.58493 1.2 1.66893 1.23267 1.72493 1.298C1.79026 1.354 1.8276 1.40533 1.83693 1.452L4.58093 9.39L7.32493 1.452C7.3436 1.40533 7.38093 1.354 7.43693 1.298C7.49293 1.23267 7.57693 1.2 7.68893 1.2H8.41693C8.4916 1.2 8.55693 1.228 8.61293 1.284C8.67826 1.34 8.71093 1.40533 8.71093 1.48C8.71093 1.52667 8.7016 1.578 8.68293 1.634L5.54693 10.636C5.5096 10.748 5.44893 10.8367 5.36493 10.902C5.29026 10.9673 5.18293 11 5.04293 11H4.13293ZM10.3434 11C10.25 11 10.1707 10.972 10.1054 10.916C10.0494 10.8507 10.0214 10.7713 10.0214 10.678V4.042C10.0214 3.94867 10.0494 3.874 10.1054 3.818C10.1707 3.75267 10.25 3.72 10.3434 3.72H11.0154C11.1087 3.72 11.1834 3.75267 11.2394 3.818C11.2954 3.874 11.3234 3.94867 11.3234 4.042V10.678C11.3234 10.7713 11.2954 10.8507 11.2394 10.916C11.1834 10.972 11.1087 11 11.0154 11H10.3434ZM10.2314 2.362C10.138 2.362 10.0587 2.334 9.99335 2.278C9.93735 2.21267 9.90935 2.13333 9.90935 2.04V1.284C9.90935 1.19067 9.93735 1.116 9.99335 1.06C10.0587 0.994666 10.138 0.962 10.2314 0.962H11.1134C11.2067 0.962 11.2814 0.994666 11.3374 1.06C11.4027 1.116 11.4354 1.19067 11.4354 1.284V2.04C11.4354 2.13333 11.4027 2.21267 11.3374 2.278C11.2814 2.334 11.2067 2.362 11.1134 2.362H10.2314ZM16.3373 11.14C15.376 11.14 14.6107 10.846 14.0413 10.258C13.472 9.66067 13.1593 8.84867 13.1033 7.822C13.094 7.70067 13.0893 7.54667 13.0893 7.36C13.0893 7.164 13.094 7.00533 13.1033 6.884C13.1407 6.22133 13.2947 5.64267 13.5653 5.148C13.836 4.644 14.2047 4.25667 14.6713 3.986C15.1473 3.71533 15.7027 3.58 16.3373 3.58C17.0467 3.58 17.6393 3.72933 18.1153 4.028C18.6007 4.32667 18.9693 4.75133 19.2213 5.302C19.4733 5.85267 19.5993 6.49667 19.5993 7.234V7.472C19.5993 7.57467 19.5667 7.654 19.5013 7.71C19.4453 7.766 19.3707 7.794 19.2773 7.794H14.4333C14.4333 7.80333 14.4333 7.822 14.4333 7.85C14.4333 7.878 14.4333 7.90133 14.4333 7.92C14.452 8.30267 14.536 8.662 14.6853 8.998C14.8347 9.32467 15.0493 9.59067 15.3293 9.796C15.6093 10.0013 15.9453 10.104 16.3373 10.104C16.6733 10.104 16.9533 10.0527 17.1773 9.95C17.4013 9.84733 17.5833 9.73533 17.7233 9.614C17.8633 9.48333 17.9567 9.38533 18.0033 9.32C18.0873 9.19867 18.1527 9.12867 18.1993 9.11C18.246 9.082 18.3207 9.068 18.4233 9.068H19.0953C19.1887 9.068 19.2633 9.096 19.3193 9.152C19.3847 9.19867 19.4127 9.26867 19.4033 9.362C19.394 9.502 19.3193 9.67467 19.1793 9.88C19.0393 10.076 18.8387 10.272 18.5773 10.468C18.316 10.664 17.9987 10.8273 17.6253 10.958C17.252 11.0793 16.8227 11.14 16.3373 11.14ZM14.4333 6.828H18.2693V6.786C18.2693 6.366 18.19 5.99267 18.0313 5.666C17.882 5.33933 17.6627 5.08267 17.3733 4.896C17.084 4.7 16.7387 4.602 16.3373 4.602C15.936 4.602 15.5907 4.7 15.3013 4.896C15.0213 5.08267 14.8067 5.33933 14.6573 5.666C14.508 5.99267 14.4333 6.366 14.4333 6.786V6.828ZM23.0139 11C22.8926 11 22.7992 10.972 22.7339 10.916C22.6686 10.8507 22.6126 10.762 22.5659 10.65L20.5779 4.154C20.5592 4.10733 20.5499 4.06067 20.5499 4.014C20.5499 3.93 20.5779 3.86 20.6339 3.804C20.6992 3.748 20.7692 3.72 20.8439 3.72H21.4599C21.5626 3.72 21.6419 3.748 21.6979 3.804C21.7539 3.86 21.7912 3.91133 21.8099 3.958L23.3639 9.236L25.0299 4.014C25.0486 3.94867 25.0859 3.88333 25.1419 3.818C25.2072 3.75267 25.3006 3.72 25.4219 3.72H25.8979C26.0192 3.72 26.1126 3.75267 26.1779 3.818C26.2432 3.88333 26.2806 3.94867 26.2899 4.014L27.9559 9.236L29.5099 3.958C29.5192 3.91133 29.5519 3.86 29.6079 3.804C29.6639 3.748 29.7432 3.72 29.8459 3.72H30.4619C30.5459 3.72 30.6159 3.748 30.6719 3.804C30.7279 3.86 30.7559 3.93 30.7559 4.014C30.7559 4.06067 30.7466 4.10733 30.7279 4.154L28.7399 10.65C28.7119 10.762 28.6606 10.8507 28.5859 10.916C28.5206 10.972 28.4226 11 28.2919 11H27.7459C27.6246 11 27.5219 10.972 27.4379 10.916C27.3632 10.8507 27.3119 10.762 27.2839 10.65L25.6599 5.638L24.0359 10.65C23.9986 10.762 23.9426 10.8507 23.8679 10.916C23.7932 10.972 23.6906 11 23.5599 11H23.0139ZM38.35 11.14C37.6874 11.14 37.1134 11.014 36.628 10.762C36.152 10.5007 35.7834 10.132 35.522 9.656C35.2607 9.17067 35.1207 8.592 35.102 7.92C35.0927 7.78 35.088 7.59333 35.088 7.36C35.088 7.12667 35.0927 6.94 35.102 6.8C35.1207 6.128 35.2607 5.554 35.522 5.078C35.7834 4.59267 36.152 4.224 36.628 3.972C37.1134 3.71067 37.6874 3.58 38.35 3.58C38.8914 3.58 39.3534 3.65467 39.736 3.804C40.128 3.95333 40.45 4.14467 40.702 4.378C40.954 4.61133 41.1407 4.86333 41.262 5.134C41.3927 5.40467 41.4627 5.66133 41.472 5.904C41.4814 5.99733 41.4534 6.072 41.388 6.128C41.3227 6.184 41.2434 6.212 41.15 6.212H40.478C40.3847 6.212 40.3147 6.19333 40.268 6.156C40.2214 6.10933 40.1747 6.03467 40.128 5.932C39.96 5.47467 39.7314 5.15267 39.442 4.966C39.1527 4.77933 38.7934 4.686 38.364 4.686C37.804 4.686 37.3467 4.85867 36.992 5.204C36.6467 5.54933 36.46 6.10467 36.432 6.87C36.4227 7.206 36.4227 7.53267 36.432 7.85C36.46 8.62467 36.6467 9.18467 36.992 9.53C37.3467 9.866 37.804 10.034 38.364 10.034C38.7934 10.034 39.1527 9.94067 39.442 9.754C39.7314 9.56733 39.96 9.24533 40.128 8.788C40.1747 8.68533 40.2214 8.61533 40.268 8.578C40.3147 8.53133 40.3847 8.508 40.478 8.508H41.15C41.2434 8.508 41.3227 8.536 41.388 8.592C41.4534 8.648 41.4814 8.72267 41.472 8.816C41.4627 9.012 41.4207 9.21267 41.346 9.418C41.2714 9.62333 41.15 9.83333 40.982 10.048C40.8234 10.2533 40.6227 10.44 40.38 10.608C40.1374 10.7667 39.8434 10.8973 39.498 11C39.162 11.0933 38.7794 11.14 38.35 11.14ZM45.1646 11.14C44.698 11.14 44.2733 11.0467 43.8906 10.86C43.508 10.6733 43.2 10.4213 42.9666 10.104C42.7333 9.78667 42.6166 9.42733 42.6166 9.026C42.6166 8.382 42.878 7.86867 43.4006 7.486C43.9233 7.10333 44.6046 6.85133 45.4446 6.73L47.5306 6.436V6.03C47.5306 5.582 47.4 5.232 47.1386 4.98C46.8866 4.728 46.4713 4.602 45.8926 4.602C45.4726 4.602 45.132 4.686 44.8706 4.854C44.6186 5.022 44.4413 5.23667 44.3386 5.498C44.2826 5.638 44.1846 5.708 44.0446 5.708H43.4146C43.312 5.708 43.2326 5.68 43.1766 5.624C43.13 5.55867 43.1066 5.484 43.1066 5.4C43.1066 5.26 43.158 5.08733 43.2606 4.882C43.3726 4.67667 43.5406 4.476 43.7646 4.28C43.9886 4.084 44.2733 3.92067 44.6186 3.79C44.9733 3.65 45.4026 3.58 45.9066 3.58C46.4666 3.58 46.938 3.65467 47.3206 3.804C47.7033 3.944 48.002 4.13533 48.2166 4.378C48.4406 4.62067 48.5993 4.896 48.6926 5.204C48.7953 5.512 48.8466 5.82467 48.8466 6.142V10.678C48.8466 10.7713 48.814 10.8507 48.7486 10.916C48.6926 10.972 48.618 11 48.5246 11H47.8806C47.778 11 47.6986 10.972 47.6426 10.916C47.5866 10.8507 47.5586 10.7713 47.5586 10.678V10.076C47.4373 10.244 47.274 10.412 47.0686 10.58C46.8633 10.7387 46.6066 10.874 46.2986 10.986C45.9906 11.0887 45.6126 11.14 45.1646 11.14ZM45.4586 10.09C45.8413 10.09 46.1913 10.0107 46.5086 9.852C46.826 9.684 47.0733 9.42733 47.2506 9.082C47.4373 8.73667 47.5306 8.30267 47.5306 7.78V7.388L45.9066 7.626C45.244 7.71933 44.7446 7.878 44.4086 8.102C44.0726 8.31667 43.9046 8.592 43.9046 8.928C43.9046 9.18933 43.9793 9.40867 44.1286 9.586C44.2873 9.754 44.4833 9.88 44.7166 9.964C44.9593 10.048 45.2066 10.09 45.4586 10.09ZM51.1812 11C51.0879 11 51.0086 10.972 50.9432 10.916C50.8872 10.8507 50.8592 10.7713 50.8592 10.678V4.056C50.8592 3.96267 50.8872 3.88333 50.9432 3.818C51.0086 3.75267 51.0879 3.72 51.1812 3.72H51.8252C51.9186 3.72 51.9979 3.75267 52.0632 3.818C52.1286 3.88333 52.1612 3.96267 52.1612 4.056V4.672C52.3479 4.35467 52.6046 4.11667 52.9312 3.958C53.2579 3.79933 53.6499 3.72 54.1072 3.72H54.6672C54.7606 3.72 54.8352 3.75267 54.8912 3.818C54.9472 3.874 54.9752 3.94867 54.9752 4.042V4.616C54.9752 4.70933 54.9472 4.784 54.8912 4.84C54.8352 4.896 54.7606 4.924 54.6672 4.924H53.8272C53.3232 4.924 52.9266 5.07333 52.6372 5.372C52.3479 5.66133 52.2032 6.058 52.2032 6.562V10.678C52.2032 10.7713 52.1706 10.8507 52.1052 10.916C52.0399 10.972 51.9606 11 51.8672 11H51.1812ZM58.9389 11.14C57.9775 11.14 57.2122 10.846 56.6429 10.258C56.0735 9.66067 55.7609 8.84867 55.7049 7.822C55.6955 7.70067 55.6909 7.54667 55.6909 7.36C55.6909 7.164 55.6955 7.00533 55.7049 6.884C55.7422 6.22133 55.8962 5.64267 56.1669 5.148C56.4375 4.644 56.8062 4.25667 57.2729 3.986C57.7489 3.71533 58.3042 3.58 58.9389 3.58C59.6482 3.58 60.2409 3.72933 60.7169 4.028C61.2022 4.32667 61.5709 4.75133 61.8229 5.302C62.0749 5.85267 62.2009 6.49667 62.2009 7.234V7.472C62.2009 7.57467 62.1682 7.654 62.1029 7.71C62.0469 7.766 61.9722 7.794 61.8789 7.794H57.0349C57.0349 7.80333 57.0349 7.822 57.0349 7.85C57.0349 7.878 57.0349 7.90133 57.0349 7.92C57.0535 8.30267 57.1375 8.662 57.2869 8.998C57.4362 9.32467 57.6509 9.59067 57.9309 9.796C58.2109 10.0013 58.5469 10.104 58.9389 10.104C59.2749 10.104 59.5549 10.0527 59.7789 9.95C60.0029 9.84733 60.1849 9.73533 60.3249 9.614C60.4649 9.48333 60.5582 9.38533 60.6049 9.32C60.6889 9.19867 60.7542 9.12867 60.8009 9.11C60.8475 9.082 60.9222 9.068 61.0249 9.068H61.6969C61.7902 9.068 61.8649 9.096 61.9209 9.152C61.9862 9.19867 62.0142 9.26867 62.0049 9.362C61.9955 9.502 61.9209 9.67467 61.7809 9.88C61.6409 10.076 61.4402 10.272 61.1789 10.468C60.9175 10.664 60.6002 10.8273 60.2269 10.958C59.8535 11.0793 59.4242 11.14 58.9389 11.14ZM57.0349 6.828H60.8709V6.786C60.8709 6.366 60.7915 5.99267 60.6329 5.666C60.4835 5.33933 60.2642 5.08267 59.9749 4.896C59.6855 4.7 59.3402 4.602 58.9389 4.602C58.5375 4.602 58.1922 4.7 57.9029 4.896C57.6229 5.08267 57.4082 5.33933 57.2589 5.666C57.1095 5.99267 57.0349 6.366 57.0349 6.786V6.828ZM66.7729 11.14C65.8115 11.14 65.0462 10.846 64.4769 10.258C63.9075 9.66067 63.5949 8.84867 63.5389 7.822C63.5295 7.70067 63.5249 7.54667 63.5249 7.36C63.5249 7.164 63.5295 7.00533 63.5389 6.884C63.5762 6.22133 63.7302 5.64267 64.0009 5.148C64.2715 4.644 64.6402 4.25667 65.1069 3.986C65.5829 3.71533 66.1382 3.58 66.7729 3.58C67.4822 3.58 68.0749 3.72933 68.5509 4.028C69.0362 4.32667 69.4049 4.75133 69.6569 5.302C69.9089 5.85267 70.0349 6.49667 70.0349 7.234V7.472C70.0349 7.57467 70.0022 7.654 69.9369 7.71C69.8809 7.766 69.8062 7.794 69.7129 7.794H64.8689C64.8689 7.80333 64.8689 7.822 64.8689 7.85C64.8689 7.878 64.8689 7.90133 64.8689 7.92C64.8875 8.30267 64.9715 8.662 65.1209 8.998C65.2702 9.32467 65.4849 9.59067 65.7649 9.796C66.0449 10.0013 66.3809 10.104 66.7729 10.104C67.1089 10.104 67.3889 10.0527 67.6129 9.95C67.8369 9.84733 68.0189 9.73533 68.1589 9.614C68.2989 9.48333 68.3922 9.38533 68.4389 9.32C68.5229 9.19867 68.5882 9.12867 68.6349 9.11C68.6815 9.082 68.7562 9.068 68.8589 9.068H69.5309C69.6242 9.068 69.6989 9.096 69.7549 9.152C69.8202 9.19867 69.8482 9.26867 69.8389 9.362C69.8295 9.502 69.7549 9.67467 69.6149 9.88C69.4749 10.076 69.2742 10.272 69.0129 10.468C68.7515 10.664 68.4342 10.8273 68.0609 10.958C67.6875 11.0793 67.2582 11.14 66.7729 11.14ZM64.8689 6.828H68.7049V6.786C68.7049 6.366 68.6255 5.99267 68.4669 5.666C68.3175 5.33933 68.0982 5.08267 67.8089 4.896C67.5195 4.7 67.1742 4.602 66.7729 4.602C66.3715 4.602 66.0262 4.7 65.7369 4.896C65.4569 5.08267 65.2422 5.33933 65.0929 5.666C64.9435 5.99267 64.8689 6.366 64.8689 6.786V6.828ZM72.0309 11C71.9375 11 71.8582 10.972 71.7929 10.916C71.7369 10.8507 71.7089 10.7713 71.7089 10.678V4.056C71.7089 3.96267 71.7369 3.88333 71.7929 3.818C71.8582 3.75267 71.9375 3.72 72.0309 3.72H72.6749C72.7682 3.72 72.8475 3.75267 72.9129 3.818C72.9782 3.88333 73.0109 3.96267 73.0109 4.056V4.672C73.1975 4.35467 73.4542 4.11667 73.7809 3.958C74.1075 3.79933 74.4995 3.72 74.9569 3.72H75.5169C75.6102 3.72 75.6849 3.75267 75.7409 3.818C75.7969 3.874 75.8249 3.94867 75.8249 4.042V4.616C75.8249 4.70933 75.7969 4.784 75.7409 4.84C75.6849 4.896 75.6102 4.924 75.5169 4.924H74.6769C74.1729 4.924 73.7762 5.07333 73.4869 5.372C73.1975 5.66133 73.0529 6.058 73.0529 6.562V10.678C73.0529 10.7713 73.0202 10.8507 72.9549 10.916C72.8895 10.972 72.8102 11 72.7169 11H72.0309ZM79.5472 11.14C79.0245 11.14 78.5765 11.0747 78.2032 10.944C77.8299 10.8133 77.5265 10.6547 77.2932 10.468C77.0599 10.2813 76.8825 10.0947 76.7612 9.908C76.6492 9.72133 76.5885 9.572 76.5792 9.46C76.5699 9.35733 76.6025 9.278 76.6772 9.222C76.7519 9.166 76.8265 9.138 76.9012 9.138H77.5172C77.5732 9.138 77.6152 9.14733 77.6432 9.166C77.6805 9.17533 77.7272 9.21267 77.7832 9.278C77.9045 9.40867 78.0399 9.53933 78.1892 9.67C78.3385 9.80067 78.5205 9.908 78.7352 9.992C78.9592 10.076 79.2345 10.118 79.5612 10.118C80.0372 10.118 80.4292 10.0293 80.7372 9.852C81.0452 9.66533 81.1992 9.39467 81.1992 9.04C81.1992 8.80667 81.1339 8.62 81.0032 8.48C80.8819 8.34 80.6579 8.214 80.3312 8.102C80.0139 7.99 79.5752 7.87333 79.0152 7.752C78.4552 7.62133 78.0119 7.46267 77.6852 7.276C77.3585 7.08 77.1252 6.85133 76.9852 6.59C76.8452 6.31933 76.7752 6.016 76.7752 5.68C76.7752 5.33467 76.8779 5.00333 77.0832 4.686C77.2885 4.35933 77.5872 4.09333 77.9792 3.888C78.3805 3.68267 78.8799 3.58 79.4772 3.58C79.9625 3.58 80.3779 3.64067 80.7232 3.762C81.0685 3.88333 81.3532 4.03733 81.5772 4.224C81.8012 4.40133 81.9692 4.57867 82.0812 4.756C82.1932 4.93333 82.2539 5.08267 82.2632 5.204C82.2725 5.29733 82.2445 5.37667 82.1792 5.442C82.1139 5.498 82.0392 5.526 81.9552 5.526H81.3672C81.3019 5.526 81.2459 5.512 81.1992 5.484C81.1619 5.456 81.1245 5.42333 81.0872 5.386C80.9939 5.26467 80.8819 5.14333 80.7512 5.022C80.6299 4.90067 80.4665 4.80267 80.2612 4.728C80.0652 4.644 79.8039 4.602 79.4772 4.602C79.0105 4.602 78.6605 4.7 78.4272 4.896C78.1939 5.092 78.0772 5.33933 78.0772 5.638C78.0772 5.81533 78.1285 5.974 78.2312 6.114C78.3339 6.254 78.5299 6.38 78.8192 6.492C79.1085 6.604 79.5379 6.72533 80.1072 6.856C80.7232 6.97733 81.2085 7.14067 81.5632 7.346C81.9179 7.55133 82.1699 7.78933 82.3192 8.06C82.4685 8.33067 82.5432 8.64333 82.5432 8.998C82.5432 9.39 82.4265 9.74933 82.1932 10.076C81.9692 10.4027 81.6332 10.664 81.1852 10.86C80.7465 11.0467 80.2005 11.14 79.5472 11.14ZM87.9316 13.66C87.8382 13.66 87.7589 13.6273 87.6936 13.562C87.6376 13.506 87.6096 13.4313 87.6096 13.338V4.042C87.6096 3.94867 87.6376 3.874 87.6936 3.818C87.7589 3.75267 87.8382 3.72 87.9316 3.72H88.5756C88.6689 3.72 88.7436 3.75267 88.7996 3.818C88.8649 3.874 88.8976 3.94867 88.8976 4.042V4.658C89.1216 4.35 89.4202 4.09333 89.7936 3.888C90.1669 3.68267 90.6336 3.58 91.1936 3.58C91.7162 3.58 92.1596 3.66867 92.5236 3.846C92.8969 4.02333 93.2002 4.266 93.4336 4.574C93.6762 4.882 93.8582 5.232 93.9796 5.624C94.1009 6.016 94.1662 6.436 94.1756 6.884C94.1849 7.03333 94.1896 7.192 94.1896 7.36C94.1896 7.528 94.1849 7.68667 94.1756 7.836C94.1662 8.27467 94.1009 8.69467 93.9796 9.096C93.8582 9.488 93.6762 9.838 93.4336 10.146C93.2002 10.4447 92.8969 10.6873 92.5236 10.874C92.1596 11.0513 91.7162 11.14 91.1936 11.14C90.6522 11.14 90.1949 11.042 89.8216 10.846C89.4576 10.6407 89.1589 10.3887 88.9256 10.09V13.338C88.9256 13.4313 88.8976 13.506 88.8416 13.562C88.7856 13.6273 88.7062 13.66 88.6036 13.66H87.9316ZM90.8996 10.006C91.3849 10.006 91.7629 9.90333 92.0336 9.698C92.3136 9.48333 92.5142 9.208 92.6356 8.872C92.7569 8.52667 92.8269 8.158 92.8456 7.766C92.8549 7.49533 92.8549 7.22467 92.8456 6.954C92.8269 6.562 92.7569 6.198 92.6356 5.862C92.5142 5.51667 92.3136 5.24133 92.0336 5.036C91.7629 4.82133 91.3849 4.714 90.8996 4.714C90.4422 4.714 90.0689 4.82133 89.7796 5.036C89.4996 5.25067 89.2896 5.526 89.1496 5.862C89.0189 6.18867 88.9442 6.52467 88.9256 6.87C88.9162 7.01933 88.9116 7.19667 88.9116 7.402C88.9116 7.60733 88.9162 7.78933 88.9256 7.948C88.9349 8.27467 89.0096 8.59667 89.1496 8.914C89.2989 9.23133 89.5182 9.49267 89.8076 9.698C90.0969 9.90333 90.4609 10.006 90.8996 10.006ZM97.9654 11.14C97.4987 11.14 97.0741 11.0467 96.6914 10.86C96.3087 10.6733 96.0007 10.4213 95.7674 10.104C95.5341 9.78667 95.4174 9.42733 95.4174 9.026C95.4174 8.382 95.6787 7.86867 96.2014 7.486C96.7241 7.10333 97.4054 6.85133 98.2454 6.73L100.331 6.436V6.03C100.331 5.582 100.201 5.232 99.9394 4.98C99.6874 4.728 99.2721 4.602 98.6934 4.602C98.2734 4.602 97.9327 4.686 97.6714 4.854C97.4194 5.022 97.2421 5.23667 97.1394 5.498C97.0834 5.638 96.9854 5.708 96.8454 5.708H96.2154C96.1127 5.708 96.0334 5.68 95.9774 5.624C95.9307 5.55867 95.9074 5.484 95.9074 5.4C95.9074 5.26 95.9587 5.08733 96.0614 4.882C96.1734 4.67667 96.3414 4.476 96.5654 4.28C96.7894 4.084 97.0741 3.92067 97.4194 3.79C97.7741 3.65 98.2034 3.58 98.7074 3.58C99.2674 3.58 99.7387 3.65467 100.121 3.804C100.504 3.944 100.803 4.13533 101.017 4.378C101.241 4.62067 101.4 4.896 101.493 5.204C101.596 5.512 101.647 5.82467 101.647 6.142V10.678C101.647 10.7713 101.615 10.8507 101.549 10.916C101.493 10.972 101.419 11 101.325 11H100.681C100.579 11 100.499 10.972 100.443 10.916C100.387 10.8507 100.359 10.7713 100.359 10.678V10.076C100.238 10.244 100.075 10.412 99.8694 10.58C99.6641 10.7387 99.4074 10.874 99.0994 10.986C98.7914 11.0887 98.4134 11.14 97.9654 11.14ZM98.2594 10.09C98.6421 10.09 98.9921 10.0107 99.3094 9.852C99.6267 9.684 99.8741 9.42733 100.051 9.082C100.238 8.73667 100.331 8.30267 100.331 7.78V7.388L98.7074 7.626C98.0447 7.71933 97.5454 7.878 97.2094 8.102C96.8734 8.31667 96.7054 8.592 96.7054 8.928C96.7054 9.18933 96.7801 9.40867 96.9294 9.586C97.0881 9.754 97.2841 9.88 97.5174 9.964C97.7601 10.048 98.0074 10.09 98.2594 10.09ZM106.642 14.08C106.007 14.08 105.485 13.996 105.074 13.828C104.673 13.66 104.355 13.4547 104.122 13.212C103.898 12.9787 103.735 12.7407 103.632 12.498C103.539 12.2647 103.487 12.078 103.478 11.938C103.469 11.8447 103.497 11.7653 103.562 11.7C103.637 11.6347 103.716 11.602 103.8 11.602H104.472C104.556 11.602 104.626 11.6207 104.682 11.658C104.738 11.6953 104.785 11.7747 104.822 11.896C104.878 12.036 104.962 12.19 105.074 12.358C105.186 12.5353 105.359 12.6847 105.592 12.806C105.825 12.9367 106.152 13.002 106.572 13.002C107.011 13.002 107.379 12.9413 107.678 12.82C107.977 12.708 108.201 12.5027 108.35 12.204C108.509 11.9147 108.588 11.5133 108.588 11V10.048C108.364 10.3373 108.07 10.58 107.706 10.776C107.342 10.9627 106.885 11.056 106.334 11.056C105.811 11.056 105.363 10.9673 104.99 10.79C104.617 10.6033 104.309 10.356 104.066 10.048C103.833 9.73067 103.655 9.37133 103.534 8.97C103.422 8.56867 103.357 8.14867 103.338 7.71C103.329 7.44867 103.329 7.192 103.338 6.94C103.357 6.50133 103.422 6.08133 103.534 5.68C103.655 5.27867 103.833 4.91933 104.066 4.602C104.309 4.28467 104.617 4.03733 104.99 3.86C105.363 3.67333 105.811 3.58 106.334 3.58C106.894 3.58 107.356 3.68733 107.72 3.902C108.093 4.10733 108.397 4.35933 108.63 4.658V4.056C108.63 3.96267 108.658 3.88333 108.714 3.818C108.779 3.75267 108.859 3.72 108.952 3.72H109.596C109.689 3.72 109.769 3.75267 109.834 3.818C109.899 3.88333 109.932 3.96267 109.932 4.056V10.846C109.932 11.4713 109.825 12.0267 109.61 12.512C109.405 12.9973 109.059 13.38 108.574 13.66C108.098 13.94 107.454 14.08 106.642 14.08ZM106.614 9.936C107.081 9.936 107.454 9.82867 107.734 9.614C108.023 9.39933 108.233 9.12867 108.364 8.802C108.504 8.47533 108.579 8.144 108.588 7.808C108.597 7.67733 108.602 7.51867 108.602 7.332C108.602 7.136 108.597 6.97267 108.588 6.842C108.579 6.506 108.504 6.17467 108.364 5.848C108.233 5.52133 108.023 5.25067 107.734 5.036C107.454 4.82133 107.081 4.714 106.614 4.714C106.147 4.714 105.774 4.82133 105.494 5.036C105.214 5.24133 105.013 5.51667 104.892 5.862C104.771 6.198 104.701 6.562 104.682 6.954C104.673 7.19667 104.673 7.444 104.682 7.696C104.701 8.088 104.771 8.45667 104.892 8.802C105.013 9.138 105.214 9.41333 105.494 9.628C105.774 9.83333 106.147 9.936 106.614 9.936ZM114.912 11.14C113.95 11.14 113.185 10.846 112.616 10.258C112.046 9.66067 111.734 8.84867 111.678 7.822C111.668 7.70067 111.664 7.54667 111.664 7.36C111.664 7.164 111.668 7.00533 111.678 6.884C111.715 6.22133 111.869 5.64267 112.14 5.148C112.41 4.644 112.779 4.25667 113.246 3.986C113.722 3.71533 114.277 3.58 114.912 3.58C115.621 3.58 116.214 3.72933 116.69 4.028C117.175 4.32667 117.544 4.75133 117.796 5.302C118.048 5.85267 118.174 6.49667 118.174 7.234V7.472C118.174 7.57467 118.141 7.654 118.076 7.71C118.02 7.766 117.945 7.794 117.852 7.794H113.008C113.008 7.80333 113.008 7.822 113.008 7.85C113.008 7.878 113.008 7.90133 113.008 7.92C113.026 8.30267 113.11 8.662 113.26 8.998C113.409 9.32467 113.624 9.59067 113.904 9.796C114.184 10.0013 114.52 10.104 114.912 10.104C115.248 10.104 115.528 10.0527 115.752 9.95C115.976 9.84733 116.158 9.73533 116.298 9.614C116.438 9.48333 116.531 9.38533 116.578 9.32C116.662 9.19867 116.727 9.12867 116.774 9.11C116.82 9.082 116.895 9.068 116.998 9.068H117.67C117.763 9.068 117.838 9.096 117.894 9.152C117.959 9.19867 117.987 9.26867 117.978 9.362C117.968 9.502 117.894 9.67467 117.754 9.88C117.614 10.076 117.413 10.272 117.152 10.468C116.89 10.664 116.573 10.8273 116.2 10.958C115.826 11.0793 115.397 11.14 114.912 11.14ZM113.008 6.828H116.844V6.786C116.844 6.366 116.764 5.99267 116.606 5.666C116.456 5.33933 116.237 5.08267 115.948 4.896C115.658 4.7 115.313 4.602 114.912 4.602C114.51 4.602 114.165 4.7 113.876 4.896C113.596 5.08267 113.381 5.33933 113.232 5.666C113.082 5.99267 113.008 6.366 113.008 6.786V6.828ZM123.475 10.636C123.4 10.636 123.335 10.6127 123.279 10.566C123.223 10.5193 123.195 10.4493 123.195 10.356V9.74C123.195 9.628 123.218 9.53933 123.265 9.474C123.321 9.40867 123.405 9.34333 123.517 9.278L127.255 6.716L123.517 4.154C123.405 4.07933 123.321 4.00933 123.265 3.944C123.218 3.87867 123.195 3.79 123.195 3.678V3.062C123.195 2.96867 123.223 2.89867 123.279 2.852C123.335 2.80533 123.4 2.782 123.475 2.782C123.531 2.782 123.592 2.80067 123.657 2.838C123.722 2.866 123.774 2.894 123.811 2.922L128.207 5.946C128.356 6.04867 128.459 6.14667 128.515 6.24C128.58 6.33333 128.613 6.45 128.613 6.59V6.828C128.613 6.95867 128.58 7.07533 128.515 7.178C128.459 7.27133 128.356 7.36933 128.207 7.472L123.811 10.496C123.774 10.524 123.722 10.5567 123.657 10.594C123.592 10.622 123.531 10.636 123.475 10.636ZM130.352 10.636C130.277 10.636 130.212 10.6127 130.156 10.566C130.1 10.5193 130.072 10.4493 130.072 10.356V9.74C130.072 9.628 130.095 9.53933 130.142 9.474C130.198 9.40867 130.282 9.34333 130.394 9.278L134.132 6.716L130.394 4.154C130.282 4.07933 130.198 4.00933 130.142 3.944C130.095 3.87867 130.072 3.79 130.072 3.678V3.062C130.072 2.96867 130.1 2.89867 130.156 2.852C130.212 2.80533 130.277 2.782 130.352 2.782C130.408 2.782 130.469 2.80067 130.534 2.838C130.599 2.866 130.651 2.894 130.688 2.922L135.084 5.946C135.233 6.04867 135.336 6.14667 135.392 6.24C135.457 6.33333 135.49 6.45 135.49 6.59V6.828C135.49 6.95867 135.457 7.07533 135.392 7.178C135.336 7.27133 135.233 7.36933 135.084 7.472L130.688 10.496C130.651 10.524 130.599 10.5567 130.534 10.594C130.469 10.622 130.408 10.636 130.352 10.636Z" fill="#594E4E"/>
</svg>
