<svg width="1440" height="480" viewBox="0 0 1440 480" fill="none" xmlns="http://www.w3.org/2000/svg">
<g opacity="0.7">
<mask id="mask0_610_29141" style="mask-type:alpha" maskUnits="userSpaceOnUse" x="0" y="0" width="1440" height="480">
<rect width="1440" height="480" fill="#262121"/>
</mask>
<g mask="url(#mask0_610_29141)">
<rect x="3" y="3" width="52" height="52" fill="#FCFCFC" fill-opacity="0.03"/>
<rect x="60" y="126" width="64" height="64" fill="#FCFCFC" fill-opacity="0.03"/>
<rect y="74" width="41" height="41" fill="#FCFCFC" fill-opacity="0.03"/>
<rect x="435" y="277" width="41" height="41" fill="#FCFCFC" fill-opacity="0.03"/>
<rect x="1296" y="69" width="113" height="113" fill="#FCFCFC" fill-opacity="0.03"/>
<rect x="780" y="115" width="87" height="87" fill="#FCFCFC" fill-opacity="0.03"/>
<rect x="1065" y="306" width="66" height="66" fill="#FCFCFC" fill-opacity="0.03"/>
<rect x="859" y="353" width="48" height="48" fill="#FCFCFC" fill-opacity="0.03"/>
<rect x="700" y="13" width="26" height="26" fill="#FCFCFC" fill-opacity="0.03"/>
<rect x="1414" y="3" width="26" height="26" fill="#FCFCFC" fill-opacity="0.03"/>
<rect x="193" y="-17" width="38" height="38" fill="#FCFCFC" fill-opacity="0.03"/>
<rect x="1294" y="277" width="29" height="29" fill="#FCFCFC" fill-opacity="0.03"/>
<rect x="947" y="28" width="25" height="25" fill="#FCFCFC" fill-opacity="0.03"/>
<rect x="99" y="281" width="20" height="20" fill="#FCFCFC" fill-opacity="0.03"/>
<rect x="251" y="306" width="56" height="56" fill="#FCFCFC" fill-opacity="0.03"/>
<rect x="1168" width="56" height="56" fill="#FCFCFC" fill-opacity="0.03"/>
<rect x="549" y="466" width="72" height="72" fill="#FCFCFC" fill-opacity="0.03"/>
<rect x="419" y="29" width="72" height="72" fill="#FCFCFC" fill-opacity="0.03"/>
<rect x="1291" y="422" width="62" height="62" fill="#FCFCFC" fill-opacity="0.03"/>
<rect x="601" y="267" width="62" height="62" fill="#FCFCFC" fill-opacity="0.03"/>
<rect x="1098" y="126" width="33" height="33" fill="#FCFCFC" fill-opacity="0.03"/>
<rect x="493" y="170" width="40" height="40" fill="#FCFCFC" fill-opacity="0.03"/>
<rect x="255" y="118" width="25" height="25" fill="#FCFCFC" fill-opacity="0.03"/>
<rect x="4" y="367" width="32" height="32" fill="#FCFCFC" fill-opacity="0.03"/>
</g>
</g>
</svg>
