<svg width="36" height="36" viewBox="0 0 36 36" fill="none" xmlns="http://www.w3.org/2000/svg">
<g filter="url(#filter0_b_2295_92327)">
<path d="M36 18C36 26.9845 29.4173 34.4313 20.8125 35.7813V23.2031H25.0066L25.8047 18H20.8125V14.6236C20.8125 13.1998 21.51 11.8125 23.7459 11.8125H26.0156V7.38281C26.0156 7.38281 23.9555 7.03125 21.986 7.03125C17.8748 7.03125 15.1875 9.52312 15.1875 14.0344V18H10.6172V23.2031H15.1875V35.7813C6.58266 34.4313 0 26.9845 0 18C0 8.05922 8.05922 0 18 0C27.9408 0 36 8.05922 36 18Z" fill="#262121"/>
</g>
<defs>
<filter id="filter0_b_2295_92327" x="-2" y="-2" width="40" height="39.7812" filterUnits="userSpaceOnUse" color-interpolation-filters="sRGB">
<feFlood flood-opacity="0" result="BackgroundImageFix"/>
<feGaussianBlur in="BackgroundImageFix" stdDeviation="1"/>
<feComposite in2="SourceAlpha" operator="in" result="effect1_backgroundBlur_2295_92327"/>
<feBlend mode="normal" in="SourceGraphic" in2="effect1_backgroundBlur_2295_92327" result="shape"/>
</filter>
</defs>
</svg>
