<svg width="24" height="24" viewBox="0 0 24 24" fill="none" xmlns="http://www.w3.org/2000/svg">
<rect width="24" height="24" rx="0.5" fill="#262121"/>
<g clip-path="url(#clip0_2295_92350)">
<path d="M14.0276 12.5693L12.879 13.7218C12.4132 14.1892 11.5937 14.1993 11.1178 13.7218L9.96918 12.5693L5.84375 16.7082C5.99731 16.7792 6.16663 16.8215 6.34663 16.8215H17.6502C17.8302 16.8215 17.9995 16.7792 18.153 16.7082L14.0276 12.5693Z" fill="#F2EDED"/>
<path d="M17.6496 7.17871H6.34598C6.16598 7.17871 5.99667 7.22109 5.84316 7.29209L10.2515 11.715C10.2518 11.7153 10.2521 11.7154 10.2524 11.7157C10.2526 11.7159 10.2527 11.7161 10.2528 11.7164L11.6861 13.1545C11.8384 13.3067 12.1572 13.3067 12.3094 13.1545L13.7425 11.7166C13.7425 11.7166 13.7429 11.716 13.7432 11.7157C13.7432 11.7157 13.7438 11.7153 13.7441 11.715L18.1523 7.29207C17.9988 7.22103 17.8296 7.17871 17.6496 7.17871ZM5.26882 7.85403C5.18937 8.01469 5.14062 8.19303 5.14062 8.38407V15.6162C5.14062 15.8072 5.18932 15.9856 5.26879 16.1462L9.40137 12.0003L5.26882 7.85403ZM18.7267 7.85398L14.5942 12.0003L18.7267 16.1463C18.8062 15.9856 18.8549 15.8073 18.8549 15.6162V8.38407C18.8549 8.19298 18.8062 8.01464 18.7267 7.85398Z" fill="#F2EDED"/>
</g>
<defs>
<clipPath id="clip0_2295_92350">
<rect width="13.7143" height="13.7143" fill="white" transform="translate(5.14062 5.14258)"/>
</clipPath>
</defs>
</svg>
