<svg width="26" height="23" viewBox="0 0 26 23" fill="none" xmlns="http://www.w3.org/2000/svg">
<path fill-rule="evenodd" clip-rule="evenodd" d="M9.64411 4.37891H23.9518L15.4538 10.2046L9.6733 6.2419C9.89338 5.65259 9.89524 4.98648 9.64411 4.37891ZM24.9909 5.12813L15.7935 11.4333C15.5783 11.5802 15.3018 11.5687 15.1018 11.425L8.99591 7.23918C8.87834 7.34517 8.75112 7.43995 8.61592 7.52228L7.29688 8.32536C7.98987 10.5619 9.70462 13.5319 11.295 15.2502L12.65 14.5095C13.8607 13.8476 15.3829 14.2746 16.0728 15.4696L17.2404 17.4919H24.0414C24.5784 17.4919 25.0178 17.0526 25.0178 16.5156V5.35525C25.0178 5.27875 25.0088 5.20251 24.9909 5.12813Z" fill="#AD1519"/>
<path fill-rule="evenodd" clip-rule="evenodd" d="M5.89904 7.76053L7.98452 6.49071C8.60342 6.11389 8.80884 5.3099 8.44651 4.68234L6.56374 1.42128C6.3706 1.08669 6.07824 0.871445 5.70141 0.786375C5.32454 0.701254 4.96815 0.769965 4.64991 0.989084L1.2163 3.35313C-0.41811 9.11194 6.92657 21.5795 12.5595 23.0001L16.3237 21.2086C16.6725 21.0426 16.9103 20.7682 17.025 20.3993C17.1397 20.0304 17.0995 19.6696 16.9063 19.335L15.0235 16.074C14.6612 15.4464 13.8622 15.2223 13.2264 15.5699L11.084 16.741C8.96529 14.8567 6.47158 10.5375 5.89904 7.76053Z" fill="#FABD00"/>
</svg>
