<svg width="36" height="36" viewBox="0 0 36 36" fill="none" xmlns="http://www.w3.org/2000/svg">
<g clip-path="url(#clip0_2295_92336)">
<g filter="url(#filter0_b_2295_92336)">
<path d="M0.769844 17.7844C0.769 20.8091 1.5655 23.7625 3.08003 26.3657L0.625 35.2599L9.79825 32.8733C12.3354 34.2439 15.1782 34.962 18.067 34.9622H18.0746C27.6111 34.9622 35.374 27.2622 35.3781 17.798C35.3799 13.2119 33.5816 8.89942 30.3143 5.65495C27.0476 2.41077 22.703 0.623187 18.0739 0.621094C8.53628 0.621094 0.773922 8.32063 0.769984 17.7844" fill="#262121"/>
</g>
<path d="M13.5967 10.3466C13.2612 9.60661 12.9081 9.59168 12.589 9.5787C12.3277 9.56754 12.029 9.56837 11.7306 9.56837C11.4319 9.56837 10.9466 9.67986 10.5364 10.1243C10.1258 10.5691 8.96875 11.6441 8.96875 13.8305C8.96875 16.017 10.5737 18.13 10.7974 18.4267C11.0215 18.723 13.8958 23.3533 18.4481 25.1346C22.2315 26.6149 23.0014 26.3205 23.8225 26.2463C24.6438 26.1723 26.4725 25.1716 26.8456 24.1339C27.2189 23.0963 27.2189 22.2069 27.107 22.021C26.995 21.8359 26.6964 21.7247 26.2485 21.5025C25.8004 21.2802 23.5985 20.2051 23.188 20.0568C22.7774 19.9086 22.4789 19.8347 22.1802 20.2796C21.8815 20.7239 21.0238 21.7247 20.7624 22.021C20.5013 22.3181 20.2398 22.3551 19.7921 22.1328C19.3439 21.9098 17.9015 21.4411 16.1903 19.9273C14.8588 18.7494 13.96 17.2947 13.6987 16.8497C13.4374 16.4054 13.6707 16.1646 13.8953 15.9432C14.0965 15.744 14.3433 15.4242 14.5675 15.1648C14.7908 14.9053 14.8653 14.7201 15.0146 14.4238C15.1641 14.1271 15.0893 13.8676 14.9775 13.6453C14.8653 13.423 13.995 11.2252 13.5967 10.3466Z" fill="#F2EDED"/>
</g>
<defs>
<filter id="filter0_b_2295_92336" x="-1.375" y="-1.37891" width="38.7539" height="38.6387" filterUnits="userSpaceOnUse" color-interpolation-filters="sRGB">
<feFlood flood-opacity="0" result="BackgroundImageFix"/>
<feGaussianBlur in="BackgroundImageFix" stdDeviation="1"/>
<feComposite in2="SourceAlpha" operator="in" result="effect1_backgroundBlur_2295_92336"/>
<feBlend mode="normal" in="SourceGraphic" in2="effect1_backgroundBlur_2295_92336" result="shape"/>
</filter>
<clipPath id="clip0_2295_92336">
<rect width="36" height="36" fill="white"/>
</clipPath>
</defs>
</svg>
