<svg width="26" height="23" viewBox="0 0 26 23" fill="none" xmlns="http://www.w3.org/2000/svg">
<path fill-rule="evenodd" clip-rule="evenodd" d="M9.64411 4.37878H23.9518L15.4538 10.2045L9.6733 6.24177C9.89338 5.65247 9.89524 4.98636 9.64411 4.37878ZM24.9909 5.12801L15.7935 11.4332C15.5783 11.5801 15.3018 11.5686 15.1018 11.4249L8.99591 7.23906C8.87834 7.34505 8.75112 7.43982 8.61592 7.52216L7.29688 8.32524C7.98987 10.5617 9.70462 13.5317 11.295 15.2501L12.65 14.5093C13.8607 13.8475 15.3829 14.2745 16.0728 15.4694L17.2404 17.4918H24.0414C24.5784 17.4918 25.0178 17.0524 25.0178 16.5154V5.35513C25.0178 5.27863 25.0088 5.20239 24.9909 5.12801Z" fill="#AD1519"/>
<path fill-rule="evenodd" clip-rule="evenodd" d="M5.89904 7.76041L7.98452 6.49059C8.60342 6.11377 8.80884 5.30978 8.44651 4.68222L6.56374 1.42116C6.3706 1.08657 6.07824 0.871323 5.70141 0.786253C5.32454 0.701132 4.96815 0.769843 4.64991 0.988962L1.2163 3.35301C-0.41811 9.11181 6.92657 21.5794 12.5595 23L16.3237 21.2085C16.6725 21.0424 16.9103 20.7681 17.025 20.3992C17.1397 20.0303 17.0995 19.6695 16.9063 19.3349L15.0235 16.0738C14.6612 15.4463 13.8622 15.2222 13.2264 15.5698L11.084 16.7409C8.96529 14.8566 6.47158 10.5374 5.89904 7.76041Z" fill="#FABD00"/>
</svg>
