<svg width="32" height="32" viewBox="0 0 32 32" fill="none" xmlns="http://www.w3.org/2000/svg">
<path d="M17.03 5.692L6.04 4.022C5.53 3.942 5.01 4.082 4.62 4.412C4.23 4.752 4 5.242 4 5.752V26.822C4 27.372 4.45 27.822 5 27.822H8.25V22.572C8.25 21.602 9.03 20.822 10 20.822H12.5C13.47 20.822 14.25 21.602 14.25 22.572V27.822H18.5V7.422C18.5 6.562 17.88 5.832 17.03 5.692ZM9.5 18.572H8C7.80109 18.572 7.61032 18.493 7.46967 18.3523C7.32902 18.2117 7.25 18.0209 7.25 17.822C7.25 17.6231 7.32902 17.4323 7.46967 17.2917C7.61032 17.151 7.80109 17.072 8 17.072H9.5C9.69891 17.072 9.88968 17.151 10.0303 17.2917C10.171 17.4323 10.25 17.6231 10.25 17.822C10.25 18.0209 10.171 18.2117 10.0303 18.3523C9.88968 18.493 9.69891 18.572 9.5 18.572ZM9.5 15.572H8C7.80109 15.572 7.61032 15.493 7.46967 15.3523C7.32902 15.2117 7.25 15.0209 7.25 14.822C7.25 14.6231 7.32902 14.4323 7.46967 14.2917C7.61032 14.151 7.80109 14.072 8 14.072H9.5C9.69891 14.072 9.88968 14.151 10.0303 14.2917C10.171 14.4323 10.25 14.6231 10.25 14.822C10.25 15.0209 10.171 15.2117 10.0303 15.3523C9.88968 15.493 9.69891 15.572 9.5 15.572ZM9.5 12.572H8C7.80109 12.572 7.61032 12.493 7.46967 12.3523C7.32902 12.2117 7.25 12.0209 7.25 11.822C7.25 11.6231 7.32902 11.4323 7.46967 11.2917C7.61032 11.151 7.80109 11.072 8 11.072H9.5C9.69891 11.072 9.88968 11.151 10.0303 11.2917C10.171 11.4323 10.25 11.6231 10.25 11.822C10.25 12.0209 10.171 12.2117 10.0303 12.3523C9.88968 12.493 9.69891 12.572 9.5 12.572ZM9.5 9.572H8C7.80109 9.572 7.61032 9.49298 7.46967 9.35233C7.32902 9.21168 7.25 9.02091 7.25 8.822C7.25 8.62309 7.32902 8.43232 7.46967 8.29167C7.61032 8.15102 7.80109 8.072 8 8.072H9.5C9.69891 8.072 9.88968 8.15102 10.0303 8.29167C10.171 8.43232 10.25 8.62309 10.25 8.822C10.25 9.02091 10.171 9.21168 10.0303 9.35233C9.88968 9.49298 9.69891 9.572 9.5 9.572ZM14.5 18.572H13C12.8011 18.572 12.6103 18.493 12.4697 18.3523C12.329 18.2117 12.25 18.0209 12.25 17.822C12.25 17.6231 12.329 17.4323 12.4697 17.2917C12.6103 17.151 12.8011 17.072 13 17.072H14.5C14.6989 17.072 14.8897 17.151 15.0303 17.2917C15.171 17.4323 15.25 17.6231 15.25 17.822C15.25 18.0209 15.171 18.2117 15.0303 18.3523C14.8897 18.493 14.6989 18.572 14.5 18.572ZM14.5 15.572H13C12.8011 15.572 12.6103 15.493 12.4697 15.3523C12.329 15.2117 12.25 15.0209 12.25 14.822C12.25 14.6231 12.329 14.4323 12.4697 14.2917C12.6103 14.151 12.8011 14.072 13 14.072H14.5C14.6989 14.072 14.8897 14.151 15.0303 14.2917C15.171 14.4323 15.25 14.6231 15.25 14.822C15.25 15.0209 15.171 15.2117 15.0303 15.3523C14.8897 15.493 14.6989 15.572 14.5 15.572ZM14.5 12.572H13C12.8011 12.572 12.6103 12.493 12.4697 12.3523C12.329 12.2117 12.25 12.0209 12.25 11.822C12.25 11.6231 12.329 11.4323 12.4697 11.2917C12.6103 11.151 12.8011 11.072 13 11.072H14.5C14.6989 11.072 14.8897 11.151 15.0303 11.2917C15.171 11.4323 15.25 11.6231 15.25 11.822C15.25 12.0209 15.171 12.2117 15.0303 12.3523C14.8897 12.493 14.6989 12.572 14.5 12.572ZM14.5 9.572H13C12.8011 9.572 12.6103 9.49298 12.4697 9.35233C12.329 9.21168 12.25 9.02091 12.25 8.822C12.25 8.62309 12.329 8.43232 12.4697 8.29167C12.6103 8.15102 12.8011 8.072 13 8.072H14.5C14.6989 8.072 14.8897 8.15102 15.0303 8.29167C15.171 8.43232 15.25 8.62309 15.25 8.822C15.25 9.02091 15.171 9.21168 15.0303 9.35233C14.8897 9.49298 14.6989 9.572 14.5 9.572ZM26.62 14.664L19.5 13.173V27.822H26.25C27.215 27.822 28 27.037 28 26.072V16.374C28 15.548 27.437 14.845 26.62 14.664ZM24.25 24.822H22.75C22.5511 24.822 22.3603 24.743 22.2197 24.6023C22.079 24.4617 22 24.2709 22 24.072C22 23.8731 22.079 23.6823 22.2197 23.5417C22.3603 23.401 22.5511 23.322 22.75 23.322H24.25C24.4489 23.322 24.6397 23.401 24.7803 23.5417C24.921 23.6823 25 23.8731 25 24.072C25 24.2709 24.921 24.4617 24.7803 24.6023C24.6397 24.743 24.4489 24.822 24.25 24.822ZM24.25 21.822H22.75C22.5511 21.822 22.3603 21.743 22.2197 21.6023C22.079 21.4617 22 21.2709 22 21.072C22 20.8731 22.079 20.6823 22.2197 20.5417C22.3603 20.401 22.5511 20.322 22.75 20.322H24.25C24.4489 20.322 24.6397 20.401 24.7803 20.5417C24.921 20.6823 25 20.8731 25 21.072C25 21.2709 24.921 21.4617 24.7803 21.6023C24.6397 21.743 24.4489 21.822 24.25 21.822ZM24.25 18.822H22.75C22.5511 18.822 22.3603 18.743 22.2197 18.6023C22.079 18.4617 22 18.2709 22 18.072C22 17.8731 22.079 17.6823 22.2197 17.5417C22.3603 17.401 22.5511 17.322 22.75 17.322H24.25C24.4489 17.322 24.6397 17.401 24.7803 17.5417C24.921 17.6823 25 17.8731 25 18.072C25 18.2709 24.921 18.4617 24.7803 18.6023C24.6397 18.743 24.4489 18.822 24.25 18.822Z" fill="#594E4E"/>
</svg>
