<svg width="12" height="14" viewBox="0 0 12 14" fill="none" xmlns="http://www.w3.org/2000/svg">
<path d="M7.54524 14H2.22738C0.999174 14 0 13.0187 0 11.8125V4.40234C0 3.19613 0.999174 2.21484 2.22738 2.21484H7.54524C8.77345 2.21484 9.77262 3.19613 9.77262 4.40234V11.8125C9.77262 13.0187 8.77345 14 7.54524 14ZM2.22738 3.30859C1.61332 3.30859 1.11369 3.79928 1.11369 4.40234V11.8125C1.11369 12.4156 1.61332 12.9062 2.22738 12.9062H7.54524C8.1593 12.9062 8.65893 12.4156 8.65893 11.8125V4.40234C8.65893 3.79928 8.1593 3.30859 7.54524 3.30859H2.22738ZM12 10.4453V2.1875C12 0.981285 11.0008 0 9.77262 0H3.59165C3.28407 0 3.0348 0.244809 3.0348 0.546875C3.0348 0.848941 3.28407 1.09375 3.59165 1.09375H9.77262C10.3867 1.09375 10.8863 1.58443 10.8863 2.1875V10.4453C10.8863 10.7474 11.1356 10.9922 11.4432 10.9922C11.7507 10.9922 12 10.7474 12 10.4453Z" fill="#807070"/>
</svg>
