<svg width="24" height="24" viewBox="0 0 24 24" fill="none" xmlns="http://www.w3.org/2000/svg">
<g clip-path="url(#clip0_1515_79543)">
<path fill-rule="evenodd" clip-rule="evenodd" d="M18.7795 6.97377C18.9174 7.11177 18.9961 7.29814 18.9988 7.49325C18.9992 7.52371 18.9993 11.273 18.9994 15H17.5V19H18.9994C18.9994 20.552 18.9993 21.7632 18.9993 22.1988L18.9993 22.3715C18.9993 23.2695 18.2688 24 17.3708 24H2.6324C1.73446 24 1.00391 23.2695 1.00391 22.3715V1.63461C1.00391 0.736665 1.73446 0.00611607 2.6324 0.00611607C11.4246 0.00611607 11.6518 -0.0277074 11.8037 0.0637276C11.8187 0.0727951 11.833 0.0830946 11.8549 0.0947811C11.8645 0.0999504 11.8719 0.103273 11.8793 0.106834C11.9862 0.159002 12.0682 0.26252 18.7795 6.97377ZM12.251 2.56611V6.62548C12.2511 6.65515 12.2613 6.68391 12.2801 6.70691C12.2988 6.72991 12.3249 6.74576 12.354 6.75178C12.3553 6.75206 12.3552 6.75231 12.3553 6.75254C12.3558 6.75566 12.3825 6.7544 16.4393 6.7544L12.251 2.56611ZM17.4619 22.4626C17.4861 22.4384 17.4997 22.4057 17.4997 22.3715V8.25398H12.3799C11.482 8.25398 10.7514 7.52343 10.7514 6.62548V1.50569H2.6324C2.59823 1.50571 2.56546 1.5193 2.5413 1.54346C2.51714 1.56763 2.50355 1.60039 2.50353 1.63456V22.3715C2.50355 22.4057 2.51714 22.4384 2.5413 22.4626C2.56546 22.4867 2.59823 22.5003 2.6324 22.5004H17.3708C17.405 22.5003 17.4378 22.4867 17.4619 22.4626Z" fill="#594E4E"/>
<path d="M20.3436 14.2211C20.0508 14.5139 20.0508 14.9887 20.3436 15.2815L21.313 16.251L14.7498 16.251C14.3357 16.251 14 16.5866 14 17.0008C14 17.4148 14.3357 17.7506 14.7498 17.7506L21.313 17.7506L20.3436 18.72C20.0508 19.0128 20.0508 19.4876 20.3436 19.7804C20.6364 20.0732 21.1111 20.0732 21.404 19.7804C23.8218 17.3625 23.7361 17.4805 23.8159 17.2877C23.8727 17.1507 23.8875 16.9999 23.8586 16.8545C23.8297 16.709 23.7583 16.5754 23.6534 16.4706L21.404 14.2211C21.1112 13.9283 20.6364 13.9283 20.3436 14.2211Z" fill="#594E4E"/>
</g>
<defs>
<clipPath id="clip0_1515_79543">
<rect width="24" height="24" fill="white"/>
</clipPath>
</defs>
</svg>
