<svg width="24" height="24" viewBox="0 0 24 24" fill="none" xmlns="http://www.w3.org/2000/svg">
<path d="M17.4936 11.2899C17.3977 11.3826 17.3212 11.4934 17.2686 11.6159C17.2159 11.7385 17.1882 11.8703 17.1871 12.0036C17.1859 12.137 17.2113 12.2692 17.2618 12.3926C17.3123 12.5161 17.3869 12.6282 17.4812 12.7225C17.5755 12.8168 17.6876 12.8914 17.811 12.9419C17.9345 12.9924 18.0667 13.0178 18.2001 13.0166C18.3334 13.0155 18.4652 12.9878 18.5877 12.9351C18.7103 12.8825 18.8211 12.806 18.9137 12.7101L20.4644 11.1594C21.4563 10.1445 22.008 8.7794 21.9999 7.36029C21.9918 5.94118 21.4244 4.58252 20.421 3.57904C19.4175 2.57556 18.0588 2.00822 16.6397 2.00009C15.2206 1.99196 13.8555 2.5437 12.8406 3.53561L11.2899 5.08628C11.194 5.17892 11.1175 5.28974 11.0649 5.41227C11.0122 5.5348 10.9845 5.66659 10.9834 5.79994C10.9822 5.93329 11.0076 6.06554 11.0581 6.18897C11.1086 6.3124 11.1832 6.42453 11.2775 6.51883C11.3718 6.61313 11.4839 6.6877 11.6074 6.7382C11.7308 6.7887 11.863 6.81411 11.9964 6.81295C12.1297 6.81179 12.2615 6.78409 12.3841 6.73145C12.5066 6.67881 12.6174 6.6023 12.7101 6.50638L14.2607 4.95571C14.5742 4.63879 14.9472 4.38696 15.3583 4.21469C15.7695 4.04241 16.2106 3.9531 16.6563 3.95188C17.1021 3.95066 17.5437 4.03756 17.9558 4.20758C18.3678 4.3776 18.7422 4.62739 19.0574 4.94259C19.3726 5.25779 19.6224 5.63218 19.7924 6.04424C19.9624 6.45631 20.0493 6.89791 20.0481 7.34367C20.0469 7.78942 19.9576 8.23054 19.7853 8.64167C19.613 9.05279 19.3612 9.42581 19.0443 9.73928L17.4936 11.2899ZM6.50638 12.7101C6.6023 12.6174 6.67881 12.5066 6.73145 12.3841C6.78409 12.2615 6.81179 12.1297 6.81295 11.9964C6.81411 11.863 6.7887 11.7308 6.7382 11.6074C6.6877 11.4839 6.61313 11.3718 6.51883 11.2775C6.42453 11.1832 6.3124 11.1086 6.18897 11.0581C6.06554 11.0076 5.93329 10.9822 5.79994 10.9834C5.66659 10.9845 5.5348 11.0122 5.41227 11.0649C5.28974 11.1175 5.17892 11.194 5.08628 11.2899L3.53561 12.8406C2.5437 13.8555 1.99196 15.2206 2.00009 16.6397C2.00822 18.0588 2.57556 19.4175 3.57904 20.421C4.58252 21.4244 5.94118 21.9918 7.36029 21.9999C8.7794 22.008 10.1445 21.4563 11.1594 20.4644L12.7101 18.9137C12.893 18.7243 12.9942 18.4706 12.9919 18.2073C12.9896 17.944 12.884 17.6921 12.6978 17.5059C12.5116 17.3196 12.2597 17.214 11.9964 17.2117C11.7331 17.2094 11.4794 17.3107 11.2899 17.4936L9.73928 19.0443C9.10375 19.6729 8.24523 20.0244 7.35133 20.0219C6.45743 20.0195 5.60085 19.6633 4.96876 19.0312C4.33668 18.3992 3.9805 17.5426 3.97805 16.6487C3.97561 15.7548 4.3271 14.8963 4.95571 14.2607L6.50638 12.7101Z" fill="#594E4E"/>
<path d="M8.18719 15.8162C8.37553 16.0045 8.63094 16.1103 8.89725 16.1103C9.16356 16.1103 9.41896 16.0045 9.6073 15.8162L15.815 9.60855C15.9109 9.5159 15.9874 9.40508 16.0401 9.28255C16.0927 9.16002 16.1204 9.02823 16.1216 8.89488C16.1227 8.76153 16.0973 8.62928 16.0468 8.50585C15.9963 8.38243 15.9217 8.27029 15.8274 8.17599C15.7331 8.0817 15.621 8.00712 15.4976 7.95662C15.3742 7.90613 15.2419 7.88072 15.1086 7.88187C14.9752 7.88303 14.8434 7.91074 14.7209 7.96337C14.5983 8.01601 14.4875 8.09252 14.3949 8.18844L8.18719 14.3911C8.09321 14.4845 8.01863 14.5955 7.96773 14.7178C7.91683 14.8401 7.89062 14.9712 7.89062 15.1037C7.89062 15.2361 7.91683 15.3673 7.96773 15.4896C8.01863 15.6119 8.09321 15.7229 8.18719 15.8162Z" fill="#594E4E"/>
</svg>
