<svg width="22" height="21" viewBox="0 0 22 21" fill="none" xmlns="http://www.w3.org/2000/svg">
<path d="M1.2 1H20.8C20.9105 1 21 1.08954 21 1.2V16.8C21 16.9105 20.9105 17 20.8 17H7.57398C7.52624 17 7.48008 17.0171 7.44383 17.0481L4.22584 19.8064C4.11799 19.8989 3.95086 19.8526 3.90594 19.7178L3.04558 17.1368C3.01836 17.0551 2.94193 17 2.85585 17H1.2C1.08954 17 1 16.9105 1 16.8V1.2C1 1.08954 1.08954 1 1.2 1Z" stroke="#594E4E" stroke-width="1.5"/>
<path d="M10.3969 11.308C10.3223 11.308 10.2569 11.2847 10.2009 11.238C10.1449 11.182 10.1169 11.112 10.1169 11.028C10.1169 10.9533 10.1169 10.8787 10.1169 10.804C10.1169 10.7293 10.1169 10.6547 10.1169 10.58C10.1543 10.216 10.2523 9.894 10.4109 9.614C10.5789 9.32467 10.7703 9.06333 10.9849 8.83C11.2089 8.58733 11.4283 8.35867 11.6429 8.144C11.8669 7.92933 12.0536 7.71933 12.2029 7.514C12.3616 7.29933 12.4549 7.08 12.4829 6.856C12.5109 6.58533 12.4549 6.35667 12.3149 6.17C12.1843 5.98333 12.0023 5.84333 11.7689 5.75C11.5449 5.64733 11.3069 5.596 11.0549 5.596C10.6163 5.596 10.2569 5.70333 9.97692 5.918C9.69692 6.13267 9.50559 6.478 9.40292 6.954C9.37492 7.066 9.32826 7.15 9.26292 7.206C9.19759 7.25267 9.10892 7.276 8.99692 7.276H7.80692C7.72292 7.276 7.64826 7.248 7.58292 7.192C7.52692 7.12667 7.49892 7.04267 7.49892 6.94C7.50826 6.56667 7.59226 6.20733 7.75092 5.862C7.91892 5.50733 8.15692 5.19 8.46492 4.91C8.78226 4.63 9.16492 4.41067 9.61292 4.252C10.0609 4.084 10.5743 4 11.1529 4C11.7876 4 12.3196 4.084 12.7489 4.252C13.1876 4.41067 13.5329 4.62067 13.7849 4.882C14.0463 5.14333 14.2329 5.428 14.3449 5.736C14.4569 6.03467 14.5083 6.32867 14.4989 6.618C14.4803 6.97267 14.4009 7.29 14.2609 7.57C14.1209 7.85 13.9483 8.11133 13.7429 8.354C13.5376 8.58733 13.3276 8.82067 13.1129 9.054C12.8983 9.278 12.7069 9.50667 12.5389 9.74C12.3803 9.97333 12.2729 10.2207 12.2169 10.482C12.1983 10.566 12.1843 10.65 12.1749 10.734C12.1656 10.8087 12.1563 10.8833 12.1469 10.958C12.1096 11.07 12.0629 11.1587 12.0069 11.224C11.9509 11.28 11.8716 11.308 11.7689 11.308H10.3969ZM10.3549 13.94C10.2616 13.94 10.1823 13.9073 10.1169 13.842C10.0516 13.7767 10.0189 13.6973 10.0189 13.604V12.386C10.0189 12.2833 10.0516 12.1993 10.1169 12.134C10.1823 12.0687 10.2616 12.036 10.3549 12.036H11.7129C11.8156 12.036 11.8996 12.0687 11.9649 12.134C12.0303 12.1993 12.0629 12.2833 12.0629 12.386V13.604C12.0629 13.6973 12.0303 13.7767 11.9649 13.842C11.8996 13.9073 11.8156 13.94 11.7129 13.94H10.3549Z" fill="#594E4E"/>
</svg>
