<svg width="32" height="32" viewBox="0 0 32 32" fill="none" xmlns="http://www.w3.org/2000/svg">
<path d="M24.4853 7.51469C22.2188 5.24819 19.2053 4 16 4C12.7947 4 9.78119 5.24819 7.51469 7.51469C5.24819 9.78119 4 12.7947 4 16C4 19.2053 5.24823 22.2188 7.51469 24.4853C9.78114 26.7519 12.7947 28 16 28C19.2053 28 22.2188 26.7518 24.4853 24.4853C26.7518 22.2188 28 19.2053 28 16C28 12.7947 26.7518 9.78123 24.4853 7.51469ZM16 15.25C17.861 15.25 19.375 16.764 19.375 18.625C19.375 20.1661 18.3364 21.4684 16.9226 21.8708C16.821 21.8997 16.75 21.991 16.75 22.0967V22.7288C16.75 23.1327 16.4396 23.4802 16.0362 23.4992C15.6055 23.5194 15.25 23.1762 15.25 22.75V22.0965C15.25 21.9912 15.1794 21.8998 15.0781 21.871C13.6704 21.4706 12.6344 20.1782 12.625 18.646C12.6226 18.237 12.9441 17.887 13.353 17.8753C13.7772 17.8631 14.125 18.2035 14.125 18.625C14.125 19.7032 15.0399 20.5718 16.134 20.4953C17.0576 20.4308 17.8058 19.6825 17.8703 18.7589C17.9467 17.6647 17.0782 16.75 16 16.75C14.139 16.75 12.625 15.236 12.625 13.375C12.625 11.8339 13.6636 10.5316 15.0774 10.1292C15.179 10.1003 15.25 10.009 15.25 9.90334V9.27119C15.25 8.86731 15.5604 8.51983 15.9638 8.50084C16.3945 8.48059 16.75 8.82377 16.75 9.25V9.90348C16.75 10.0088 16.8206 10.1002 16.9219 10.129C18.3296 10.5294 19.3656 11.8218 19.375 13.354C19.3774 13.763 19.0559 14.113 18.647 14.1247C18.2228 14.1369 17.875 13.7965 17.875 13.375C17.875 12.2968 16.9601 11.4282 15.866 11.5047C14.9424 11.5692 14.1942 12.3175 14.1297 13.2411C14.0533 14.3353 14.9218 15.25 16 15.25Z" fill="#594E4E"/>
</svg>
