<svg width="24" height="21" viewBox="0 0 24 21" fill="none" xmlns="http://www.w3.org/2000/svg">
<path d="M12.0007 14.1898C11.7957 14.1898 11.5997 14.1056 11.4587 13.9574L6.20868 8.44967C5.75368 7.973 6.09168 7.17988 6.75068 7.17988L9.50068 7.17988L9.50068 1.42177C9.50068 0.731797 10.0617 0.170005 10.7507 0.170005L13.2507 0.170005C13.9397 0.170004 14.5007 0.731796 14.5007 1.42177L14.5007 7.17988L17.2507 7.17988C17.9097 7.17988 18.2477 7.973 17.7927 8.44967L12.5427 13.9574C12.4017 14.1056 12.2057 14.1898 12.0007 14.1898Z" fill="#BFB6B6"/>
<path opacity="0.3" d="M22.25 20.1954L1.75 20.1954C0.785001 20.1954 5.6291e-07 19.4092 3.93957e-07 18.4429L3.06411e-07 17.9422C1.37436e-07 16.9758 0.785 16.1898 1.75 16.1898L22.25 16.1898C23.2149 16.1898 24 16.9758 24 17.9422L24 18.4429C24 19.4092 23.2149 20.1954 22.25 20.1954Z" fill="#BFB6B6"/>
</svg>
