<svg width="32" height="32" viewBox="0 0 32 32" fill="none" xmlns="http://www.w3.org/2000/svg">
<path d="M4 14.793C4.2188 12.6215 5.02135 10.5498 6.32236 8.79809C7.62338 7.0464 9.37428 5.68016 11.389 4.84452C11.9269 4.62245 12.3984 5.29229 12.1271 5.81005C11.878 6.28857 11.6564 6.78099 11.4637 7.28489C10.5882 9.69615 10.0939 12.2293 9.9985 14.793H4Z" fill="#594E4E"/>
<path d="M4 17.207C4.2188 19.3786 5.02135 21.4503 6.32236 23.202C7.62338 24.9537 9.37428 26.3199 11.389 27.1555C11.9269 27.3776 12.3984 26.7078 12.1271 26.19C11.878 25.7115 11.6564 25.2191 11.4637 24.7152C10.5882 22.3039 10.0939 19.7708 9.9985 17.207H4Z" fill="#594E4E"/>
<path d="M12.4102 17.207C12.503 19.4733 12.9422 21.7119 13.7126 23.845C14.0149 24.7082 14.4601 25.5144 15.0295 26.2299C15.489 26.7573 15.8206 26.8574 15.9943 26.8574C16.1679 26.8574 16.5032 26.7573 16.959 26.2299C17.5331 25.5153 17.9828 24.7091 18.2893 23.845C19.0596 21.7119 19.4988 19.4733 19.5917 17.207H12.4102Z" fill="#594E4E"/>
<path d="M22.0006 17.207C21.9055 19.7716 21.4111 22.3056 20.5354 24.7176C20.3427 25.2215 20.1211 25.7139 19.872 26.1925C19.6007 26.7078 20.0722 27.3776 20.6101 27.158C22.6251 26.3221 24.3763 24.9555 25.6773 23.2034C26.9784 21.4512 27.7807 19.379 27.9991 17.207H22.0006Z" fill="#594E4E"/>
<path d="M27.9991 14.7936H22.0006C21.9055 12.2291 21.4111 9.69508 20.5354 7.28305C20.3427 6.77915 20.1211 6.28673 19.872 5.80821C19.6007 5.29287 20.0722 4.62305 20.6101 4.8427C22.6251 5.67854 24.3763 7.04514 25.6773 8.79728C26.9784 10.5494 27.7807 12.6216 27.9991 14.7936Z" fill="#594E4E"/>
<path d="M19.5856 14.793H12.4102C12.503 12.5268 12.9422 10.2881 13.7126 8.15502C14.0149 7.29185 14.4601 6.48567 15.0295 5.77017C15.489 5.24276 15.8206 5.14258 15.9943 5.14258C16.1679 5.14258 16.5032 5.24276 16.959 5.77017C17.5331 6.48473 17.9828 7.29095 18.2893 8.15502C19.0575 10.2885 19.4947 12.5271 19.5856 14.793Z" fill="#594E4E"/>
</svg>
