<svg width="264" height="95" viewBox="0 0 264 95" fill="none" xmlns="http://www.w3.org/2000/svg">
<g filter="url(#filter0_d_1515_80726)">
<path d="M14.7016 87H249.298C249.753 87 250.193 86.8454 250.548 86.5617L259.249 79.6005C259.724 79.2209 260 78.6463 260 78.0387V2C260 0.895431 259.105 0 258 0H6C4.89543 0 4 0.895432 4 2V78.0387C4 78.6463 4.27618 79.2209 4.75061 79.6005L13.4522 86.5617C13.8068 86.8454 14.2474 87 14.7016 87Z" fill="#594E4E"/>
<path d="M62.0976 32.4834L61.2434 32.4254C60.7947 32.3959 60.7389 32.2334 61.076 31.9379C61.3744 31.6765 61.5646 31.3662 61.6466 31.007C61.6512 30.9798 61.6432 30.9559 61.6227 30.9354C61.6045 30.9218 61.5988 30.9263 61.6056 30.9491C61.7172 31.3059 61.8698 31.623 62.0635 31.9004C62.1272 31.989 62.2138 32.0424 62.3231 32.0606L63.2935 32.2277C63.5897 32.2777 63.7366 32.1527 63.7343 31.8526C63.7343 31.7844 63.7445 31.7185 63.7651 31.6549C63.8562 31.3844 63.9177 31.3912 63.9496 31.6753C63.9974 32.114 64.3129 32.3027 64.896 32.2413C65.0327 32.2254 65.0999 32.1493 65.0976 32.0129L65.0908 31.3753C65.0908 31.2298 65.1523 31.1184 65.2753 31.0411L66.2696 30.4206C66.3296 30.3828 66.3749 30.3257 66.3979 30.2587C66.4209 30.1917 66.4202 30.1189 66.396 30.0523C66.2024 29.5113 66.1511 28.9567 66.2423 28.3884C66.3926 27.4644 65.9792 26.3972 65.1899 25.9164C65.1124 25.8687 65.1181 25.8334 65.207 25.8107C65.6466 25.6993 65.8026 25.38 65.6751 24.8526C65.6432 24.7321 65.5669 24.6867 65.4461 24.7162C64.5988 24.9367 63.7662 25.0197 62.9484 24.9651C62.6842 24.9492 62.6455 24.8469 62.8323 24.6582L63.2935 24.1979C63.3915 24.0979 63.4382 23.9774 63.4336 23.8365C63.4291 23.6615 63.4564 23.4978 63.5156 23.3455C63.5619 23.2311 63.6466 23.137 63.7548 23.0796C65.0532 22.4045 65.9621 21.4259 67.3801 20.8667C74.3823 18.1071 81.3446 18.4072 88.2671 21.7668C90.0097 22.6124 91.2603 24.2593 92.0359 25.8789C92.2204 26.2631 92.2864 26.7529 92.2341 27.3485C92.1931 27.819 92.0233 28.2134 91.7249 28.5316C90.9083 29.3977 90.5325 30.3728 90.1088 31.4571C89.5826 32.7971 87.3412 33.1858 87.1737 34.3894C87.156 34.5134 87.0983 34.6273 87.0097 34.7133C86.6111 35.0929 86.1954 35.4703 85.7626 35.8453C85.5075 36.0636 85.2352 36.1272 84.946 36.0363C84.7432 35.9726 84.6384 35.8328 84.6316 35.6169C84.6271 35.4987 84.6806 35.4191 84.7922 35.3782L86.75 34.652C86.7889 34.6375 86.8224 34.6116 86.8461 34.5777C86.8699 34.5438 86.8828 34.5035 86.8832 34.4622C86.8835 34.4208 86.8713 34.3803 86.8482 34.346C86.825 34.3117 86.792 34.2853 86.7535 34.2701C86.1248 34.0223 85.4334 33.8802 84.6794 33.8439C83.9927 33.8098 83.5861 33.3051 82.9232 33.3051C82.5098 33.3017 82.0895 33.2131 81.6966 33.3631C80.6066 33.7791 79.3697 34.2223 78.6419 35.2111C78.0041 36.0795 77.134 36.775 76.0315 37.2979C75.6807 37.4638 75.5303 37.74 75.5804 38.1264L75.6727 38.8254C75.7365 39.305 76.003 39.4834 76.4722 39.3607C76.6613 39.313 76.8367 39.2345 76.9984 39.1254C77.1715 39.0072 77.3059 39.0413 77.4016 39.2277L77.839 40.0767C77.9005 40.1995 77.9984 40.2779 78.1328 40.312C78.4654 40.4006 78.7729 40.3404 79.0554 40.1313C79.0997 40.0974 79.1353 40.0534 79.1591 40.003C79.1829 39.9526 79.1942 39.8972 79.192 39.8415C79.1806 39.4118 79.3845 39.1334 79.8036 39.0061C79.8532 38.991 79.8977 38.9627 79.9324 38.9244C79.9672 38.8861 79.9909 38.8391 80.001 38.7884C80.0112 38.7377 80.0074 38.6852 79.9901 38.6365C79.9728 38.5878 79.9426 38.5447 79.9027 38.5117L79.5303 38.2082C79.4949 38.1789 79.4662 38.1423 79.4462 38.1009C79.4263 38.0596 79.4154 38.0144 79.4144 37.9685C79.4135 37.9226 79.4224 37.877 79.4406 37.8348C79.4588 37.7926 79.4859 37.7549 79.52 37.7241C80.0121 37.291 80.6954 37.1887 80.8629 36.4966C80.8846 36.4025 80.9422 36.3206 81.0234 36.2681C81.1396 36.1931 81.2615 36.1852 81.389 36.2443C81.6373 36.3579 81.6373 36.4716 81.389 36.5852C80.5622 36.9648 80.2672 37.6013 80.5041 38.4946C80.5269 38.5719 80.577 38.6219 80.6544 38.6447L80.9346 38.7197C81.0667 38.7561 81.1339 38.8436 81.1362 38.9822C81.1385 39.0595 81.118 39.1357 81.0747 39.2107C81.0246 39.2925 80.9528 39.3425 80.8594 39.3607C80.5155 39.4243 80.3287 39.6607 80.2991 40.0699C80.2894 40.2003 80.2326 40.3228 80.139 40.4149C80.0455 40.507 79.9215 40.5625 79.79 40.5711L77.446 40.7177C77.4161 40.72 77.3861 40.7152 77.3584 40.7038C77.3306 40.6923 77.3059 40.6745 77.286 40.6518C77.2662 40.629 77.2518 40.6019 77.244 40.5725C77.2362 40.5432 77.2352 40.5123 77.241 40.4825L77.4358 39.5891C77.4836 39.3618 77.3959 39.2777 77.1727 39.3368C77.0269 39.3755 76.8766 39.43 76.7217 39.5005C76.6421 39.5371 76.5745 39.5953 76.5267 39.6683C76.4789 39.7413 76.4529 39.8262 76.4517 39.9131L76.4415 40.6018C76.4392 40.77 76.3561 40.8678 76.192 40.895L75.6488 40.9837C75.5905 40.9931 75.5352 41.0159 75.4871 41.0502C75.4391 41.0845 75.3997 41.1294 75.372 41.1815C75.1989 41.4997 74.9552 41.7372 74.6408 41.8941C74.495 41.9645 74.4677 41.9339 74.5588 41.802C74.7023 41.594 74.6921 41.3417 74.5588 41.1337C74.2877 40.7177 74.003 40.3109 73.7046 39.9131C73.6272 39.8108 73.5998 39.6971 73.6226 39.5721C73.6841 39.2198 73.6283 38.8799 73.4552 38.5526C73.4143 38.4756 73.3532 38.4113 73.2783 38.3665C73.2034 38.3217 73.1177 38.2982 73.0305 38.2986C72.9432 38.2989 72.8576 38.3231 72.7831 38.3685C72.7086 38.4138 72.648 38.4787 72.6078 38.556L72.1841 39.3743C72.1226 39.4948 72.0304 39.5801 71.9074 39.6301L71.0976 39.9608C71.0087 39.9949 70.9609 40.0608 70.9541 40.1586L70.896 40.9121C70.8869 41.0553 70.9484 41.153 71.0805 41.2053C71.413 41.3417 71.749 41.3588 72.0884 41.2565C72.2137 41.2156 72.3048 41.1349 72.3618 41.0144L72.7376 40.2097C72.7604 40.1597 72.7969 40.1461 72.847 40.1688L72.9392 40.2097C72.9711 40.2233 72.9802 40.2461 72.9666 40.2779L72.3242 41.8361C72.2741 41.9589 72.3151 42.0157 72.4472 42.0066L73.216 41.9555C73.3937 41.9441 73.4335 42.0134 73.3356 42.1634C73.3037 42.2112 73.2616 42.2464 73.2092 42.2691C73.0862 42.3237 72.9666 42.3146 72.8504 42.2419C72.7183 42.1555 72.6249 42.1862 72.5702 42.3339C72.536 42.4271 72.536 42.5203 72.5702 42.6135C72.6135 42.734 72.6921 42.8249 72.806 42.8863C73.1773 43.0863 73.3344 43.4034 73.2775 43.8376C73.257 44.0035 73.1636 44.074 72.9973 44.049L71.4358 43.8137C71.331 43.7978 71.2695 43.8421 71.2513 43.9467L70.9472 45.5322C70.9241 45.6517 70.9387 45.7754 70.9889 45.886C71.0391 45.9965 71.1224 46.0886 71.2274 46.1493L71.8219 46.4937C71.8589 46.5155 71.8893 46.547 71.9096 46.5847C71.93 46.6225 71.9397 46.6651 71.9376 46.7079C71.9355 46.7507 71.9217 46.7921 71.8977 46.8277C71.8737 46.8633 71.8404 46.8916 71.8014 46.9097C71.273 47.1506 70.8686 47.528 70.5885 48.0417C70.5083 48.1861 70.387 48.3036 70.2399 48.3793C69.2012 48.918 68.2753 49.9443 68.2787 51.1888C68.2787 51.8594 68.2627 52.4958 68.2308 53.0982C68.224 53.2301 68.2605 53.3471 68.3402 53.4494C68.8755 54.1313 69.5748 54.7837 70.4381 55.4066C71.2445 55.9862 72.5634 55.8839 73.4825 55.7441C74.0155 55.6646 74.4255 55.8237 74.7126 56.2215C74.7877 56.3238 74.8891 56.376 75.0167 56.3783L75.6966 56.3851C75.739 56.3863 75.7802 56.3988 75.8161 56.4214C75.8519 56.444 75.881 56.4759 75.9002 56.5135C75.9194 56.5512 75.9281 56.5934 75.9254 56.6356C75.9226 56.6778 75.9085 56.7185 75.8845 56.7534C75.741 56.9602 75.6454 57.1728 75.5975 57.391C75.5725 57.5046 75.6009 57.6035 75.6829 57.6876C76.323 58.3627 76.7034 59.1185 76.8242 59.955C76.8401 60.0732 76.8116 60.1801 76.7387 60.2756C76.2627 60.8893 76.2182 61.5508 76.6055 62.26C77.1476 63.2533 77.6601 64.1478 78.1431 64.9434C78.2114 65.0548 78.3105 65.115 78.4403 65.1241C80.4927 65.2673 81.9426 64.5877 82.7899 63.0851C82.861 62.9589 82.9712 62.8585 83.1043 62.7987C83.2022 62.7555 83.2888 62.6953 83.364 62.618C83.471 62.5089 83.5018 62.3816 83.4562 62.2361C83.4129 62.0997 83.4107 61.9656 83.4494 61.8338C83.4858 61.7133 83.5576 61.6201 83.6646 61.5542L84.9699 60.7734C85.0258 60.7399 85.071 60.691 85.1001 60.6324C85.1291 60.5738 85.1409 60.5079 85.1339 60.4426L84.9015 58.5196C84.8861 58.3883 84.9215 58.2555 85.0006 58.1479C85.4448 57.5387 85.9459 56.983 86.504 56.4806C87.2808 55.7805 87.9334 54.986 88.4619 54.0973C88.553 53.9427 88.5792 53.7824 88.5405 53.6165C88.5108 53.4983 88.4437 53.4108 88.3389 53.3539C88.3015 53.3359 88.2607 53.3263 88.2193 53.3257C88.178 53.3251 88.1372 53.3336 88.0997 53.3505L86.5143 54.0904C86.4898 54.1013 86.4634 54.1073 86.4367 54.1081C86.4099 54.1088 86.3834 54.1043 86.3585 54.0948C86.3337 54.0853 86.3111 54.0709 86.2921 54.0526C86.2731 54.0343 86.258 54.0124 86.2478 53.9881L86.1931 53.8586C86.1544 53.7677 86.184 53.7154 86.2819 53.7017C86.5507 53.6585 86.8059 53.5665 87.0473 53.4256C88.4505 52.6095 89.6213 51.673 90.5598 50.616C90.8491 50.2932 91.0313 49.8966 91.1065 49.426C91.1315 49.2805 91.0701 49.1987 90.922 49.1805C90.6737 49.1487 90.4539 49.0544 90.2625 48.8975C90.1236 48.7861 89.9835 48.7839 89.8423 48.8907L89.3571 49.2555C89.2477 49.3396 89.1339 49.3465 89.0154 49.276C88.6464 49.0623 88.3423 48.7918 88.1031 48.4645C88.0644 48.4145 88.0712 48.3713 88.1236 48.3349L88.1988 48.2838C88.2808 48.2292 88.3537 48.2383 88.4175 48.3111C88.7774 48.7248 89.2045 48.8737 89.6988 48.7577C90.2796 48.6213 90.758 48.802 91.3388 48.71C92.3069 48.5622 93.3514 48.7259 94.4721 49.201C95.357 49.5726 96.0233 50.4898 96.7169 51.1411C96.8285 51.2456 96.939 51.2445 97.0484 51.1377C97.4948 50.7035 97.6509 50.1977 97.5165 49.6204C97.2545 48.4952 97.5267 47.2904 98.3331 46.0061C98.3696 45.9473 98.4255 45.903 98.4915 45.8806C98.5575 45.8582 98.6295 45.8592 98.6953 45.8834C98.98 45.9879 99.152 46.2016 99.2112 46.5244C99.227 46.6076 99.2596 46.6855 99.3069 46.7528C99.3433 46.8074 99.3923 46.8233 99.4538 46.8006C99.5267 46.7756 99.57 46.7256 99.5836 46.6506C99.6041 46.5574 99.644 46.4744 99.7032 46.4016C99.7761 46.3175 99.8433 46.3232 99.9048 46.4187C100.069 46.6756 100.167 46.9415 100.199 47.2166C100.251 47.6553 100.352 48.1008 100.503 48.5531C100.544 48.6759 100.499 48.7509 100.37 48.7782L99.9151 48.8702C99.7647 48.9021 99.7306 48.9839 99.8126 49.1157L100.844 50.7217C100.901 50.8103 100.915 50.9047 100.885 51.0047C97.6497 61.5167 88.578 68.6258 77.5519 68.9872C68.7741 69.2737 60.068 64.7183 55.5237 57.125C55.4599 57.0182 55.4576 56.9091 55.5168 56.7977C55.6444 56.5658 55.7241 56.3124 55.756 56.0374C55.7925 55.7373 55.895 55.7123 56.0635 55.9623C56.1637 56.1124 56.2868 56.2124 56.4325 56.2624C56.4656 56.274 56.501 56.2778 56.5358 56.2737C56.5706 56.2695 56.604 56.2574 56.6334 56.2382C56.6628 56.2191 56.6874 56.1935 56.7053 56.1634C56.7232 56.1333 56.7339 56.0995 56.7366 56.0646C56.7799 55.4668 56.6865 54.9099 56.4565 54.3939C56.4409 54.3578 56.4361 54.3179 56.4427 54.279C56.4493 54.2402 56.4669 54.2043 56.4935 54.1756C56.5201 54.1469 56.5544 54.1268 56.5921 54.1177C56.6299 54.1086 56.6694 54.111 56.7059 54.1245C56.8949 54.1927 57.0874 54.1859 57.2833 54.1041C57.641 53.9563 57.7514 53.7017 57.6148 53.3403C57.4063 52.7845 56.8938 52.6822 56.617 52.2117C55.9132 51.0081 54.8198 49.9 54.4098 48.8361C53.6194 46.7858 52.8471 44.324 52.0932 41.4508C51.9929 41.0712 51.9736 40.7234 52.0351 40.4075C52.1854 39.6323 52.3472 38.8277 52.5203 37.9934C52.5932 37.6365 52.7982 37.432 53.1353 37.3797C53.1757 37.3734 53.2136 37.3565 53.2449 37.3307C53.2762 37.3048 53.2997 37.2711 53.313 37.2331L53.7127 36.1454C53.7629 36.009 53.8585 35.9226 53.9998 35.8863C54.3437 35.7999 54.6569 35.643 54.9394 35.4157C55.0783 35.2998 55.2389 35.2464 55.4212 35.2555C55.7856 35.2737 56.1353 35.2305 56.4701 35.1259C56.5954 35.0873 56.6899 35.1259 56.7537 35.2418C56.8129 35.3441 56.8243 35.4555 56.7879 35.576C56.7719 35.6245 56.7719 35.6768 56.7879 35.7253C56.8039 35.7737 56.835 35.8158 56.8767 35.8453C57.0362 35.9658 57.1979 36.0727 57.3619 36.1658C57.838 36.4409 57.9849 36.3193 57.8027 35.801C57.7025 35.5169 57.7628 35.235 57.9838 34.9554C58.0817 34.8327 58.1945 34.8168 58.322 34.9077C58.4223 34.9804 58.5088 35.0691 58.5817 35.1736C58.6692 35.3013 58.7853 35.4054 58.92 35.4771C59.453 35.7567 59.9986 35.9067 60.5567 35.9272C60.6354 35.9296 60.7137 35.9158 60.7868 35.8865C60.8599 35.8573 60.9262 35.8132 60.9814 35.7572C61.0366 35.7011 61.0795 35.6343 61.1076 35.5608C61.1356 35.4874 61.1482 35.409 61.1443 35.3305C61.1011 34.4144 61.4541 33.5518 62.2036 32.7425C62.3493 32.5834 62.314 32.4971 62.0976 32.4834ZM68.3163 30.6251L64.773 33.2779C64.6363 33.3802 64.5726 33.5165 64.5817 33.687L64.6193 34.5224C64.6329 34.8133 64.7821 34.9225 65.0669 34.8497L70.9096 33.3392C71.0486 33.3051 71.1363 33.2176 71.1727 33.0767C71.2502 32.7812 71.3868 32.4959 71.5827 32.2209C71.6579 32.114 71.7604 32.0549 71.8903 32.0436L72.6249 31.9754C72.7593 31.964 72.8424 31.8935 72.8743 31.764C73.0679 31.0116 73.4062 30.299 73.8891 29.6261C73.9561 29.5329 74.0003 29.4254 74.0182 29.3121C74.0362 29.1989 74.0274 29.083 73.9926 28.9737C73.9577 28.8644 73.8978 28.7648 73.8175 28.6827C73.7373 28.6006 73.639 28.5384 73.5303 28.5009C72.6534 28.1941 71.855 27.8235 71.1351 27.3894C70.1511 26.7961 68.9962 27.0689 67.9848 27.3075C67.8482 27.3394 67.7798 27.4257 67.7798 27.5667L67.7832 29.2681C67.7832 29.4045 67.8231 29.5284 67.9028 29.6398L68.3675 30.2671C68.4074 30.3217 68.4244 30.3897 68.4148 30.4565C68.4052 30.5234 68.3699 30.5839 68.3163 30.6251ZM87.9733 60.0983C88.0232 59.9925 88.0339 59.8724 88.0035 59.7595C87.9732 59.6466 87.9037 59.548 87.8074 59.4814C87.7111 59.4148 87.5943 59.3843 87.4776 59.3955C87.361 59.4067 87.2521 59.4588 87.1703 59.5425L85.9163 60.7938C85.8437 60.8649 85.7948 60.9566 85.7762 61.0564L85.6054 62.0418C85.5913 62.1248 85.5987 62.21 85.6269 62.2894C85.655 62.3688 85.703 62.4397 85.7664 62.4953C85.8297 62.551 85.9062 62.5896 85.9886 62.6075C86.0711 62.6254 86.1568 62.622 86.2375 62.5975L86.7125 62.4543C86.78 62.4339 86.8423 62.3993 86.8954 62.3528C86.9484 62.3064 86.9909 62.2491 87.02 62.185L87.9733 60.0983Z" fill="#F2EDED"/>
<path d="M160.352 40.0621C160.352 41.9449 159.602 43.7505 158.268 45.0818C156.934 46.4131 155.125 47.161 153.238 47.161C151.351 47.161 149.542 46.4131 148.208 45.0818C146.874 43.7505 146.124 41.9449 146.124 40.0621C146.124 38.1794 146.874 36.3737 148.208 35.0424C149.542 33.7111 151.351 32.9632 153.238 32.9632C155.125 32.9632 156.934 33.7111 158.268 35.0424C159.602 36.3737 160.352 38.1794 160.352 40.0621ZM158.623 40.0724C158.623 38.6454 158.055 37.2768 157.044 36.2678C156.033 35.2588 154.661 34.6919 153.231 34.6919C151.801 34.6919 150.43 35.2588 149.419 36.2678C148.408 37.2768 147.84 38.6454 147.84 40.0724C147.84 41.4993 148.408 42.8679 149.419 43.8769C150.43 44.8859 151.801 45.4528 153.231 45.4528C154.661 45.4528 156.033 44.8859 157.044 43.8769C158.055 42.8679 158.623 41.4993 158.623 40.0724Z" fill="#F2EDED"/>
<path d="M114.081 38.1664L119.791 38.1732C119.834 38.1732 119.875 38.1899 119.906 38.2199C119.936 38.2499 119.954 38.2906 119.955 38.3334L119.972 39.745C119.972 39.7668 119.968 39.7885 119.96 39.8087C119.952 39.829 119.94 39.8474 119.925 39.863C119.91 39.8785 119.892 39.8909 119.871 39.8993C119.851 39.9078 119.83 39.9121 119.808 39.9121H114.081C114.038 39.9121 113.996 39.9293 113.965 39.96C113.935 39.9907 113.917 40.0324 113.917 40.0758L113.928 45.0948C113.928 45.1382 113.945 45.1798 113.976 45.2105C114.006 45.2412 114.048 45.2584 114.092 45.2584L120.478 45.2721C120.52 45.273 120.561 45.2906 120.591 45.3212C120.621 45.3518 120.638 45.3929 120.638 45.4358L120.624 46.7723C120.624 46.8152 120.606 46.8559 120.575 46.8859C120.545 46.9158 120.503 46.9326 120.46 46.9326H112.4C112.357 46.9326 112.315 46.9153 112.284 46.8847C112.253 46.854 112.236 46.8123 112.236 46.7689L112.24 33.5531C112.24 33.5316 112.244 33.5103 112.252 33.4905C112.26 33.4706 112.272 33.4526 112.288 33.4374C112.303 33.4222 112.321 33.4101 112.341 33.4019C112.361 33.3937 112.382 33.3894 112.404 33.3894L120.621 33.386C120.643 33.386 120.664 33.3902 120.684 33.3985C120.704 33.4067 120.722 33.4187 120.737 33.4339C120.752 33.4491 120.764 33.4672 120.773 33.487C120.781 33.5069 120.785 33.5282 120.785 33.5497L120.782 34.9033C120.782 34.9467 120.764 34.9883 120.734 35.019C120.703 35.0497 120.661 35.067 120.618 35.067L114.078 35.0567C114.034 35.0567 113.993 35.074 113.962 35.1047C113.931 35.1354 113.914 35.177 113.914 35.2204L113.917 38.0027C113.917 38.0461 113.935 38.0877 113.965 38.1184C113.996 38.1491 114.038 38.1664 114.081 38.1664Z" fill="#F2EDED"/>
<path d="M124.807 43.4581C126.447 46.7723 131.364 45.7597 131.374 41.9272C131.381 39.1426 131.382 36.3683 131.377 33.6042C131.377 33.4519 131.454 33.3758 131.606 33.3758L132.928 33.3928C133.077 33.3928 133.149 33.4678 133.147 33.6179C133.104 35.966 133.11 38.1959 133.164 40.3076C133.205 41.9124 133.079 43.0808 132.785 43.8127C131.883 46.0665 129.18 47.7645 126.717 47.0246C124.924 46.4859 123.726 45.4255 123.122 43.8434C122.812 43.0251 122.684 41.6044 122.736 39.5814C122.791 37.5356 122.792 35.5375 122.74 33.5872C122.735 33.4531 122.8 33.386 122.934 33.386L124.277 33.3826C124.382 33.3826 124.435 33.4349 124.438 33.5394C124.486 35.9444 124.481 38.3448 124.424 40.7406C124.394 41.9795 124.522 42.8853 124.807 43.4581Z" fill="#F2EDED"/>
<path d="M141.365 39.67C141.345 39.6766 141.327 39.6878 141.313 39.7025C141.299 39.7173 141.288 39.7352 141.282 39.7549C141.276 39.7745 141.275 39.7953 141.279 39.8155C141.282 39.8358 141.291 39.8548 141.303 39.8712L146.268 46.6803C146.393 46.853 146.349 46.9383 146.135 46.936L144.723 46.9292C144.638 46.928 144.555 46.9074 144.48 46.869C144.404 46.8305 144.339 46.7752 144.289 46.7075L139.444 40.0417C139.346 39.9053 139.212 39.8371 139.041 39.8371H137.538C137.514 39.8371 137.49 39.8417 137.468 39.8506C137.447 39.8595 137.427 39.8725 137.41 39.889C137.393 39.9055 137.38 39.925 137.37 39.9465C137.361 39.968 137.357 39.9911 137.357 40.0144L137.367 46.7553C137.367 46.8758 137.308 46.936 137.189 46.936L135.894 46.9326C135.776 46.9326 135.717 46.8735 135.717 46.7553V33.5667C135.717 33.4258 135.787 33.3576 135.928 33.3621C137.092 33.4099 138.282 33.411 139.496 33.3655C140.468 33.3314 141.243 33.4576 141.819 33.744C144.501 35.0772 144.163 38.7051 141.365 39.67ZM137.353 35.292L137.36 37.9311C137.36 37.9633 137.366 37.9952 137.379 38.025C137.391 38.0548 137.409 38.0819 137.432 38.1047C137.455 38.1275 137.482 38.1455 137.512 38.1579C137.542 38.1702 137.574 38.1766 137.606 38.1766L140.312 38.1732C140.753 38.1722 141.175 38.0125 141.485 37.7293C141.796 37.446 141.97 37.0624 141.969 36.6627V36.5468C141.969 36.3488 141.926 36.1529 141.842 35.9702C141.758 35.7875 141.635 35.6217 141.481 35.482C141.326 35.3424 141.143 35.2318 140.941 35.1565C140.74 35.0811 140.523 35.0426 140.305 35.0431L137.599 35.0465C137.567 35.0465 137.535 35.0529 137.505 35.0652C137.475 35.0775 137.448 35.0956 137.425 35.1184C137.402 35.1412 137.384 35.1683 137.372 35.1981C137.36 35.2278 137.353 35.2598 137.353 35.292Z" fill="#F2EDED"/>
<path d="M162.252 33.6179C162.252 33.5591 162.275 33.5027 162.317 33.4611C162.358 33.4196 162.415 33.3962 162.474 33.3962L166.564 33.3894C168.434 33.3865 170.228 34.0936 171.552 35.3551C172.877 36.6167 173.623 38.3294 173.626 40.1167V40.1985C173.628 41.084 173.447 41.9611 173.094 42.7798C172.741 43.5985 172.223 44.3428 171.569 44.97C170.915 45.5973 170.138 46.0953 169.283 46.4355C168.428 46.7758 167.511 46.9516 166.584 46.953L162.494 46.9599C162.435 46.9599 162.379 46.9365 162.337 46.8949C162.296 46.8534 162.272 46.797 162.272 46.7382L162.252 33.6179ZM163.94 35.2886L163.919 45.088C163.919 45.1504 163.944 45.2102 163.988 45.2543C164.032 45.2984 164.092 45.3232 164.155 45.3232L166.413 45.3266C167.138 45.3281 167.855 45.198 168.525 44.9438C169.194 44.6895 169.803 44.3162 170.316 43.8451C170.829 43.3739 171.237 42.8142 171.515 42.1979C171.793 41.5816 171.937 40.9207 171.938 40.2531V40.1508C171.941 38.8026 171.362 37.5085 170.33 36.5532C169.298 35.5979 167.896 35.0596 166.434 35.0567L164.175 35.0533C164.113 35.0533 164.053 35.0781 164.009 35.1222C163.964 35.1664 163.94 35.2262 163.94 35.2886Z" fill="#F2EDED"/>
<path d="M177.576 45.2687L183.921 45.2653C183.967 45.2653 184.01 45.2832 184.042 45.3152C184.074 45.3472 184.092 45.3905 184.092 45.4358L184.089 46.7621C184.089 46.8073 184.071 46.8507 184.039 46.8827C184.007 46.9146 183.963 46.9326 183.918 46.9326L175.847 46.936C175.802 46.936 175.758 46.918 175.726 46.8861C175.694 46.8541 175.676 46.8107 175.676 46.7655L175.687 33.5633C175.687 33.5181 175.705 33.4747 175.737 33.4428C175.769 33.4108 175.812 33.3928 175.858 33.3928L184.089 33.386C184.134 33.386 184.177 33.404 184.209 33.4359C184.241 33.4679 184.259 33.5113 184.259 33.5565L184.256 34.8999C184.256 34.9451 184.238 34.9885 184.206 35.0205C184.174 35.0524 184.131 35.0704 184.085 35.0704L177.576 35.0602C177.531 35.0602 177.487 35.0781 177.455 35.1101C177.423 35.1421 177.405 35.1854 177.405 35.2306L177.398 38.0129C177.398 38.0581 177.416 38.1015 177.449 38.1335C177.481 38.1654 177.524 38.1834 177.569 38.1834L183.2 38.1698C183.246 38.1698 183.289 38.1877 183.321 38.2197C183.353 38.2517 183.371 38.295 183.371 38.3403L183.368 39.7484C183.368 39.7937 183.35 39.837 183.318 39.869C183.286 39.901 183.242 39.9189 183.197 39.9189L177.576 39.9019C177.531 39.9019 177.487 39.9198 177.455 39.9518C177.423 39.9838 177.405 40.0271 177.405 40.0724V45.0982C177.405 45.1434 177.423 45.1868 177.455 45.2187C177.487 45.2507 177.531 45.2687 177.576 45.2687Z" fill="#F2EDED"/>
<path d="M188.438 36.4888L188.445 46.8269C188.445 46.8549 188.434 46.8818 188.414 46.9016C188.394 46.9215 188.367 46.9326 188.339 46.9326L186.832 46.9258C186.804 46.9258 186.777 46.9146 186.757 46.8948C186.738 46.875 186.726 46.8481 186.726 46.8201L186.716 33.4883C186.716 33.4603 186.727 33.4334 186.747 33.4136C186.767 33.3937 186.794 33.3826 186.822 33.3826L188.455 33.3792C188.472 33.3793 188.489 33.3834 188.503 33.3911C188.518 33.3988 188.531 33.4099 188.541 33.4235L192.655 39.0563C192.664 39.0697 192.677 39.0805 192.692 39.0881C192.707 39.0956 192.723 39.0995 192.74 39.0995C192.757 39.0995 192.773 39.0956 192.788 39.0881C192.803 39.0805 192.816 39.0697 192.825 39.0563L196.96 33.4235C196.97 33.4099 196.982 33.3988 196.997 33.3911C197.012 33.3834 197.029 33.3793 197.045 33.3792L198.665 33.3894C198.693 33.3894 198.72 33.4006 198.74 33.4204C198.76 33.4402 198.771 33.4671 198.771 33.4951L198.764 46.8201C198.764 46.834 198.761 46.8477 198.756 46.8605C198.751 46.8733 198.743 46.885 198.733 46.8948C198.723 46.9046 198.711 46.9124 198.699 46.9177C198.686 46.923 198.672 46.9258 198.658 46.9258L197.192 46.9292C197.164 46.9292 197.137 46.918 197.117 46.8982C197.097 46.8784 197.086 46.8515 197.086 46.8235L197.076 36.482C197.076 36.4598 197.069 36.4382 197.055 36.4204C197.042 36.4025 197.024 36.3893 197.002 36.3825C196.981 36.3757 196.959 36.3757 196.937 36.3826C196.916 36.3894 196.898 36.4027 196.885 36.4206L192.825 41.9136C192.816 41.927 192.803 41.9378 192.788 41.9454C192.773 41.9529 192.757 41.9568 192.74 41.9568C192.723 41.9568 192.707 41.9529 192.692 41.9454C192.677 41.9378 192.664 41.927 192.655 41.9136L188.63 36.4274C188.616 36.4095 188.598 36.3962 188.577 36.3894C188.556 36.3825 188.533 36.3825 188.512 36.3893C188.491 36.3961 188.472 36.4093 188.459 36.4272C188.446 36.4451 188.438 36.4666 188.438 36.4888Z" fill="#F2EDED"/>
<path d="M206.602 38.1323L209.913 33.5838C210.009 33.4497 210.14 33.3826 210.306 33.3826L211.85 33.386C211.878 33.3861 211.905 33.3937 211.928 33.4079C211.951 33.4221 211.97 33.4424 211.983 33.4666C211.996 33.4908 212.001 33.518 212 33.5453C211.998 33.5725 211.989 33.5988 211.973 33.6213L207.528 39.7928C207.36 40.0254 207.27 40.3061 207.272 40.594L207.275 46.7382C207.275 46.7898 207.255 46.8392 207.218 46.8757C207.182 46.9121 207.132 46.9326 207.08 46.9326L205.772 46.936C205.647 46.936 205.585 46.8746 205.587 46.7519C205.596 44.7197 205.596 42.666 205.587 40.5906C205.587 40.2315 205.47 39.8928 205.235 39.5745C203.794 37.6129 202.364 35.625 200.947 33.611C200.845 33.4656 200.884 33.3917 201.063 33.3894L202.632 33.386C202.8 33.386 202.934 33.4531 203.032 33.5872L206.319 38.1323C206.412 38.2641 206.506 38.2641 206.602 38.1323Z" fill="#F2EDED"/>
<path d="M112.298 58V55.4545H113.206C113.404 55.4545 113.568 55.4906 113.698 55.5627C113.828 55.6348 113.925 55.7334 113.99 55.8585C114.054 55.9828 114.087 56.1228 114.087 56.2786C114.087 56.4352 114.054 56.576 113.989 56.7012C113.924 56.8255 113.826 56.9241 113.695 56.997C113.565 57.0691 113.401 57.1051 113.204 57.1051H112.58V56.7795H113.169C113.295 56.7795 113.396 56.7579 113.474 56.7148C113.552 56.6709 113.609 56.6113 113.646 56.5359C113.682 56.4605 113.7 56.3747 113.7 56.2786C113.7 56.1825 113.682 56.0971 113.646 56.0225C113.609 55.948 113.551 55.8896 113.473 55.8473C113.395 55.805 113.292 55.7839 113.165 55.7839H112.682V58H112.298Z" fill="#F2EDED"/>
<path d="M115.587 58V55.4545H116.494C116.692 55.4545 116.855 55.4885 116.985 55.5565C117.116 55.6244 117.214 55.7184 117.279 55.8386C117.343 55.9579 117.376 56.0959 117.376 56.2525C117.376 56.4083 117.343 56.5454 117.277 56.6639C117.213 56.7815 117.115 56.8731 116.984 56.9386C116.854 57.004 116.69 57.0367 116.493 57.0367H115.806V56.7061H116.458C116.583 56.7061 116.684 56.6883 116.762 56.6527C116.84 56.6171 116.898 56.5653 116.934 56.4973C116.971 56.4294 116.989 56.3478 116.989 56.2525C116.989 56.1564 116.97 56.0731 116.933 56.0027C116.897 55.9322 116.839 55.8784 116.76 55.8411C116.682 55.803 116.58 55.7839 116.453 55.7839H115.971V58H115.587ZM116.844 56.8516L117.472 58H117.035L116.418 56.8516H116.844Z" fill="#F2EDED"/>
<path d="M121.104 56.7273C121.104 56.9991 121.054 57.2327 120.955 57.4283C120.855 57.623 120.719 57.773 120.546 57.8782C120.374 57.9826 120.178 58.0348 119.958 58.0348C119.738 58.0348 119.541 57.9826 119.368 57.8782C119.195 57.773 119.059 57.6226 118.96 57.427C118.861 57.2315 118.811 56.9982 118.811 56.7273C118.811 56.4555 118.861 56.2222 118.96 56.0275C119.059 55.832 119.195 55.682 119.368 55.5776C119.541 55.4724 119.738 55.4197 119.958 55.4197C120.178 55.4197 120.374 55.4724 120.546 55.5776C120.719 55.682 120.855 55.832 120.955 56.0275C121.054 56.2222 121.104 56.4555 121.104 56.7273ZM120.724 56.7273C120.724 56.5201 120.69 56.3457 120.623 56.204C120.557 56.0615 120.466 55.9538 120.35 55.8809C120.234 55.8071 120.104 55.7702 119.958 55.7702C119.811 55.7702 119.68 55.8071 119.565 55.8809C119.45 55.9538 119.359 56.0615 119.292 56.204C119.226 56.3457 119.192 56.5201 119.192 56.7273C119.192 56.9344 119.226 57.1093 119.292 57.2518C119.359 57.3935 119.45 57.5012 119.565 57.5749C119.68 57.6478 119.811 57.6843 119.958 57.6843C120.104 57.6843 120.234 57.6478 120.35 57.5749C120.466 57.5012 120.557 57.3935 120.623 57.2518C120.69 57.1093 120.724 56.9344 120.724 56.7273Z" fill="#F2EDED"/>
<path d="M122.633 58V55.4545H124.211V55.7852H123.017V56.5607H124.098V56.8901H123.017V58H122.633Z" fill="#F2EDED"/>
<path d="M125.734 58V55.4545H127.329V55.7852H126.118V56.5607H127.246V56.8901H126.118V57.6694H127.344V58H125.734Z" fill="#F2EDED"/>
<path d="M130.281 56.1232C130.268 56.0056 130.213 55.9144 130.117 55.8498C130.021 55.7843 129.9 55.7516 129.754 55.7516C129.649 55.7516 129.559 55.7682 129.483 55.8013C129.407 55.8336 129.347 55.8784 129.305 55.9355C129.264 55.9919 129.243 56.0561 129.243 56.1282C129.243 56.1887 129.257 56.2409 129.285 56.2848C129.314 56.3287 129.352 56.3656 129.398 56.3954C129.446 56.4244 129.496 56.4489 129.55 56.4687C129.604 56.4878 129.656 56.5035 129.705 56.516L129.954 56.5806C130.035 56.6005 130.118 56.6274 130.204 56.6614C130.289 56.6954 130.368 56.7401 130.441 56.7956C130.514 56.8511 130.573 56.9199 130.618 57.0019C130.663 57.084 130.686 57.1822 130.686 57.2965C130.686 57.4407 130.649 57.5687 130.574 57.6806C130.5 57.7924 130.393 57.8807 130.252 57.9453C130.112 58.0099 129.943 58.0423 129.744 58.0423C129.553 58.0423 129.388 58.012 129.249 57.9515C129.11 57.891 129.001 57.8053 128.922 57.6942C128.844 57.5824 128.8 57.4498 128.792 57.2965H129.177C129.185 57.3885 129.214 57.4651 129.267 57.5265C129.32 57.5869 129.387 57.6321 129.469 57.6619C129.552 57.6909 129.643 57.7054 129.741 57.7054C129.85 57.7054 129.946 57.6884 130.031 57.6545C130.116 57.6197 130.183 57.5716 130.232 57.5103C130.281 57.4481 130.306 57.3756 130.306 57.2928C130.306 57.2174 130.284 57.1557 130.241 57.1076C130.199 57.0595 130.141 57.0198 130.068 56.9883C129.996 56.9568 129.915 56.929 129.823 56.905L129.523 56.823C129.319 56.7675 129.157 56.6858 129.038 56.5781C128.919 56.4704 128.86 56.3279 128.86 56.1506C128.86 56.0039 128.9 55.8759 128.979 55.7665C129.059 55.6571 129.167 55.5722 129.303 55.5117C129.438 55.4504 129.592 55.4197 129.762 55.4197C129.935 55.4197 130.087 55.45 130.219 55.5105C130.351 55.571 130.456 55.6542 130.532 55.7603C130.608 55.8655 130.648 55.9865 130.651 56.1232H130.281Z" fill="#F2EDED"/>
<path d="M133.583 56.1232C133.57 56.0056 133.515 55.9144 133.419 55.8498C133.323 55.7843 133.202 55.7516 133.056 55.7516C132.952 55.7516 132.862 55.7682 132.785 55.8013C132.709 55.8336 132.65 55.8784 132.608 55.9355C132.566 55.9919 132.545 56.0561 132.545 56.1282C132.545 56.1887 132.559 56.2409 132.588 56.2848C132.617 56.3287 132.654 56.3656 132.701 56.3954C132.748 56.4244 132.799 56.4489 132.852 56.4687C132.906 56.4878 132.958 56.5035 133.008 56.516L133.256 56.5806C133.338 56.6005 133.421 56.6274 133.506 56.6614C133.591 56.6954 133.671 56.7401 133.744 56.7956C133.816 56.8511 133.875 56.9199 133.92 57.0019C133.966 57.084 133.988 57.1822 133.988 57.2965C133.988 57.4407 133.951 57.5687 133.877 57.6806C133.803 57.7924 133.695 57.8807 133.555 57.9453C133.415 58.0099 133.245 58.0423 133.046 58.0423C132.856 58.0423 132.691 58.012 132.552 57.9515C132.412 57.891 132.303 57.8053 132.225 57.6942C132.146 57.5824 132.103 57.4498 132.094 57.2965H132.48C132.487 57.3885 132.517 57.4651 132.569 57.5265C132.622 57.5869 132.69 57.6321 132.772 57.6619C132.854 57.6909 132.945 57.7054 133.044 57.7054C133.152 57.7054 133.249 57.6884 133.333 57.6545C133.419 57.6197 133.486 57.5716 133.535 57.5103C133.584 57.4481 133.608 57.3756 133.608 57.2928C133.608 57.2174 133.587 57.1557 133.543 57.1076C133.501 57.0595 133.444 57.0198 133.371 56.9883C133.299 56.9568 133.217 56.929 133.126 56.905L132.825 56.823C132.621 56.7675 132.46 56.6858 132.34 56.5781C132.222 56.4704 132.163 56.3279 132.163 56.1506C132.163 56.0039 132.202 55.8759 132.282 55.7665C132.361 55.6571 132.469 55.5722 132.605 55.5117C132.741 55.4504 132.894 55.4197 133.065 55.4197C133.237 55.4197 133.389 55.45 133.521 55.5105C133.654 55.571 133.758 55.6542 133.834 55.7603C133.911 55.8655 133.95 55.9865 133.954 56.1232H133.583Z" fill="#F2EDED"/>
<path d="M135.881 55.4545V58H135.497V55.4545H135.881Z" fill="#F2EDED"/>
<path d="M139.702 56.7273C139.702 56.9991 139.652 57.2327 139.553 57.4283C139.453 57.623 139.317 57.773 139.144 57.8782C138.971 57.9826 138.775 58.0348 138.556 58.0348C138.335 58.0348 138.139 57.9826 137.965 57.8782C137.793 57.773 137.657 57.6226 137.558 57.427C137.458 57.2315 137.409 56.9982 137.409 56.7273C137.409 56.4555 137.458 56.2222 137.558 56.0275C137.657 55.832 137.793 55.682 137.965 55.5776C138.139 55.4724 138.335 55.4197 138.556 55.4197C138.775 55.4197 138.971 55.4724 139.144 55.5776C139.317 55.682 139.453 55.832 139.553 56.0275C139.652 56.2222 139.702 56.4555 139.702 56.7273ZM139.321 56.7273C139.321 56.5201 139.288 56.3457 139.221 56.204C139.155 56.0615 139.063 55.9538 138.947 55.8809C138.832 55.8071 138.702 55.7702 138.556 55.7702C138.409 55.7702 138.278 55.8071 138.163 55.8809C138.048 55.9538 137.957 56.0615 137.89 56.204C137.823 56.3457 137.79 56.5201 137.79 56.7273C137.79 56.9344 137.823 57.1093 137.89 57.2518C137.957 57.3935 138.048 57.5012 138.163 57.5749C138.278 57.6478 138.409 57.6843 138.556 57.6843C138.702 57.6843 138.832 57.6478 138.947 57.5749C139.063 57.5012 139.155 57.3935 139.221 57.2518C139.288 57.1093 139.321 56.9344 139.321 56.7273Z" fill="#F2EDED"/>
<path d="M143.285 55.4545V58H142.932L141.638 56.1332H141.615V58H141.231V55.4545H141.586L142.881 57.3239H142.905V55.4545H143.285Z" fill="#F2EDED"/>
<path d="M145.11 58H144.703L145.619 55.4545H146.062L146.978 58H146.571L145.851 55.9169H145.831L145.11 58ZM145.179 57.0032H146.501V57.3263H145.179V57.0032Z" fill="#F2EDED"/>
<path d="M148.396 58V55.4545H148.78V57.6694H149.934V58H148.396Z" fill="#F2EDED"/>
<path d="M155.249 55.7852V55.4545H157.219V55.7852H156.424V58H156.042V55.7852H155.249Z" fill="#F2EDED"/>
<path d="M158.704 58V55.4545H159.611C159.809 55.4545 159.972 55.4885 160.102 55.5565C160.233 55.6244 160.331 55.7184 160.396 55.8386C160.46 55.9579 160.493 56.0959 160.493 56.2525C160.493 56.4083 160.46 56.5454 160.394 56.6639C160.33 56.7815 160.232 56.8731 160.101 56.9386C159.971 57.004 159.807 57.0367 159.61 57.0367H158.923V56.7061H159.575C159.7 56.7061 159.801 56.6883 159.879 56.6527C159.957 56.6171 160.015 56.5653 160.051 56.4973C160.088 56.4294 160.106 56.3478 160.106 56.2525C160.106 56.1564 160.087 56.0731 160.05 56.0027C160.014 55.9322 159.956 55.8784 159.877 55.8411C159.799 55.803 159.697 55.7839 159.57 55.7839H159.088V58H158.704ZM159.961 56.8516L160.589 58H160.152L159.535 56.8516H159.961Z" fill="#F2EDED"/>
<path d="M162.225 58H161.817L162.733 55.4545H163.177L164.093 58H163.685L162.966 55.9169H162.946L162.225 58ZM162.293 57.0032H163.616V57.3263H162.293V57.0032Z" fill="#F2EDED"/>
<path d="M165.895 55.4545V58H165.511V55.4545H165.895Z" fill="#F2EDED"/>
<path d="M169.558 55.4545V58H169.205L167.912 56.1332H167.888V58H167.504V55.4545H167.859L169.154 57.3239H169.178V55.4545H169.558Z" fill="#F2EDED"/>
<path d="M171.553 55.4545V58H171.169V55.4545H171.553Z" fill="#F2EDED"/>
<path d="M175.216 55.4545V58H174.864L173.57 56.1332H173.546V58H173.162V55.4545H173.517L174.813 57.3239H174.836V55.4545H175.216Z" fill="#F2EDED"/>
<path d="M178.549 56.2587C178.525 56.1833 178.493 56.1158 178.452 56.0561C178.413 55.9956 178.365 55.9442 178.31 55.902C178.254 55.8589 178.191 55.8262 178.119 55.8038C178.049 55.7814 177.971 55.7702 177.887 55.7702C177.744 55.7702 177.614 55.8071 177.499 55.8809C177.384 55.9546 177.293 56.0627 177.226 56.2052C177.159 56.3469 177.126 56.5205 177.126 56.726C177.126 56.9323 177.16 57.1068 177.227 57.2493C177.294 57.3918 177.386 57.4999 177.503 57.5737C177.62 57.6474 177.753 57.6843 177.902 57.6843C178.04 57.6843 178.161 57.6561 178.264 57.5998C178.367 57.5434 178.447 57.4639 178.503 57.3611C178.561 57.2576 178.589 57.1358 178.589 56.9957L178.689 57.0144H177.96V56.6974H178.961V56.987C178.961 57.2008 178.915 57.3864 178.824 57.5438C178.734 57.7005 178.609 57.8214 178.449 57.9068C178.29 57.9921 178.107 58.0348 177.902 58.0348C177.671 58.0348 177.469 57.9818 177.295 57.8757C177.122 57.7696 176.987 57.6193 176.89 57.4245C176.793 57.229 176.745 56.997 176.745 56.7285C176.745 56.5255 176.773 56.3432 176.829 56.1816C176.886 56.0201 176.965 55.8829 177.067 55.7702C177.169 55.6567 177.29 55.5701 177.428 55.5105C177.567 55.45 177.72 55.4197 177.884 55.4197C178.022 55.4197 178.15 55.44 178.268 55.4806C178.388 55.5212 178.494 55.5788 178.587 55.6534C178.68 55.728 178.758 55.8166 178.819 55.9194C178.88 56.0213 178.922 56.1344 178.943 56.2587H178.549Z" fill="#F2EDED"/>
<path d="M184.666 58H184.258L185.174 55.4545H185.618L186.534 58H186.126L185.407 55.9169H185.387L184.666 58ZM184.734 57.0032H186.057V57.3263H184.734V57.0032Z" fill="#F2EDED"/>
<path d="M189.946 56.2823H189.558C189.543 56.1995 189.516 56.1265 189.475 56.0636C189.434 56.0006 189.385 55.9471 189.326 55.9032C189.267 55.8593 189.201 55.8262 189.128 55.8038C189.056 55.7814 188.98 55.7702 188.898 55.7702C188.752 55.7702 188.62 55.8071 188.504 55.8809C188.389 55.9546 188.298 56.0627 188.231 56.2052C188.165 56.3478 188.131 56.5218 188.131 56.7273C188.131 56.9344 188.165 57.1093 188.231 57.2518C188.298 57.3943 188.39 57.502 188.506 57.5749C188.622 57.6478 188.752 57.6843 188.897 57.6843C188.977 57.6843 189.054 57.6735 189.126 57.652C189.199 57.6296 189.265 57.5969 189.323 57.5538C189.382 57.5107 189.432 57.4581 189.473 57.3959C189.514 57.333 189.543 57.2609 189.558 57.1797L189.946 57.1809C189.925 57.306 189.885 57.4212 189.826 57.5265C189.767 57.6309 189.691 57.7212 189.598 57.7974C189.506 57.8728 189.401 57.9312 189.282 57.9727C189.164 58.0141 189.035 58.0348 188.895 58.0348C188.674 58.0348 188.478 57.9826 188.305 57.8782C188.133 57.773 187.997 57.6226 187.898 57.427C187.799 57.2315 187.75 56.9982 187.75 56.7273C187.75 56.4555 187.8 56.2222 187.899 56.0275C187.998 55.832 188.134 55.682 188.307 55.5776C188.479 55.4724 188.675 55.4197 188.895 55.4197C189.03 55.4197 189.156 55.4392 189.272 55.4782C189.39 55.5163 189.496 55.5726 189.589 55.6472C189.683 55.7209 189.76 55.8113 189.822 55.9181C189.883 56.0242 189.925 56.1456 189.946 56.2823Z" fill="#F2EDED"/>
<path d="M191.654 58H191.246L192.162 55.4545H192.606L193.522 58H193.114L192.394 55.9169H192.374L191.654 58ZM191.722 57.0032H193.044V57.3263H191.722V57.0032Z" fill="#F2EDED"/>
<path d="M195.763 58H194.939V55.4545H195.789C196.039 55.4545 196.253 55.5055 196.432 55.6074C196.611 55.7085 196.748 55.8539 196.843 56.0437C196.939 56.2326 196.988 56.4592 196.988 56.7235C196.988 56.9887 196.939 57.2166 196.842 57.4071C196.746 57.5977 196.607 57.7444 196.424 57.8471C196.242 57.949 196.022 58 195.763 58ZM195.323 57.6644H195.742C195.936 57.6644 196.097 57.628 196.226 57.555C196.354 57.4813 196.45 57.3748 196.514 57.2356C196.578 57.0956 196.61 56.9249 196.61 56.7235C196.61 56.5238 196.578 56.3544 196.514 56.2152C196.451 56.076 196.357 55.9703 196.232 55.8983C196.107 55.8262 195.951 55.7901 195.766 55.7901H195.323V57.6644Z" fill="#F2EDED"/>
<path d="M198.515 58V55.4545H200.111V55.7852H198.899V56.5607H200.028V56.8901H198.899V57.6694H200.126V58H198.515Z" fill="#F2EDED"/>
<path d="M201.674 55.4545H202.14L202.95 57.4332H202.98L203.791 55.4545H204.257V58H203.891V56.158H203.868L203.117 57.9963H202.814L202.063 56.1568H202.039V58H201.674V55.4545Z" fill="#F2EDED"/>
<path d="M205.669 55.4545H206.105L206.77 56.6117H206.797L207.462 55.4545H207.898L206.975 57.0007V58H206.592V57.0007L205.669 55.4545Z" fill="#F2EDED"/>
</g>
<defs>
<filter id="filter0_d_1515_80726" x="0" y="0" width="264" height="95" filterUnits="userSpaceOnUse" color-interpolation-filters="sRGB">
<feFlood flood-opacity="0" result="BackgroundImageFix"/>
<feColorMatrix in="SourceAlpha" type="matrix" values="0 0 0 0 0 0 0 0 0 0 0 0 0 0 0 0 0 0 127 0" result="hardAlpha"/>
<feOffset dy="4"/>
<feGaussianBlur stdDeviation="2"/>
<feComposite in2="hardAlpha" operator="out"/>
<feColorMatrix type="matrix" values="0 0 0 0 0 0 0 0 0 0 0 0 0 0 0 0 0 0 0.25 0"/>
<feBlend mode="normal" in2="BackgroundImageFix" result="effect1_dropShadow_1515_80726"/>
<feBlend mode="normal" in="SourceGraphic" in2="effect1_dropShadow_1515_80726" result="shape"/>
</filter>
</defs>
</svg>
