<svg width="40" height="40" viewBox="0 0 40 40" fill="none" xmlns="http://www.w3.org/2000/svg">
<path d="M0 0H39.5C39.7761 0 40 0.223858 40 0.5V39.5C40 39.7761 39.7761 40 39.5 40H0V0Z" fill="#FEE1E1"/>
<path d="M13.8717 15.6288C13.785 15.542 13.785 15.4013 13.8717 15.3145L14.8145 14.3717C14.9013 14.2849 15.042 14.2849 15.1288 14.3717L21.1 20.3429C21.1867 20.4297 21.1867 20.5704 21.1 20.6571L20.1572 21.6C20.0704 21.6867 19.9297 21.6867 19.8429 21.6L13.8717 15.6288Z" fill="#F52A2A"/>
<path d="M20.1572 21.6C20.0704 21.6867 19.9297 21.6867 19.8429 21.6L18.9001 20.6571C18.8133 20.5703 18.8133 20.4296 18.9001 20.3429L24.8712 14.3717C24.958 14.2849 25.0987 14.2849 25.1854 14.3717L26.1283 15.3145C26.215 15.4013 26.215 15.542 26.1283 15.6288L20.1572 21.6Z" fill="#F52A2A"/>
<path d="M13.8717 15.6288C13.785 15.542 13.785 15.4013 13.8717 15.3145L14.8145 14.3717C14.9013 14.2849 15.042 14.2849 15.1288 14.3717L21.1 20.3429C21.1867 20.4297 21.1867 20.5704 21.1 20.6571L20.1572 21.6C20.0704 21.6867 19.9297 21.6867 19.8429 21.6L13.8717 15.6288Z" fill="#F52A2A"/>
<path d="M20.1572 21.6C20.0704 21.6867 19.9297 21.6867 19.8429 21.6L18.9001 20.6571C18.8133 20.5703 18.8133 20.4296 18.9001 20.3429L24.8712 14.3717C24.958 14.2849 25.0987 14.2849 25.1854 14.3717L26.1283 15.3145C26.215 15.4013 26.215 15.542 26.1283 15.6288L20.1572 21.6Z" fill="#F52A2A"/>
<path d="M15.1288 26.6283C15.0421 26.7151 14.9014 26.7151 14.8146 26.6283L13.8718 25.6855C13.785 25.5987 13.785 25.458 13.8718 25.3712L19.8429 19.4001C19.9297 19.3133 20.0704 19.3133 20.1572 19.4001L21.1 20.3429C21.1867 20.4297 21.1867 20.5704 21.1 20.6571L15.1288 26.6283Z" fill="#F52A2A"/>
<path d="M21.1 20.3429C21.1867 20.4297 21.1867 20.5704 21.1 20.6571L20.1572 21.6C20.0704 21.6867 19.9297 21.6867 19.8429 21.6L13.8717 15.6288C13.785 15.542 13.785 15.4013 13.8717 15.3145L14.8145 14.3717C14.9013 14.2849 15.042 14.2849 15.1288 14.3717L21.1 20.3429Z" fill="#F52A2A"/>
<path d="M15.1288 26.6283C15.0421 26.7151 14.9014 26.7151 14.8146 26.6283L13.8718 25.6855C13.785 25.5987 13.785 25.458 13.8718 25.3712L19.8429 19.4001C19.9297 19.3133 20.0704 19.3133 20.1572 19.4001L21.1 20.3429C21.1867 20.4297 21.1867 20.5704 21.1 20.6571L15.1288 26.6283Z" fill="#F52A2A"/>
<path d="M21.1 20.3429C21.1867 20.4297 21.1867 20.5704 21.1 20.6571L20.1572 21.6C20.0704 21.6867 19.9297 21.6867 19.8429 21.6L13.8717 15.6288C13.785 15.542 13.785 15.4013 13.8717 15.3145L14.8145 14.3717C14.9013 14.2849 15.042 14.2849 15.1288 14.3717L21.1 20.3429Z" fill="#F52A2A"/>
<path d="M13.8718 25.3712C13.785 25.458 13.785 25.5987 13.8718 25.6855L14.8146 26.6283C14.9014 26.7151 15.0421 26.7151 15.1288 26.6283L21.1 20.6571C21.1867 20.5704 21.1867 20.4297 21.1 20.3429L20.1572 19.4001C20.0704 19.3133 19.9297 19.3133 19.8429 19.4001L13.8718 25.3712Z" fill="#F52A2A"/>
<path d="M20.1572 19.4001C20.0704 19.3133 19.9297 19.3133 19.8429 19.4001L18.9001 20.3429C18.8133 20.4296 18.8133 20.5703 18.9001 20.6571L24.8712 26.6283C24.9579 26.715 25.0986 26.715 25.1854 26.6283L26.1282 25.6855C26.215 25.5987 26.215 25.458 26.1282 25.3712L20.1572 19.4001Z" fill="#F52A2A"/>
<path d="M13.8718 25.3712C13.785 25.458 13.785 25.5987 13.8718 25.6855L14.8146 26.6283C14.9014 26.7151 15.0421 26.7151 15.1288 26.6283L21.1 20.6571C21.1867 20.5704 21.1867 20.4297 21.1 20.3429L20.1572 19.4001C20.0704 19.3133 19.9297 19.3133 19.8429 19.4001L13.8718 25.3712Z" fill="#F52A2A"/>
<path d="M20.1572 19.4001C20.0704 19.3133 19.9297 19.3133 19.8429 19.4001L18.9001 20.3429C18.8133 20.4296 18.8133 20.5703 18.9001 20.6571L24.8712 26.6283C24.9579 26.715 25.0986 26.715 25.1854 26.6283L26.1282 25.6855C26.215 25.5987 26.215 25.458 26.1282 25.3712L20.1572 19.4001Z" fill="#F52A2A"/>
</svg>
