<svg width="32" height="32" viewBox="0 0 32 32" fill="none" xmlns="http://www.w3.org/2000/svg">
<path d="M26.1668 8.61209H23.8454L24.5537 4.88971C24.7347 3.91775 24.0988 2.98199 23.1268 2.80104C23.0182 2.78036 22.9045 2.77002 22.7959 2.77002C21.9377 2.77002 21.1984 3.38008 21.0381 4.22278L20.2006 8.61726H14.5912L15.2995 4.89488C15.4804 3.92292 14.8445 2.98716 13.8726 2.80621C13.764 2.78553 13.6502 2.77519 13.5417 2.77519C12.6835 2.77519 11.9442 3.38525 11.7839 4.22795L10.9463 8.62243H7.07404C6.30371 8.62243 5.61093 9.10841 5.35243 9.83738C5.02155 10.7887 5.52821 11.8226 6.47949 12.1535C6.67078 12.2207 6.87241 12.2518 7.07404 12.2518H10.2587L8.83183 19.7482H5.81773C5.04223 19.7482 4.35463 20.2394 4.1013 20.9735C3.77042 21.9248 4.27708 22.9588 5.22835 23.2897C5.41964 23.3569 5.62127 23.3879 5.8229 23.3879H8.14422L7.43593 27.1154C7.24981 28.0874 7.88572 29.0232 8.85768 29.2041C8.96625 29.2248 9.07999 29.2351 9.19373 29.2351C10.0519 29.2351 10.7912 28.6251 10.9515 27.7824L11.7891 23.3879H17.3985L16.6902 27.1103C16.5041 28.0822 17.1452 29.018 18.1119 29.1989C18.2205 29.2196 18.3342 29.23 18.448 29.23C19.3062 29.23 20.0455 28.6199 20.2058 27.7772L21.0433 23.3827H24.9208C25.6963 23.3827 26.3891 22.8916 26.6424 22.1574C26.9733 21.2062 26.4666 20.1722 25.5153 19.8413C25.3241 19.7741 25.1224 19.7431 24.9208 19.7431H21.7361L23.163 12.2466H26.1771C26.9526 12.2466 27.6454 11.7554 27.8987 11.0265C28.2296 10.0752 27.7229 9.0412 26.7716 8.71032C26.57 8.64828 26.3684 8.61209 26.1668 8.61209ZM18.0861 19.7482H12.4715L13.8984 12.2518H19.5078L18.0861 19.7482Z" fill="#594E4E"/>
</svg>
