<svg width="82" height="56" viewBox="0 0 82 56" fill="none" xmlns="http://www.w3.org/2000/svg">
<mask id="path-1-inside-1_896_59230" fill="white">
<path d="M13 24H69V54C69 55.1046 68.1046 56 67 56H15C13.8954 56 13 55.1046 13 54V24Z"/>
</mask>
<path d="M13 24H69H13ZM70 54C70 55.6569 68.6569 57 67 57H15C13.3431 57 12 55.6569 12 54H14C14 54.5523 14.4477 55 15 55H67C67.5523 55 68 54.5523 68 54H70ZM15 57C13.3431 57 12 55.6569 12 54V24H14V54C14 54.5523 14.4477 55 15 55V57ZM70 24V54C70 55.6569 68.6569 57 67 57V55C67.5523 55 68 54.5523 68 54V24H70Z" fill="#FABD00" mask="url(#path-1-inside-1_896_59230)"/>
<path d="M23.3826 45.154C22.58 45.154 21.9033 45.0233 21.3526 44.762C20.802 44.4913 20.382 44.1413 20.0926 43.712C19.8126 43.2827 19.6633 42.8253 19.6446 42.34C19.6353 42.256 19.6586 42.1907 19.7146 42.144C19.78 42.088 19.8546 42.06 19.9386 42.06H21.2406C21.3433 42.06 21.4273 42.0833 21.4926 42.13C21.5673 42.1673 21.6233 42.2373 21.6606 42.34C21.754 42.62 21.8846 42.8487 22.0526 43.026C22.23 43.2033 22.4306 43.334 22.6546 43.418C22.888 43.502 23.1306 43.544 23.3826 43.544C23.7186 43.544 24.022 43.4787 24.2926 43.348C24.5726 43.208 24.7966 43.0027 24.9646 42.732C25.1326 42.4613 25.2166 42.13 25.2166 41.738C25.2166 41.3927 25.1373 41.094 24.9786 40.842C24.82 40.59 24.6006 40.394 24.3206 40.254C24.05 40.1047 23.7373 40.03 23.3826 40.03C23.1213 40.03 22.9066 40.0627 22.7386 40.128C22.5706 40.1933 22.426 40.268 22.3046 40.352C22.1926 40.436 22.09 40.5107 21.9966 40.576C21.9126 40.6413 21.8146 40.674 21.7026 40.674H20.4146C20.3306 40.674 20.256 40.646 20.1906 40.59C20.1346 40.5247 20.1066 40.45 20.1066 40.366L20.5966 35.578C20.606 35.4567 20.648 35.3633 20.7226 35.298C20.7973 35.2327 20.886 35.2 20.9886 35.2H26.2526C26.346 35.2 26.4253 35.2327 26.4906 35.298C26.556 35.3633 26.5886 35.4427 26.5886 35.536V36.474C26.5886 36.5673 26.556 36.6467 26.4906 36.712C26.4253 36.7773 26.346 36.81 26.2526 36.81H22.2066L21.9826 39.092C22.1506 38.98 22.3746 38.8727 22.6546 38.77C22.9346 38.6673 23.322 38.616 23.8166 38.616C24.2646 38.616 24.6893 38.6907 25.0906 38.84C25.5013 38.98 25.8653 39.19 26.1826 39.47C26.5 39.7407 26.7473 40.072 26.9246 40.464C27.1113 40.8467 27.2046 41.2853 27.2046 41.78C27.2046 42.4613 27.046 43.054 26.7286 43.558C26.4113 44.062 25.968 44.454 25.3986 44.734C24.8293 45.014 24.1573 45.154 23.3826 45.154ZM32.4075 45C32.3142 45 32.2348 44.9673 32.1695 44.902C32.1042 44.8367 32.0715 44.7573 32.0715 44.664V35.55C32.0715 35.4473 32.1042 35.3633 32.1695 35.298C32.2348 35.2327 32.3142 35.2 32.4075 35.2H35.8235C36.7662 35.2 37.5408 35.3447 38.1475 35.634C38.7635 35.9233 39.2255 36.3527 39.5335 36.922C39.8508 37.4913 40.0142 38.1867 40.0235 39.008C40.0422 39.4187 40.0515 39.7827 40.0515 40.1C40.0515 40.4173 40.0422 40.7767 40.0235 41.178C40.0048 42.046 39.8462 42.7647 39.5475 43.334C39.2488 43.894 38.7962 44.314 38.1895 44.594C37.5922 44.8647 36.8268 45 35.8935 45H32.4075ZM34.0175 43.39H35.8235C36.3462 43.39 36.7708 43.3153 37.0975 43.166C37.4242 43.0167 37.6622 42.7787 37.8115 42.452C37.9702 42.116 38.0542 41.6773 38.0635 41.136C38.0728 40.856 38.0775 40.6133 38.0775 40.408C38.0868 40.1933 38.0868 39.9833 38.0775 39.778C38.0775 39.5633 38.0728 39.3207 38.0635 39.05C38.0448 38.2847 37.8535 37.72 37.4895 37.356C37.1255 36.992 36.5468 36.81 35.7535 36.81H34.0175V43.39ZM43.8612 45.14C43.3759 45.14 42.9372 45.0467 42.5452 44.86C42.1532 44.664 41.8406 44.4073 41.6072 44.09C41.3832 43.7633 41.2712 43.3993 41.2712 42.998C41.2712 42.3447 41.5326 41.8267 42.0552 41.444C42.5872 41.052 43.2872 40.7907 44.1552 40.66L46.0732 40.38V40.086C46.0732 39.694 45.9752 39.3907 45.7792 39.176C45.5832 38.9613 45.2472 38.854 44.7712 38.854C44.4352 38.854 44.1599 38.924 43.9452 39.064C43.7399 39.1947 43.5859 39.372 43.4832 39.596C43.4086 39.7173 43.3012 39.778 43.1612 39.778H42.0552C41.9526 39.778 41.8732 39.75 41.8172 39.694C41.7706 39.638 41.7472 39.5633 41.7472 39.47C41.7566 39.3207 41.8172 39.1387 41.9292 38.924C42.0412 38.7093 42.2186 38.504 42.4612 38.308C42.7039 38.1027 43.0166 37.93 43.3992 37.79C43.7819 37.65 44.2439 37.58 44.7852 37.58C45.3732 37.58 45.8679 37.6547 46.2692 37.804C46.6799 37.944 47.0066 38.1353 47.2492 38.378C47.4919 38.6207 47.6692 38.9053 47.7812 39.232C47.8932 39.5587 47.9492 39.904 47.9492 40.268V44.664C47.9492 44.7573 47.9166 44.8367 47.8512 44.902C47.7859 44.9673 47.7066 45 47.6132 45H46.4792C46.3766 45 46.2926 44.9673 46.2272 44.902C46.1712 44.8367 46.1432 44.7573 46.1432 44.664V44.118C46.0219 44.2953 45.8586 44.4633 45.6532 44.622C45.4479 44.7713 45.1959 44.8973 44.8972 45C44.6079 45.0933 44.2626 45.14 43.8612 45.14ZM44.3372 43.81C44.6639 43.81 44.9579 43.74 45.2192 43.6C45.4899 43.46 45.6999 43.2453 45.8492 42.956C46.0079 42.6573 46.0872 42.284 46.0872 41.836V41.542L44.6872 41.766C44.1366 41.85 43.7259 41.9853 43.4552 42.172C43.1846 42.3587 43.0492 42.5873 43.0492 42.858C43.0492 43.0633 43.1099 43.2407 43.2312 43.39C43.3619 43.53 43.5252 43.6373 43.7212 43.712C43.9172 43.7773 44.1226 43.81 44.3372 43.81ZM50.8699 47.66C50.7952 47.66 50.7299 47.632 50.6739 47.576C50.6179 47.52 50.5899 47.4547 50.5899 47.38C50.5899 47.3427 50.5899 47.3053 50.5899 47.268C50.5992 47.24 50.6179 47.2027 50.6459 47.156L51.7379 44.566L49.0499 38.224C49.0125 38.1307 48.9939 38.0653 48.9939 38.028C49.0032 37.944 49.0359 37.874 49.0919 37.818C49.1479 37.7527 49.2179 37.72 49.3019 37.72H50.4359C50.5479 37.72 50.6319 37.748 50.6879 37.804C50.7439 37.86 50.7859 37.9207 50.8139 37.986L52.6759 42.564L54.5939 37.986C54.6219 37.9113 54.6639 37.8507 54.7199 37.804C54.7759 37.748 54.8599 37.72 54.9719 37.72H56.0919C56.1665 37.72 56.2319 37.748 56.2879 37.804C56.3532 37.86 56.3859 37.9253 56.3859 38C56.3859 38.056 56.3672 38.1307 56.3299 38.224L52.3679 47.394C52.3305 47.4687 52.2839 47.5293 52.2279 47.576C52.1719 47.632 52.0879 47.66 51.9759 47.66H50.8699ZM60.1322 45.14C59.5722 45.14 59.0915 45.0747 58.6902 44.944C58.2982 44.8133 57.9762 44.65 57.7242 44.454C57.4722 44.258 57.2855 44.062 57.1642 43.866C57.0429 43.67 56.9775 43.5067 56.9682 43.376C56.9589 43.2733 56.9869 43.194 57.0522 43.138C57.1269 43.0727 57.2062 43.04 57.2902 43.04H58.3962C58.4335 43.04 58.4662 43.0447 58.4942 43.054C58.5222 43.0633 58.5595 43.0913 58.6062 43.138C58.7275 43.2407 58.8535 43.348 58.9842 43.46C59.1242 43.572 59.2875 43.67 59.4742 43.754C59.6609 43.8287 59.8942 43.866 60.1742 43.866C60.5382 43.866 60.8415 43.796 61.0842 43.656C61.3362 43.5067 61.4622 43.2967 61.4622 43.026C61.4622 42.83 61.4062 42.6713 61.2942 42.55C61.1915 42.4287 60.9955 42.3213 60.7062 42.228C60.4169 42.1253 60.0062 42.018 59.4742 41.906C58.9515 41.7847 58.5175 41.6307 58.1722 41.444C57.8269 41.2573 57.5702 41.024 57.4022 40.744C57.2342 40.464 57.1502 40.1373 57.1502 39.764C57.1502 39.4 57.2575 39.0547 57.4722 38.728C57.6962 38.392 58.0229 38.1167 58.4522 37.902C58.8909 37.6873 59.4322 37.58 60.0762 37.58C60.5802 37.58 61.0189 37.6453 61.3922 37.776C61.7655 37.8973 62.0735 38.0513 62.3162 38.238C62.5682 38.4247 62.7595 38.616 62.8902 38.812C63.0209 38.9987 63.0909 39.162 63.1002 39.302C63.1095 39.4047 63.0815 39.4887 63.0162 39.554C62.9509 39.61 62.8762 39.638 62.7922 39.638H61.7562C61.7095 39.638 61.6675 39.6287 61.6302 39.61C61.5929 39.5913 61.5555 39.568 61.5182 39.54C61.4155 39.4467 61.3035 39.3487 61.1822 39.246C61.0609 39.1433 60.9115 39.0547 60.7342 38.98C60.5662 38.896 60.3422 38.854 60.0622 38.854C59.7075 38.854 59.4369 38.9333 59.2502 39.092C59.0635 39.2413 58.9702 39.4327 58.9702 39.666C58.9702 39.8247 59.0122 39.9647 59.0962 40.086C59.1895 40.198 59.3715 40.3053 59.6422 40.408C59.9129 40.5107 60.3235 40.618 60.8742 40.73C61.4995 40.842 61.9942 41.01 62.3582 41.234C62.7315 41.4487 62.9929 41.7007 63.1422 41.99C63.3009 42.27 63.3802 42.5827 63.3802 42.928C63.3802 43.348 63.2542 43.726 63.0022 44.062C62.7595 44.398 62.3955 44.664 61.9102 44.86C61.4342 45.0467 60.8415 45.14 60.1322 45.14Z" fill="#FABD00"/>
<path fill-rule="evenodd" clip-rule="evenodd" d="M54.52 7.54519H61.1C63.1974 7.57171 65.2007 8.43103 66.6783 9.9381C68.156 11.4452 68.9897 13.4794 69 15.6026V22H13V15.6431C13 13.4954 13.8428 11.4357 15.3431 9.91702C16.8434 8.39837 18.8783 7.54519 21 7.54519H27.64V2.36252C27.6965 1.71739 27.9896 1.11707 28.4615 0.679797C28.9335 0.242523 29.5502 0 30.1901 0C30.8299 0 31.4465 0.242523 31.9185 0.679797C32.3904 1.11707 32.6835 1.71739 32.74 2.36252V7.54519H49.42V2.36252C49.4765 1.71739 49.7696 1.11707 50.2416 0.679797C50.7136 0.242523 51.3302 0 51.97 0C52.6098 0 53.2265 0.242523 53.6985 0.679797C54.1705 1.11707 54.4635 1.71739 54.52 2.36252V7.54519ZM25 19C26.1046 19 27 18.1046 27 17C27 15.8954 26.1046 15 25 15C23.8954 15 23 15.8954 23 17C23 18.1046 23.8954 19 25 19ZM35 17C35 18.1046 34.1046 19 33 19C31.8954 19 31 18.1046 31 17C31 15.8954 31.8954 15 33 15C34.1046 15 35 15.8954 35 17ZM41 19C42.1046 19 43 18.1046 43 17C43 15.8954 42.1046 15 41 15C39.8954 15 39 15.8954 39 17C39 18.1046 39.8954 19 41 19ZM51 17C51 18.1046 50.1046 19 49 19C47.8954 19 47 18.1046 47 17C47 15.8954 47.8954 15 49 15C50.1046 15 51 15.8954 51 17ZM57 19C58.1046 19 59 18.1046 59 17C59 15.8954 58.1046 15 57 15C55.8954 15 55 15.8954 55 17C55 18.1046 55.8954 19 57 19Z" fill="#FABD00"/>
<path d="M7.49912 36.55H12V38.0501H7.49912V36.55Z" fill="#FABD00"/>
<path d="M0 36.55H5.99929V38.0501H0V36.55Z" fill="#FABD00"/>
<path d="M77.8621 34.8277L78.6897 34L82 37.3108L81.1724 38.1385L77.8621 34.8277Z" fill="#FABD00"/>
<path d="M81.1724 36.4831L82 37.3108L78.6897 40.6216L77.8621 39.7939L81.1724 36.4831Z" fill="#FABD00"/>
<path d="M70 36.55H77.4942V38.0501H70V36.55Z" fill="#FABD00"/>
</svg>
