<svg width="16" height="16" viewBox="0 0 16 16" fill="none" xmlns="http://www.w3.org/2000/svg">
<path d="M9.36371 4.04204C9.30766 3.98599 9.21678 3.98599 9.16074 4.04204L8.55182 4.65096C8.49577 4.707 8.49577 4.79788 8.55182 4.85393L12.4083 8.71041C12.4643 8.76646 12.5552 8.76646 12.6113 8.71041L13.2202 8.10149C13.2762 8.04544 13.2762 7.95457 13.2202 7.89852L9.36371 4.04204Z" fill="#BFB6B6"/>
<path d="M13.2202 8.10149C13.2762 8.04544 13.2762 7.95457 13.2202 7.89852L12.6113 7.28959C12.5552 7.23354 12.4643 7.23354 12.4083 7.28959L8.5518 11.1461C8.49575 11.2021 8.49575 11.293 8.5518 11.349L9.16072 11.958C9.21677 12.014 9.30764 12.014 9.36369 11.958L13.2202 8.10149Z" fill="#BFB6B6"/>
<path d="M3.85394 4.04204C3.79789 3.98599 3.70702 3.98599 3.65097 4.04204L3.04205 4.65096C2.986 4.707 2.986 4.79788 3.04205 4.85393L6.89853 8.71041C6.95458 8.76646 7.04546 8.76646 7.10151 8.71041L7.71042 8.10149C7.76647 8.04544 7.76647 7.95457 7.71042 7.89852L3.85394 4.04204Z" fill="#BFB6B6"/>
<path d="M7.71042 8.10149C7.76647 8.04544 7.76647 7.95457 7.71042 7.89852L7.10149 7.28959C7.04544 7.23354 6.95457 7.23354 6.89852 7.28959L3.04204 11.1461C2.98599 11.2021 2.98599 11.293 3.04204 11.349L3.65096 11.958C3.707 12.014 3.79788 12.014 3.85393 11.958L7.71042 8.10149Z" fill="#BFB6B6"/>
</svg>
