<svg width="32" height="32" viewBox="0 0 32 32" fill="none" xmlns="http://www.w3.org/2000/svg">
<path d="M0.25 0.25H31.5C31.6381 0.25 31.75 0.361929 31.75 0.5V31.5C31.75 31.6381 31.6381 31.75 31.5 31.75H0.25V0.25Z" fill="white" fill-opacity="0.5" stroke="#594E4E" stroke-width="0.5"/>
<path fill-rule="evenodd" clip-rule="evenodd" d="M7.00045 14.803C6.99488 13.7837 7.19017 12.7733 7.57515 11.8295C7.96014 10.8857 8.52728 10.0269 9.2442 9.30229C9.96111 8.57769 10.8137 8.00137 11.7534 7.60633C12.6931 7.2113 13.7013 7.0053 14.7206 7C15.7366 7.0002 16.7424 7.20246 17.6795 7.59491C18.6165 7.98736 19.4662 8.5622 20.1791 9.28603C21.629 10.7561 22.4412 12.7383 22.4399 14.803C22.451 15.8238 22.2594 16.8366 21.8764 17.7829C21.4934 18.7291 20.9265 19.59 20.2086 20.3157C19.4906 21.0415 18.6359 21.6176 17.6938 22.0108C16.7517 22.404 15.741 22.6065 14.7202 22.6065C13.6993 22.6065 12.6886 22.404 11.7466 22.0108C10.8045 21.6176 9.94974 21.0415 9.2318 20.3157C8.51386 19.59 7.94698 18.7291 7.56397 17.7829C7.18096 16.8366 6.98943 15.8238 7.00045 14.803ZM22.3121 21.085L24.6116 22.948H24.6512C24.8747 23.1746 25 23.4802 25 23.7985C25 24.1168 24.8747 24.4223 24.6512 24.649C24.541 24.7602 24.4097 24.8485 24.2652 24.9088C24.1206 24.9691 23.9655 25.0001 23.8088 25.0001C23.6522 25.0001 23.4971 24.9691 23.3525 24.9088C23.2079 24.8485 23.0767 24.7602 22.9664 24.649L21.0584 22.462C20.8785 22.2798 20.7773 22.0341 20.7767 21.778C20.7772 21.5192 20.8782 21.2707 21.0584 21.085C21.2256 20.9205 21.4507 20.8283 21.6853 20.8283C21.9198 20.8283 22.145 20.9205 22.3121 21.085Z" fill="#594E4E"/>
</svg>
