<svg width="32" height="32" viewBox="0 0 32 32" fill="none" xmlns="http://www.w3.org/2000/svg">
<path d="M0 0H31C31.5523 0 32 0.447715 32 1V32H1C0.447715 32 0 31.5523 0 31V0Z" fill="#594E4E"/>
<path d="M9.13822 18.0125C9.04059 18.1102 9.04059 18.2685 9.13822 18.3661L10.1989 19.4268C10.2965 19.5244 10.4548 19.5244 10.5524 19.4268L17.2699 12.7092C17.3676 12.6116 17.3676 12.4533 17.2699 12.3557L16.2093 11.295C16.1117 11.1974 15.9534 11.1974 15.8557 11.295L9.13822 18.0125Z" fill="#F2EDED"/>
<path d="M16.2093 11.295C16.1117 11.1974 15.9534 11.1974 15.8557 11.295L14.795 12.3557C14.6974 12.4533 14.6974 12.6116 14.795 12.7093L21.5126 19.4268C21.6102 19.5244 21.7685 19.5244 21.8661 19.4268L22.9268 18.3661C23.0244 18.2685 23.0244 18.1102 22.9268 18.0126L16.2093 11.295Z" fill="#F2EDED"/>
</svg>
