<svg width="16" height="16" viewBox="0 0 16 16" fill="none" xmlns="http://www.w3.org/2000/svg">
<path d="M1.13822 10.0125C1.04059 10.1102 1.04059 10.2685 1.13822 10.3661L2.19888 11.4268C2.29651 11.5244 2.4548 11.5244 2.55243 11.4268L9.26995 4.70924C9.36758 4.61161 9.36758 4.45332 9.26994 4.35569L8.20928 3.29503C8.11165 3.19739 7.95336 3.19739 7.85573 3.29503L1.13822 10.0125Z" fill="#F2EDED"/>
<path d="M8.20928 3.29503C8.11165 3.19739 7.95336 3.19739 7.85573 3.29503L6.79505 4.35571C6.69742 4.45334 6.69742 4.61163 6.79505 4.70926L13.5126 11.4268C13.6102 11.5244 13.7685 11.5244 13.8661 11.4268L14.9268 10.3661C15.0244 10.2685 15.0244 10.1102 14.9268 10.0126L8.20928 3.29503Z" fill="#F2EDED"/>
</svg>
