<svg width="24" height="21" viewBox="0 0 24 21" fill="none" xmlns="http://www.w3.org/2000/svg">
<path d="M11.9999 14.1897C11.7949 14.1897 11.5989 14.1056 11.4579 13.9573L6.20795 8.44958C5.75295 7.97291 6.09095 7.1798 6.74995 7.1798L9.49995 7.1798L9.49995 1.42168C9.49995 0.731713 10.0609 0.169921 10.7499 0.169921L13.2499 0.169921C13.939 0.16992 14.4999 0.731712 14.4999 1.42168L14.4999 7.17979L17.2499 7.17979C17.909 7.17979 18.247 7.97291 17.7919 8.44958L12.5419 13.9573C12.4009 14.1056 12.2049 14.1897 11.9999 14.1897Z" fill="#594E4E"/>
<path opacity="0.3" d="M22.25 20.1951L1.75 20.1951C0.785001 20.1951 5.6291e-07 19.4089 3.93957e-07 18.4426L3.06411e-07 17.9419C1.37436e-07 16.9755 0.785 16.1895 1.75 16.1895L22.25 16.1894C23.2149 16.1894 24 16.9755 24 17.9419L24 18.4426C24 19.4089 23.2149 20.1951 22.25 20.1951Z" fill="#BFB6B6"/>
</svg>
