<svg width="40" height="40" viewBox="0 0 40 40" fill="none" xmlns="http://www.w3.org/2000/svg">
<rect width="40" height="40" rx="0.5" fill="white" fill-opacity="0.08"/>
<path fill-rule="evenodd" clip-rule="evenodd" d="M17.8063 22.7522C18.4537 23.1968 19.221 23.434 20.0063 23.4323C21.0434 23.4264 22.0358 23.0093 22.7657 22.2725C23.4956 21.5357 23.9033 20.5393 23.8993 19.5022C23.8967 18.7155 23.6626 17.9469 23.2263 17.2923L22.1623 18.3622C22.3542 18.7357 22.4478 19.1521 22.4341 19.5718C22.4205 19.9915 22.3001 20.4008 22.0844 20.7611C21.8686 21.1214 21.5645 21.4209 21.2009 21.631C20.8373 21.8411 20.4262 21.9551 20.0063 21.9622C19.6116 21.9642 19.2225 21.8681 18.8743 21.6823L17.8063 22.7522ZM26.4323 14.0523C27.9559 15.5036 29.153 17.2624 29.9443 19.2122C29.9834 19.3039 30.0035 19.4025 30.0035 19.5022C30.0035 19.6019 29.9834 19.7006 29.9443 19.7923C27.8563 24.6923 24.1443 27.6322 20.0023 27.6322H19.9923C18.091 27.6171 16.2432 27.0011 14.7133 25.8722L12.8203 27.7822C12.7535 27.852 12.6732 27.9074 12.5844 27.9452C12.4955 27.983 12.3999 28.0024 12.3033 28.0022C12.2066 28.0032 12.1107 27.9842 12.0218 27.9463C11.9328 27.9084 11.8526 27.8526 11.7863 27.7822C11.6676 27.6627 11.5939 27.5056 11.5779 27.3379C11.5618 27.1702 11.6044 27.0021 11.6983 26.8622L11.7273 26.8222L26.1593 12.2622C26.1783 12.2448 26.1944 12.2245 26.2073 12.2022C26.2266 12.1848 26.2431 12.1646 26.2563 12.1422L27.1733 11.2122C27.3125 11.0749 27.5006 10.9986 27.6961 11C27.8916 11.0014 28.0785 11.0805 28.2158 11.2197C28.353 11.359 28.4293 11.5471 28.4279 11.7426C28.4265 11.9381 28.3476 12.125 28.2083 12.2622L26.4323 14.0523ZM16.1013 19.5122C16.1044 19.7637 16.1275 20.0144 16.1703 20.2622L12.5593 23.9022C11.5204 22.6683 10.6773 21.2822 10.0593 19.7923C10.0202 19.7006 10 19.6019 10 19.5022C10 19.4025 10.0202 19.3039 10.0593 19.2122C12.1473 14.3122 15.8643 11.3922 19.9923 11.3922H20.0063C21.3965 11.3934 22.7669 11.7223 24.0063 12.3522L20.7473 15.6422C20.5024 15.5982 20.2542 15.5747 20.0053 15.5722C19.4906 15.5748 18.9814 15.6789 18.5068 15.8783C18.0323 16.0777 17.6017 16.3686 17.2396 16.7345C16.8776 17.1004 16.5911 17.534 16.3967 18.0106C16.2022 18.4872 16.1035 18.9975 16.1063 19.5122H16.1013Z" fill="white"/>
</svg>
