<svg width="40" height="40" viewBox="0 0 40 40" fill="none" xmlns="http://www.w3.org/2000/svg">
<path d="M0 0.999999C0 0.447714 0.447715 0 1 0H40V40H0.999999C0.447714 40 0 39.5523 0 39V0.999999Z" fill="#AD1519"/>
<path d="M9.44772 12.76C9.39439 12.76 9.34639 12.7414 9.30372 12.704C9.26639 12.6667 9.24772 12.6187 9.24772 12.56V8.58403L8.09572 9.47203C8.04772 9.50937 7.99705 9.5227 7.94372 9.51203C7.89572 9.50137 7.85305 9.47203 7.81572 9.42403L7.41572 8.90403C7.38372 8.85603 7.37039 8.80537 7.37572 8.75203C7.38639 8.6987 7.41572 8.65603 7.46372 8.62403L9.28772 7.21603C9.31972 7.1947 9.34905 7.18137 9.37572 7.17603C9.40772 7.16537 9.44239 7.16003 9.47972 7.16003H10.3277C10.3811 7.16003 10.4264 7.1787 10.4637 7.21603C10.5011 7.25337 10.5197 7.30137 10.5197 7.36003V12.56C10.5197 12.6187 10.5011 12.6667 10.4637 12.704C10.4264 12.7414 10.3811 12.76 10.3277 12.76H9.44772Z" fill="white"/>
<path d="M7.15463 22.76C7.09596 22.76 7.04796 22.7414 7.01063 22.704C6.97329 22.6667 6.95463 22.6187 6.95463 22.56V22.08C6.95463 22.0374 6.96529 21.9814 6.98663 21.912C7.01329 21.8374 7.06929 21.7654 7.15463 21.696L8.21063 20.648C8.59996 20.3494 8.91463 20.096 9.15463 19.888C9.39996 19.68 9.58129 19.4907 9.69863 19.32C9.81596 19.1494 9.87463 18.984 9.87463 18.824C9.87463 18.616 9.81596 18.4454 9.69863 18.312C9.58663 18.1734 9.40263 18.104 9.14663 18.104C8.97596 18.104 8.83196 18.1414 8.71463 18.216C8.60263 18.2854 8.51463 18.3787 8.45063 18.496C8.38663 18.6134 8.34396 18.7414 8.32263 18.88C8.30663 18.9494 8.27196 18.9974 8.21863 19.024C8.17063 19.0507 8.11996 19.064 8.06663 19.064H7.21863C7.16529 19.064 7.12262 19.048 7.09063 19.016C7.05863 18.9787 7.04263 18.9387 7.04263 18.896C7.04796 18.6507 7.09863 18.4187 7.19463 18.2C7.29596 17.9814 7.43729 17.7867 7.61863 17.616C7.79996 17.4454 8.01863 17.312 8.27463 17.216C8.53063 17.1147 8.82129 17.064 9.14663 17.064C9.59463 17.064 9.97063 17.1387 10.2746 17.288C10.5786 17.432 10.808 17.632 10.9626 17.888C11.1173 18.144 11.1946 18.44 11.1946 18.776C11.1946 19.032 11.1413 19.2694 11.0346 19.488C10.9333 19.7067 10.784 19.9174 10.5866 20.12C10.3893 20.3174 10.1546 20.5227 9.88263 20.736L8.93863 21.68H11.1146C11.1733 21.68 11.2213 21.6987 11.2586 21.736C11.296 21.7734 11.3146 21.8214 11.3146 21.88V22.56C11.3146 22.6187 11.296 22.6667 11.2586 22.704C11.2213 22.7414 11.1733 22.76 11.1146 22.76H7.15463Z" fill="white"/>
<path d="M9.11556 32.84C8.7209 32.84 8.38223 32.792 8.09956 32.696C7.8169 32.6 7.5849 32.4774 7.40356 32.328C7.22223 32.1787 7.08623 32.016 6.99556 31.84C6.9049 31.6587 6.8569 31.4854 6.85156 31.32C6.85156 31.272 6.86756 31.232 6.89956 31.2C6.93156 31.168 6.97156 31.152 7.01956 31.152H7.89956C7.95823 31.152 8.00623 31.1654 8.04356 31.192C8.0809 31.2134 8.11556 31.2534 8.14756 31.312C8.19023 31.4347 8.25956 31.5334 8.35556 31.608C8.45156 31.6827 8.56356 31.736 8.69156 31.768C8.8249 31.7947 8.96623 31.808 9.11556 31.808C9.41423 31.808 9.6489 31.7387 9.81956 31.6C9.99023 31.4614 10.0756 31.2667 10.0756 31.016C10.0756 30.76 9.99556 30.576 9.83556 30.464C9.67556 30.352 9.4489 30.296 9.15556 30.296H8.29956C8.24623 30.296 8.2009 30.2774 8.16356 30.24C8.12623 30.2027 8.10756 30.1574 8.10756 30.104V29.712C8.10756 29.648 8.11823 29.5947 8.13956 29.552C8.16623 29.5094 8.1929 29.4774 8.21956 29.456L9.59556 28.192H7.33956C7.2809 28.192 7.2329 28.1734 7.19556 28.136C7.15823 28.0987 7.13956 28.0534 7.13956 28V27.36C7.13956 27.3014 7.15823 27.2534 7.19556 27.216C7.2329 27.1787 7.2809 27.16 7.33956 27.16H10.8916C10.9502 27.16 10.9982 27.1787 11.0356 27.216C11.0729 27.2534 11.0916 27.3014 11.0916 27.36V27.936C11.0916 27.9947 11.0809 28.0454 11.0596 28.088C11.0382 28.1254 11.0116 28.1547 10.9796 28.176L9.67556 29.464L9.75556 29.472C10.0702 29.504 10.3502 29.5814 10.5956 29.704C10.8409 29.8267 11.0329 30.0027 11.1716 30.232C11.3156 30.456 11.3876 30.7414 11.3876 31.088C11.3876 31.4507 11.2889 31.7627 11.0916 32.024C10.8942 32.2854 10.6249 32.488 10.2836 32.632C9.94223 32.7707 9.5529 32.84 9.11556 32.84Z" fill="white"/>
<path d="M15.1458 9.51003C15.1458 9.37196 15.2577 9.26003 15.3958 9.26003H32.8958C33.0339 9.26003 33.1458 9.37196 33.1458 9.51003V11.01C33.1458 11.1481 33.0339 11.26 32.8958 11.26H15.3958C15.2577 11.26 15.1458 11.1481 15.1458 11.01V9.51003Z" fill="white"/>
<path d="M15.1458 19.51C15.1458 19.372 15.2577 19.26 15.3958 19.26H32.8958C33.0339 19.26 33.1458 19.372 33.1458 19.51V21.01C33.1458 21.1481 33.0339 21.26 32.8958 21.26H15.3958C15.2577 21.26 15.1458 21.1481 15.1458 21.01V19.51Z" fill="white"/>
<path d="M15.1458 29.01C15.1458 28.872 15.2577 28.76 15.3958 28.76H32.8958C33.0339 28.76 33.1458 28.872 33.1458 29.01V30.51C33.1458 30.6481 33.0339 30.76 32.8958 30.76H15.3958C15.2577 30.76 15.1458 30.6481 15.1458 30.51V29.01Z" fill="white"/>
</svg>
